G04 (created by PCBNEW-RS274X (2012-apr-16-27)-stable) date Tue 25 Mar 2014 09:11:57 PM EDT*
G01*
G70*
G90*
%MOIN*%
G04 Gerber Fmt 3.4, Leading zero omitted, Abs format*
%FSLAX34Y34*%
G04 APERTURE LIST*
%ADD10C,0.006000*%
%ADD11C,0.000400*%
%ADD12C,0.002000*%
%ADD13C,0.035000*%
%ADD14C,0.013000*%
%ADD15C,0.007000*%
%ADD16C,0.008000*%
%ADD17C,0.010000*%
G04 APERTURE END LIST*
G54D10*
G54D11*
X27953Y-19596D02*
X27953Y-23917D01*
X27165Y-18770D02*
X27953Y-19596D01*
X16890Y-18770D02*
X27165Y-18770D01*
X12205Y-19557D02*
X12205Y-23917D01*
X12992Y-18770D02*
X12205Y-19557D01*
X16890Y-18770D02*
X12992Y-18770D01*
X15748Y-27461D02*
X12205Y-23917D01*
X24409Y-27461D02*
X27953Y-23917D01*
X24016Y-27461D02*
X24409Y-27461D01*
X15748Y-27461D02*
X24016Y-27461D01*
G54D12*
X15748Y-27461D02*
X24016Y-27461D01*
G54D13*
X13632Y-20866D03*
X13022Y-21073D03*
X13031Y-21535D03*
G54D14*
X25384Y-19360D03*
X14439Y-19331D03*
X24405Y-19307D03*
X12687Y-19665D03*
X16260Y-24783D03*
X17815Y-20984D03*
X17579Y-21122D03*
X16319Y-24508D03*
X18701Y-21516D03*
X17087Y-23051D03*
X18602Y-21909D03*
X17736Y-23622D03*
X18986Y-24419D03*
X18996Y-22362D03*
X19980Y-22362D03*
X19469Y-24774D03*
X20197Y-22480D03*
X20945Y-22854D03*
X22146Y-23081D03*
X20295Y-21939D03*
X21788Y-24643D03*
X21132Y-21171D03*
X23868Y-23268D03*
X23809Y-24705D03*
X23612Y-20827D03*
X24114Y-23248D03*
X22953Y-20591D03*
X24400Y-22717D03*
X25394Y-24390D03*
X25827Y-22480D03*
X25669Y-24518D03*
X26319Y-22451D03*
X21949Y-25285D03*
X23120Y-21585D03*
X23612Y-22707D03*
X22254Y-25177D03*
X15728Y-22205D03*
X16732Y-25413D03*
X15965Y-21663D03*
X16732Y-25177D03*
X17559Y-24094D03*
X17047Y-21870D03*
X21949Y-25551D03*
X22943Y-21388D03*
X22441Y-25384D03*
X23819Y-22835D03*
X16594Y-20334D03*
X13878Y-23012D03*
X16181Y-20994D03*
X14154Y-23071D03*
X16083Y-24587D03*
X17402Y-21339D03*
X18150Y-21280D03*
X16594Y-24232D03*
X17343Y-23406D03*
X18150Y-21772D03*
X18858Y-21929D03*
X17579Y-23445D03*
X18937Y-22874D03*
X19252Y-24459D03*
X20039Y-22835D03*
X19469Y-24537D03*
X17028Y-21614D03*
X17362Y-24252D03*
X20778Y-21811D03*
X21083Y-23100D03*
X21024Y-21703D03*
X22215Y-22854D03*
X21900Y-24380D03*
X20876Y-21220D03*
X23652Y-23494D03*
X23642Y-24537D03*
X23730Y-21083D03*
X23967Y-23051D03*
X24409Y-22992D03*
X23248Y-20787D03*
X25354Y-24154D03*
X25443Y-22677D03*
X26083Y-22480D03*
X26093Y-24675D03*
X13898Y-22736D03*
X15118Y-20866D03*
X13957Y-23366D03*
X16103Y-21240D03*
X15984Y-19429D03*
X24272Y-26801D03*
X24035Y-19291D03*
X16299Y-26329D03*
X26152Y-23445D03*
X14488Y-21752D03*
X15098Y-19803D03*
X24262Y-21614D03*
X21614Y-22323D03*
X19488Y-23524D03*
X23120Y-24016D03*
X15571Y-23661D03*
X15522Y-26339D03*
X17618Y-22441D03*
X18740Y-24055D03*
X27106Y-23543D03*
X13465Y-21870D03*
X16594Y-22895D03*
X18583Y-22579D03*
X14606Y-23839D03*
X25226Y-21762D03*
X20512Y-22854D03*
X20256Y-24075D03*
X23297Y-21791D03*
X24094Y-24114D03*
X15916Y-26359D03*
X15551Y-19528D03*
X21821Y-23927D03*
X25197Y-23543D03*
X22598Y-22470D03*
X16732Y-23780D03*
X15472Y-21978D03*
G54D15*
X16161Y-21890D02*
X17067Y-20965D01*
X15787Y-24814D02*
X15768Y-24329D01*
X16260Y-24783D02*
X15787Y-24814D01*
X17579Y-20886D02*
X17815Y-20984D01*
X15768Y-24329D02*
X16181Y-24035D01*
X17067Y-20965D02*
X17579Y-20886D01*
X16181Y-24035D02*
X16161Y-21890D01*
X16378Y-23996D02*
X16378Y-21969D01*
X16378Y-21969D02*
X17185Y-21122D01*
X16319Y-24508D02*
X16379Y-24016D01*
X16379Y-24016D02*
X16378Y-23996D01*
X17185Y-21122D02*
X17579Y-21122D01*
X18406Y-21811D02*
X18130Y-22067D01*
X18701Y-21516D02*
X18543Y-21614D01*
X18130Y-22067D02*
X17283Y-22165D01*
X17283Y-22165D02*
X17087Y-23051D01*
X18543Y-21614D02*
X18406Y-21811D01*
X18445Y-22067D02*
X18602Y-21909D01*
X17736Y-23622D02*
X18248Y-23150D01*
X18248Y-23150D02*
X18248Y-22264D01*
X18248Y-22264D02*
X18445Y-22067D01*
X18986Y-24419D02*
X18986Y-24419D01*
X19075Y-24006D02*
X18986Y-24419D01*
X18976Y-22559D02*
X19154Y-22737D01*
X18957Y-23188D02*
X18957Y-23859D01*
X19154Y-22991D02*
X18957Y-23188D01*
X19154Y-22737D02*
X19154Y-22991D01*
X18986Y-24419D02*
X18986Y-24419D01*
X18957Y-23859D02*
X19075Y-24006D01*
X18996Y-22362D02*
X18976Y-22559D01*
X19724Y-22873D02*
X19724Y-22678D01*
X19469Y-24774D02*
X19843Y-24557D01*
X19843Y-24557D02*
X19843Y-22992D01*
X19724Y-22678D02*
X19980Y-22362D01*
X19843Y-22992D02*
X19724Y-22873D01*
X20728Y-22716D02*
X20344Y-22500D01*
X20728Y-22706D02*
X20728Y-22716D01*
X20344Y-22500D02*
X20197Y-22480D01*
X20945Y-22854D02*
X20728Y-22706D01*
X20295Y-21939D02*
X20295Y-21939D01*
X21614Y-23034D02*
X20590Y-22158D01*
X20295Y-21939D02*
X20295Y-21939D01*
X22146Y-23081D02*
X21614Y-23034D01*
X20550Y-22037D02*
X20295Y-21939D01*
X20590Y-22158D02*
X20550Y-22037D01*
X21788Y-24643D02*
X22155Y-24528D01*
X21398Y-21516D02*
X21132Y-21171D01*
X21614Y-21732D02*
X21398Y-21516D01*
X22362Y-24272D02*
X22352Y-23140D01*
X22815Y-22677D02*
X22815Y-22372D01*
X22352Y-23140D02*
X22815Y-22677D01*
X22155Y-24528D02*
X22362Y-24272D01*
X22815Y-22372D02*
X22175Y-21732D01*
X22175Y-21732D02*
X21614Y-21732D01*
X23868Y-23956D02*
X23868Y-23268D01*
X23868Y-23956D02*
X23868Y-24646D01*
X23868Y-24646D02*
X23809Y-24705D01*
X23612Y-21920D02*
X23612Y-21555D01*
X24114Y-23248D02*
X24193Y-23233D01*
X23612Y-21555D02*
X23534Y-21190D01*
X24193Y-22501D02*
X23612Y-21920D01*
X23515Y-20995D02*
X23612Y-20827D01*
X23534Y-21190D02*
X23515Y-20995D01*
X24193Y-23233D02*
X24193Y-22501D01*
X24705Y-22588D02*
X24705Y-22460D01*
X24705Y-22460D02*
X24882Y-22283D01*
X23720Y-20610D02*
X23413Y-20528D01*
X23110Y-20551D02*
X22953Y-20591D01*
X24882Y-21299D02*
X24518Y-20935D01*
X24518Y-20935D02*
X24045Y-20935D01*
X24882Y-22283D02*
X24882Y-21299D01*
X24045Y-20935D02*
X23720Y-20610D01*
X24400Y-22717D02*
X24705Y-22588D01*
X23413Y-20528D02*
X23110Y-20551D01*
X25925Y-22854D02*
X25857Y-22776D01*
X25857Y-22776D02*
X25827Y-22480D01*
X25394Y-24390D02*
X25709Y-24124D01*
X25719Y-23119D02*
X25817Y-23130D01*
X25709Y-24124D02*
X25719Y-23119D01*
X25817Y-23130D02*
X25925Y-22854D01*
X26437Y-24006D02*
X26722Y-23721D01*
X25669Y-24518D02*
X25987Y-24465D01*
X26722Y-23287D02*
X26466Y-22785D01*
X25987Y-24465D02*
X26437Y-24203D01*
X26437Y-24203D02*
X26437Y-24006D01*
X26466Y-22785D02*
X26319Y-22451D01*
X26722Y-23721D02*
X26722Y-23287D01*
X15965Y-21663D02*
X15965Y-21663D01*
X15984Y-22461D02*
X15965Y-21663D01*
X15138Y-25020D02*
X16732Y-25177D01*
X15984Y-22461D02*
X15039Y-23406D01*
X15039Y-23406D02*
X15138Y-25020D01*
X16870Y-22834D02*
X16870Y-23524D01*
X16870Y-23524D02*
X17559Y-24094D01*
X17047Y-21870D02*
X16890Y-22008D01*
X16890Y-22814D02*
X16870Y-22834D01*
X16890Y-22008D02*
X16890Y-22814D01*
X23031Y-22795D02*
X22539Y-23287D01*
X21732Y-25217D02*
X21683Y-25463D01*
X22864Y-21526D02*
X23031Y-22185D01*
X22608Y-24519D02*
X22086Y-24902D01*
G54D16*
X22864Y-21447D02*
X22943Y-21388D01*
G54D15*
X21683Y-25463D02*
X21949Y-25551D01*
X22539Y-23287D02*
X22608Y-24519D01*
X22086Y-24902D02*
X21899Y-25050D01*
G54D16*
X22864Y-21526D02*
X22864Y-21447D01*
G54D15*
X23031Y-22185D02*
X23031Y-22795D01*
X21899Y-25050D02*
X21732Y-25217D01*
X22589Y-24851D02*
X22441Y-25384D01*
X23642Y-23002D02*
X23504Y-23002D01*
X22834Y-24606D02*
X22589Y-24851D01*
X23819Y-22835D02*
X23642Y-23002D01*
X23435Y-24507D02*
X23336Y-24606D01*
X23336Y-24606D02*
X22834Y-24606D01*
X23435Y-23071D02*
X23435Y-24507D01*
X23504Y-23002D02*
X23435Y-23071D01*
X13898Y-22736D02*
X14537Y-22451D01*
X15134Y-21641D02*
X15118Y-20866D01*
X14537Y-22451D02*
X15134Y-21641D01*
X15768Y-21240D02*
X16103Y-21240D01*
X14449Y-23071D02*
X14499Y-22776D01*
X13957Y-23366D02*
X14154Y-23366D01*
X14154Y-23366D02*
X14449Y-23071D01*
X14499Y-22776D02*
X15768Y-21240D01*
G54D10*
G36*
X27607Y-23827D02*
X27421Y-24011D01*
X27421Y-23606D01*
X27421Y-23481D01*
X27373Y-23365D01*
X27285Y-23276D01*
X27169Y-23228D01*
X27044Y-23228D01*
X27000Y-23246D01*
X26994Y-23225D01*
X26985Y-23178D01*
X26979Y-23169D01*
X26976Y-23157D01*
X26727Y-22670D01*
X26727Y-22669D01*
X26634Y-22458D01*
X26634Y-22389D01*
X26586Y-22273D01*
X26498Y-22184D01*
X26382Y-22136D01*
X26257Y-22136D01*
X26166Y-22173D01*
X26146Y-22165D01*
X26021Y-22165D01*
X25955Y-22192D01*
X25890Y-22165D01*
X25765Y-22165D01*
X25649Y-22213D01*
X25560Y-22301D01*
X25541Y-22345D01*
X25541Y-21825D01*
X25541Y-21700D01*
X25493Y-21584D01*
X25405Y-21495D01*
X25289Y-21447D01*
X25167Y-21447D01*
X25167Y-21299D01*
X25166Y-21298D01*
X25167Y-21298D01*
X25163Y-21279D01*
X25145Y-21190D01*
X25084Y-21097D01*
X25081Y-21095D01*
X24720Y-20733D01*
X24627Y-20672D01*
X24518Y-20649D01*
X24513Y-20650D01*
X24163Y-20650D01*
X23922Y-20408D01*
X23903Y-20395D01*
X23893Y-20384D01*
X23862Y-20369D01*
X23829Y-20347D01*
X23808Y-20342D01*
X23793Y-20335D01*
X23487Y-20253D01*
X23436Y-20249D01*
X23391Y-20244D01*
X23089Y-20267D01*
X23065Y-20273D01*
X23040Y-20275D01*
X23023Y-20279D01*
X23016Y-20276D01*
X22891Y-20276D01*
X22775Y-20324D01*
X22686Y-20412D01*
X22638Y-20528D01*
X22638Y-20653D01*
X22686Y-20769D01*
X22774Y-20858D01*
X22890Y-20906D01*
X22956Y-20906D01*
X22981Y-20965D01*
X23069Y-21054D01*
X23185Y-21102D01*
X23238Y-21102D01*
X23250Y-21217D01*
X23254Y-21232D01*
X23255Y-21250D01*
X23266Y-21304D01*
X23245Y-21295D01*
X23210Y-21210D01*
X23122Y-21121D01*
X23006Y-21073D01*
X22881Y-21073D01*
X22765Y-21121D01*
X22676Y-21209D01*
X22663Y-21238D01*
X22659Y-21242D01*
X22638Y-21272D01*
X22615Y-21299D01*
X22608Y-21317D01*
X22596Y-21336D01*
X22588Y-21373D01*
X22577Y-21406D01*
X22578Y-21426D01*
X22574Y-21447D01*
X22574Y-21526D01*
X22588Y-21596D01*
X22596Y-21637D01*
X22599Y-21642D01*
X22637Y-21790D01*
X22377Y-21530D01*
X22284Y-21469D01*
X22175Y-21446D01*
X22170Y-21447D01*
X21732Y-21447D01*
X21606Y-21320D01*
X21447Y-21112D01*
X21447Y-21109D01*
X21399Y-20993D01*
X21311Y-20904D01*
X21195Y-20856D01*
X21070Y-20856D01*
X20954Y-20904D01*
X20948Y-20909D01*
X20939Y-20905D01*
X20814Y-20905D01*
X20698Y-20953D01*
X20609Y-21041D01*
X20561Y-21157D01*
X20561Y-21282D01*
X20609Y-21398D01*
X20697Y-21487D01*
X20718Y-21496D01*
X20716Y-21496D01*
X20600Y-21544D01*
X20511Y-21632D01*
X20488Y-21686D01*
X20474Y-21672D01*
X20358Y-21624D01*
X20233Y-21624D01*
X20117Y-21672D01*
X20028Y-21760D01*
X19980Y-21876D01*
X19980Y-22001D01*
X19999Y-22047D01*
X19918Y-22047D01*
X19802Y-22095D01*
X19713Y-22183D01*
X19665Y-22297D01*
X19503Y-22499D01*
X19486Y-22530D01*
X19461Y-22569D01*
X19458Y-22583D01*
X19451Y-22597D01*
X19446Y-22639D01*
X19439Y-22678D01*
X19439Y-22736D01*
X19417Y-22628D01*
X19356Y-22535D01*
X19353Y-22533D01*
X19291Y-22471D01*
X19311Y-22425D01*
X19311Y-22300D01*
X19263Y-22184D01*
X19175Y-22095D01*
X19136Y-22079D01*
X19173Y-21992D01*
X19173Y-21867D01*
X19125Y-21751D01*
X19037Y-21662D01*
X18989Y-21642D01*
X19016Y-21579D01*
X19016Y-21454D01*
X18968Y-21338D01*
X18880Y-21249D01*
X18764Y-21201D01*
X18639Y-21201D01*
X18523Y-21249D01*
X18465Y-21306D01*
X18465Y-21218D01*
X18417Y-21102D01*
X18329Y-21013D01*
X18213Y-20965D01*
X18130Y-20965D01*
X18130Y-20922D01*
X18082Y-20806D01*
X17994Y-20717D01*
X17878Y-20669D01*
X17799Y-20669D01*
X17689Y-20623D01*
X17667Y-20618D01*
X17646Y-20609D01*
X17611Y-20607D01*
X17579Y-20601D01*
X17558Y-20605D01*
X17535Y-20604D01*
X17023Y-20683D01*
X16984Y-20697D01*
X16955Y-20704D01*
X16939Y-20714D01*
X16919Y-20722D01*
X16909Y-20730D01*
X16909Y-20397D01*
X16909Y-20272D01*
X16861Y-20156D01*
X16773Y-20067D01*
X16657Y-20019D01*
X16532Y-20019D01*
X16416Y-20067D01*
X16327Y-20155D01*
X16279Y-20271D01*
X16279Y-20396D01*
X16327Y-20512D01*
X16415Y-20601D01*
X16531Y-20649D01*
X16656Y-20649D01*
X16772Y-20601D01*
X16861Y-20513D01*
X16909Y-20397D01*
X16909Y-20730D01*
X16890Y-20747D01*
X16863Y-20766D01*
X16418Y-21220D01*
X16418Y-21202D01*
X16448Y-21173D01*
X16496Y-21057D01*
X16496Y-20932D01*
X16448Y-20816D01*
X16360Y-20727D01*
X16244Y-20679D01*
X16119Y-20679D01*
X16003Y-20727D01*
X15914Y-20815D01*
X15866Y-20931D01*
X15866Y-19591D01*
X15866Y-19466D01*
X15818Y-19350D01*
X15730Y-19261D01*
X15614Y-19213D01*
X15489Y-19213D01*
X15373Y-19261D01*
X15284Y-19349D01*
X15236Y-19465D01*
X15236Y-19519D01*
X15161Y-19488D01*
X15036Y-19488D01*
X14920Y-19536D01*
X14831Y-19624D01*
X14783Y-19740D01*
X14783Y-19865D01*
X14831Y-19981D01*
X14919Y-20070D01*
X15035Y-20118D01*
X15160Y-20118D01*
X15276Y-20070D01*
X15365Y-19982D01*
X15413Y-19866D01*
X15413Y-19811D01*
X15488Y-19843D01*
X15613Y-19843D01*
X15729Y-19795D01*
X15818Y-19707D01*
X15866Y-19591D01*
X15866Y-20931D01*
X15866Y-20955D01*
X15768Y-20955D01*
X15752Y-20958D01*
X15742Y-20957D01*
X15712Y-20966D01*
X15659Y-20977D01*
X15642Y-20988D01*
X15636Y-20990D01*
X15620Y-21002D01*
X15566Y-21038D01*
X15555Y-21053D01*
X15549Y-21059D01*
X15410Y-21226D01*
X15405Y-20994D01*
X15433Y-20929D01*
X15433Y-20804D01*
X15385Y-20688D01*
X15297Y-20599D01*
X15181Y-20551D01*
X15056Y-20551D01*
X14940Y-20599D01*
X14851Y-20687D01*
X14803Y-20803D01*
X14803Y-20928D01*
X14835Y-21007D01*
X14847Y-21550D01*
X14781Y-21639D01*
X14755Y-21574D01*
X14667Y-21485D01*
X14551Y-21437D01*
X14426Y-21437D01*
X14310Y-21485D01*
X14221Y-21573D01*
X14173Y-21689D01*
X14173Y-21814D01*
X14221Y-21930D01*
X14309Y-22019D01*
X14425Y-22067D01*
X14466Y-22067D01*
X14352Y-22221D01*
X14057Y-22352D01*
X14057Y-20951D01*
X14057Y-20782D01*
X13993Y-20626D01*
X13873Y-20506D01*
X13717Y-20441D01*
X13548Y-20441D01*
X13392Y-20505D01*
X13272Y-20625D01*
X13239Y-20703D01*
X13107Y-20648D01*
X12938Y-20648D01*
X12782Y-20712D01*
X12662Y-20832D01*
X12597Y-20988D01*
X12597Y-21157D01*
X12661Y-21313D01*
X12662Y-21314D01*
X12606Y-21450D01*
X12606Y-21619D01*
X12670Y-21775D01*
X12790Y-21895D01*
X12946Y-21960D01*
X13115Y-21960D01*
X13154Y-21943D01*
X13198Y-22048D01*
X13286Y-22137D01*
X13402Y-22185D01*
X13527Y-22185D01*
X13643Y-22137D01*
X13732Y-22049D01*
X13780Y-21933D01*
X13780Y-21808D01*
X13732Y-21692D01*
X13644Y-21603D01*
X13528Y-21555D01*
X13456Y-21555D01*
X13456Y-21451D01*
X13392Y-21295D01*
X13390Y-21293D01*
X13414Y-21235D01*
X13547Y-21291D01*
X13716Y-21291D01*
X13872Y-21227D01*
X13992Y-21107D01*
X14057Y-20951D01*
X14057Y-22352D01*
X13905Y-22421D01*
X13836Y-22421D01*
X13720Y-22469D01*
X13631Y-22557D01*
X13583Y-22673D01*
X13583Y-22798D01*
X13604Y-22849D01*
X13563Y-22949D01*
X13563Y-23074D01*
X13611Y-23190D01*
X13665Y-23245D01*
X13642Y-23303D01*
X13642Y-23428D01*
X13690Y-23544D01*
X13778Y-23633D01*
X13894Y-23681D01*
X14019Y-23681D01*
X14091Y-23651D01*
X14149Y-23651D01*
X14154Y-23652D01*
X14154Y-23651D01*
X14263Y-23629D01*
X14356Y-23568D01*
X14650Y-23273D01*
X14668Y-23245D01*
X14690Y-23222D01*
X14698Y-23200D01*
X14712Y-23180D01*
X14718Y-23147D01*
X14730Y-23119D01*
X14767Y-22899D01*
X15304Y-22249D01*
X15409Y-22293D01*
X15423Y-22293D01*
X15461Y-22383D01*
X15549Y-22472D01*
X15563Y-22478D01*
X14837Y-23204D01*
X14831Y-23211D01*
X14825Y-23217D01*
X14801Y-23258D01*
X14776Y-23297D01*
X14774Y-23305D01*
X14770Y-23313D01*
X14765Y-23348D01*
X14753Y-23406D01*
X14755Y-23418D01*
X14755Y-23423D01*
X14763Y-23563D01*
X14669Y-23524D01*
X14544Y-23524D01*
X14428Y-23572D01*
X14339Y-23660D01*
X14291Y-23776D01*
X14291Y-23901D01*
X14339Y-24017D01*
X14427Y-24106D01*
X14543Y-24154D01*
X14668Y-24154D01*
X14784Y-24106D01*
X14795Y-24094D01*
X14853Y-25037D01*
X14862Y-25073D01*
X14866Y-25103D01*
X14875Y-25121D01*
X14882Y-25145D01*
X14901Y-25171D01*
X14917Y-25201D01*
X14933Y-25214D01*
X14948Y-25234D01*
X14981Y-25253D01*
X15004Y-25271D01*
X15024Y-25277D01*
X15045Y-25289D01*
X15074Y-25293D01*
X15110Y-25304D01*
X16417Y-25431D01*
X16417Y-25475D01*
X16465Y-25591D01*
X16553Y-25680D01*
X16669Y-25728D01*
X16794Y-25728D01*
X16910Y-25680D01*
X16999Y-25592D01*
X17047Y-25476D01*
X17047Y-25351D01*
X17024Y-25295D01*
X17047Y-25240D01*
X17047Y-25115D01*
X16999Y-24999D01*
X16911Y-24910D01*
X16795Y-24862D01*
X16670Y-24862D01*
X16626Y-24879D01*
X16563Y-24873D01*
X16575Y-24846D01*
X16575Y-24721D01*
X16568Y-24704D01*
X16586Y-24687D01*
X16634Y-24571D01*
X16634Y-24547D01*
X16656Y-24547D01*
X16772Y-24499D01*
X16861Y-24411D01*
X16909Y-24295D01*
X16909Y-24170D01*
X16865Y-24065D01*
X16910Y-24047D01*
X16975Y-23981D01*
X17092Y-24078D01*
X17047Y-24189D01*
X17047Y-24314D01*
X17095Y-24430D01*
X17183Y-24519D01*
X17299Y-24567D01*
X17424Y-24567D01*
X17540Y-24519D01*
X17629Y-24431D01*
X17641Y-24400D01*
X17737Y-24361D01*
X17826Y-24273D01*
X17874Y-24157D01*
X17874Y-24032D01*
X17829Y-23924D01*
X17914Y-23889D01*
X18003Y-23801D01*
X18028Y-23739D01*
X18441Y-23359D01*
X18442Y-23356D01*
X18450Y-23352D01*
X18489Y-23292D01*
X18506Y-23269D01*
X18506Y-23265D01*
X18511Y-23259D01*
X18521Y-23207D01*
X18533Y-23161D01*
X18532Y-23154D01*
X18533Y-23150D01*
X18533Y-22894D01*
X18622Y-22894D01*
X18622Y-22936D01*
X18670Y-23052D01*
X18695Y-23077D01*
X18694Y-23079D01*
X18671Y-23188D01*
X18672Y-23192D01*
X18672Y-23742D01*
X18562Y-23788D01*
X18473Y-23876D01*
X18425Y-23992D01*
X18425Y-24117D01*
X18473Y-24233D01*
X18561Y-24322D01*
X18671Y-24367D01*
X18671Y-24481D01*
X18719Y-24597D01*
X18807Y-24686D01*
X18923Y-24734D01*
X19048Y-24734D01*
X19071Y-24724D01*
X19073Y-24726D01*
X19154Y-24759D01*
X19154Y-24836D01*
X19202Y-24952D01*
X19290Y-25041D01*
X19406Y-25089D01*
X19531Y-25089D01*
X19647Y-25041D01*
X19736Y-24953D01*
X19738Y-24947D01*
X19986Y-24804D01*
X20012Y-24780D01*
X20045Y-24759D01*
X20057Y-24740D01*
X20069Y-24730D01*
X20085Y-24697D01*
X20106Y-24666D01*
X20109Y-24650D01*
X20119Y-24631D01*
X20121Y-24590D01*
X20128Y-24557D01*
X20128Y-24363D01*
X20193Y-24390D01*
X20318Y-24390D01*
X20434Y-24342D01*
X20523Y-24254D01*
X20571Y-24138D01*
X20571Y-24013D01*
X20523Y-23897D01*
X20435Y-23808D01*
X20319Y-23760D01*
X20194Y-23760D01*
X20128Y-23787D01*
X20128Y-23138D01*
X20217Y-23102D01*
X20266Y-23053D01*
X20333Y-23121D01*
X20449Y-23169D01*
X20574Y-23169D01*
X20690Y-23121D01*
X20728Y-23083D01*
X20766Y-23121D01*
X20768Y-23121D01*
X20768Y-23162D01*
X20816Y-23278D01*
X20904Y-23367D01*
X21020Y-23415D01*
X21145Y-23415D01*
X21261Y-23367D01*
X21350Y-23279D01*
X21379Y-23207D01*
X21429Y-23250D01*
X21453Y-23263D01*
X21482Y-23286D01*
X21507Y-23293D01*
X21526Y-23304D01*
X21553Y-23307D01*
X21589Y-23318D01*
X21975Y-23351D01*
X22069Y-23390D01*
X22072Y-23733D01*
X22000Y-23660D01*
X21884Y-23612D01*
X21759Y-23612D01*
X21643Y-23660D01*
X21554Y-23748D01*
X21506Y-23864D01*
X21506Y-23989D01*
X21554Y-24105D01*
X21641Y-24193D01*
X21633Y-24201D01*
X21585Y-24317D01*
X21585Y-24400D01*
X21521Y-24464D01*
X21473Y-24580D01*
X21473Y-24705D01*
X21521Y-24821D01*
X21609Y-24910D01*
X21627Y-24917D01*
X21530Y-25015D01*
X21513Y-25040D01*
X21495Y-25059D01*
X21484Y-25083D01*
X21469Y-25108D01*
X21462Y-25138D01*
X21453Y-25162D01*
X21404Y-25407D01*
X21404Y-25441D01*
X21399Y-25484D01*
X21404Y-25502D01*
X21404Y-25518D01*
X21417Y-25552D01*
X21428Y-25591D01*
X21437Y-25602D01*
X21445Y-25622D01*
X21478Y-25654D01*
X21497Y-25678D01*
X21510Y-25685D01*
X21525Y-25700D01*
X21560Y-25714D01*
X21594Y-25734D01*
X21732Y-25779D01*
X21770Y-25818D01*
X21886Y-25866D01*
X22011Y-25866D01*
X22127Y-25818D01*
X22216Y-25730D01*
X22252Y-25641D01*
X22262Y-25651D01*
X22378Y-25699D01*
X22503Y-25699D01*
X22619Y-25651D01*
X22708Y-25563D01*
X22756Y-25447D01*
X22756Y-25322D01*
X22754Y-25319D01*
X22842Y-25001D01*
X22952Y-24891D01*
X23331Y-24891D01*
X23336Y-24892D01*
X23336Y-24891D01*
X23445Y-24869D01*
X23512Y-24824D01*
X23518Y-24827D01*
X23542Y-24883D01*
X23630Y-24972D01*
X23746Y-25020D01*
X23871Y-25020D01*
X23987Y-24972D01*
X24076Y-24884D01*
X24124Y-24768D01*
X24124Y-24765D01*
X24131Y-24755D01*
X24153Y-24646D01*
X24153Y-24429D01*
X24156Y-24429D01*
X24272Y-24381D01*
X24361Y-24293D01*
X24409Y-24177D01*
X24409Y-24052D01*
X24361Y-23936D01*
X24273Y-23847D01*
X24157Y-23799D01*
X24153Y-23799D01*
X24153Y-23563D01*
X24176Y-23563D01*
X24292Y-23515D01*
X24327Y-23479D01*
X24329Y-23478D01*
X24349Y-23471D01*
X24368Y-23452D01*
X24395Y-23435D01*
X24409Y-23412D01*
X24429Y-23394D01*
X24440Y-23365D01*
X24456Y-23342D01*
X24461Y-23313D01*
X24464Y-23307D01*
X24471Y-23307D01*
X24587Y-23259D01*
X24676Y-23171D01*
X24724Y-23055D01*
X24724Y-22930D01*
X24709Y-22895D01*
X24814Y-22851D01*
X24816Y-22851D01*
X24861Y-22819D01*
X24907Y-22790D01*
X24908Y-22788D01*
X24919Y-22770D01*
X24968Y-22697D01*
X24970Y-22696D01*
X24986Y-22606D01*
X24990Y-22588D01*
X24990Y-22586D01*
X24990Y-22578D01*
X25081Y-22486D01*
X25083Y-22485D01*
X25084Y-22485D01*
X25145Y-22392D01*
X25167Y-22283D01*
X25167Y-22077D01*
X25288Y-22077D01*
X25404Y-22029D01*
X25493Y-21941D01*
X25541Y-21825D01*
X25541Y-22345D01*
X25530Y-22372D01*
X25506Y-22362D01*
X25381Y-22362D01*
X25265Y-22410D01*
X25176Y-22498D01*
X25128Y-22614D01*
X25128Y-22739D01*
X25176Y-22855D01*
X25264Y-22944D01*
X25380Y-22992D01*
X25466Y-22992D01*
X25464Y-22996D01*
X25458Y-23007D01*
X25450Y-23040D01*
X25436Y-23087D01*
X25437Y-23104D01*
X25435Y-23116D01*
X25432Y-23333D01*
X25376Y-23276D01*
X25260Y-23228D01*
X25135Y-23228D01*
X25019Y-23276D01*
X24930Y-23364D01*
X24882Y-23480D01*
X24882Y-23605D01*
X24930Y-23721D01*
X25018Y-23810D01*
X25134Y-23858D01*
X25246Y-23858D01*
X25176Y-23887D01*
X25087Y-23975D01*
X25039Y-24091D01*
X25039Y-24216D01*
X25081Y-24319D01*
X25079Y-24327D01*
X25079Y-24452D01*
X25127Y-24568D01*
X25215Y-24657D01*
X25331Y-24705D01*
X25410Y-24705D01*
X25490Y-24785D01*
X25606Y-24833D01*
X25731Y-24833D01*
X25805Y-24802D01*
X25826Y-24853D01*
X25914Y-24942D01*
X26030Y-24990D01*
X26155Y-24990D01*
X26271Y-24942D01*
X26360Y-24854D01*
X26408Y-24738D01*
X26408Y-24613D01*
X26386Y-24562D01*
X26580Y-24450D01*
X26606Y-24426D01*
X26639Y-24405D01*
X26651Y-24386D01*
X26663Y-24376D01*
X26678Y-24344D01*
X26700Y-24312D01*
X26703Y-24295D01*
X26713Y-24276D01*
X26715Y-24237D01*
X26722Y-24203D01*
X26722Y-24124D01*
X26921Y-23924D01*
X26923Y-23923D01*
X26924Y-23923D01*
X26982Y-23833D01*
X27043Y-23858D01*
X27168Y-23858D01*
X27284Y-23810D01*
X27373Y-23722D01*
X27421Y-23606D01*
X27421Y-24011D01*
X24270Y-27135D01*
X15887Y-27125D01*
X15400Y-26629D01*
X15459Y-26654D01*
X15584Y-26654D01*
X15700Y-26606D01*
X15708Y-26597D01*
X15737Y-26626D01*
X15853Y-26674D01*
X15978Y-26674D01*
X16094Y-26626D01*
X16183Y-26538D01*
X16231Y-26422D01*
X16231Y-26297D01*
X16183Y-26181D01*
X16095Y-26092D01*
X15979Y-26044D01*
X15854Y-26044D01*
X15738Y-26092D01*
X15729Y-26100D01*
X15701Y-26072D01*
X15585Y-26024D01*
X15460Y-26024D01*
X15344Y-26072D01*
X15255Y-26160D01*
X15207Y-26276D01*
X15207Y-26401D01*
X15229Y-26456D01*
X12550Y-23730D01*
X12550Y-19949D01*
X12624Y-19980D01*
X12749Y-19980D01*
X12865Y-19932D01*
X12954Y-19844D01*
X13002Y-19728D01*
X13002Y-19603D01*
X12954Y-19487D01*
X12866Y-19398D01*
X12796Y-19369D01*
X13101Y-19085D01*
X14239Y-19085D01*
X14172Y-19152D01*
X14124Y-19268D01*
X14124Y-19393D01*
X14172Y-19509D01*
X14260Y-19598D01*
X14376Y-19646D01*
X14501Y-19646D01*
X14617Y-19598D01*
X14706Y-19510D01*
X14754Y-19394D01*
X14754Y-19269D01*
X14706Y-19153D01*
X14638Y-19085D01*
X24181Y-19085D01*
X24138Y-19128D01*
X24090Y-19244D01*
X24090Y-19369D01*
X24138Y-19485D01*
X24226Y-19574D01*
X24342Y-19622D01*
X24467Y-19622D01*
X24583Y-19574D01*
X24672Y-19486D01*
X24720Y-19370D01*
X24720Y-19245D01*
X24672Y-19129D01*
X24628Y-19085D01*
X25225Y-19085D01*
X25206Y-19093D01*
X25117Y-19181D01*
X25069Y-19297D01*
X25069Y-19422D01*
X25117Y-19538D01*
X25205Y-19627D01*
X25321Y-19675D01*
X25446Y-19675D01*
X25562Y-19627D01*
X25651Y-19539D01*
X25699Y-19423D01*
X25699Y-19298D01*
X25651Y-19182D01*
X25563Y-19093D01*
X25543Y-19085D01*
X27047Y-19085D01*
X27607Y-19617D01*
X27607Y-23827D01*
X27607Y-23827D01*
G37*
G54D17*
X27607Y-23827D02*
X27421Y-24011D01*
X27421Y-23606D01*
X27421Y-23481D01*
X27373Y-23365D01*
X27285Y-23276D01*
X27169Y-23228D01*
X27044Y-23228D01*
X27000Y-23246D01*
X26994Y-23225D01*
X26985Y-23178D01*
X26979Y-23169D01*
X26976Y-23157D01*
X26727Y-22670D01*
X26727Y-22669D01*
X26634Y-22458D01*
X26634Y-22389D01*
X26586Y-22273D01*
X26498Y-22184D01*
X26382Y-22136D01*
X26257Y-22136D01*
X26166Y-22173D01*
X26146Y-22165D01*
X26021Y-22165D01*
X25955Y-22192D01*
X25890Y-22165D01*
X25765Y-22165D01*
X25649Y-22213D01*
X25560Y-22301D01*
X25541Y-22345D01*
X25541Y-21825D01*
X25541Y-21700D01*
X25493Y-21584D01*
X25405Y-21495D01*
X25289Y-21447D01*
X25167Y-21447D01*
X25167Y-21299D01*
X25166Y-21298D01*
X25167Y-21298D01*
X25163Y-21279D01*
X25145Y-21190D01*
X25084Y-21097D01*
X25081Y-21095D01*
X24720Y-20733D01*
X24627Y-20672D01*
X24518Y-20649D01*
X24513Y-20650D01*
X24163Y-20650D01*
X23922Y-20408D01*
X23903Y-20395D01*
X23893Y-20384D01*
X23862Y-20369D01*
X23829Y-20347D01*
X23808Y-20342D01*
X23793Y-20335D01*
X23487Y-20253D01*
X23436Y-20249D01*
X23391Y-20244D01*
X23089Y-20267D01*
X23065Y-20273D01*
X23040Y-20275D01*
X23023Y-20279D01*
X23016Y-20276D01*
X22891Y-20276D01*
X22775Y-20324D01*
X22686Y-20412D01*
X22638Y-20528D01*
X22638Y-20653D01*
X22686Y-20769D01*
X22774Y-20858D01*
X22890Y-20906D01*
X22956Y-20906D01*
X22981Y-20965D01*
X23069Y-21054D01*
X23185Y-21102D01*
X23238Y-21102D01*
X23250Y-21217D01*
X23254Y-21232D01*
X23255Y-21250D01*
X23266Y-21304D01*
X23245Y-21295D01*
X23210Y-21210D01*
X23122Y-21121D01*
X23006Y-21073D01*
X22881Y-21073D01*
X22765Y-21121D01*
X22676Y-21209D01*
X22663Y-21238D01*
X22659Y-21242D01*
X22638Y-21272D01*
X22615Y-21299D01*
X22608Y-21317D01*
X22596Y-21336D01*
X22588Y-21373D01*
X22577Y-21406D01*
X22578Y-21426D01*
X22574Y-21447D01*
X22574Y-21526D01*
X22588Y-21596D01*
X22596Y-21637D01*
X22599Y-21642D01*
X22637Y-21790D01*
X22377Y-21530D01*
X22284Y-21469D01*
X22175Y-21446D01*
X22170Y-21447D01*
X21732Y-21447D01*
X21606Y-21320D01*
X21447Y-21112D01*
X21447Y-21109D01*
X21399Y-20993D01*
X21311Y-20904D01*
X21195Y-20856D01*
X21070Y-20856D01*
X20954Y-20904D01*
X20948Y-20909D01*
X20939Y-20905D01*
X20814Y-20905D01*
X20698Y-20953D01*
X20609Y-21041D01*
X20561Y-21157D01*
X20561Y-21282D01*
X20609Y-21398D01*
X20697Y-21487D01*
X20718Y-21496D01*
X20716Y-21496D01*
X20600Y-21544D01*
X20511Y-21632D01*
X20488Y-21686D01*
X20474Y-21672D01*
X20358Y-21624D01*
X20233Y-21624D01*
X20117Y-21672D01*
X20028Y-21760D01*
X19980Y-21876D01*
X19980Y-22001D01*
X19999Y-22047D01*
X19918Y-22047D01*
X19802Y-22095D01*
X19713Y-22183D01*
X19665Y-22297D01*
X19503Y-22499D01*
X19486Y-22530D01*
X19461Y-22569D01*
X19458Y-22583D01*
X19451Y-22597D01*
X19446Y-22639D01*
X19439Y-22678D01*
X19439Y-22736D01*
X19417Y-22628D01*
X19356Y-22535D01*
X19353Y-22533D01*
X19291Y-22471D01*
X19311Y-22425D01*
X19311Y-22300D01*
X19263Y-22184D01*
X19175Y-22095D01*
X19136Y-22079D01*
X19173Y-21992D01*
X19173Y-21867D01*
X19125Y-21751D01*
X19037Y-21662D01*
X18989Y-21642D01*
X19016Y-21579D01*
X19016Y-21454D01*
X18968Y-21338D01*
X18880Y-21249D01*
X18764Y-21201D01*
X18639Y-21201D01*
X18523Y-21249D01*
X18465Y-21306D01*
X18465Y-21218D01*
X18417Y-21102D01*
X18329Y-21013D01*
X18213Y-20965D01*
X18130Y-20965D01*
X18130Y-20922D01*
X18082Y-20806D01*
X17994Y-20717D01*
X17878Y-20669D01*
X17799Y-20669D01*
X17689Y-20623D01*
X17667Y-20618D01*
X17646Y-20609D01*
X17611Y-20607D01*
X17579Y-20601D01*
X17558Y-20605D01*
X17535Y-20604D01*
X17023Y-20683D01*
X16984Y-20697D01*
X16955Y-20704D01*
X16939Y-20714D01*
X16919Y-20722D01*
X16909Y-20730D01*
X16909Y-20397D01*
X16909Y-20272D01*
X16861Y-20156D01*
X16773Y-20067D01*
X16657Y-20019D01*
X16532Y-20019D01*
X16416Y-20067D01*
X16327Y-20155D01*
X16279Y-20271D01*
X16279Y-20396D01*
X16327Y-20512D01*
X16415Y-20601D01*
X16531Y-20649D01*
X16656Y-20649D01*
X16772Y-20601D01*
X16861Y-20513D01*
X16909Y-20397D01*
X16909Y-20730D01*
X16890Y-20747D01*
X16863Y-20766D01*
X16418Y-21220D01*
X16418Y-21202D01*
X16448Y-21173D01*
X16496Y-21057D01*
X16496Y-20932D01*
X16448Y-20816D01*
X16360Y-20727D01*
X16244Y-20679D01*
X16119Y-20679D01*
X16003Y-20727D01*
X15914Y-20815D01*
X15866Y-20931D01*
X15866Y-19591D01*
X15866Y-19466D01*
X15818Y-19350D01*
X15730Y-19261D01*
X15614Y-19213D01*
X15489Y-19213D01*
X15373Y-19261D01*
X15284Y-19349D01*
X15236Y-19465D01*
X15236Y-19519D01*
X15161Y-19488D01*
X15036Y-19488D01*
X14920Y-19536D01*
X14831Y-19624D01*
X14783Y-19740D01*
X14783Y-19865D01*
X14831Y-19981D01*
X14919Y-20070D01*
X15035Y-20118D01*
X15160Y-20118D01*
X15276Y-20070D01*
X15365Y-19982D01*
X15413Y-19866D01*
X15413Y-19811D01*
X15488Y-19843D01*
X15613Y-19843D01*
X15729Y-19795D01*
X15818Y-19707D01*
X15866Y-19591D01*
X15866Y-20931D01*
X15866Y-20955D01*
X15768Y-20955D01*
X15752Y-20958D01*
X15742Y-20957D01*
X15712Y-20966D01*
X15659Y-20977D01*
X15642Y-20988D01*
X15636Y-20990D01*
X15620Y-21002D01*
X15566Y-21038D01*
X15555Y-21053D01*
X15549Y-21059D01*
X15410Y-21226D01*
X15405Y-20994D01*
X15433Y-20929D01*
X15433Y-20804D01*
X15385Y-20688D01*
X15297Y-20599D01*
X15181Y-20551D01*
X15056Y-20551D01*
X14940Y-20599D01*
X14851Y-20687D01*
X14803Y-20803D01*
X14803Y-20928D01*
X14835Y-21007D01*
X14847Y-21550D01*
X14781Y-21639D01*
X14755Y-21574D01*
X14667Y-21485D01*
X14551Y-21437D01*
X14426Y-21437D01*
X14310Y-21485D01*
X14221Y-21573D01*
X14173Y-21689D01*
X14173Y-21814D01*
X14221Y-21930D01*
X14309Y-22019D01*
X14425Y-22067D01*
X14466Y-22067D01*
X14352Y-22221D01*
X14057Y-22352D01*
X14057Y-20951D01*
X14057Y-20782D01*
X13993Y-20626D01*
X13873Y-20506D01*
X13717Y-20441D01*
X13548Y-20441D01*
X13392Y-20505D01*
X13272Y-20625D01*
X13239Y-20703D01*
X13107Y-20648D01*
X12938Y-20648D01*
X12782Y-20712D01*
X12662Y-20832D01*
X12597Y-20988D01*
X12597Y-21157D01*
X12661Y-21313D01*
X12662Y-21314D01*
X12606Y-21450D01*
X12606Y-21619D01*
X12670Y-21775D01*
X12790Y-21895D01*
X12946Y-21960D01*
X13115Y-21960D01*
X13154Y-21943D01*
X13198Y-22048D01*
X13286Y-22137D01*
X13402Y-22185D01*
X13527Y-22185D01*
X13643Y-22137D01*
X13732Y-22049D01*
X13780Y-21933D01*
X13780Y-21808D01*
X13732Y-21692D01*
X13644Y-21603D01*
X13528Y-21555D01*
X13456Y-21555D01*
X13456Y-21451D01*
X13392Y-21295D01*
X13390Y-21293D01*
X13414Y-21235D01*
X13547Y-21291D01*
X13716Y-21291D01*
X13872Y-21227D01*
X13992Y-21107D01*
X14057Y-20951D01*
X14057Y-22352D01*
X13905Y-22421D01*
X13836Y-22421D01*
X13720Y-22469D01*
X13631Y-22557D01*
X13583Y-22673D01*
X13583Y-22798D01*
X13604Y-22849D01*
X13563Y-22949D01*
X13563Y-23074D01*
X13611Y-23190D01*
X13665Y-23245D01*
X13642Y-23303D01*
X13642Y-23428D01*
X13690Y-23544D01*
X13778Y-23633D01*
X13894Y-23681D01*
X14019Y-23681D01*
X14091Y-23651D01*
X14149Y-23651D01*
X14154Y-23652D01*
X14154Y-23651D01*
X14263Y-23629D01*
X14356Y-23568D01*
X14650Y-23273D01*
X14668Y-23245D01*
X14690Y-23222D01*
X14698Y-23200D01*
X14712Y-23180D01*
X14718Y-23147D01*
X14730Y-23119D01*
X14767Y-22899D01*
X15304Y-22249D01*
X15409Y-22293D01*
X15423Y-22293D01*
X15461Y-22383D01*
X15549Y-22472D01*
X15563Y-22478D01*
X14837Y-23204D01*
X14831Y-23211D01*
X14825Y-23217D01*
X14801Y-23258D01*
X14776Y-23297D01*
X14774Y-23305D01*
X14770Y-23313D01*
X14765Y-23348D01*
X14753Y-23406D01*
X14755Y-23418D01*
X14755Y-23423D01*
X14763Y-23563D01*
X14669Y-23524D01*
X14544Y-23524D01*
X14428Y-23572D01*
X14339Y-23660D01*
X14291Y-23776D01*
X14291Y-23901D01*
X14339Y-24017D01*
X14427Y-24106D01*
X14543Y-24154D01*
X14668Y-24154D01*
X14784Y-24106D01*
X14795Y-24094D01*
X14853Y-25037D01*
X14862Y-25073D01*
X14866Y-25103D01*
X14875Y-25121D01*
X14882Y-25145D01*
X14901Y-25171D01*
X14917Y-25201D01*
X14933Y-25214D01*
X14948Y-25234D01*
X14981Y-25253D01*
X15004Y-25271D01*
X15024Y-25277D01*
X15045Y-25289D01*
X15074Y-25293D01*
X15110Y-25304D01*
X16417Y-25431D01*
X16417Y-25475D01*
X16465Y-25591D01*
X16553Y-25680D01*
X16669Y-25728D01*
X16794Y-25728D01*
X16910Y-25680D01*
X16999Y-25592D01*
X17047Y-25476D01*
X17047Y-25351D01*
X17024Y-25295D01*
X17047Y-25240D01*
X17047Y-25115D01*
X16999Y-24999D01*
X16911Y-24910D01*
X16795Y-24862D01*
X16670Y-24862D01*
X16626Y-24879D01*
X16563Y-24873D01*
X16575Y-24846D01*
X16575Y-24721D01*
X16568Y-24704D01*
X16586Y-24687D01*
X16634Y-24571D01*
X16634Y-24547D01*
X16656Y-24547D01*
X16772Y-24499D01*
X16861Y-24411D01*
X16909Y-24295D01*
X16909Y-24170D01*
X16865Y-24065D01*
X16910Y-24047D01*
X16975Y-23981D01*
X17092Y-24078D01*
X17047Y-24189D01*
X17047Y-24314D01*
X17095Y-24430D01*
X17183Y-24519D01*
X17299Y-24567D01*
X17424Y-24567D01*
X17540Y-24519D01*
X17629Y-24431D01*
X17641Y-24400D01*
X17737Y-24361D01*
X17826Y-24273D01*
X17874Y-24157D01*
X17874Y-24032D01*
X17829Y-23924D01*
X17914Y-23889D01*
X18003Y-23801D01*
X18028Y-23739D01*
X18441Y-23359D01*
X18442Y-23356D01*
X18450Y-23352D01*
X18489Y-23292D01*
X18506Y-23269D01*
X18506Y-23265D01*
X18511Y-23259D01*
X18521Y-23207D01*
X18533Y-23161D01*
X18532Y-23154D01*
X18533Y-23150D01*
X18533Y-22894D01*
X18622Y-22894D01*
X18622Y-22936D01*
X18670Y-23052D01*
X18695Y-23077D01*
X18694Y-23079D01*
X18671Y-23188D01*
X18672Y-23192D01*
X18672Y-23742D01*
X18562Y-23788D01*
X18473Y-23876D01*
X18425Y-23992D01*
X18425Y-24117D01*
X18473Y-24233D01*
X18561Y-24322D01*
X18671Y-24367D01*
X18671Y-24481D01*
X18719Y-24597D01*
X18807Y-24686D01*
X18923Y-24734D01*
X19048Y-24734D01*
X19071Y-24724D01*
X19073Y-24726D01*
X19154Y-24759D01*
X19154Y-24836D01*
X19202Y-24952D01*
X19290Y-25041D01*
X19406Y-25089D01*
X19531Y-25089D01*
X19647Y-25041D01*
X19736Y-24953D01*
X19738Y-24947D01*
X19986Y-24804D01*
X20012Y-24780D01*
X20045Y-24759D01*
X20057Y-24740D01*
X20069Y-24730D01*
X20085Y-24697D01*
X20106Y-24666D01*
X20109Y-24650D01*
X20119Y-24631D01*
X20121Y-24590D01*
X20128Y-24557D01*
X20128Y-24363D01*
X20193Y-24390D01*
X20318Y-24390D01*
X20434Y-24342D01*
X20523Y-24254D01*
X20571Y-24138D01*
X20571Y-24013D01*
X20523Y-23897D01*
X20435Y-23808D01*
X20319Y-23760D01*
X20194Y-23760D01*
X20128Y-23787D01*
X20128Y-23138D01*
X20217Y-23102D01*
X20266Y-23053D01*
X20333Y-23121D01*
X20449Y-23169D01*
X20574Y-23169D01*
X20690Y-23121D01*
X20728Y-23083D01*
X20766Y-23121D01*
X20768Y-23121D01*
X20768Y-23162D01*
X20816Y-23278D01*
X20904Y-23367D01*
X21020Y-23415D01*
X21145Y-23415D01*
X21261Y-23367D01*
X21350Y-23279D01*
X21379Y-23207D01*
X21429Y-23250D01*
X21453Y-23263D01*
X21482Y-23286D01*
X21507Y-23293D01*
X21526Y-23304D01*
X21553Y-23307D01*
X21589Y-23318D01*
X21975Y-23351D01*
X22069Y-23390D01*
X22072Y-23733D01*
X22000Y-23660D01*
X21884Y-23612D01*
X21759Y-23612D01*
X21643Y-23660D01*
X21554Y-23748D01*
X21506Y-23864D01*
X21506Y-23989D01*
X21554Y-24105D01*
X21641Y-24193D01*
X21633Y-24201D01*
X21585Y-24317D01*
X21585Y-24400D01*
X21521Y-24464D01*
X21473Y-24580D01*
X21473Y-24705D01*
X21521Y-24821D01*
X21609Y-24910D01*
X21627Y-24917D01*
X21530Y-25015D01*
X21513Y-25040D01*
X21495Y-25059D01*
X21484Y-25083D01*
X21469Y-25108D01*
X21462Y-25138D01*
X21453Y-25162D01*
X21404Y-25407D01*
X21404Y-25441D01*
X21399Y-25484D01*
X21404Y-25502D01*
X21404Y-25518D01*
X21417Y-25552D01*
X21428Y-25591D01*
X21437Y-25602D01*
X21445Y-25622D01*
X21478Y-25654D01*
X21497Y-25678D01*
X21510Y-25685D01*
X21525Y-25700D01*
X21560Y-25714D01*
X21594Y-25734D01*
X21732Y-25779D01*
X21770Y-25818D01*
X21886Y-25866D01*
X22011Y-25866D01*
X22127Y-25818D01*
X22216Y-25730D01*
X22252Y-25641D01*
X22262Y-25651D01*
X22378Y-25699D01*
X22503Y-25699D01*
X22619Y-25651D01*
X22708Y-25563D01*
X22756Y-25447D01*
X22756Y-25322D01*
X22754Y-25319D01*
X22842Y-25001D01*
X22952Y-24891D01*
X23331Y-24891D01*
X23336Y-24892D01*
X23336Y-24891D01*
X23445Y-24869D01*
X23512Y-24824D01*
X23518Y-24827D01*
X23542Y-24883D01*
X23630Y-24972D01*
X23746Y-25020D01*
X23871Y-25020D01*
X23987Y-24972D01*
X24076Y-24884D01*
X24124Y-24768D01*
X24124Y-24765D01*
X24131Y-24755D01*
X24153Y-24646D01*
X24153Y-24429D01*
X24156Y-24429D01*
X24272Y-24381D01*
X24361Y-24293D01*
X24409Y-24177D01*
X24409Y-24052D01*
X24361Y-23936D01*
X24273Y-23847D01*
X24157Y-23799D01*
X24153Y-23799D01*
X24153Y-23563D01*
X24176Y-23563D01*
X24292Y-23515D01*
X24327Y-23479D01*
X24329Y-23478D01*
X24349Y-23471D01*
X24368Y-23452D01*
X24395Y-23435D01*
X24409Y-23412D01*
X24429Y-23394D01*
X24440Y-23365D01*
X24456Y-23342D01*
X24461Y-23313D01*
X24464Y-23307D01*
X24471Y-23307D01*
X24587Y-23259D01*
X24676Y-23171D01*
X24724Y-23055D01*
X24724Y-22930D01*
X24709Y-22895D01*
X24814Y-22851D01*
X24816Y-22851D01*
X24861Y-22819D01*
X24907Y-22790D01*
X24908Y-22788D01*
X24919Y-22770D01*
X24968Y-22697D01*
X24970Y-22696D01*
X24986Y-22606D01*
X24990Y-22588D01*
X24990Y-22586D01*
X24990Y-22578D01*
X25081Y-22486D01*
X25083Y-22485D01*
X25084Y-22485D01*
X25145Y-22392D01*
X25167Y-22283D01*
X25167Y-22077D01*
X25288Y-22077D01*
X25404Y-22029D01*
X25493Y-21941D01*
X25541Y-21825D01*
X25541Y-22345D01*
X25530Y-22372D01*
X25506Y-22362D01*
X25381Y-22362D01*
X25265Y-22410D01*
X25176Y-22498D01*
X25128Y-22614D01*
X25128Y-22739D01*
X25176Y-22855D01*
X25264Y-22944D01*
X25380Y-22992D01*
X25466Y-22992D01*
X25464Y-22996D01*
X25458Y-23007D01*
X25450Y-23040D01*
X25436Y-23087D01*
X25437Y-23104D01*
X25435Y-23116D01*
X25432Y-23333D01*
X25376Y-23276D01*
X25260Y-23228D01*
X25135Y-23228D01*
X25019Y-23276D01*
X24930Y-23364D01*
X24882Y-23480D01*
X24882Y-23605D01*
X24930Y-23721D01*
X25018Y-23810D01*
X25134Y-23858D01*
X25246Y-23858D01*
X25176Y-23887D01*
X25087Y-23975D01*
X25039Y-24091D01*
X25039Y-24216D01*
X25081Y-24319D01*
X25079Y-24327D01*
X25079Y-24452D01*
X25127Y-24568D01*
X25215Y-24657D01*
X25331Y-24705D01*
X25410Y-24705D01*
X25490Y-24785D01*
X25606Y-24833D01*
X25731Y-24833D01*
X25805Y-24802D01*
X25826Y-24853D01*
X25914Y-24942D01*
X26030Y-24990D01*
X26155Y-24990D01*
X26271Y-24942D01*
X26360Y-24854D01*
X26408Y-24738D01*
X26408Y-24613D01*
X26386Y-24562D01*
X26580Y-24450D01*
X26606Y-24426D01*
X26639Y-24405D01*
X26651Y-24386D01*
X26663Y-24376D01*
X26678Y-24344D01*
X26700Y-24312D01*
X26703Y-24295D01*
X26713Y-24276D01*
X26715Y-24237D01*
X26722Y-24203D01*
X26722Y-24124D01*
X26921Y-23924D01*
X26923Y-23923D01*
X26924Y-23923D01*
X26982Y-23833D01*
X27043Y-23858D01*
X27168Y-23858D01*
X27284Y-23810D01*
X27373Y-23722D01*
X27421Y-23606D01*
X27421Y-24011D01*
X24270Y-27135D01*
X15887Y-27125D01*
X15400Y-26629D01*
X15459Y-26654D01*
X15584Y-26654D01*
X15700Y-26606D01*
X15708Y-26597D01*
X15737Y-26626D01*
X15853Y-26674D01*
X15978Y-26674D01*
X16094Y-26626D01*
X16183Y-26538D01*
X16231Y-26422D01*
X16231Y-26297D01*
X16183Y-26181D01*
X16095Y-26092D01*
X15979Y-26044D01*
X15854Y-26044D01*
X15738Y-26092D01*
X15729Y-26100D01*
X15701Y-26072D01*
X15585Y-26024D01*
X15460Y-26024D01*
X15344Y-26072D01*
X15255Y-26160D01*
X15207Y-26276D01*
X15207Y-26401D01*
X15229Y-26456D01*
X12550Y-23730D01*
X12550Y-19949D01*
X12624Y-19980D01*
X12749Y-19980D01*
X12865Y-19932D01*
X12954Y-19844D01*
X13002Y-19728D01*
X13002Y-19603D01*
X12954Y-19487D01*
X12866Y-19398D01*
X12796Y-19369D01*
X13101Y-19085D01*
X14239Y-19085D01*
X14172Y-19152D01*
X14124Y-19268D01*
X14124Y-19393D01*
X14172Y-19509D01*
X14260Y-19598D01*
X14376Y-19646D01*
X14501Y-19646D01*
X14617Y-19598D01*
X14706Y-19510D01*
X14754Y-19394D01*
X14754Y-19269D01*
X14706Y-19153D01*
X14638Y-19085D01*
X24181Y-19085D01*
X24138Y-19128D01*
X24090Y-19244D01*
X24090Y-19369D01*
X24138Y-19485D01*
X24226Y-19574D01*
X24342Y-19622D01*
X24467Y-19622D01*
X24583Y-19574D01*
X24672Y-19486D01*
X24720Y-19370D01*
X24720Y-19245D01*
X24672Y-19129D01*
X24628Y-19085D01*
X25225Y-19085D01*
X25206Y-19093D01*
X25117Y-19181D01*
X25069Y-19297D01*
X25069Y-19422D01*
X25117Y-19538D01*
X25205Y-19627D01*
X25321Y-19675D01*
X25446Y-19675D01*
X25562Y-19627D01*
X25651Y-19539D01*
X25699Y-19423D01*
X25699Y-19298D01*
X25651Y-19182D01*
X25563Y-19093D01*
X25543Y-19085D01*
X27047Y-19085D01*
X27607Y-19617D01*
X27607Y-23827D01*
M02*
