G04 (created by PCBNEW-RS274X (2012-apr-16-27)-stable) date Thu 13 Mar 2014 04:59:36 PM EDT*
G01*
G70*
G90*
%MOIN*%
G04 Gerber Fmt 3.4, Leading zero omitted, Abs format*
%FSLAX34Y34*%
G04 APERTURE LIST*
%ADD10C,0.006000*%
%ADD11C,0.000400*%
%ADD12C,0.002000*%
%ADD13C,0.035000*%
%ADD14C,0.013000*%
%ADD15C,0.008000*%
%ADD16C,0.007000*%
%ADD17C,0.010000*%
G04 APERTURE END LIST*
G54D10*
G54D11*
X27953Y-19596D02*
X27953Y-23917D01*
X27165Y-18770D02*
X27953Y-19596D01*
X16890Y-18770D02*
X27165Y-18770D01*
X12205Y-19557D02*
X12205Y-23917D01*
X12992Y-18770D02*
X12205Y-19557D01*
X16890Y-18770D02*
X12992Y-18770D01*
X15748Y-27461D02*
X12205Y-23917D01*
X24409Y-27461D02*
X27953Y-23917D01*
X24016Y-27461D02*
X24409Y-27461D01*
X15748Y-27461D02*
X24016Y-27461D01*
G54D12*
X15748Y-27461D02*
X24016Y-27461D01*
G54D13*
X13022Y-21073D03*
X13031Y-21535D03*
X13632Y-20866D03*
G54D14*
X14439Y-19331D03*
X25384Y-19360D03*
X24405Y-19307D03*
X12687Y-19665D03*
X16260Y-24783D03*
X17815Y-20984D03*
X17579Y-21122D03*
X16319Y-24508D03*
X18701Y-21516D03*
X17087Y-23051D03*
X18602Y-21909D03*
X17736Y-23622D03*
X18996Y-22362D03*
X18986Y-24419D03*
X19980Y-22362D03*
X19469Y-24774D03*
X20197Y-22480D03*
X20945Y-22854D03*
X22146Y-23081D03*
X20295Y-21939D03*
X21788Y-24643D03*
X21132Y-21171D03*
X23809Y-24705D03*
X23868Y-23268D03*
X23612Y-20827D03*
X24114Y-23248D03*
X22953Y-20591D03*
X24400Y-22717D03*
X25827Y-22480D03*
X25394Y-24390D03*
X25669Y-24518D03*
X26319Y-22451D03*
X23120Y-21585D03*
X21949Y-25285D03*
X22254Y-25177D03*
X23612Y-22707D03*
X15728Y-22205D03*
X16732Y-25413D03*
X15965Y-21663D03*
X16732Y-25177D03*
X17559Y-24094D03*
X17047Y-21870D03*
X21949Y-25551D03*
X22943Y-21388D03*
X22441Y-25384D03*
X23819Y-22835D03*
X13878Y-23012D03*
X16594Y-20334D03*
X16181Y-20994D03*
X14154Y-23071D03*
X16083Y-24587D03*
X17402Y-21339D03*
X18150Y-21280D03*
X16594Y-24232D03*
X18150Y-21772D03*
X17343Y-23406D03*
X17579Y-23445D03*
X18858Y-21929D03*
X18937Y-22874D03*
X19252Y-24459D03*
X20039Y-22835D03*
X19469Y-24537D03*
X17028Y-21614D03*
X17362Y-24252D03*
X20778Y-21811D03*
X21083Y-23100D03*
X21024Y-21703D03*
X22215Y-22854D03*
X20876Y-21220D03*
X21900Y-24380D03*
X23652Y-23494D03*
X23642Y-24537D03*
X23730Y-21083D03*
X23967Y-23051D03*
X24409Y-22992D03*
X23248Y-20787D03*
X25354Y-24154D03*
X25443Y-22677D03*
X26083Y-22480D03*
X26093Y-24675D03*
X13898Y-22736D03*
X15118Y-20866D03*
X13957Y-23366D03*
X16103Y-21240D03*
X15984Y-19429D03*
X24272Y-26801D03*
X24035Y-19291D03*
X16299Y-26329D03*
X15098Y-19803D03*
X14488Y-21752D03*
X26152Y-23445D03*
X24262Y-21614D03*
X23120Y-24016D03*
X21614Y-22323D03*
X19488Y-23524D03*
X15571Y-23661D03*
X15522Y-26339D03*
X17618Y-22441D03*
X13465Y-21870D03*
X27106Y-23543D03*
X16594Y-22895D03*
X18740Y-24055D03*
X25226Y-21762D03*
X14606Y-23839D03*
X18583Y-22579D03*
X20512Y-22854D03*
X20256Y-24075D03*
X15551Y-19528D03*
X24094Y-24114D03*
X23297Y-21791D03*
X21821Y-23927D03*
X25197Y-23543D03*
X15916Y-26359D03*
X22598Y-22470D03*
X15472Y-21978D03*
X16732Y-23780D03*
G54D15*
X25089Y-19065D02*
X25384Y-19360D01*
X23888Y-19114D02*
X23937Y-19065D01*
X23937Y-19065D02*
X25089Y-19065D01*
X14656Y-19114D02*
X23888Y-19114D01*
X14439Y-19331D02*
X14656Y-19114D01*
G54D16*
X23809Y-23750D02*
X25847Y-23750D01*
X23120Y-24016D02*
X23120Y-23386D01*
X19448Y-23484D02*
X18760Y-23484D01*
X15571Y-23603D02*
X16753Y-22421D01*
X17697Y-22421D02*
X18760Y-23484D01*
X17697Y-22421D02*
X15157Y-22421D01*
X15571Y-23661D02*
X15571Y-23603D01*
X16753Y-22421D02*
X17697Y-22421D01*
X21614Y-23130D02*
X21614Y-22323D01*
X23120Y-23386D02*
X22057Y-22323D01*
X22057Y-22323D02*
X21614Y-22323D01*
X21909Y-22028D02*
X21614Y-22323D01*
X23120Y-24016D02*
X23543Y-24016D01*
X23967Y-21614D02*
X23553Y-22028D01*
X15157Y-22421D02*
X14488Y-21752D01*
X23543Y-24016D02*
X23809Y-23750D01*
X25847Y-23750D02*
X26152Y-23445D01*
X21220Y-23524D02*
X21614Y-23130D01*
X19488Y-23524D02*
X21220Y-23524D01*
X19448Y-23484D02*
X19488Y-23524D01*
X24262Y-21614D02*
X23967Y-21614D01*
X23553Y-22028D02*
X21909Y-22028D01*
G54D10*
G36*
X27588Y-19627D02*
X27578Y-23818D01*
X27421Y-23974D01*
X27421Y-23606D01*
X27421Y-23481D01*
X27373Y-23365D01*
X27285Y-23276D01*
X27169Y-23228D01*
X27044Y-23228D01*
X26928Y-23276D01*
X26839Y-23364D01*
X26791Y-23480D01*
X26791Y-23605D01*
X26839Y-23721D01*
X26927Y-23810D01*
X27043Y-23858D01*
X27168Y-23858D01*
X27284Y-23810D01*
X27373Y-23722D01*
X27421Y-23606D01*
X27421Y-23974D01*
X26634Y-24758D01*
X26634Y-22514D01*
X26634Y-22389D01*
X26586Y-22273D01*
X26498Y-22184D01*
X26382Y-22136D01*
X26257Y-22136D01*
X26166Y-22173D01*
X26146Y-22165D01*
X26021Y-22165D01*
X25955Y-22192D01*
X25890Y-22165D01*
X25765Y-22165D01*
X25649Y-22213D01*
X25560Y-22301D01*
X25541Y-22345D01*
X25541Y-21825D01*
X25541Y-21700D01*
X25493Y-21584D01*
X25405Y-21495D01*
X25289Y-21447D01*
X25164Y-21447D01*
X25048Y-21495D01*
X24959Y-21583D01*
X24911Y-21699D01*
X24911Y-21824D01*
X24959Y-21940D01*
X25047Y-22029D01*
X25163Y-22077D01*
X25288Y-22077D01*
X25404Y-22029D01*
X25493Y-21941D01*
X25541Y-21825D01*
X25541Y-22345D01*
X25530Y-22372D01*
X25506Y-22362D01*
X25381Y-22362D01*
X25265Y-22410D01*
X25176Y-22498D01*
X25128Y-22614D01*
X25128Y-22739D01*
X25176Y-22855D01*
X25264Y-22944D01*
X25380Y-22992D01*
X25505Y-22992D01*
X25621Y-22944D01*
X25710Y-22856D01*
X25739Y-22784D01*
X25764Y-22795D01*
X25889Y-22795D01*
X25954Y-22767D01*
X26020Y-22795D01*
X26145Y-22795D01*
X26235Y-22757D01*
X26256Y-22766D01*
X26381Y-22766D01*
X26497Y-22718D01*
X26586Y-22630D01*
X26634Y-22514D01*
X26634Y-24758D01*
X26408Y-24984D01*
X26408Y-24738D01*
X26408Y-24613D01*
X26360Y-24497D01*
X26272Y-24408D01*
X26156Y-24360D01*
X26031Y-24360D01*
X25956Y-24390D01*
X25936Y-24340D01*
X25848Y-24251D01*
X25732Y-24203D01*
X25669Y-24203D01*
X25669Y-24092D01*
X25621Y-23976D01*
X25533Y-23887D01*
X25417Y-23839D01*
X25304Y-23839D01*
X25375Y-23810D01*
X25464Y-23722D01*
X25512Y-23606D01*
X25512Y-23481D01*
X25464Y-23365D01*
X25376Y-23276D01*
X25260Y-23228D01*
X25135Y-23228D01*
X25019Y-23276D01*
X24930Y-23364D01*
X24882Y-23480D01*
X24882Y-23605D01*
X24930Y-23721D01*
X25018Y-23810D01*
X25134Y-23858D01*
X25246Y-23858D01*
X25176Y-23887D01*
X25087Y-23975D01*
X25039Y-24091D01*
X25039Y-24216D01*
X25081Y-24319D01*
X25079Y-24327D01*
X25079Y-24452D01*
X25127Y-24568D01*
X25215Y-24657D01*
X25331Y-24705D01*
X25410Y-24705D01*
X25490Y-24785D01*
X25606Y-24833D01*
X25731Y-24833D01*
X25805Y-24802D01*
X25826Y-24853D01*
X25914Y-24942D01*
X26030Y-24990D01*
X26155Y-24990D01*
X26271Y-24942D01*
X26360Y-24854D01*
X26408Y-24738D01*
X26408Y-24984D01*
X24724Y-26662D01*
X24724Y-23055D01*
X24724Y-22930D01*
X24688Y-22844D01*
X24715Y-22780D01*
X24715Y-22655D01*
X24667Y-22539D01*
X24579Y-22450D01*
X24463Y-22402D01*
X24338Y-22402D01*
X24222Y-22450D01*
X24133Y-22538D01*
X24085Y-22654D01*
X24085Y-22655D01*
X24045Y-22615D01*
X24045Y-21146D01*
X24045Y-21021D01*
X23997Y-20905D01*
X23927Y-20834D01*
X23927Y-20765D01*
X23879Y-20649D01*
X23791Y-20560D01*
X23675Y-20512D01*
X23550Y-20512D01*
X23457Y-20550D01*
X23427Y-20520D01*
X23311Y-20472D01*
X23244Y-20472D01*
X23220Y-20413D01*
X23132Y-20324D01*
X23016Y-20276D01*
X22891Y-20276D01*
X22775Y-20324D01*
X22686Y-20412D01*
X22638Y-20528D01*
X22638Y-20653D01*
X22686Y-20769D01*
X22774Y-20858D01*
X22890Y-20906D01*
X22956Y-20906D01*
X22981Y-20965D01*
X23069Y-21054D01*
X23185Y-21102D01*
X23310Y-21102D01*
X23402Y-21063D01*
X23415Y-21075D01*
X23415Y-21145D01*
X23463Y-21261D01*
X23551Y-21350D01*
X23667Y-21398D01*
X23792Y-21398D01*
X23908Y-21350D01*
X23997Y-21262D01*
X24045Y-21146D01*
X24045Y-22615D01*
X23998Y-22568D01*
X23882Y-22520D01*
X23870Y-22520D01*
X23791Y-22440D01*
X23675Y-22392D01*
X23612Y-22392D01*
X23612Y-21854D01*
X23612Y-21729D01*
X23564Y-21613D01*
X23476Y-21524D01*
X23427Y-21503D01*
X23387Y-21407D01*
X23299Y-21318D01*
X23245Y-21295D01*
X23210Y-21210D01*
X23122Y-21121D01*
X23006Y-21073D01*
X22881Y-21073D01*
X22765Y-21121D01*
X22676Y-21209D01*
X22628Y-21325D01*
X22628Y-21450D01*
X22676Y-21566D01*
X22764Y-21655D01*
X22817Y-21677D01*
X22853Y-21763D01*
X22941Y-21852D01*
X22989Y-21872D01*
X23030Y-21969D01*
X23118Y-22058D01*
X23234Y-22106D01*
X23359Y-22106D01*
X23475Y-22058D01*
X23564Y-21970D01*
X23612Y-21854D01*
X23612Y-22392D01*
X23550Y-22392D01*
X23434Y-22440D01*
X23345Y-22528D01*
X23297Y-22644D01*
X23297Y-22769D01*
X23345Y-22885D01*
X23433Y-22974D01*
X23549Y-23022D01*
X23560Y-23022D01*
X23614Y-23075D01*
X23601Y-23089D01*
X23558Y-23192D01*
X23474Y-23227D01*
X23385Y-23315D01*
X23337Y-23431D01*
X23337Y-23556D01*
X23385Y-23672D01*
X23473Y-23761D01*
X23589Y-23809D01*
X23714Y-23809D01*
X23830Y-23761D01*
X23919Y-23673D01*
X23961Y-23569D01*
X24014Y-23547D01*
X24051Y-23563D01*
X24176Y-23563D01*
X24292Y-23515D01*
X24381Y-23427D01*
X24429Y-23311D01*
X24429Y-23307D01*
X24471Y-23307D01*
X24587Y-23259D01*
X24676Y-23171D01*
X24724Y-23055D01*
X24724Y-26662D01*
X24587Y-26799D01*
X24587Y-26739D01*
X24539Y-26623D01*
X24451Y-26534D01*
X24409Y-26516D01*
X24409Y-24177D01*
X24409Y-24052D01*
X24361Y-23936D01*
X24273Y-23847D01*
X24157Y-23799D01*
X24032Y-23799D01*
X23916Y-23847D01*
X23827Y-23935D01*
X23779Y-24051D01*
X23779Y-24176D01*
X23817Y-24268D01*
X23705Y-24222D01*
X23580Y-24222D01*
X23464Y-24270D01*
X23375Y-24358D01*
X23327Y-24474D01*
X23327Y-24599D01*
X23375Y-24715D01*
X23463Y-24804D01*
X23518Y-24827D01*
X23542Y-24883D01*
X23630Y-24972D01*
X23746Y-25020D01*
X23871Y-25020D01*
X23987Y-24972D01*
X24076Y-24884D01*
X24124Y-24768D01*
X24124Y-24643D01*
X24076Y-24527D01*
X23988Y-24438D01*
X23932Y-24414D01*
X23918Y-24382D01*
X24031Y-24429D01*
X24156Y-24429D01*
X24272Y-24381D01*
X24361Y-24293D01*
X24409Y-24177D01*
X24409Y-26516D01*
X24335Y-26486D01*
X24210Y-26486D01*
X24094Y-26534D01*
X24005Y-26622D01*
X23957Y-26738D01*
X23957Y-26863D01*
X24005Y-26979D01*
X24093Y-27068D01*
X24206Y-27114D01*
X22913Y-27111D01*
X22913Y-22533D01*
X22913Y-22408D01*
X22865Y-22292D01*
X22777Y-22203D01*
X22661Y-22155D01*
X22536Y-22155D01*
X22420Y-22203D01*
X22331Y-22291D01*
X22283Y-22407D01*
X22283Y-22532D01*
X22287Y-22542D01*
X22278Y-22539D01*
X22153Y-22539D01*
X22037Y-22587D01*
X21948Y-22675D01*
X21900Y-22791D01*
X21900Y-22881D01*
X21879Y-22902D01*
X21831Y-23018D01*
X21831Y-23143D01*
X21879Y-23259D01*
X21967Y-23348D01*
X22083Y-23396D01*
X22208Y-23396D01*
X22324Y-23348D01*
X22413Y-23260D01*
X22461Y-23144D01*
X22461Y-23053D01*
X22482Y-23033D01*
X22530Y-22917D01*
X22530Y-22792D01*
X22525Y-22781D01*
X22535Y-22785D01*
X22660Y-22785D01*
X22776Y-22737D01*
X22865Y-22649D01*
X22913Y-22533D01*
X22913Y-27111D01*
X22756Y-27110D01*
X22756Y-25447D01*
X22756Y-25322D01*
X22708Y-25206D01*
X22620Y-25117D01*
X22559Y-25091D01*
X22521Y-24999D01*
X22433Y-24910D01*
X22317Y-24862D01*
X22215Y-24862D01*
X22215Y-24443D01*
X22215Y-24318D01*
X22167Y-24202D01*
X22079Y-24113D01*
X22088Y-24106D01*
X22136Y-23990D01*
X22136Y-23865D01*
X22088Y-23749D01*
X22000Y-23660D01*
X21884Y-23612D01*
X21759Y-23612D01*
X21643Y-23660D01*
X21554Y-23748D01*
X21506Y-23864D01*
X21506Y-23989D01*
X21554Y-24105D01*
X21641Y-24193D01*
X21633Y-24201D01*
X21585Y-24317D01*
X21585Y-24400D01*
X21521Y-24464D01*
X21473Y-24580D01*
X21473Y-24705D01*
X21521Y-24821D01*
X21609Y-24910D01*
X21725Y-24958D01*
X21850Y-24958D01*
X21966Y-24910D01*
X22055Y-24822D01*
X22103Y-24706D01*
X22103Y-24622D01*
X22167Y-24559D01*
X22215Y-24443D01*
X22215Y-24862D01*
X22192Y-24862D01*
X22076Y-24910D01*
X22014Y-24970D01*
X22012Y-24970D01*
X21887Y-24970D01*
X21771Y-25018D01*
X21682Y-25106D01*
X21634Y-25222D01*
X21634Y-25347D01*
X21663Y-25417D01*
X21634Y-25488D01*
X21634Y-25613D01*
X21682Y-25729D01*
X21770Y-25818D01*
X21886Y-25866D01*
X22011Y-25866D01*
X22127Y-25818D01*
X22216Y-25730D01*
X22252Y-25641D01*
X22262Y-25651D01*
X22378Y-25699D01*
X22503Y-25699D01*
X22619Y-25651D01*
X22708Y-25563D01*
X22756Y-25447D01*
X22756Y-27110D01*
X21447Y-27108D01*
X21447Y-21234D01*
X21447Y-21109D01*
X21399Y-20993D01*
X21311Y-20904D01*
X21195Y-20856D01*
X21070Y-20856D01*
X20954Y-20904D01*
X20948Y-20909D01*
X20939Y-20905D01*
X20814Y-20905D01*
X20698Y-20953D01*
X20609Y-21041D01*
X20561Y-21157D01*
X20561Y-21282D01*
X20609Y-21398D01*
X20697Y-21487D01*
X20718Y-21496D01*
X20716Y-21496D01*
X20600Y-21544D01*
X20511Y-21632D01*
X20488Y-21686D01*
X20474Y-21672D01*
X20358Y-21624D01*
X20233Y-21624D01*
X20117Y-21672D01*
X20028Y-21760D01*
X19980Y-21876D01*
X19980Y-22001D01*
X19999Y-22047D01*
X19918Y-22047D01*
X19802Y-22095D01*
X19713Y-22183D01*
X19665Y-22299D01*
X19665Y-22424D01*
X19713Y-22540D01*
X19800Y-22628D01*
X19772Y-22656D01*
X19724Y-22772D01*
X19724Y-22897D01*
X19772Y-23013D01*
X19860Y-23102D01*
X19976Y-23150D01*
X20101Y-23150D01*
X20217Y-23102D01*
X20266Y-23053D01*
X20333Y-23121D01*
X20449Y-23169D01*
X20574Y-23169D01*
X20690Y-23121D01*
X20728Y-23083D01*
X20766Y-23121D01*
X20768Y-23121D01*
X20768Y-23162D01*
X20816Y-23278D01*
X20904Y-23367D01*
X21020Y-23415D01*
X21145Y-23415D01*
X21261Y-23367D01*
X21350Y-23279D01*
X21398Y-23163D01*
X21398Y-23038D01*
X21350Y-22922D01*
X21262Y-22833D01*
X21260Y-22832D01*
X21260Y-22792D01*
X21212Y-22676D01*
X21124Y-22587D01*
X21008Y-22539D01*
X20883Y-22539D01*
X20767Y-22587D01*
X20728Y-22624D01*
X20691Y-22587D01*
X20575Y-22539D01*
X20512Y-22539D01*
X20512Y-22418D01*
X20464Y-22302D01*
X20399Y-22236D01*
X20473Y-22206D01*
X20562Y-22118D01*
X20584Y-22063D01*
X20599Y-22078D01*
X20715Y-22126D01*
X20840Y-22126D01*
X20956Y-22078D01*
X21016Y-22018D01*
X21086Y-22018D01*
X21202Y-21970D01*
X21291Y-21882D01*
X21339Y-21766D01*
X21339Y-21641D01*
X21291Y-21525D01*
X21235Y-21468D01*
X21310Y-21438D01*
X21399Y-21350D01*
X21447Y-21234D01*
X21447Y-27108D01*
X20571Y-27106D01*
X20571Y-24138D01*
X20571Y-24013D01*
X20523Y-23897D01*
X20435Y-23808D01*
X20319Y-23760D01*
X20194Y-23760D01*
X20078Y-23808D01*
X19989Y-23896D01*
X19941Y-24012D01*
X19941Y-24137D01*
X19989Y-24253D01*
X20077Y-24342D01*
X20193Y-24390D01*
X20318Y-24390D01*
X20434Y-24342D01*
X20523Y-24254D01*
X20571Y-24138D01*
X20571Y-27106D01*
X19784Y-27104D01*
X19784Y-24837D01*
X19784Y-24712D01*
X19760Y-24656D01*
X19784Y-24600D01*
X19784Y-24475D01*
X19736Y-24359D01*
X19648Y-24270D01*
X19532Y-24222D01*
X19460Y-24222D01*
X19431Y-24192D01*
X19315Y-24144D01*
X19311Y-24144D01*
X19311Y-22425D01*
X19311Y-22300D01*
X19263Y-22184D01*
X19175Y-22095D01*
X19136Y-22079D01*
X19173Y-21992D01*
X19173Y-21867D01*
X19125Y-21751D01*
X19037Y-21662D01*
X18989Y-21642D01*
X19016Y-21579D01*
X19016Y-21454D01*
X18968Y-21338D01*
X18880Y-21249D01*
X18764Y-21201D01*
X18639Y-21201D01*
X18523Y-21249D01*
X18465Y-21306D01*
X18465Y-21218D01*
X18417Y-21102D01*
X18329Y-21013D01*
X18213Y-20965D01*
X18130Y-20965D01*
X18130Y-20922D01*
X18082Y-20806D01*
X17994Y-20717D01*
X17878Y-20669D01*
X17753Y-20669D01*
X17637Y-20717D01*
X17548Y-20805D01*
X17547Y-20807D01*
X17517Y-20807D01*
X17401Y-20855D01*
X17312Y-20943D01*
X17265Y-21054D01*
X17224Y-21072D01*
X17135Y-21160D01*
X17087Y-21276D01*
X17087Y-21299D01*
X16966Y-21299D01*
X16909Y-21322D01*
X16909Y-20397D01*
X16909Y-20272D01*
X16861Y-20156D01*
X16773Y-20067D01*
X16657Y-20019D01*
X16532Y-20019D01*
X16416Y-20067D01*
X16327Y-20155D01*
X16279Y-20271D01*
X16279Y-20396D01*
X16327Y-20512D01*
X16415Y-20601D01*
X16531Y-20649D01*
X16656Y-20649D01*
X16772Y-20601D01*
X16861Y-20513D01*
X16909Y-20397D01*
X16909Y-21322D01*
X16850Y-21347D01*
X16761Y-21435D01*
X16713Y-21551D01*
X16713Y-21676D01*
X16749Y-21764D01*
X16732Y-21807D01*
X16732Y-21932D01*
X16780Y-22048D01*
X16868Y-22137D01*
X16984Y-22185D01*
X17109Y-22185D01*
X17225Y-22137D01*
X17314Y-22049D01*
X17362Y-21933D01*
X17362Y-21808D01*
X17325Y-21719D01*
X17343Y-21677D01*
X17343Y-21654D01*
X17464Y-21654D01*
X17580Y-21606D01*
X17669Y-21518D01*
X17715Y-21406D01*
X17757Y-21389D01*
X17835Y-21311D01*
X17835Y-21342D01*
X17883Y-21458D01*
X17950Y-21526D01*
X17883Y-21593D01*
X17835Y-21709D01*
X17835Y-21834D01*
X17883Y-21950D01*
X17971Y-22039D01*
X18087Y-22087D01*
X18212Y-22087D01*
X18317Y-22043D01*
X18335Y-22087D01*
X18423Y-22176D01*
X18539Y-22224D01*
X18664Y-22224D01*
X18705Y-22206D01*
X18717Y-22211D01*
X18688Y-22281D01*
X18646Y-22264D01*
X18521Y-22264D01*
X18405Y-22312D01*
X18316Y-22400D01*
X18268Y-22516D01*
X18268Y-22641D01*
X18316Y-22757D01*
X18404Y-22846D01*
X18520Y-22894D01*
X18622Y-22894D01*
X18622Y-22936D01*
X18670Y-23052D01*
X18758Y-23141D01*
X18874Y-23189D01*
X18999Y-23189D01*
X19115Y-23141D01*
X19204Y-23053D01*
X19252Y-22937D01*
X19252Y-22812D01*
X19204Y-22696D01*
X19148Y-22639D01*
X19174Y-22629D01*
X19263Y-22541D01*
X19311Y-22425D01*
X19311Y-24144D01*
X19190Y-24144D01*
X19166Y-24153D01*
X19165Y-24152D01*
X19055Y-24106D01*
X19055Y-23993D01*
X19007Y-23877D01*
X18919Y-23788D01*
X18803Y-23740D01*
X18678Y-23740D01*
X18562Y-23788D01*
X18473Y-23876D01*
X18425Y-23992D01*
X18425Y-24117D01*
X18473Y-24233D01*
X18561Y-24322D01*
X18671Y-24367D01*
X18671Y-24481D01*
X18719Y-24597D01*
X18807Y-24686D01*
X18923Y-24734D01*
X19048Y-24734D01*
X19071Y-24724D01*
X19073Y-24726D01*
X19154Y-24759D01*
X19154Y-24836D01*
X19202Y-24952D01*
X19290Y-25041D01*
X19406Y-25089D01*
X19531Y-25089D01*
X19647Y-25041D01*
X19736Y-24953D01*
X19784Y-24837D01*
X19784Y-27104D01*
X18051Y-27100D01*
X18051Y-23685D01*
X18051Y-23560D01*
X18003Y-23444D01*
X17915Y-23355D01*
X17875Y-23338D01*
X17846Y-23267D01*
X17758Y-23178D01*
X17642Y-23130D01*
X17517Y-23130D01*
X17508Y-23133D01*
X17406Y-23091D01*
X17402Y-23091D01*
X17402Y-22989D01*
X17354Y-22873D01*
X17266Y-22784D01*
X17150Y-22736D01*
X17025Y-22736D01*
X16909Y-22784D01*
X16894Y-22798D01*
X16861Y-22717D01*
X16773Y-22628D01*
X16657Y-22580D01*
X16532Y-22580D01*
X16496Y-22594D01*
X16496Y-21057D01*
X16496Y-20932D01*
X16448Y-20816D01*
X16360Y-20727D01*
X16244Y-20679D01*
X16119Y-20679D01*
X16003Y-20727D01*
X15914Y-20815D01*
X15866Y-20931D01*
X15866Y-21031D01*
X15836Y-21061D01*
X15788Y-21177D01*
X15788Y-21302D01*
X15821Y-21381D01*
X15787Y-21396D01*
X15698Y-21484D01*
X15650Y-21600D01*
X15650Y-21710D01*
X15535Y-21663D01*
X15433Y-21663D01*
X15433Y-20929D01*
X15433Y-20804D01*
X15385Y-20688D01*
X15297Y-20599D01*
X15181Y-20551D01*
X15056Y-20551D01*
X14940Y-20599D01*
X14851Y-20687D01*
X14803Y-20803D01*
X14803Y-20928D01*
X14851Y-21044D01*
X14939Y-21133D01*
X15055Y-21181D01*
X15180Y-21181D01*
X15296Y-21133D01*
X15385Y-21045D01*
X15433Y-20929D01*
X15433Y-21663D01*
X15410Y-21663D01*
X15294Y-21711D01*
X15205Y-21799D01*
X15157Y-21915D01*
X15157Y-22040D01*
X15205Y-22156D01*
X15293Y-22245D01*
X15409Y-22293D01*
X15423Y-22293D01*
X15461Y-22383D01*
X15549Y-22472D01*
X15665Y-22520D01*
X15790Y-22520D01*
X15906Y-22472D01*
X15995Y-22384D01*
X16043Y-22268D01*
X16043Y-22143D01*
X15995Y-22027D01*
X15946Y-21978D01*
X16027Y-21978D01*
X16143Y-21930D01*
X16232Y-21842D01*
X16280Y-21726D01*
X16280Y-21601D01*
X16246Y-21521D01*
X16281Y-21507D01*
X16370Y-21419D01*
X16418Y-21303D01*
X16418Y-21202D01*
X16448Y-21173D01*
X16496Y-21057D01*
X16496Y-22594D01*
X16416Y-22628D01*
X16327Y-22716D01*
X16279Y-22832D01*
X16279Y-22957D01*
X16327Y-23073D01*
X16415Y-23162D01*
X16531Y-23210D01*
X16656Y-23210D01*
X16772Y-23162D01*
X16786Y-23147D01*
X16820Y-23229D01*
X16908Y-23318D01*
X17024Y-23366D01*
X17028Y-23366D01*
X17028Y-23468D01*
X17076Y-23584D01*
X17164Y-23673D01*
X17280Y-23721D01*
X17405Y-23721D01*
X17413Y-23717D01*
X17439Y-23728D01*
X17465Y-23791D01*
X17381Y-23827D01*
X17292Y-23915D01*
X17279Y-23945D01*
X17184Y-23985D01*
X17095Y-24073D01*
X17047Y-24189D01*
X17047Y-24314D01*
X17095Y-24430D01*
X17183Y-24519D01*
X17299Y-24567D01*
X17424Y-24567D01*
X17540Y-24519D01*
X17629Y-24431D01*
X17641Y-24400D01*
X17737Y-24361D01*
X17826Y-24273D01*
X17874Y-24157D01*
X17874Y-24032D01*
X17829Y-23924D01*
X17914Y-23889D01*
X18003Y-23801D01*
X18051Y-23685D01*
X18051Y-27100D01*
X17047Y-27098D01*
X17047Y-25476D01*
X17047Y-25351D01*
X17024Y-25295D01*
X17047Y-25240D01*
X17047Y-25115D01*
X16999Y-24999D01*
X16911Y-24910D01*
X16795Y-24862D01*
X16670Y-24862D01*
X16554Y-24910D01*
X16544Y-24919D01*
X16575Y-24846D01*
X16575Y-24721D01*
X16568Y-24704D01*
X16586Y-24687D01*
X16634Y-24571D01*
X16634Y-24547D01*
X16656Y-24547D01*
X16772Y-24499D01*
X16861Y-24411D01*
X16909Y-24295D01*
X16909Y-24170D01*
X16865Y-24065D01*
X16910Y-24047D01*
X16999Y-23959D01*
X17047Y-23843D01*
X17047Y-23718D01*
X16999Y-23602D01*
X16911Y-23513D01*
X16795Y-23465D01*
X16670Y-23465D01*
X16554Y-23513D01*
X16465Y-23601D01*
X16417Y-23717D01*
X16417Y-23842D01*
X16460Y-23946D01*
X16416Y-23965D01*
X16327Y-24053D01*
X16279Y-24169D01*
X16279Y-24193D01*
X16257Y-24193D01*
X16141Y-24241D01*
X16109Y-24272D01*
X16021Y-24272D01*
X15905Y-24320D01*
X15816Y-24408D01*
X15768Y-24524D01*
X15768Y-24649D01*
X15816Y-24765D01*
X15904Y-24854D01*
X15957Y-24876D01*
X15993Y-24961D01*
X16081Y-25050D01*
X16197Y-25098D01*
X16322Y-25098D01*
X16438Y-25050D01*
X16447Y-25040D01*
X16417Y-25114D01*
X16417Y-25239D01*
X16439Y-25294D01*
X16417Y-25350D01*
X16417Y-25475D01*
X16465Y-25591D01*
X16553Y-25680D01*
X16669Y-25728D01*
X16794Y-25728D01*
X16910Y-25680D01*
X16999Y-25592D01*
X17047Y-25476D01*
X17047Y-27098D01*
X16614Y-27097D01*
X16614Y-26392D01*
X16614Y-26267D01*
X16566Y-26151D01*
X16478Y-26062D01*
X16362Y-26014D01*
X16237Y-26014D01*
X16121Y-26062D01*
X16091Y-26090D01*
X15979Y-26044D01*
X15854Y-26044D01*
X15738Y-26092D01*
X15649Y-26180D01*
X15601Y-26296D01*
X15601Y-26421D01*
X15649Y-26537D01*
X15737Y-26626D01*
X15853Y-26674D01*
X15978Y-26674D01*
X16094Y-26626D01*
X16123Y-26597D01*
X16236Y-26644D01*
X16361Y-26644D01*
X16477Y-26596D01*
X16566Y-26508D01*
X16614Y-26392D01*
X16614Y-27097D01*
X15907Y-27096D01*
X14921Y-26095D01*
X14921Y-23902D01*
X14921Y-23777D01*
X14873Y-23661D01*
X14785Y-23572D01*
X14669Y-23524D01*
X14544Y-23524D01*
X14469Y-23555D01*
X14469Y-23134D01*
X14469Y-23009D01*
X14421Y-22893D01*
X14333Y-22804D01*
X14217Y-22756D01*
X14213Y-22756D01*
X14213Y-22674D01*
X14165Y-22558D01*
X14077Y-22469D01*
X14057Y-22460D01*
X14057Y-20951D01*
X14057Y-20782D01*
X13993Y-20626D01*
X13873Y-20506D01*
X13717Y-20441D01*
X13548Y-20441D01*
X13392Y-20505D01*
X13272Y-20625D01*
X13239Y-20703D01*
X13107Y-20648D01*
X12938Y-20648D01*
X12782Y-20712D01*
X12662Y-20832D01*
X12597Y-20988D01*
X12597Y-21157D01*
X12661Y-21313D01*
X12662Y-21314D01*
X12606Y-21450D01*
X12606Y-21619D01*
X12670Y-21775D01*
X12790Y-21895D01*
X12946Y-21960D01*
X13115Y-21960D01*
X13154Y-21943D01*
X13198Y-22048D01*
X13286Y-22137D01*
X13402Y-22185D01*
X13527Y-22185D01*
X13643Y-22137D01*
X13732Y-22049D01*
X13780Y-21933D01*
X13780Y-21808D01*
X13732Y-21692D01*
X13644Y-21603D01*
X13528Y-21555D01*
X13456Y-21555D01*
X13456Y-21451D01*
X13392Y-21295D01*
X13390Y-21293D01*
X13414Y-21235D01*
X13547Y-21291D01*
X13716Y-21291D01*
X13872Y-21227D01*
X13992Y-21107D01*
X14057Y-20951D01*
X14057Y-22460D01*
X13961Y-22421D01*
X13836Y-22421D01*
X13720Y-22469D01*
X13631Y-22557D01*
X13583Y-22673D01*
X13583Y-22798D01*
X13604Y-22849D01*
X13563Y-22949D01*
X13563Y-23074D01*
X13611Y-23190D01*
X13665Y-23245D01*
X13642Y-23303D01*
X13642Y-23428D01*
X13690Y-23544D01*
X13778Y-23633D01*
X13894Y-23681D01*
X14019Y-23681D01*
X14135Y-23633D01*
X14224Y-23545D01*
X14272Y-23429D01*
X14272Y-23362D01*
X14332Y-23338D01*
X14421Y-23250D01*
X14469Y-23134D01*
X14469Y-23555D01*
X14428Y-23572D01*
X14339Y-23660D01*
X14291Y-23776D01*
X14291Y-23901D01*
X14339Y-24017D01*
X14427Y-24106D01*
X14543Y-24154D01*
X14668Y-24154D01*
X14784Y-24106D01*
X14873Y-24018D01*
X14921Y-23902D01*
X14921Y-26095D01*
X12580Y-23719D01*
X12570Y-19958D01*
X12624Y-19980D01*
X12749Y-19980D01*
X12865Y-19932D01*
X12954Y-19844D01*
X13002Y-19728D01*
X13002Y-19603D01*
X12954Y-19487D01*
X12866Y-19398D01*
X12813Y-19376D01*
X13110Y-19105D01*
X14219Y-19105D01*
X14172Y-19152D01*
X14124Y-19268D01*
X14124Y-19393D01*
X14172Y-19509D01*
X14260Y-19598D01*
X14376Y-19646D01*
X14501Y-19646D01*
X14617Y-19598D01*
X14706Y-19510D01*
X14731Y-19448D01*
X14776Y-19404D01*
X15261Y-19404D01*
X15236Y-19465D01*
X15236Y-19590D01*
X15284Y-19706D01*
X15372Y-19795D01*
X15488Y-19843D01*
X15613Y-19843D01*
X15729Y-19795D01*
X15818Y-19707D01*
X15819Y-19702D01*
X15921Y-19744D01*
X16046Y-19744D01*
X16162Y-19696D01*
X16251Y-19608D01*
X16299Y-19492D01*
X16299Y-19404D01*
X23741Y-19404D01*
X23768Y-19469D01*
X23856Y-19558D01*
X23972Y-19606D01*
X24097Y-19606D01*
X24210Y-19558D01*
X24226Y-19574D01*
X24342Y-19622D01*
X24467Y-19622D01*
X24583Y-19574D01*
X24672Y-19486D01*
X24720Y-19370D01*
X24720Y-19355D01*
X24969Y-19355D01*
X25092Y-19478D01*
X25117Y-19538D01*
X25205Y-19627D01*
X25321Y-19675D01*
X25446Y-19675D01*
X25562Y-19627D01*
X25651Y-19539D01*
X25699Y-19423D01*
X25699Y-19298D01*
X25651Y-19182D01*
X25574Y-19105D01*
X27037Y-19105D01*
X27588Y-19627D01*
X27588Y-19627D01*
G37*
G54D17*
X27588Y-19627D02*
X27578Y-23818D01*
X27421Y-23974D01*
X27421Y-23606D01*
X27421Y-23481D01*
X27373Y-23365D01*
X27285Y-23276D01*
X27169Y-23228D01*
X27044Y-23228D01*
X26928Y-23276D01*
X26839Y-23364D01*
X26791Y-23480D01*
X26791Y-23605D01*
X26839Y-23721D01*
X26927Y-23810D01*
X27043Y-23858D01*
X27168Y-23858D01*
X27284Y-23810D01*
X27373Y-23722D01*
X27421Y-23606D01*
X27421Y-23974D01*
X26634Y-24758D01*
X26634Y-22514D01*
X26634Y-22389D01*
X26586Y-22273D01*
X26498Y-22184D01*
X26382Y-22136D01*
X26257Y-22136D01*
X26166Y-22173D01*
X26146Y-22165D01*
X26021Y-22165D01*
X25955Y-22192D01*
X25890Y-22165D01*
X25765Y-22165D01*
X25649Y-22213D01*
X25560Y-22301D01*
X25541Y-22345D01*
X25541Y-21825D01*
X25541Y-21700D01*
X25493Y-21584D01*
X25405Y-21495D01*
X25289Y-21447D01*
X25164Y-21447D01*
X25048Y-21495D01*
X24959Y-21583D01*
X24911Y-21699D01*
X24911Y-21824D01*
X24959Y-21940D01*
X25047Y-22029D01*
X25163Y-22077D01*
X25288Y-22077D01*
X25404Y-22029D01*
X25493Y-21941D01*
X25541Y-21825D01*
X25541Y-22345D01*
X25530Y-22372D01*
X25506Y-22362D01*
X25381Y-22362D01*
X25265Y-22410D01*
X25176Y-22498D01*
X25128Y-22614D01*
X25128Y-22739D01*
X25176Y-22855D01*
X25264Y-22944D01*
X25380Y-22992D01*
X25505Y-22992D01*
X25621Y-22944D01*
X25710Y-22856D01*
X25739Y-22784D01*
X25764Y-22795D01*
X25889Y-22795D01*
X25954Y-22767D01*
X26020Y-22795D01*
X26145Y-22795D01*
X26235Y-22757D01*
X26256Y-22766D01*
X26381Y-22766D01*
X26497Y-22718D01*
X26586Y-22630D01*
X26634Y-22514D01*
X26634Y-24758D01*
X26408Y-24984D01*
X26408Y-24738D01*
X26408Y-24613D01*
X26360Y-24497D01*
X26272Y-24408D01*
X26156Y-24360D01*
X26031Y-24360D01*
X25956Y-24390D01*
X25936Y-24340D01*
X25848Y-24251D01*
X25732Y-24203D01*
X25669Y-24203D01*
X25669Y-24092D01*
X25621Y-23976D01*
X25533Y-23887D01*
X25417Y-23839D01*
X25304Y-23839D01*
X25375Y-23810D01*
X25464Y-23722D01*
X25512Y-23606D01*
X25512Y-23481D01*
X25464Y-23365D01*
X25376Y-23276D01*
X25260Y-23228D01*
X25135Y-23228D01*
X25019Y-23276D01*
X24930Y-23364D01*
X24882Y-23480D01*
X24882Y-23605D01*
X24930Y-23721D01*
X25018Y-23810D01*
X25134Y-23858D01*
X25246Y-23858D01*
X25176Y-23887D01*
X25087Y-23975D01*
X25039Y-24091D01*
X25039Y-24216D01*
X25081Y-24319D01*
X25079Y-24327D01*
X25079Y-24452D01*
X25127Y-24568D01*
X25215Y-24657D01*
X25331Y-24705D01*
X25410Y-24705D01*
X25490Y-24785D01*
X25606Y-24833D01*
X25731Y-24833D01*
X25805Y-24802D01*
X25826Y-24853D01*
X25914Y-24942D01*
X26030Y-24990D01*
X26155Y-24990D01*
X26271Y-24942D01*
X26360Y-24854D01*
X26408Y-24738D01*
X26408Y-24984D01*
X24724Y-26662D01*
X24724Y-23055D01*
X24724Y-22930D01*
X24688Y-22844D01*
X24715Y-22780D01*
X24715Y-22655D01*
X24667Y-22539D01*
X24579Y-22450D01*
X24463Y-22402D01*
X24338Y-22402D01*
X24222Y-22450D01*
X24133Y-22538D01*
X24085Y-22654D01*
X24085Y-22655D01*
X24045Y-22615D01*
X24045Y-21146D01*
X24045Y-21021D01*
X23997Y-20905D01*
X23927Y-20834D01*
X23927Y-20765D01*
X23879Y-20649D01*
X23791Y-20560D01*
X23675Y-20512D01*
X23550Y-20512D01*
X23457Y-20550D01*
X23427Y-20520D01*
X23311Y-20472D01*
X23244Y-20472D01*
X23220Y-20413D01*
X23132Y-20324D01*
X23016Y-20276D01*
X22891Y-20276D01*
X22775Y-20324D01*
X22686Y-20412D01*
X22638Y-20528D01*
X22638Y-20653D01*
X22686Y-20769D01*
X22774Y-20858D01*
X22890Y-20906D01*
X22956Y-20906D01*
X22981Y-20965D01*
X23069Y-21054D01*
X23185Y-21102D01*
X23310Y-21102D01*
X23402Y-21063D01*
X23415Y-21075D01*
X23415Y-21145D01*
X23463Y-21261D01*
X23551Y-21350D01*
X23667Y-21398D01*
X23792Y-21398D01*
X23908Y-21350D01*
X23997Y-21262D01*
X24045Y-21146D01*
X24045Y-22615D01*
X23998Y-22568D01*
X23882Y-22520D01*
X23870Y-22520D01*
X23791Y-22440D01*
X23675Y-22392D01*
X23612Y-22392D01*
X23612Y-21854D01*
X23612Y-21729D01*
X23564Y-21613D01*
X23476Y-21524D01*
X23427Y-21503D01*
X23387Y-21407D01*
X23299Y-21318D01*
X23245Y-21295D01*
X23210Y-21210D01*
X23122Y-21121D01*
X23006Y-21073D01*
X22881Y-21073D01*
X22765Y-21121D01*
X22676Y-21209D01*
X22628Y-21325D01*
X22628Y-21450D01*
X22676Y-21566D01*
X22764Y-21655D01*
X22817Y-21677D01*
X22853Y-21763D01*
X22941Y-21852D01*
X22989Y-21872D01*
X23030Y-21969D01*
X23118Y-22058D01*
X23234Y-22106D01*
X23359Y-22106D01*
X23475Y-22058D01*
X23564Y-21970D01*
X23612Y-21854D01*
X23612Y-22392D01*
X23550Y-22392D01*
X23434Y-22440D01*
X23345Y-22528D01*
X23297Y-22644D01*
X23297Y-22769D01*
X23345Y-22885D01*
X23433Y-22974D01*
X23549Y-23022D01*
X23560Y-23022D01*
X23614Y-23075D01*
X23601Y-23089D01*
X23558Y-23192D01*
X23474Y-23227D01*
X23385Y-23315D01*
X23337Y-23431D01*
X23337Y-23556D01*
X23385Y-23672D01*
X23473Y-23761D01*
X23589Y-23809D01*
X23714Y-23809D01*
X23830Y-23761D01*
X23919Y-23673D01*
X23961Y-23569D01*
X24014Y-23547D01*
X24051Y-23563D01*
X24176Y-23563D01*
X24292Y-23515D01*
X24381Y-23427D01*
X24429Y-23311D01*
X24429Y-23307D01*
X24471Y-23307D01*
X24587Y-23259D01*
X24676Y-23171D01*
X24724Y-23055D01*
X24724Y-26662D01*
X24587Y-26799D01*
X24587Y-26739D01*
X24539Y-26623D01*
X24451Y-26534D01*
X24409Y-26516D01*
X24409Y-24177D01*
X24409Y-24052D01*
X24361Y-23936D01*
X24273Y-23847D01*
X24157Y-23799D01*
X24032Y-23799D01*
X23916Y-23847D01*
X23827Y-23935D01*
X23779Y-24051D01*
X23779Y-24176D01*
X23817Y-24268D01*
X23705Y-24222D01*
X23580Y-24222D01*
X23464Y-24270D01*
X23375Y-24358D01*
X23327Y-24474D01*
X23327Y-24599D01*
X23375Y-24715D01*
X23463Y-24804D01*
X23518Y-24827D01*
X23542Y-24883D01*
X23630Y-24972D01*
X23746Y-25020D01*
X23871Y-25020D01*
X23987Y-24972D01*
X24076Y-24884D01*
X24124Y-24768D01*
X24124Y-24643D01*
X24076Y-24527D01*
X23988Y-24438D01*
X23932Y-24414D01*
X23918Y-24382D01*
X24031Y-24429D01*
X24156Y-24429D01*
X24272Y-24381D01*
X24361Y-24293D01*
X24409Y-24177D01*
X24409Y-26516D01*
X24335Y-26486D01*
X24210Y-26486D01*
X24094Y-26534D01*
X24005Y-26622D01*
X23957Y-26738D01*
X23957Y-26863D01*
X24005Y-26979D01*
X24093Y-27068D01*
X24206Y-27114D01*
X22913Y-27111D01*
X22913Y-22533D01*
X22913Y-22408D01*
X22865Y-22292D01*
X22777Y-22203D01*
X22661Y-22155D01*
X22536Y-22155D01*
X22420Y-22203D01*
X22331Y-22291D01*
X22283Y-22407D01*
X22283Y-22532D01*
X22287Y-22542D01*
X22278Y-22539D01*
X22153Y-22539D01*
X22037Y-22587D01*
X21948Y-22675D01*
X21900Y-22791D01*
X21900Y-22881D01*
X21879Y-22902D01*
X21831Y-23018D01*
X21831Y-23143D01*
X21879Y-23259D01*
X21967Y-23348D01*
X22083Y-23396D01*
X22208Y-23396D01*
X22324Y-23348D01*
X22413Y-23260D01*
X22461Y-23144D01*
X22461Y-23053D01*
X22482Y-23033D01*
X22530Y-22917D01*
X22530Y-22792D01*
X22525Y-22781D01*
X22535Y-22785D01*
X22660Y-22785D01*
X22776Y-22737D01*
X22865Y-22649D01*
X22913Y-22533D01*
X22913Y-27111D01*
X22756Y-27110D01*
X22756Y-25447D01*
X22756Y-25322D01*
X22708Y-25206D01*
X22620Y-25117D01*
X22559Y-25091D01*
X22521Y-24999D01*
X22433Y-24910D01*
X22317Y-24862D01*
X22215Y-24862D01*
X22215Y-24443D01*
X22215Y-24318D01*
X22167Y-24202D01*
X22079Y-24113D01*
X22088Y-24106D01*
X22136Y-23990D01*
X22136Y-23865D01*
X22088Y-23749D01*
X22000Y-23660D01*
X21884Y-23612D01*
X21759Y-23612D01*
X21643Y-23660D01*
X21554Y-23748D01*
X21506Y-23864D01*
X21506Y-23989D01*
X21554Y-24105D01*
X21641Y-24193D01*
X21633Y-24201D01*
X21585Y-24317D01*
X21585Y-24400D01*
X21521Y-24464D01*
X21473Y-24580D01*
X21473Y-24705D01*
X21521Y-24821D01*
X21609Y-24910D01*
X21725Y-24958D01*
X21850Y-24958D01*
X21966Y-24910D01*
X22055Y-24822D01*
X22103Y-24706D01*
X22103Y-24622D01*
X22167Y-24559D01*
X22215Y-24443D01*
X22215Y-24862D01*
X22192Y-24862D01*
X22076Y-24910D01*
X22014Y-24970D01*
X22012Y-24970D01*
X21887Y-24970D01*
X21771Y-25018D01*
X21682Y-25106D01*
X21634Y-25222D01*
X21634Y-25347D01*
X21663Y-25417D01*
X21634Y-25488D01*
X21634Y-25613D01*
X21682Y-25729D01*
X21770Y-25818D01*
X21886Y-25866D01*
X22011Y-25866D01*
X22127Y-25818D01*
X22216Y-25730D01*
X22252Y-25641D01*
X22262Y-25651D01*
X22378Y-25699D01*
X22503Y-25699D01*
X22619Y-25651D01*
X22708Y-25563D01*
X22756Y-25447D01*
X22756Y-27110D01*
X21447Y-27108D01*
X21447Y-21234D01*
X21447Y-21109D01*
X21399Y-20993D01*
X21311Y-20904D01*
X21195Y-20856D01*
X21070Y-20856D01*
X20954Y-20904D01*
X20948Y-20909D01*
X20939Y-20905D01*
X20814Y-20905D01*
X20698Y-20953D01*
X20609Y-21041D01*
X20561Y-21157D01*
X20561Y-21282D01*
X20609Y-21398D01*
X20697Y-21487D01*
X20718Y-21496D01*
X20716Y-21496D01*
X20600Y-21544D01*
X20511Y-21632D01*
X20488Y-21686D01*
X20474Y-21672D01*
X20358Y-21624D01*
X20233Y-21624D01*
X20117Y-21672D01*
X20028Y-21760D01*
X19980Y-21876D01*
X19980Y-22001D01*
X19999Y-22047D01*
X19918Y-22047D01*
X19802Y-22095D01*
X19713Y-22183D01*
X19665Y-22299D01*
X19665Y-22424D01*
X19713Y-22540D01*
X19800Y-22628D01*
X19772Y-22656D01*
X19724Y-22772D01*
X19724Y-22897D01*
X19772Y-23013D01*
X19860Y-23102D01*
X19976Y-23150D01*
X20101Y-23150D01*
X20217Y-23102D01*
X20266Y-23053D01*
X20333Y-23121D01*
X20449Y-23169D01*
X20574Y-23169D01*
X20690Y-23121D01*
X20728Y-23083D01*
X20766Y-23121D01*
X20768Y-23121D01*
X20768Y-23162D01*
X20816Y-23278D01*
X20904Y-23367D01*
X21020Y-23415D01*
X21145Y-23415D01*
X21261Y-23367D01*
X21350Y-23279D01*
X21398Y-23163D01*
X21398Y-23038D01*
X21350Y-22922D01*
X21262Y-22833D01*
X21260Y-22832D01*
X21260Y-22792D01*
X21212Y-22676D01*
X21124Y-22587D01*
X21008Y-22539D01*
X20883Y-22539D01*
X20767Y-22587D01*
X20728Y-22624D01*
X20691Y-22587D01*
X20575Y-22539D01*
X20512Y-22539D01*
X20512Y-22418D01*
X20464Y-22302D01*
X20399Y-22236D01*
X20473Y-22206D01*
X20562Y-22118D01*
X20584Y-22063D01*
X20599Y-22078D01*
X20715Y-22126D01*
X20840Y-22126D01*
X20956Y-22078D01*
X21016Y-22018D01*
X21086Y-22018D01*
X21202Y-21970D01*
X21291Y-21882D01*
X21339Y-21766D01*
X21339Y-21641D01*
X21291Y-21525D01*
X21235Y-21468D01*
X21310Y-21438D01*
X21399Y-21350D01*
X21447Y-21234D01*
X21447Y-27108D01*
X20571Y-27106D01*
X20571Y-24138D01*
X20571Y-24013D01*
X20523Y-23897D01*
X20435Y-23808D01*
X20319Y-23760D01*
X20194Y-23760D01*
X20078Y-23808D01*
X19989Y-23896D01*
X19941Y-24012D01*
X19941Y-24137D01*
X19989Y-24253D01*
X20077Y-24342D01*
X20193Y-24390D01*
X20318Y-24390D01*
X20434Y-24342D01*
X20523Y-24254D01*
X20571Y-24138D01*
X20571Y-27106D01*
X19784Y-27104D01*
X19784Y-24837D01*
X19784Y-24712D01*
X19760Y-24656D01*
X19784Y-24600D01*
X19784Y-24475D01*
X19736Y-24359D01*
X19648Y-24270D01*
X19532Y-24222D01*
X19460Y-24222D01*
X19431Y-24192D01*
X19315Y-24144D01*
X19311Y-24144D01*
X19311Y-22425D01*
X19311Y-22300D01*
X19263Y-22184D01*
X19175Y-22095D01*
X19136Y-22079D01*
X19173Y-21992D01*
X19173Y-21867D01*
X19125Y-21751D01*
X19037Y-21662D01*
X18989Y-21642D01*
X19016Y-21579D01*
X19016Y-21454D01*
X18968Y-21338D01*
X18880Y-21249D01*
X18764Y-21201D01*
X18639Y-21201D01*
X18523Y-21249D01*
X18465Y-21306D01*
X18465Y-21218D01*
X18417Y-21102D01*
X18329Y-21013D01*
X18213Y-20965D01*
X18130Y-20965D01*
X18130Y-20922D01*
X18082Y-20806D01*
X17994Y-20717D01*
X17878Y-20669D01*
X17753Y-20669D01*
X17637Y-20717D01*
X17548Y-20805D01*
X17547Y-20807D01*
X17517Y-20807D01*
X17401Y-20855D01*
X17312Y-20943D01*
X17265Y-21054D01*
X17224Y-21072D01*
X17135Y-21160D01*
X17087Y-21276D01*
X17087Y-21299D01*
X16966Y-21299D01*
X16909Y-21322D01*
X16909Y-20397D01*
X16909Y-20272D01*
X16861Y-20156D01*
X16773Y-20067D01*
X16657Y-20019D01*
X16532Y-20019D01*
X16416Y-20067D01*
X16327Y-20155D01*
X16279Y-20271D01*
X16279Y-20396D01*
X16327Y-20512D01*
X16415Y-20601D01*
X16531Y-20649D01*
X16656Y-20649D01*
X16772Y-20601D01*
X16861Y-20513D01*
X16909Y-20397D01*
X16909Y-21322D01*
X16850Y-21347D01*
X16761Y-21435D01*
X16713Y-21551D01*
X16713Y-21676D01*
X16749Y-21764D01*
X16732Y-21807D01*
X16732Y-21932D01*
X16780Y-22048D01*
X16868Y-22137D01*
X16984Y-22185D01*
X17109Y-22185D01*
X17225Y-22137D01*
X17314Y-22049D01*
X17362Y-21933D01*
X17362Y-21808D01*
X17325Y-21719D01*
X17343Y-21677D01*
X17343Y-21654D01*
X17464Y-21654D01*
X17580Y-21606D01*
X17669Y-21518D01*
X17715Y-21406D01*
X17757Y-21389D01*
X17835Y-21311D01*
X17835Y-21342D01*
X17883Y-21458D01*
X17950Y-21526D01*
X17883Y-21593D01*
X17835Y-21709D01*
X17835Y-21834D01*
X17883Y-21950D01*
X17971Y-22039D01*
X18087Y-22087D01*
X18212Y-22087D01*
X18317Y-22043D01*
X18335Y-22087D01*
X18423Y-22176D01*
X18539Y-22224D01*
X18664Y-22224D01*
X18705Y-22206D01*
X18717Y-22211D01*
X18688Y-22281D01*
X18646Y-22264D01*
X18521Y-22264D01*
X18405Y-22312D01*
X18316Y-22400D01*
X18268Y-22516D01*
X18268Y-22641D01*
X18316Y-22757D01*
X18404Y-22846D01*
X18520Y-22894D01*
X18622Y-22894D01*
X18622Y-22936D01*
X18670Y-23052D01*
X18758Y-23141D01*
X18874Y-23189D01*
X18999Y-23189D01*
X19115Y-23141D01*
X19204Y-23053D01*
X19252Y-22937D01*
X19252Y-22812D01*
X19204Y-22696D01*
X19148Y-22639D01*
X19174Y-22629D01*
X19263Y-22541D01*
X19311Y-22425D01*
X19311Y-24144D01*
X19190Y-24144D01*
X19166Y-24153D01*
X19165Y-24152D01*
X19055Y-24106D01*
X19055Y-23993D01*
X19007Y-23877D01*
X18919Y-23788D01*
X18803Y-23740D01*
X18678Y-23740D01*
X18562Y-23788D01*
X18473Y-23876D01*
X18425Y-23992D01*
X18425Y-24117D01*
X18473Y-24233D01*
X18561Y-24322D01*
X18671Y-24367D01*
X18671Y-24481D01*
X18719Y-24597D01*
X18807Y-24686D01*
X18923Y-24734D01*
X19048Y-24734D01*
X19071Y-24724D01*
X19073Y-24726D01*
X19154Y-24759D01*
X19154Y-24836D01*
X19202Y-24952D01*
X19290Y-25041D01*
X19406Y-25089D01*
X19531Y-25089D01*
X19647Y-25041D01*
X19736Y-24953D01*
X19784Y-24837D01*
X19784Y-27104D01*
X18051Y-27100D01*
X18051Y-23685D01*
X18051Y-23560D01*
X18003Y-23444D01*
X17915Y-23355D01*
X17875Y-23338D01*
X17846Y-23267D01*
X17758Y-23178D01*
X17642Y-23130D01*
X17517Y-23130D01*
X17508Y-23133D01*
X17406Y-23091D01*
X17402Y-23091D01*
X17402Y-22989D01*
X17354Y-22873D01*
X17266Y-22784D01*
X17150Y-22736D01*
X17025Y-22736D01*
X16909Y-22784D01*
X16894Y-22798D01*
X16861Y-22717D01*
X16773Y-22628D01*
X16657Y-22580D01*
X16532Y-22580D01*
X16496Y-22594D01*
X16496Y-21057D01*
X16496Y-20932D01*
X16448Y-20816D01*
X16360Y-20727D01*
X16244Y-20679D01*
X16119Y-20679D01*
X16003Y-20727D01*
X15914Y-20815D01*
X15866Y-20931D01*
X15866Y-21031D01*
X15836Y-21061D01*
X15788Y-21177D01*
X15788Y-21302D01*
X15821Y-21381D01*
X15787Y-21396D01*
X15698Y-21484D01*
X15650Y-21600D01*
X15650Y-21710D01*
X15535Y-21663D01*
X15433Y-21663D01*
X15433Y-20929D01*
X15433Y-20804D01*
X15385Y-20688D01*
X15297Y-20599D01*
X15181Y-20551D01*
X15056Y-20551D01*
X14940Y-20599D01*
X14851Y-20687D01*
X14803Y-20803D01*
X14803Y-20928D01*
X14851Y-21044D01*
X14939Y-21133D01*
X15055Y-21181D01*
X15180Y-21181D01*
X15296Y-21133D01*
X15385Y-21045D01*
X15433Y-20929D01*
X15433Y-21663D01*
X15410Y-21663D01*
X15294Y-21711D01*
X15205Y-21799D01*
X15157Y-21915D01*
X15157Y-22040D01*
X15205Y-22156D01*
X15293Y-22245D01*
X15409Y-22293D01*
X15423Y-22293D01*
X15461Y-22383D01*
X15549Y-22472D01*
X15665Y-22520D01*
X15790Y-22520D01*
X15906Y-22472D01*
X15995Y-22384D01*
X16043Y-22268D01*
X16043Y-22143D01*
X15995Y-22027D01*
X15946Y-21978D01*
X16027Y-21978D01*
X16143Y-21930D01*
X16232Y-21842D01*
X16280Y-21726D01*
X16280Y-21601D01*
X16246Y-21521D01*
X16281Y-21507D01*
X16370Y-21419D01*
X16418Y-21303D01*
X16418Y-21202D01*
X16448Y-21173D01*
X16496Y-21057D01*
X16496Y-22594D01*
X16416Y-22628D01*
X16327Y-22716D01*
X16279Y-22832D01*
X16279Y-22957D01*
X16327Y-23073D01*
X16415Y-23162D01*
X16531Y-23210D01*
X16656Y-23210D01*
X16772Y-23162D01*
X16786Y-23147D01*
X16820Y-23229D01*
X16908Y-23318D01*
X17024Y-23366D01*
X17028Y-23366D01*
X17028Y-23468D01*
X17076Y-23584D01*
X17164Y-23673D01*
X17280Y-23721D01*
X17405Y-23721D01*
X17413Y-23717D01*
X17439Y-23728D01*
X17465Y-23791D01*
X17381Y-23827D01*
X17292Y-23915D01*
X17279Y-23945D01*
X17184Y-23985D01*
X17095Y-24073D01*
X17047Y-24189D01*
X17047Y-24314D01*
X17095Y-24430D01*
X17183Y-24519D01*
X17299Y-24567D01*
X17424Y-24567D01*
X17540Y-24519D01*
X17629Y-24431D01*
X17641Y-24400D01*
X17737Y-24361D01*
X17826Y-24273D01*
X17874Y-24157D01*
X17874Y-24032D01*
X17829Y-23924D01*
X17914Y-23889D01*
X18003Y-23801D01*
X18051Y-23685D01*
X18051Y-27100D01*
X17047Y-27098D01*
X17047Y-25476D01*
X17047Y-25351D01*
X17024Y-25295D01*
X17047Y-25240D01*
X17047Y-25115D01*
X16999Y-24999D01*
X16911Y-24910D01*
X16795Y-24862D01*
X16670Y-24862D01*
X16554Y-24910D01*
X16544Y-24919D01*
X16575Y-24846D01*
X16575Y-24721D01*
X16568Y-24704D01*
X16586Y-24687D01*
X16634Y-24571D01*
X16634Y-24547D01*
X16656Y-24547D01*
X16772Y-24499D01*
X16861Y-24411D01*
X16909Y-24295D01*
X16909Y-24170D01*
X16865Y-24065D01*
X16910Y-24047D01*
X16999Y-23959D01*
X17047Y-23843D01*
X17047Y-23718D01*
X16999Y-23602D01*
X16911Y-23513D01*
X16795Y-23465D01*
X16670Y-23465D01*
X16554Y-23513D01*
X16465Y-23601D01*
X16417Y-23717D01*
X16417Y-23842D01*
X16460Y-23946D01*
X16416Y-23965D01*
X16327Y-24053D01*
X16279Y-24169D01*
X16279Y-24193D01*
X16257Y-24193D01*
X16141Y-24241D01*
X16109Y-24272D01*
X16021Y-24272D01*
X15905Y-24320D01*
X15816Y-24408D01*
X15768Y-24524D01*
X15768Y-24649D01*
X15816Y-24765D01*
X15904Y-24854D01*
X15957Y-24876D01*
X15993Y-24961D01*
X16081Y-25050D01*
X16197Y-25098D01*
X16322Y-25098D01*
X16438Y-25050D01*
X16447Y-25040D01*
X16417Y-25114D01*
X16417Y-25239D01*
X16439Y-25294D01*
X16417Y-25350D01*
X16417Y-25475D01*
X16465Y-25591D01*
X16553Y-25680D01*
X16669Y-25728D01*
X16794Y-25728D01*
X16910Y-25680D01*
X16999Y-25592D01*
X17047Y-25476D01*
X17047Y-27098D01*
X16614Y-27097D01*
X16614Y-26392D01*
X16614Y-26267D01*
X16566Y-26151D01*
X16478Y-26062D01*
X16362Y-26014D01*
X16237Y-26014D01*
X16121Y-26062D01*
X16091Y-26090D01*
X15979Y-26044D01*
X15854Y-26044D01*
X15738Y-26092D01*
X15649Y-26180D01*
X15601Y-26296D01*
X15601Y-26421D01*
X15649Y-26537D01*
X15737Y-26626D01*
X15853Y-26674D01*
X15978Y-26674D01*
X16094Y-26626D01*
X16123Y-26597D01*
X16236Y-26644D01*
X16361Y-26644D01*
X16477Y-26596D01*
X16566Y-26508D01*
X16614Y-26392D01*
X16614Y-27097D01*
X15907Y-27096D01*
X14921Y-26095D01*
X14921Y-23902D01*
X14921Y-23777D01*
X14873Y-23661D01*
X14785Y-23572D01*
X14669Y-23524D01*
X14544Y-23524D01*
X14469Y-23555D01*
X14469Y-23134D01*
X14469Y-23009D01*
X14421Y-22893D01*
X14333Y-22804D01*
X14217Y-22756D01*
X14213Y-22756D01*
X14213Y-22674D01*
X14165Y-22558D01*
X14077Y-22469D01*
X14057Y-22460D01*
X14057Y-20951D01*
X14057Y-20782D01*
X13993Y-20626D01*
X13873Y-20506D01*
X13717Y-20441D01*
X13548Y-20441D01*
X13392Y-20505D01*
X13272Y-20625D01*
X13239Y-20703D01*
X13107Y-20648D01*
X12938Y-20648D01*
X12782Y-20712D01*
X12662Y-20832D01*
X12597Y-20988D01*
X12597Y-21157D01*
X12661Y-21313D01*
X12662Y-21314D01*
X12606Y-21450D01*
X12606Y-21619D01*
X12670Y-21775D01*
X12790Y-21895D01*
X12946Y-21960D01*
X13115Y-21960D01*
X13154Y-21943D01*
X13198Y-22048D01*
X13286Y-22137D01*
X13402Y-22185D01*
X13527Y-22185D01*
X13643Y-22137D01*
X13732Y-22049D01*
X13780Y-21933D01*
X13780Y-21808D01*
X13732Y-21692D01*
X13644Y-21603D01*
X13528Y-21555D01*
X13456Y-21555D01*
X13456Y-21451D01*
X13392Y-21295D01*
X13390Y-21293D01*
X13414Y-21235D01*
X13547Y-21291D01*
X13716Y-21291D01*
X13872Y-21227D01*
X13992Y-21107D01*
X14057Y-20951D01*
X14057Y-22460D01*
X13961Y-22421D01*
X13836Y-22421D01*
X13720Y-22469D01*
X13631Y-22557D01*
X13583Y-22673D01*
X13583Y-22798D01*
X13604Y-22849D01*
X13563Y-22949D01*
X13563Y-23074D01*
X13611Y-23190D01*
X13665Y-23245D01*
X13642Y-23303D01*
X13642Y-23428D01*
X13690Y-23544D01*
X13778Y-23633D01*
X13894Y-23681D01*
X14019Y-23681D01*
X14135Y-23633D01*
X14224Y-23545D01*
X14272Y-23429D01*
X14272Y-23362D01*
X14332Y-23338D01*
X14421Y-23250D01*
X14469Y-23134D01*
X14469Y-23555D01*
X14428Y-23572D01*
X14339Y-23660D01*
X14291Y-23776D01*
X14291Y-23901D01*
X14339Y-24017D01*
X14427Y-24106D01*
X14543Y-24154D01*
X14668Y-24154D01*
X14784Y-24106D01*
X14873Y-24018D01*
X14921Y-23902D01*
X14921Y-26095D01*
X12580Y-23719D01*
X12570Y-19958D01*
X12624Y-19980D01*
X12749Y-19980D01*
X12865Y-19932D01*
X12954Y-19844D01*
X13002Y-19728D01*
X13002Y-19603D01*
X12954Y-19487D01*
X12866Y-19398D01*
X12813Y-19376D01*
X13110Y-19105D01*
X14219Y-19105D01*
X14172Y-19152D01*
X14124Y-19268D01*
X14124Y-19393D01*
X14172Y-19509D01*
X14260Y-19598D01*
X14376Y-19646D01*
X14501Y-19646D01*
X14617Y-19598D01*
X14706Y-19510D01*
X14731Y-19448D01*
X14776Y-19404D01*
X15261Y-19404D01*
X15236Y-19465D01*
X15236Y-19590D01*
X15284Y-19706D01*
X15372Y-19795D01*
X15488Y-19843D01*
X15613Y-19843D01*
X15729Y-19795D01*
X15818Y-19707D01*
X15819Y-19702D01*
X15921Y-19744D01*
X16046Y-19744D01*
X16162Y-19696D01*
X16251Y-19608D01*
X16299Y-19492D01*
X16299Y-19404D01*
X23741Y-19404D01*
X23768Y-19469D01*
X23856Y-19558D01*
X23972Y-19606D01*
X24097Y-19606D01*
X24210Y-19558D01*
X24226Y-19574D01*
X24342Y-19622D01*
X24467Y-19622D01*
X24583Y-19574D01*
X24672Y-19486D01*
X24720Y-19370D01*
X24720Y-19355D01*
X24969Y-19355D01*
X25092Y-19478D01*
X25117Y-19538D01*
X25205Y-19627D01*
X25321Y-19675D01*
X25446Y-19675D01*
X25562Y-19627D01*
X25651Y-19539D01*
X25699Y-19423D01*
X25699Y-19298D01*
X25651Y-19182D01*
X25574Y-19105D01*
X27037Y-19105D01*
X27588Y-19627D01*
M02*
