G04 (created by PCBNEW-RS274X (2012-apr-16-27)-stable) date Thu 13 Mar 2014 06:24:37 PM EDT*
G01*
G70*
G90*
%MOIN*%
G04 Gerber Fmt 3.4, Leading zero omitted, Abs format*
%FSLAX34Y34*%
G04 APERTURE LIST*
%ADD10C,0.006000*%
%ADD11C,0.007400*%
%ADD12C,0.015000*%
%ADD13C,0.000400*%
%ADD14C,0.005000*%
%ADD15C,0.007900*%
%ADD16C,0.004500*%
%ADD17C,0.012000*%
G04 APERTURE END LIST*
G54D10*
G54D11*
X33871Y-41276D02*
X33889Y-41248D01*
X33889Y-41192D01*
X33871Y-41163D01*
X33833Y-41149D01*
X33814Y-41149D01*
X33777Y-41163D01*
X33758Y-41192D01*
X33758Y-41234D01*
X33739Y-41262D01*
X33702Y-41276D01*
X33683Y-41276D01*
X33646Y-41262D01*
X33627Y-41234D01*
X33627Y-41192D01*
X33646Y-41163D01*
X33871Y-40896D02*
X33889Y-40924D01*
X33889Y-40981D01*
X33871Y-41009D01*
X33852Y-41023D01*
X33814Y-41037D01*
X33702Y-41037D01*
X33664Y-41023D01*
X33646Y-41009D01*
X33627Y-40981D01*
X33627Y-40924D01*
X33646Y-40896D01*
X33889Y-40770D02*
X33627Y-40770D01*
X33495Y-40770D02*
X33514Y-40784D01*
X33533Y-40770D01*
X33514Y-40756D01*
X33495Y-40770D01*
X33533Y-40770D01*
X33871Y-40517D02*
X33889Y-40545D01*
X33889Y-40602D01*
X33871Y-40630D01*
X33833Y-40644D01*
X33683Y-40644D01*
X33646Y-40630D01*
X33627Y-40602D01*
X33627Y-40545D01*
X33646Y-40517D01*
X33683Y-40503D01*
X33721Y-40503D01*
X33758Y-40644D01*
X33627Y-40377D02*
X33889Y-40377D01*
X33664Y-40377D02*
X33646Y-40363D01*
X33627Y-40335D01*
X33627Y-40292D01*
X33646Y-40264D01*
X33683Y-40250D01*
X33889Y-40250D01*
X33871Y-39983D02*
X33889Y-40011D01*
X33889Y-40068D01*
X33871Y-40096D01*
X33852Y-40110D01*
X33814Y-40124D01*
X33702Y-40124D01*
X33664Y-40110D01*
X33646Y-40096D01*
X33627Y-40068D01*
X33627Y-40011D01*
X33646Y-39983D01*
X33871Y-39744D02*
X33889Y-39772D01*
X33889Y-39829D01*
X33871Y-39857D01*
X33833Y-39871D01*
X33683Y-39871D01*
X33646Y-39857D01*
X33627Y-39829D01*
X33627Y-39772D01*
X33646Y-39744D01*
X33683Y-39730D01*
X33721Y-39730D01*
X33758Y-39871D01*
X33627Y-39646D02*
X33627Y-39534D01*
X33495Y-39604D02*
X33833Y-39604D01*
X33871Y-39590D01*
X33889Y-39562D01*
X33889Y-39534D01*
X33627Y-39463D02*
X33889Y-39393D01*
X33627Y-39322D02*
X33889Y-39393D01*
X33983Y-39421D01*
X34002Y-39435D01*
X34021Y-39463D01*
X33627Y-39210D02*
X34021Y-39210D01*
X33646Y-39210D02*
X33627Y-39182D01*
X33627Y-39125D01*
X33646Y-39097D01*
X33664Y-39083D01*
X33702Y-39069D01*
X33814Y-39069D01*
X33852Y-39083D01*
X33871Y-39097D01*
X33889Y-39125D01*
X33889Y-39182D01*
X33871Y-39210D01*
X33871Y-38830D02*
X33889Y-38858D01*
X33889Y-38915D01*
X33871Y-38943D01*
X33833Y-38957D01*
X33683Y-38957D01*
X33646Y-38943D01*
X33627Y-38915D01*
X33627Y-38858D01*
X33646Y-38830D01*
X33683Y-38816D01*
X33721Y-38816D01*
X33758Y-38957D01*
X33871Y-38704D02*
X33889Y-38676D01*
X33889Y-38620D01*
X33871Y-38591D01*
X33833Y-38577D01*
X33814Y-38577D01*
X33777Y-38591D01*
X33758Y-38620D01*
X33758Y-38662D01*
X33739Y-38690D01*
X33702Y-38704D01*
X33683Y-38704D01*
X33646Y-38690D01*
X33627Y-38662D01*
X33627Y-38620D01*
X33646Y-38591D01*
X33852Y-38451D02*
X33871Y-38437D01*
X33889Y-38451D01*
X33871Y-38465D01*
X33852Y-38451D01*
X33889Y-38451D01*
X33871Y-38184D02*
X33889Y-38212D01*
X33889Y-38269D01*
X33871Y-38297D01*
X33852Y-38311D01*
X33814Y-38325D01*
X33702Y-38325D01*
X33664Y-38311D01*
X33646Y-38297D01*
X33627Y-38269D01*
X33627Y-38212D01*
X33646Y-38184D01*
X33889Y-38016D02*
X33871Y-38044D01*
X33852Y-38058D01*
X33814Y-38072D01*
X33702Y-38072D01*
X33664Y-38058D01*
X33646Y-38044D01*
X33627Y-38016D01*
X33627Y-37973D01*
X33646Y-37945D01*
X33664Y-37931D01*
X33702Y-37917D01*
X33814Y-37917D01*
X33852Y-37931D01*
X33871Y-37945D01*
X33889Y-37973D01*
X33889Y-38016D01*
X33889Y-37791D02*
X33627Y-37791D01*
X33664Y-37791D02*
X33646Y-37777D01*
X33627Y-37749D01*
X33627Y-37706D01*
X33646Y-37678D01*
X33683Y-37664D01*
X33889Y-37664D01*
X33683Y-37664D02*
X33646Y-37650D01*
X33627Y-37622D01*
X33627Y-37580D01*
X33646Y-37552D01*
X33683Y-37538D01*
X33889Y-37538D01*
X38543Y-39461D02*
X38642Y-39461D01*
X38684Y-39667D02*
X38543Y-39667D01*
X38543Y-39273D01*
X38684Y-39273D01*
X38810Y-39667D02*
X38810Y-39273D01*
X39049Y-39461D02*
X39091Y-39480D01*
X39105Y-39499D01*
X39119Y-39536D01*
X39119Y-39592D01*
X39105Y-39630D01*
X39091Y-39649D01*
X39063Y-39667D01*
X38950Y-39667D01*
X38950Y-39273D01*
X39049Y-39273D01*
X39077Y-39292D01*
X39091Y-39311D01*
X39105Y-39349D01*
X39105Y-39386D01*
X39091Y-39424D01*
X39077Y-39442D01*
X39049Y-39461D01*
X38950Y-39461D01*
X39428Y-39273D02*
X39526Y-39667D01*
X39625Y-39273D01*
X39878Y-39667D02*
X39709Y-39667D01*
X39793Y-39667D02*
X39793Y-39273D01*
X39765Y-39330D01*
X39737Y-39367D01*
X39709Y-39386D01*
G54D12*
X41102Y-31339D02*
X41201Y-31004D01*
X42520Y-31831D02*
X42677Y-31516D01*
X43898Y-32520D02*
X44114Y-32283D01*
X45217Y-33209D02*
X45276Y-33150D01*
X45453Y-33878D02*
X45669Y-33701D01*
X46299Y-35079D02*
X46594Y-34902D01*
X46969Y-36496D02*
X47343Y-36378D01*
X47421Y-38091D02*
X47756Y-38051D01*
X47500Y-39705D02*
X47874Y-39705D01*
X47303Y-41220D02*
X47677Y-41319D01*
X46890Y-42657D02*
X47146Y-42815D01*
X46083Y-43976D02*
X46378Y-44154D01*
X45177Y-45177D02*
X45413Y-45374D01*
X44055Y-46142D02*
X44193Y-46378D01*
X42736Y-46870D02*
X42835Y-47126D01*
X41319Y-47382D02*
X41378Y-47657D01*
X39823Y-47638D02*
X39843Y-47874D01*
X38957Y-47894D02*
X38957Y-47874D01*
X38957Y-47638D02*
X38957Y-47894D01*
X37461Y-47402D02*
X37402Y-47657D01*
X36063Y-46890D02*
X35925Y-47146D01*
X34744Y-46142D02*
X34567Y-46358D01*
X33504Y-45413D02*
X33406Y-45512D01*
X33130Y-44823D02*
X32972Y-44961D01*
X32421Y-43622D02*
X32087Y-43760D01*
X31732Y-42283D02*
X31437Y-42382D01*
X31339Y-40827D02*
X31004Y-40846D01*
X31909Y-39173D02*
X30925Y-39075D01*
X31555Y-37244D02*
X31220Y-37106D01*
X32047Y-35827D02*
X31772Y-35689D01*
X32756Y-34567D02*
X32539Y-34331D01*
X33701Y-33406D02*
X33543Y-33189D01*
X34882Y-32441D02*
X34744Y-32205D01*
X36220Y-31732D02*
X36102Y-31457D01*
X37638Y-31201D02*
X37618Y-31004D01*
X39055Y-30906D02*
X39055Y-30827D01*
X39724Y-30945D02*
X39744Y-30846D01*
G54D13*
X38976Y-39370D02*
X39764Y-39370D01*
X39370Y-38976D02*
X39370Y-39764D01*
X48032Y-39370D02*
X47867Y-41052D01*
X47378Y-42670D01*
X46584Y-44163D01*
X45516Y-45473D01*
X44213Y-46551D01*
X42726Y-47355D01*
X41111Y-47855D01*
X39430Y-48031D01*
X37747Y-47878D01*
X36126Y-47401D01*
X34628Y-46618D01*
X33310Y-45558D01*
X32223Y-44263D01*
X31409Y-42782D01*
X30898Y-41170D01*
X30709Y-39490D01*
X30851Y-37807D01*
X31317Y-36182D01*
X32090Y-34678D01*
X33140Y-33353D01*
X34427Y-32258D01*
X35903Y-31433D01*
X37510Y-30911D01*
X39189Y-30710D01*
X40874Y-30840D01*
X42502Y-31295D01*
X44011Y-32057D01*
X45343Y-33098D01*
X46448Y-34377D01*
X47283Y-35847D01*
X47816Y-37451D01*
X48028Y-39129D01*
X48032Y-39370D01*
G54D14*
X38920Y-33766D02*
X39820Y-33766D01*
X39820Y-33766D02*
X39820Y-34266D01*
X39820Y-34266D02*
X38920Y-34266D01*
X38920Y-34266D02*
X38920Y-33766D01*
X38920Y-33057D02*
X39820Y-33057D01*
X39820Y-33057D02*
X39820Y-33557D01*
X39820Y-33557D02*
X38920Y-33557D01*
X38920Y-33557D02*
X38920Y-33057D01*
X44092Y-34778D02*
X43192Y-34778D01*
X43192Y-34778D02*
X43192Y-34278D01*
X43192Y-34278D02*
X44092Y-34278D01*
X44092Y-34278D02*
X44092Y-34778D01*
X37793Y-35368D02*
X36893Y-35368D01*
X36893Y-35368D02*
X36893Y-34868D01*
X36893Y-34868D02*
X37793Y-34868D01*
X37793Y-34868D02*
X37793Y-35368D01*
X35667Y-44384D02*
X34767Y-44384D01*
X34767Y-44384D02*
X34767Y-43884D01*
X34767Y-43884D02*
X35667Y-43884D01*
X35667Y-43884D02*
X35667Y-44384D01*
X39258Y-44584D02*
X39258Y-43684D01*
X39258Y-43684D02*
X39758Y-43684D01*
X39758Y-43684D02*
X39758Y-44584D01*
X39758Y-44584D02*
X39258Y-44584D01*
G54D15*
X36615Y-43307D02*
X35571Y-43307D01*
X36595Y-35433D02*
X35591Y-35433D01*
X35512Y-36122D02*
X35532Y-36122D01*
X35394Y-36122D02*
X35512Y-36122D01*
X35473Y-35826D02*
X35414Y-35886D01*
X35473Y-35846D02*
X35473Y-36102D01*
X36772Y-43306D02*
X36772Y-42932D01*
X36615Y-43306D02*
X36772Y-43306D01*
X36615Y-35433D02*
X36772Y-35433D01*
X36772Y-35433D02*
X36772Y-35807D01*
X43308Y-43110D02*
X42264Y-43110D01*
X43288Y-35236D02*
X42284Y-35236D01*
X42205Y-35925D02*
X42225Y-35925D01*
X42087Y-35925D02*
X42205Y-35925D01*
X42166Y-35629D02*
X42107Y-35689D01*
X42166Y-35649D02*
X42166Y-35905D01*
X43465Y-43109D02*
X43465Y-42735D01*
X43308Y-43109D02*
X43465Y-43109D01*
X43308Y-35236D02*
X43465Y-35236D01*
X43465Y-35236D02*
X43465Y-35610D01*
G54D16*
X40130Y-34116D02*
X40070Y-34021D01*
X40027Y-34116D02*
X40027Y-33916D01*
X40095Y-33916D01*
X40113Y-33925D01*
X40121Y-33935D01*
X40130Y-33954D01*
X40130Y-33983D01*
X40121Y-34002D01*
X40113Y-34011D01*
X40095Y-34021D01*
X40027Y-34021D01*
X40275Y-34106D02*
X40258Y-34116D01*
X40224Y-34116D01*
X40207Y-34106D01*
X40198Y-34087D01*
X40198Y-34011D01*
X40207Y-33992D01*
X40224Y-33983D01*
X40258Y-33983D01*
X40275Y-33992D01*
X40284Y-34011D01*
X40284Y-34030D01*
X40198Y-34049D01*
X40352Y-34106D02*
X40369Y-34116D01*
X40404Y-34116D01*
X40421Y-34106D01*
X40429Y-34087D01*
X40429Y-34078D01*
X40421Y-34059D01*
X40404Y-34049D01*
X40378Y-34049D01*
X40361Y-34040D01*
X40352Y-34021D01*
X40352Y-34011D01*
X40361Y-33992D01*
X40378Y-33983D01*
X40404Y-33983D01*
X40421Y-33992D01*
X40507Y-34040D02*
X40644Y-34040D01*
X40130Y-33408D02*
X40070Y-33313D01*
X40027Y-33408D02*
X40027Y-33208D01*
X40095Y-33208D01*
X40113Y-33217D01*
X40121Y-33227D01*
X40130Y-33246D01*
X40130Y-33275D01*
X40121Y-33294D01*
X40113Y-33303D01*
X40095Y-33313D01*
X40027Y-33313D01*
X40275Y-33398D02*
X40258Y-33408D01*
X40224Y-33408D01*
X40207Y-33398D01*
X40198Y-33379D01*
X40198Y-33303D01*
X40207Y-33284D01*
X40224Y-33275D01*
X40258Y-33275D01*
X40275Y-33284D01*
X40284Y-33303D01*
X40284Y-33322D01*
X40198Y-33341D01*
X40352Y-33398D02*
X40369Y-33408D01*
X40404Y-33408D01*
X40421Y-33398D01*
X40429Y-33379D01*
X40429Y-33370D01*
X40421Y-33351D01*
X40404Y-33341D01*
X40378Y-33341D01*
X40361Y-33332D01*
X40352Y-33313D01*
X40352Y-33303D01*
X40361Y-33284D01*
X40378Y-33275D01*
X40404Y-33275D01*
X40421Y-33284D01*
X40507Y-33332D02*
X40644Y-33332D01*
X40575Y-33408D02*
X40575Y-33256D01*
G54D17*
X36117Y-43293D02*
X36060Y-43265D01*
X35974Y-43265D01*
X35889Y-43293D01*
X35831Y-43351D01*
X35803Y-43408D01*
X35774Y-43522D01*
X35774Y-43608D01*
X35803Y-43722D01*
X35831Y-43779D01*
X35889Y-43836D01*
X35974Y-43865D01*
X36031Y-43865D01*
X36117Y-43836D01*
X36146Y-43808D01*
X36146Y-43608D01*
X36031Y-43608D01*
X36603Y-43551D02*
X36689Y-43579D01*
X36717Y-43608D01*
X36746Y-43665D01*
X36746Y-43751D01*
X36717Y-43808D01*
X36689Y-43836D01*
X36631Y-43865D01*
X36403Y-43865D01*
X36403Y-43265D01*
X36603Y-43265D01*
X36660Y-43293D01*
X36689Y-43322D01*
X36717Y-43379D01*
X36717Y-43436D01*
X36689Y-43493D01*
X36660Y-43522D01*
X36603Y-43551D01*
X36403Y-43551D01*
X39503Y-45340D02*
X39446Y-45312D01*
X39360Y-45312D01*
X39275Y-45340D01*
X39217Y-45398D01*
X39189Y-45455D01*
X39160Y-45569D01*
X39160Y-45655D01*
X39189Y-45769D01*
X39217Y-45826D01*
X39275Y-45883D01*
X39360Y-45912D01*
X39417Y-45912D01*
X39503Y-45883D01*
X39532Y-45855D01*
X39532Y-45655D01*
X39417Y-45655D01*
X40132Y-45912D02*
X39932Y-45626D01*
X39789Y-45912D02*
X39789Y-45312D01*
X40017Y-45312D01*
X40075Y-45340D01*
X40103Y-45369D01*
X40132Y-45426D01*
X40132Y-45512D01*
X40103Y-45569D01*
X40075Y-45598D01*
X40017Y-45626D01*
X39789Y-45626D01*
G54D16*
X43599Y-34930D02*
X43582Y-34921D01*
X43556Y-34921D01*
X43531Y-34930D01*
X43513Y-34950D01*
X43505Y-34969D01*
X43496Y-35007D01*
X43496Y-35035D01*
X43505Y-35073D01*
X43513Y-35092D01*
X43531Y-35111D01*
X43556Y-35121D01*
X43573Y-35121D01*
X43599Y-35111D01*
X43608Y-35102D01*
X43608Y-35035D01*
X43573Y-35035D01*
X43788Y-35121D02*
X43728Y-35026D01*
X43685Y-35121D02*
X43685Y-34921D01*
X43753Y-34921D01*
X43771Y-34930D01*
X43779Y-34940D01*
X43788Y-34959D01*
X43788Y-34988D01*
X43779Y-35007D01*
X43771Y-35016D01*
X43753Y-35026D01*
X43685Y-35026D01*
X38046Y-35008D02*
X38029Y-34999D01*
X38003Y-34999D01*
X37978Y-35008D01*
X37960Y-35028D01*
X37952Y-35047D01*
X37943Y-35085D01*
X37943Y-35113D01*
X37952Y-35151D01*
X37960Y-35170D01*
X37978Y-35189D01*
X38003Y-35199D01*
X38020Y-35199D01*
X38046Y-35189D01*
X38055Y-35180D01*
X38055Y-35113D01*
X38020Y-35113D01*
X38218Y-35199D02*
X38132Y-35199D01*
X38132Y-34999D01*
X35191Y-44024D02*
X35174Y-44015D01*
X35148Y-44015D01*
X35123Y-44024D01*
X35105Y-44044D01*
X35097Y-44063D01*
X35088Y-44101D01*
X35088Y-44129D01*
X35097Y-44167D01*
X35105Y-44186D01*
X35123Y-44205D01*
X35148Y-44215D01*
X35165Y-44215D01*
X35191Y-44205D01*
X35200Y-44196D01*
X35200Y-44129D01*
X35165Y-44129D01*
X35363Y-44215D02*
X35277Y-44215D01*
X35277Y-44015D01*
G54D17*
X33753Y-34541D02*
X34085Y-34764D01*
X33483Y-34533D02*
X33760Y-34890D01*
X33967Y-34581D01*
X38469Y-46660D02*
X38126Y-46660D01*
X38298Y-46660D02*
X38298Y-46060D01*
X38241Y-46146D01*
X38183Y-46203D01*
X38126Y-46231D01*
X39012Y-46060D02*
X38726Y-46060D01*
X38697Y-46346D01*
X38726Y-46317D01*
X38783Y-46288D01*
X38926Y-46288D01*
X38983Y-46317D01*
X39012Y-46346D01*
X39040Y-46403D01*
X39040Y-46546D01*
X39012Y-46603D01*
X38983Y-46631D01*
X38926Y-46660D01*
X38783Y-46660D01*
X38726Y-46631D01*
X38697Y-46603D01*
X37223Y-46338D02*
X36886Y-46271D01*
X37055Y-46304D02*
X37172Y-45716D01*
X37100Y-45789D01*
X37032Y-45834D01*
X36970Y-45850D01*
X37805Y-46046D02*
X37727Y-46439D01*
X37710Y-45794D02*
X37485Y-46187D01*
X37850Y-46259D01*
X36003Y-45850D02*
X35686Y-45719D01*
X35845Y-45784D02*
X36074Y-45230D01*
X35989Y-45288D01*
X35913Y-45318D01*
X35850Y-45322D01*
X36417Y-45372D02*
X36760Y-45514D01*
X36488Y-45648D01*
X36567Y-45681D01*
X36609Y-45730D01*
X36625Y-45768D01*
X36629Y-45831D01*
X36574Y-45963D01*
X36526Y-46005D01*
X36489Y-46020D01*
X36425Y-46025D01*
X36266Y-45959D01*
X36224Y-45910D01*
X36209Y-45874D01*
X34908Y-45139D02*
X34623Y-44948D01*
X34766Y-45043D02*
X35100Y-44545D01*
X35005Y-44585D01*
X34925Y-44600D01*
X34862Y-44591D01*
X35400Y-44814D02*
X35440Y-44806D01*
X35503Y-44815D01*
X35622Y-44894D01*
X35653Y-44949D01*
X35661Y-44989D01*
X35653Y-45052D01*
X35621Y-45100D01*
X35550Y-45156D01*
X35074Y-45250D01*
X35383Y-45456D01*
X33547Y-43811D02*
X33304Y-43569D01*
X33426Y-43690D02*
X33850Y-43266D01*
X33749Y-43287D01*
X33667Y-43286D01*
X33607Y-43265D01*
X33950Y-44215D02*
X33708Y-43972D01*
X33829Y-44094D02*
X34254Y-43670D01*
X34153Y-43690D01*
X34071Y-43690D01*
X34011Y-43669D01*
X32885Y-42757D02*
X32694Y-42472D01*
X32790Y-42615D02*
X33289Y-42282D01*
X33186Y-42282D01*
X33106Y-42265D01*
X33051Y-42234D01*
X33590Y-42733D02*
X33621Y-42780D01*
X33630Y-42843D01*
X33622Y-42883D01*
X33590Y-42939D01*
X33511Y-43026D01*
X33392Y-43105D01*
X33281Y-43145D01*
X33217Y-43153D01*
X33178Y-43144D01*
X33122Y-43113D01*
X33090Y-43066D01*
X33083Y-43002D01*
X33090Y-42962D01*
X33122Y-42908D01*
X33202Y-42820D01*
X33321Y-42740D01*
X33432Y-42701D01*
X33494Y-42693D01*
X33535Y-42701D01*
X33590Y-42733D01*
X32173Y-41504D02*
X32217Y-41610D01*
X32265Y-41651D01*
X32302Y-41667D01*
X32404Y-41687D01*
X32520Y-41670D01*
X32731Y-41582D01*
X32773Y-41534D01*
X32789Y-41496D01*
X32793Y-41433D01*
X32749Y-41328D01*
X32701Y-41285D01*
X32664Y-41270D01*
X32600Y-41265D01*
X32468Y-41320D01*
X32426Y-41368D01*
X32410Y-41405D01*
X32407Y-41470D01*
X32450Y-41575D01*
X32498Y-41617D01*
X32536Y-41633D01*
X32599Y-41637D01*
X32272Y-40162D02*
X32289Y-40099D01*
X32311Y-40066D01*
X32362Y-40027D01*
X32390Y-40021D01*
X32452Y-40038D01*
X32486Y-40060D01*
X32524Y-40112D01*
X32546Y-40224D01*
X32530Y-40285D01*
X32507Y-40319D01*
X32457Y-40358D01*
X32428Y-40363D01*
X32367Y-40347D01*
X32334Y-40324D01*
X32294Y-40273D01*
X32272Y-40162D01*
X32233Y-40110D01*
X32200Y-40088D01*
X32138Y-40071D01*
X32025Y-40093D01*
X31975Y-40133D01*
X31953Y-40166D01*
X31936Y-40228D01*
X31958Y-40340D01*
X31997Y-40390D01*
X32031Y-40413D01*
X32092Y-40430D01*
X32205Y-40407D01*
X32255Y-40369D01*
X32277Y-40335D01*
X32294Y-40273D01*
X32104Y-38408D02*
X32104Y-38008D01*
X32704Y-38265D01*
X32369Y-36864D02*
X32347Y-36976D01*
X32363Y-37037D01*
X32386Y-37072D01*
X32459Y-37144D01*
X32565Y-37195D01*
X32790Y-37240D01*
X32852Y-37223D01*
X32885Y-37201D01*
X32924Y-37150D01*
X32947Y-37038D01*
X32929Y-36976D01*
X32908Y-36942D01*
X32857Y-36904D01*
X32717Y-36876D01*
X32656Y-36892D01*
X32621Y-36915D01*
X32582Y-36965D01*
X32560Y-37077D01*
X32577Y-37139D01*
X32600Y-37172D01*
X32650Y-37212D01*
X32953Y-35576D02*
X32844Y-35841D01*
X33097Y-35977D01*
X33081Y-35939D01*
X33076Y-35875D01*
X33131Y-35743D01*
X33180Y-35701D01*
X33218Y-35686D01*
X33281Y-35682D01*
X33413Y-35736D01*
X33455Y-35784D01*
X33470Y-35822D01*
X33475Y-35885D01*
X33420Y-36018D01*
X33371Y-36059D01*
X33334Y-36075D01*
X34430Y-33805D02*
X34692Y-33543D01*
X34712Y-33846D01*
X34773Y-33785D01*
X34834Y-33765D01*
X34875Y-33765D01*
X34935Y-33785D01*
X35036Y-33887D01*
X35056Y-33947D01*
X35056Y-33987D01*
X35036Y-34048D01*
X34914Y-34169D01*
X34853Y-34189D01*
X34814Y-34189D01*
X35518Y-32955D02*
X35526Y-32915D01*
X35558Y-32860D01*
X35677Y-32781D01*
X35740Y-32772D01*
X35780Y-32781D01*
X35835Y-32812D01*
X35867Y-32860D01*
X35891Y-32947D01*
X35796Y-33423D01*
X36105Y-33217D01*
X37201Y-32620D02*
X36884Y-32751D01*
X37043Y-32685D02*
X36813Y-32131D01*
X36794Y-32232D01*
X36762Y-32307D01*
X36720Y-32355D01*
X38151Y-31879D02*
X38207Y-31868D01*
X38268Y-31885D01*
X38303Y-31907D01*
X38342Y-31958D01*
X38392Y-32064D01*
X38419Y-32204D01*
X38414Y-32323D01*
X38397Y-32384D01*
X38374Y-32417D01*
X38324Y-32457D01*
X38268Y-32468D01*
X38206Y-32450D01*
X38172Y-32429D01*
X38134Y-32378D01*
X38083Y-32271D01*
X38055Y-32131D01*
X38062Y-32013D01*
X38078Y-31952D01*
X38101Y-31918D01*
X38151Y-31879D01*
X40834Y-32212D02*
X41198Y-32285D01*
X40957Y-32469D01*
X41042Y-32486D01*
X41092Y-32525D01*
X41115Y-32560D01*
X41131Y-32621D01*
X41103Y-32761D01*
X41064Y-32812D01*
X41030Y-32833D01*
X40969Y-32851D01*
X40800Y-32817D01*
X40750Y-32777D01*
X40728Y-32744D01*
X41562Y-32357D02*
X41618Y-32368D01*
X41668Y-32407D01*
X41691Y-32441D01*
X41708Y-32503D01*
X41713Y-32620D01*
X41685Y-32760D01*
X41635Y-32868D01*
X41596Y-32918D01*
X41562Y-32940D01*
X41500Y-32957D01*
X41444Y-32946D01*
X41394Y-32906D01*
X41371Y-32873D01*
X41355Y-32812D01*
X41349Y-32693D01*
X41377Y-32553D01*
X41428Y-32447D01*
X41466Y-32396D01*
X41501Y-32374D01*
X41562Y-32357D01*
X40662Y-46639D02*
X40326Y-46705D01*
X40495Y-46672D02*
X40378Y-46083D01*
X40339Y-46179D01*
X40293Y-46246D01*
X40243Y-46284D01*
X41050Y-45950D02*
X40938Y-45972D01*
X40888Y-46011D01*
X40865Y-46045D01*
X40826Y-46140D01*
X40819Y-46258D01*
X40864Y-46482D01*
X40903Y-46533D01*
X40936Y-46555D01*
X40999Y-46572D01*
X41111Y-46550D01*
X41161Y-46510D01*
X41184Y-46477D01*
X41200Y-46416D01*
X41173Y-46276D01*
X41134Y-46225D01*
X41100Y-46202D01*
X41038Y-46185D01*
X40927Y-46207D01*
X40875Y-46247D01*
X40853Y-46281D01*
X40836Y-46342D01*
X42055Y-46233D02*
X41738Y-46364D01*
X41897Y-46299D02*
X41667Y-45744D01*
X41647Y-45846D01*
X41616Y-45920D01*
X41574Y-45968D01*
X42010Y-45602D02*
X42379Y-45449D01*
X42372Y-46102D01*
X43170Y-45757D02*
X42885Y-45948D01*
X43028Y-45852D02*
X42695Y-45353D01*
X42695Y-45456D01*
X42678Y-45536D01*
X42647Y-45591D01*
X43265Y-45282D02*
X43201Y-45290D01*
X43162Y-45282D01*
X43106Y-45251D01*
X43090Y-45227D01*
X43083Y-45163D01*
X43090Y-45123D01*
X43122Y-45068D01*
X43217Y-45005D01*
X43280Y-44996D01*
X43320Y-45004D01*
X43375Y-45036D01*
X43391Y-45060D01*
X43400Y-45123D01*
X43391Y-45163D01*
X43360Y-45218D01*
X43265Y-45282D01*
X43233Y-45338D01*
X43225Y-45377D01*
X43233Y-45440D01*
X43296Y-45536D01*
X43352Y-45567D01*
X43391Y-45575D01*
X43455Y-45567D01*
X43550Y-45504D01*
X43582Y-45448D01*
X43590Y-45409D01*
X43582Y-45346D01*
X43518Y-45250D01*
X43463Y-45218D01*
X43423Y-45211D01*
X43360Y-45218D01*
X44245Y-44917D02*
X44003Y-45160D01*
X44124Y-45038D02*
X43700Y-44614D01*
X43721Y-44715D01*
X43720Y-44797D01*
X43699Y-44857D01*
X44447Y-44716D02*
X44528Y-44635D01*
X44548Y-44574D01*
X44548Y-44534D01*
X44528Y-44432D01*
X44467Y-44332D01*
X44305Y-44170D01*
X44245Y-44150D01*
X44204Y-44150D01*
X44144Y-44170D01*
X44063Y-44251D01*
X44042Y-44311D01*
X44043Y-44352D01*
X44063Y-44413D01*
X44164Y-44514D01*
X44225Y-44533D01*
X44265Y-44534D01*
X44326Y-44513D01*
X44406Y-44432D01*
X44427Y-44372D01*
X44427Y-44331D01*
X44406Y-44271D01*
X44534Y-43894D02*
X44527Y-43854D01*
X44535Y-43791D01*
X44615Y-43672D01*
X44669Y-43640D01*
X44710Y-43632D01*
X44773Y-43641D01*
X44820Y-43672D01*
X44876Y-43743D01*
X44970Y-44219D01*
X45177Y-43911D01*
X44884Y-43269D02*
X44916Y-43221D01*
X44971Y-43190D01*
X45011Y-43182D01*
X45075Y-43189D01*
X45185Y-43229D01*
X45304Y-43309D01*
X45384Y-43396D01*
X45415Y-43452D01*
X45422Y-43492D01*
X45415Y-43555D01*
X45383Y-43603D01*
X45327Y-43634D01*
X45288Y-43642D01*
X45225Y-43634D01*
X45113Y-43594D01*
X44994Y-43515D01*
X44916Y-43427D01*
X44884Y-43372D01*
X44876Y-43332D01*
X44884Y-43269D01*
X45237Y-42828D02*
X45221Y-42791D01*
X45217Y-42727D01*
X45272Y-42595D01*
X45320Y-42553D01*
X45357Y-42537D01*
X45421Y-42533D01*
X45474Y-42555D01*
X45542Y-42614D01*
X45728Y-43062D01*
X45870Y-42719D01*
X46088Y-42192D02*
X45957Y-42509D01*
X46023Y-42350D02*
X45469Y-42120D01*
X45526Y-42206D01*
X45557Y-42281D01*
X45561Y-42344D01*
X45797Y-41708D02*
X45775Y-41674D01*
X45758Y-41613D01*
X45786Y-41473D01*
X45825Y-41422D01*
X45859Y-41399D01*
X45920Y-41383D01*
X45976Y-41394D01*
X46055Y-41439D01*
X46324Y-41842D01*
X46397Y-41478D01*
X45909Y-41148D02*
X45886Y-41114D01*
X45870Y-41053D01*
X45898Y-40913D01*
X45937Y-40862D01*
X45971Y-40840D01*
X46032Y-40823D01*
X46088Y-40834D01*
X46167Y-40879D01*
X46436Y-41282D01*
X46509Y-40918D01*
X46137Y-40575D02*
X46108Y-40546D01*
X46080Y-40489D01*
X46080Y-40346D01*
X46108Y-40289D01*
X46137Y-40260D01*
X46194Y-40232D01*
X46251Y-40232D01*
X46337Y-40260D01*
X46680Y-40603D01*
X46680Y-40232D01*
X46080Y-40032D02*
X46080Y-39661D01*
X46308Y-39861D01*
X46308Y-39775D01*
X46337Y-39718D01*
X46366Y-39689D01*
X46423Y-39661D01*
X46566Y-39661D01*
X46623Y-39689D01*
X46651Y-39718D01*
X46680Y-39775D01*
X46680Y-39947D01*
X46651Y-40004D01*
X46623Y-40032D01*
X46446Y-38371D02*
X46480Y-38394D01*
X46518Y-38445D01*
X46546Y-38585D01*
X46530Y-38646D01*
X46507Y-38680D01*
X46456Y-38719D01*
X46400Y-38730D01*
X46311Y-38719D01*
X45907Y-38449D01*
X45979Y-38813D01*
X46472Y-39240D02*
X46079Y-39318D01*
X46669Y-39055D02*
X46220Y-38998D01*
X46292Y-39363D01*
X46126Y-36924D02*
X46164Y-36940D01*
X46212Y-36982D01*
X46267Y-37114D01*
X46263Y-37177D01*
X46247Y-37215D01*
X46205Y-37263D01*
X46152Y-37284D01*
X46062Y-37292D01*
X45614Y-37106D01*
X45756Y-37449D01*
X46518Y-37721D02*
X46409Y-37456D01*
X46133Y-37539D01*
X46171Y-37555D01*
X46220Y-37596D01*
X46274Y-37729D01*
X46269Y-37792D01*
X46254Y-37830D01*
X46212Y-37878D01*
X46080Y-37933D01*
X46016Y-37929D01*
X45979Y-37912D01*
X45931Y-37871D01*
X45876Y-37739D01*
X45881Y-37675D01*
X45896Y-37638D01*
X45547Y-35595D02*
X45587Y-35603D01*
X45642Y-35635D01*
X45722Y-35754D01*
X45730Y-35817D01*
X45722Y-35857D01*
X45690Y-35912D01*
X45642Y-35944D01*
X45555Y-35968D01*
X45080Y-35873D01*
X45286Y-36182D01*
X46070Y-36277D02*
X46007Y-36182D01*
X45952Y-36150D01*
X45912Y-36142D01*
X45808Y-36142D01*
X45697Y-36181D01*
X45507Y-36308D01*
X45476Y-36364D01*
X45468Y-36403D01*
X45476Y-36467D01*
X45539Y-36562D01*
X45595Y-36594D01*
X45634Y-36602D01*
X45697Y-36594D01*
X45816Y-36514D01*
X45848Y-36460D01*
X45856Y-36419D01*
X45849Y-36356D01*
X45785Y-36261D01*
X45729Y-36229D01*
X45689Y-36222D01*
X45626Y-36229D01*
X44751Y-34544D02*
X44792Y-34544D01*
X44852Y-34564D01*
X44953Y-34665D01*
X44974Y-34725D01*
X44974Y-34766D01*
X44953Y-34827D01*
X44913Y-34867D01*
X44832Y-34908D01*
X44347Y-34908D01*
X44610Y-35170D01*
X45175Y-34887D02*
X45458Y-35170D01*
X44852Y-35413D01*
X43389Y-33196D02*
X43429Y-33189D01*
X43492Y-33197D01*
X43611Y-33277D01*
X43643Y-33331D01*
X43651Y-33372D01*
X43642Y-33435D01*
X43611Y-33482D01*
X43540Y-33538D01*
X43064Y-33632D01*
X43372Y-33839D01*
X43848Y-33744D02*
X43816Y-33688D01*
X43808Y-33649D01*
X43816Y-33586D01*
X43832Y-33561D01*
X43888Y-33530D01*
X43927Y-33522D01*
X43991Y-33531D01*
X44086Y-33594D01*
X44117Y-33649D01*
X44125Y-33689D01*
X44117Y-33752D01*
X44101Y-33776D01*
X44046Y-33808D01*
X44006Y-33815D01*
X43943Y-33808D01*
X43848Y-33744D01*
X43784Y-33736D01*
X43745Y-33744D01*
X43689Y-33775D01*
X43625Y-33871D01*
X43617Y-33934D01*
X43625Y-33973D01*
X43657Y-34029D01*
X43752Y-34093D01*
X43815Y-34100D01*
X43855Y-34093D01*
X43910Y-34061D01*
X43974Y-33966D01*
X43982Y-33903D01*
X43974Y-33864D01*
X43943Y-33808D01*
X39633Y-32045D02*
X40004Y-32045D01*
X39804Y-32273D01*
X39890Y-32273D01*
X39947Y-32302D01*
X39976Y-32331D01*
X40004Y-32388D01*
X40004Y-32531D01*
X39976Y-32588D01*
X39947Y-32616D01*
X39890Y-32645D01*
X39718Y-32645D01*
X39661Y-32616D01*
X39633Y-32588D01*
X40575Y-32645D02*
X40232Y-32645D01*
X40404Y-32645D02*
X40404Y-32045D01*
X40347Y-32131D01*
X40289Y-32188D01*
X40232Y-32216D01*
X39068Y-31836D02*
X39011Y-31808D01*
X38925Y-31808D01*
X38840Y-31836D01*
X38782Y-31894D01*
X38754Y-31951D01*
X38725Y-32065D01*
X38725Y-32151D01*
X38754Y-32265D01*
X38782Y-32322D01*
X38840Y-32379D01*
X38925Y-32408D01*
X38982Y-32408D01*
X39068Y-32379D01*
X39097Y-32351D01*
X39097Y-32151D01*
X38982Y-32151D01*
X39640Y-32408D02*
X39354Y-32408D01*
X39354Y-31808D01*
X42134Y-32579D02*
X42171Y-32563D01*
X42235Y-32559D01*
X42367Y-32614D01*
X42409Y-32662D01*
X42425Y-32699D01*
X42429Y-32763D01*
X42407Y-32816D01*
X42348Y-32884D01*
X41900Y-33070D01*
X42243Y-33212D01*
X42506Y-33321D02*
X42612Y-33365D01*
X42676Y-33360D01*
X42713Y-33345D01*
X42799Y-33288D01*
X42869Y-33193D01*
X42956Y-32981D01*
X42952Y-32918D01*
X42936Y-32880D01*
X42895Y-32832D01*
X42789Y-32789D01*
X42725Y-32792D01*
X42688Y-32809D01*
X42639Y-32850D01*
X42585Y-32982D01*
X42590Y-33046D01*
X42604Y-33084D01*
X42647Y-33132D01*
X42753Y-33175D01*
X42816Y-33171D01*
X42854Y-33155D01*
X42901Y-33113D01*
M02*
