M48
INCH,LZ
T1C0.020
T2C0.025
%
G90
G05
T1
X031043Y-039724
X031181Y-040419
X03122Y-04126
X03124Y-037539
X03124Y-038248
X031491Y-041915
X031593Y-036817
X031594Y-039976
X031732Y-036122
X031732Y-037893
X031732Y-038602
X031732Y-040671
X031732Y-042717
X03181Y-041399
X032006Y-037261
X032081Y-042054
X032125Y-043307
X032131Y-035419
X032145Y-036566
X032338Y-042739
X032402Y-034764
X032441Y-044016
X03245Y-035934
X032721Y-035279
X032731Y-043328
X032942Y-044517
X032952Y-034172
X033039Y-043918
X033164Y-03474
X033346Y-033583
X033386Y-045059
X033541Y-04442
X033558Y-034151
X033823Y-045507
X033996Y-033103
X034094Y-033701
X034391Y-045295
X034412Y-045901
X034498Y-032601
X034595Y-0332
X03498Y-045689
X035011Y-046465
X035177Y-032815
X035199Y-032209
X035526Y-046146
X035666Y-046736
X035767Y-032422
X035788Y-031816
X036181Y-046417
X036381Y-047164
X036417Y-032146
X036556Y-031556
X036825Y-046751
X037072Y-031875
X037076Y-047303
X037211Y-031285
X03752Y-04689
X037793Y-031713
X037835Y-047579
X038045Y-031162
X038189Y-047087
X038488Y-031575
X038544Y-047579
X03874Y-031024
X038898Y-047087
X03935Y-047677
X03937Y-031004
X039685Y-031614
X040039Y-031122
X040217Y-047697
X040394Y-031614
X040469Y-047146
X040748Y-031122
X040912Y-047559
X041083Y-031791
X041164Y-047008
X041527Y-031378
X041745Y-047396
X041778Y-03193
X041884Y-046806
X042222Y-031517
X0424Y-047125
X042441Y-032224
X042539Y-046535
X042956Y-031905
X043096Y-032495
X043149Y-046826
X04317Y-04622
X043611Y-032176
X04372Y-032913
X043738Y-046433
X04376Y-045827
X044288Y-032701
X044309Y-033307
X044342Y-045403
X044439Y-046002
X044843Y-044902
X044877Y-033095
X044941Y-0455
X04514Y-034242
X045295Y-033543
X045359Y-044412
X045571Y-04498
X045642Y-034744
X045739Y-034145
X045753Y-043823
X045965Y-044391
X045989Y-035393
X046157Y-043205
X04624Y-034646
X046382Y-035982
X046428Y-04255
X046476Y-04372
X046595Y-035414
X046619Y-036804
X046747Y-043065
X046752Y-041918
X04689Y-037459
X046891Y-041223
X046988Y-036004
X046988Y-038344
X047106Y-039823
X047106Y-040532
X047126Y-039039
X047165Y-042362
X047209Y-036943
X047304Y-041667
X04748Y-037598
X047539Y-038596
X047598Y-040177
X047598Y-040886
X047677Y-039291
T2
X035531Y-04061
X035591Y-038622
X03561Y-041634
X03563Y-037028
X035827Y-039961
X036319Y-040945
X036417Y-044961
X036437Y-032933
X036457Y-038346
X036909Y-034488
X037559Y-03374
X037618Y-034469
X037638Y-038917
X037717Y-037835
X038189Y-038917
X038209Y-037913
X038228Y-04124
X038228Y-041949
X038248Y-038406
X038543Y-040354
X038661Y-040866
X03876Y-044134
X038917Y-034508
X039075Y-032795
X039528Y-038681
X03998Y-035571
X03998Y-043386
X04Y-032756
X040118Y-038504
X040217Y-038031
X040453Y-036614
X040472Y-037461
X040472Y-039961
X040492Y-040472
X040512Y-040965
X040787Y-041535
X041004Y-037618
X041102Y-037146
X041299Y-035394
X041535Y-043386
X042323Y-037913
X0425Y-040689
X042559Y-034469
X042894Y-037441
X043051Y-035827
X043091Y-03998
X04311Y-041378
X043169Y-040768
T0
M30
