G04 (created by PCBNEW-RS274X (2012-apr-16-27)-stable) date Thu 03 Apr 2014 02:01:57 PM EDT*
G01*
G70*
G90*
%MOIN*%
G04 Gerber Fmt 3.4, Leading zero omitted, Abs format*
%FSLAX34Y34*%
G04 APERTURE LIST*
%ADD10C,0.006000*%
%ADD11C,0.000400*%
%ADD12C,0.002000*%
%ADD13C,0.013000*%
%ADD14C,0.026000*%
%ADD15C,0.008000*%
%ADD16C,0.007000*%
%ADD17C,0.010000*%
G04 APERTURE END LIST*
G54D10*
G54D11*
X24646Y-27224D02*
X27953Y-23917D01*
X15512Y-27224D02*
X12205Y-23917D01*
X15512Y-27224D02*
X24646Y-27224D01*
X12766Y-18996D02*
X12205Y-19557D01*
X27392Y-18996D02*
X27953Y-19596D01*
X26939Y-18996D02*
X27392Y-18996D01*
X27953Y-19596D02*
X27953Y-23917D01*
X16663Y-18996D02*
X26938Y-18996D01*
X12205Y-19557D02*
X12205Y-23917D01*
X16664Y-18996D02*
X12766Y-18996D01*
X15748Y-27461D02*
X24016Y-27461D01*
G54D12*
X15748Y-27461D02*
X24016Y-27461D01*
G54D13*
X25591Y-19360D03*
X14439Y-19331D03*
X24970Y-19833D03*
X12687Y-19665D03*
X16260Y-24783D03*
X17815Y-20984D03*
X16319Y-24508D03*
X17579Y-21122D03*
X17087Y-23051D03*
X18701Y-21516D03*
X17736Y-23622D03*
X18602Y-21909D03*
X18996Y-22362D03*
X18986Y-24419D03*
X19980Y-22362D03*
X19469Y-24774D03*
X20945Y-22854D03*
X20197Y-22480D03*
X22146Y-23081D03*
X20295Y-21939D03*
X21132Y-21171D03*
X21788Y-24643D03*
X23868Y-23268D03*
X23809Y-24705D03*
X24114Y-23248D03*
X23612Y-20827D03*
X22953Y-20591D03*
X24400Y-22717D03*
X25827Y-22480D03*
X25394Y-24390D03*
X26319Y-22451D03*
X25669Y-24518D03*
X21949Y-25285D03*
X23120Y-21585D03*
X23612Y-22707D03*
X22254Y-25177D03*
X15728Y-22205D03*
X16732Y-25413D03*
X15965Y-21663D03*
X16732Y-25177D03*
X17047Y-21870D03*
X17559Y-24094D03*
X21949Y-25551D03*
X22943Y-21388D03*
X23819Y-22835D03*
X22441Y-25384D03*
X16594Y-20334D03*
X13878Y-23012D03*
X16181Y-20994D03*
X14154Y-23071D03*
X16083Y-24587D03*
X17402Y-21339D03*
X18150Y-21280D03*
X16594Y-24232D03*
X17343Y-23406D03*
X18150Y-21772D03*
X17579Y-23445D03*
X18858Y-21929D03*
X18937Y-22874D03*
X19252Y-24459D03*
X19469Y-24537D03*
X20039Y-22835D03*
X17028Y-21614D03*
X17362Y-24252D03*
X20778Y-21811D03*
X21083Y-23100D03*
X21024Y-21703D03*
X22215Y-22854D03*
X21900Y-24380D03*
X20876Y-21220D03*
X23642Y-24537D03*
X23652Y-23494D03*
X23730Y-21083D03*
X23967Y-23051D03*
X23248Y-20787D03*
X24409Y-22992D03*
X25354Y-24154D03*
X25620Y-22904D03*
X26093Y-24675D03*
X26083Y-22480D03*
X13898Y-22736D03*
X15354Y-20945D03*
X16103Y-21240D03*
X13957Y-23366D03*
G54D14*
X13593Y-20846D03*
G54D13*
X24203Y-26732D03*
X25069Y-19557D03*
X15797Y-19872D03*
X16299Y-26329D03*
G54D14*
X13031Y-20915D03*
G54D13*
X24262Y-21614D03*
X26152Y-23445D03*
X14488Y-21752D03*
X17618Y-22441D03*
X15768Y-26693D03*
X19488Y-23524D03*
X15108Y-19705D03*
X15571Y-23661D03*
X23120Y-24016D03*
X21614Y-22323D03*
G54D14*
X13041Y-21555D03*
G54D13*
X16112Y-26555D03*
X13465Y-21870D03*
X18740Y-24055D03*
X27106Y-23543D03*
X16594Y-22895D03*
X25226Y-21762D03*
X14606Y-23839D03*
X20512Y-22854D03*
X18583Y-22579D03*
X20256Y-24075D03*
X25197Y-23543D03*
X24094Y-24114D03*
X15600Y-19705D03*
X23297Y-21791D03*
X21821Y-23927D03*
X22598Y-22470D03*
X16732Y-23780D03*
X15472Y-21978D03*
G54D15*
X24232Y-19818D02*
X24970Y-19833D01*
X12687Y-19665D02*
X14439Y-19665D01*
X14439Y-19665D02*
X14832Y-19272D01*
X23287Y-19818D02*
X24232Y-19818D01*
X24970Y-19833D02*
X24970Y-19833D01*
X14832Y-19272D02*
X22823Y-19272D01*
X22823Y-19272D02*
X23287Y-19818D01*
X13465Y-21870D02*
X13356Y-21870D01*
X13356Y-21870D02*
X13041Y-21555D01*
X15571Y-24734D02*
X15571Y-24016D01*
X16112Y-26555D02*
X15994Y-26437D01*
G54D16*
X14862Y-24016D02*
X14606Y-23839D01*
G54D15*
X15994Y-25157D02*
X15571Y-24734D01*
X15994Y-26437D02*
X15994Y-25157D01*
G54D16*
X20862Y-22635D02*
X20512Y-22854D01*
X25030Y-21703D02*
X25226Y-21762D01*
X18445Y-23917D02*
X18583Y-24055D01*
X16890Y-22835D02*
X16713Y-22835D01*
X24597Y-22136D02*
X25030Y-21703D01*
X16732Y-23780D02*
X16221Y-24016D01*
X15472Y-21978D02*
X15216Y-22224D01*
X18583Y-22618D02*
X18445Y-22756D01*
X16575Y-23760D02*
X16201Y-23465D01*
X16968Y-22835D02*
X16890Y-22835D01*
X16713Y-22835D02*
X16594Y-22895D01*
X22205Y-22618D02*
X21890Y-22687D01*
X22598Y-22470D02*
X22205Y-22618D01*
X16732Y-23780D02*
X16575Y-23760D01*
X22224Y-24124D02*
X21821Y-23927D01*
X13691Y-22224D02*
X13465Y-21870D01*
X19744Y-24155D02*
X20256Y-24075D01*
X23465Y-21712D02*
X24065Y-22136D01*
X25197Y-23543D02*
X25197Y-21791D01*
X18583Y-24055D02*
X18740Y-24055D01*
X24094Y-24114D02*
X24626Y-24114D01*
X22598Y-23100D02*
X22598Y-22470D01*
X23317Y-24498D02*
X23711Y-24114D01*
X20256Y-23110D02*
X20512Y-22854D01*
X23711Y-24114D02*
X24094Y-24114D01*
X27106Y-23543D02*
X26703Y-23888D01*
X16594Y-22411D02*
X16594Y-22895D01*
X22224Y-24124D02*
X22736Y-24518D01*
X21890Y-22687D02*
X20862Y-22635D01*
X15216Y-22224D02*
X13691Y-22224D01*
X20256Y-24075D02*
X20256Y-23110D01*
X23297Y-21791D02*
X23396Y-21703D01*
X18583Y-22579D02*
X18465Y-22579D01*
X21860Y-23838D02*
X22598Y-23100D01*
G54D15*
X15482Y-19705D02*
X15108Y-20079D01*
X15600Y-19705D02*
X15482Y-19705D01*
X15108Y-21614D02*
X15472Y-21978D01*
X15108Y-20079D02*
X15108Y-21614D01*
G54D16*
X24065Y-22136D02*
X24597Y-22136D01*
X26703Y-23888D02*
X25541Y-23888D01*
X18583Y-22579D02*
X18583Y-22618D01*
X25541Y-23888D02*
X25197Y-23543D01*
X15472Y-21978D02*
X16161Y-21978D01*
X23396Y-21703D02*
X23465Y-21712D01*
X16221Y-24016D02*
X15571Y-24016D01*
X15571Y-24016D02*
X14862Y-24016D01*
X18307Y-22834D02*
X16968Y-22835D01*
X25197Y-21791D02*
X25226Y-21762D01*
X18465Y-22579D02*
X18307Y-22834D01*
X16201Y-23110D02*
X16416Y-22895D01*
X19311Y-24115D02*
X19744Y-24155D01*
X18740Y-24055D02*
X19311Y-24115D01*
X24626Y-24114D02*
X25197Y-23543D01*
X21821Y-23927D02*
X21860Y-23838D01*
X16201Y-23465D02*
X16201Y-23110D01*
X16416Y-22895D02*
X16594Y-22895D01*
X18445Y-22756D02*
X18445Y-23917D01*
X22736Y-24518D02*
X23317Y-24498D01*
X16161Y-21978D02*
X16594Y-22411D01*
G54D10*
G36*
X27607Y-19783D02*
X27598Y-23818D01*
X26634Y-24785D01*
X26634Y-22514D01*
X26634Y-22389D01*
X26586Y-22273D01*
X26498Y-22184D01*
X26382Y-22136D01*
X26257Y-22136D01*
X26166Y-22173D01*
X26146Y-22165D01*
X26021Y-22165D01*
X25955Y-22192D01*
X25890Y-22165D01*
X25765Y-22165D01*
X25649Y-22213D01*
X25560Y-22301D01*
X25512Y-22417D01*
X25512Y-22542D01*
X25535Y-22598D01*
X25442Y-22637D01*
X25353Y-22725D01*
X25305Y-22841D01*
X25305Y-22966D01*
X25353Y-23082D01*
X25441Y-23171D01*
X25557Y-23219D01*
X25682Y-23219D01*
X25798Y-23171D01*
X25887Y-23083D01*
X25935Y-22967D01*
X25935Y-22842D01*
X25911Y-22785D01*
X25954Y-22767D01*
X26020Y-22795D01*
X26145Y-22795D01*
X26235Y-22757D01*
X26256Y-22766D01*
X26381Y-22766D01*
X26497Y-22718D01*
X26586Y-22630D01*
X26634Y-22514D01*
X26634Y-24785D01*
X26467Y-24952D01*
X26467Y-23508D01*
X26467Y-23383D01*
X26419Y-23267D01*
X26331Y-23178D01*
X26215Y-23130D01*
X26090Y-23130D01*
X25974Y-23178D01*
X25885Y-23266D01*
X25837Y-23382D01*
X25837Y-23507D01*
X25885Y-23623D01*
X25973Y-23712D01*
X26089Y-23760D01*
X26214Y-23760D01*
X26330Y-23712D01*
X26419Y-23624D01*
X26467Y-23508D01*
X26467Y-24952D01*
X26408Y-25011D01*
X26408Y-24738D01*
X26408Y-24613D01*
X26360Y-24497D01*
X26272Y-24408D01*
X26156Y-24360D01*
X26031Y-24360D01*
X25956Y-24390D01*
X25936Y-24340D01*
X25848Y-24251D01*
X25732Y-24203D01*
X25669Y-24203D01*
X25669Y-24092D01*
X25621Y-23976D01*
X25533Y-23887D01*
X25417Y-23839D01*
X25292Y-23839D01*
X25176Y-23887D01*
X25087Y-23975D01*
X25039Y-24091D01*
X25039Y-24216D01*
X25081Y-24319D01*
X25079Y-24327D01*
X25079Y-24452D01*
X25127Y-24568D01*
X25215Y-24657D01*
X25331Y-24705D01*
X25410Y-24705D01*
X25490Y-24785D01*
X25606Y-24833D01*
X25731Y-24833D01*
X25805Y-24802D01*
X25826Y-24853D01*
X25914Y-24942D01*
X26030Y-24990D01*
X26155Y-24990D01*
X26271Y-24942D01*
X26360Y-24854D01*
X26408Y-24738D01*
X26408Y-25011D01*
X24724Y-26701D01*
X24724Y-23055D01*
X24724Y-22930D01*
X24688Y-22844D01*
X24715Y-22780D01*
X24715Y-22655D01*
X24667Y-22539D01*
X24579Y-22450D01*
X24577Y-22449D01*
X24577Y-21677D01*
X24577Y-21552D01*
X24529Y-21436D01*
X24441Y-21347D01*
X24325Y-21299D01*
X24200Y-21299D01*
X24084Y-21347D01*
X24045Y-21385D01*
X24045Y-21146D01*
X24045Y-21021D01*
X23997Y-20905D01*
X23927Y-20834D01*
X23927Y-20765D01*
X23879Y-20649D01*
X23791Y-20560D01*
X23675Y-20512D01*
X23550Y-20512D01*
X23457Y-20550D01*
X23427Y-20520D01*
X23311Y-20472D01*
X23244Y-20472D01*
X23220Y-20413D01*
X23132Y-20324D01*
X23016Y-20276D01*
X22891Y-20276D01*
X22775Y-20324D01*
X22686Y-20412D01*
X22638Y-20528D01*
X22638Y-20653D01*
X22686Y-20769D01*
X22774Y-20858D01*
X22890Y-20906D01*
X22956Y-20906D01*
X22981Y-20965D01*
X23069Y-21054D01*
X23185Y-21102D01*
X23310Y-21102D01*
X23402Y-21063D01*
X23415Y-21075D01*
X23415Y-21145D01*
X23463Y-21261D01*
X23551Y-21350D01*
X23667Y-21398D01*
X23792Y-21398D01*
X23908Y-21350D01*
X23997Y-21262D01*
X24045Y-21146D01*
X24045Y-21385D01*
X23995Y-21435D01*
X23947Y-21551D01*
X23947Y-21676D01*
X23995Y-21792D01*
X24083Y-21881D01*
X24199Y-21929D01*
X24324Y-21929D01*
X24440Y-21881D01*
X24529Y-21793D01*
X24577Y-21677D01*
X24577Y-22449D01*
X24463Y-22402D01*
X24338Y-22402D01*
X24222Y-22450D01*
X24133Y-22538D01*
X24085Y-22654D01*
X24085Y-22655D01*
X23998Y-22568D01*
X23882Y-22520D01*
X23870Y-22520D01*
X23791Y-22440D01*
X23675Y-22392D01*
X23550Y-22392D01*
X23435Y-22439D01*
X23435Y-21648D01*
X23435Y-21523D01*
X23387Y-21407D01*
X23299Y-21318D01*
X23245Y-21295D01*
X23210Y-21210D01*
X23122Y-21121D01*
X23006Y-21073D01*
X22881Y-21073D01*
X22765Y-21121D01*
X22676Y-21209D01*
X22628Y-21325D01*
X22628Y-21450D01*
X22676Y-21566D01*
X22764Y-21655D01*
X22817Y-21677D01*
X22853Y-21763D01*
X22941Y-21852D01*
X23057Y-21900D01*
X23182Y-21900D01*
X23298Y-21852D01*
X23387Y-21764D01*
X23435Y-21648D01*
X23435Y-22439D01*
X23434Y-22440D01*
X23345Y-22528D01*
X23297Y-22644D01*
X23297Y-22769D01*
X23345Y-22885D01*
X23433Y-22974D01*
X23549Y-23022D01*
X23560Y-23022D01*
X23614Y-23075D01*
X23601Y-23089D01*
X23558Y-23192D01*
X23474Y-23227D01*
X23385Y-23315D01*
X23337Y-23431D01*
X23337Y-23556D01*
X23385Y-23672D01*
X23473Y-23761D01*
X23589Y-23809D01*
X23714Y-23809D01*
X23830Y-23761D01*
X23919Y-23673D01*
X23961Y-23569D01*
X24014Y-23547D01*
X24051Y-23563D01*
X24176Y-23563D01*
X24292Y-23515D01*
X24381Y-23427D01*
X24429Y-23311D01*
X24429Y-23307D01*
X24471Y-23307D01*
X24587Y-23259D01*
X24676Y-23171D01*
X24724Y-23055D01*
X24724Y-26701D01*
X24507Y-26919D01*
X24461Y-26918D01*
X24470Y-26911D01*
X24518Y-26795D01*
X24518Y-26670D01*
X24470Y-26554D01*
X24382Y-26465D01*
X24266Y-26417D01*
X24141Y-26417D01*
X24124Y-26424D01*
X24124Y-24768D01*
X24124Y-24643D01*
X24076Y-24527D01*
X23988Y-24438D01*
X23932Y-24414D01*
X23909Y-24359D01*
X23821Y-24270D01*
X23705Y-24222D01*
X23580Y-24222D01*
X23464Y-24270D01*
X23435Y-24298D01*
X23435Y-24079D01*
X23435Y-23954D01*
X23387Y-23838D01*
X23299Y-23749D01*
X23183Y-23701D01*
X23058Y-23701D01*
X22942Y-23749D01*
X22853Y-23837D01*
X22805Y-23953D01*
X22805Y-24078D01*
X22853Y-24194D01*
X22941Y-24283D01*
X23057Y-24331D01*
X23182Y-24331D01*
X23298Y-24283D01*
X23387Y-24195D01*
X23435Y-24079D01*
X23435Y-24298D01*
X23375Y-24358D01*
X23327Y-24474D01*
X23327Y-24599D01*
X23375Y-24715D01*
X23463Y-24804D01*
X23518Y-24827D01*
X23542Y-24883D01*
X23630Y-24972D01*
X23746Y-25020D01*
X23871Y-25020D01*
X23987Y-24972D01*
X24076Y-24884D01*
X24124Y-24768D01*
X24124Y-26424D01*
X24025Y-26465D01*
X23936Y-26553D01*
X23888Y-26669D01*
X23888Y-26794D01*
X23936Y-26910D01*
X23944Y-26918D01*
X22756Y-26916D01*
X22756Y-25447D01*
X22756Y-25322D01*
X22708Y-25206D01*
X22620Y-25117D01*
X22559Y-25091D01*
X22530Y-25020D01*
X22530Y-22917D01*
X22530Y-22792D01*
X22482Y-22676D01*
X22394Y-22587D01*
X22278Y-22539D01*
X22153Y-22539D01*
X22037Y-22587D01*
X21948Y-22675D01*
X21929Y-22720D01*
X21929Y-22386D01*
X21929Y-22261D01*
X21881Y-22145D01*
X21793Y-22056D01*
X21677Y-22008D01*
X21552Y-22008D01*
X21447Y-22051D01*
X21447Y-21234D01*
X21447Y-21109D01*
X21399Y-20993D01*
X21311Y-20904D01*
X21195Y-20856D01*
X21070Y-20856D01*
X20954Y-20904D01*
X20948Y-20909D01*
X20939Y-20905D01*
X20814Y-20905D01*
X20698Y-20953D01*
X20609Y-21041D01*
X20561Y-21157D01*
X20561Y-21282D01*
X20609Y-21398D01*
X20697Y-21487D01*
X20718Y-21496D01*
X20716Y-21496D01*
X20600Y-21544D01*
X20511Y-21632D01*
X20488Y-21686D01*
X20474Y-21672D01*
X20358Y-21624D01*
X20233Y-21624D01*
X20117Y-21672D01*
X20028Y-21760D01*
X19980Y-21876D01*
X19980Y-22001D01*
X19999Y-22047D01*
X19918Y-22047D01*
X19802Y-22095D01*
X19713Y-22183D01*
X19665Y-22299D01*
X19665Y-22424D01*
X19713Y-22540D01*
X19800Y-22628D01*
X19772Y-22656D01*
X19724Y-22772D01*
X19724Y-22897D01*
X19772Y-23013D01*
X19860Y-23102D01*
X19976Y-23150D01*
X20101Y-23150D01*
X20217Y-23102D01*
X20306Y-23014D01*
X20354Y-22898D01*
X20354Y-22773D01*
X20347Y-22758D01*
X20375Y-22747D01*
X20464Y-22659D01*
X20512Y-22543D01*
X20512Y-22418D01*
X20464Y-22302D01*
X20399Y-22236D01*
X20473Y-22206D01*
X20562Y-22118D01*
X20584Y-22063D01*
X20599Y-22078D01*
X20715Y-22126D01*
X20840Y-22126D01*
X20956Y-22078D01*
X21016Y-22018D01*
X21086Y-22018D01*
X21202Y-21970D01*
X21291Y-21882D01*
X21339Y-21766D01*
X21339Y-21641D01*
X21291Y-21525D01*
X21235Y-21468D01*
X21310Y-21438D01*
X21399Y-21350D01*
X21447Y-21234D01*
X21447Y-22051D01*
X21436Y-22056D01*
X21347Y-22144D01*
X21299Y-22260D01*
X21299Y-22385D01*
X21347Y-22501D01*
X21435Y-22590D01*
X21551Y-22638D01*
X21676Y-22638D01*
X21792Y-22590D01*
X21881Y-22502D01*
X21929Y-22386D01*
X21929Y-22720D01*
X21900Y-22791D01*
X21900Y-22881D01*
X21879Y-22902D01*
X21831Y-23018D01*
X21831Y-23143D01*
X21879Y-23259D01*
X21967Y-23348D01*
X22083Y-23396D01*
X22208Y-23396D01*
X22324Y-23348D01*
X22413Y-23260D01*
X22461Y-23144D01*
X22461Y-23053D01*
X22482Y-23033D01*
X22530Y-22917D01*
X22530Y-25020D01*
X22521Y-24999D01*
X22433Y-24910D01*
X22317Y-24862D01*
X22215Y-24862D01*
X22215Y-24443D01*
X22215Y-24318D01*
X22167Y-24202D01*
X22079Y-24113D01*
X21963Y-24065D01*
X21838Y-24065D01*
X21722Y-24113D01*
X21633Y-24201D01*
X21585Y-24317D01*
X21585Y-24400D01*
X21521Y-24464D01*
X21473Y-24580D01*
X21473Y-24705D01*
X21521Y-24821D01*
X21609Y-24910D01*
X21725Y-24958D01*
X21850Y-24958D01*
X21966Y-24910D01*
X22055Y-24822D01*
X22103Y-24706D01*
X22103Y-24622D01*
X22167Y-24559D01*
X22215Y-24443D01*
X22215Y-24862D01*
X22192Y-24862D01*
X22076Y-24910D01*
X22014Y-24970D01*
X22012Y-24970D01*
X21887Y-24970D01*
X21771Y-25018D01*
X21682Y-25106D01*
X21634Y-25222D01*
X21634Y-25347D01*
X21663Y-25417D01*
X21634Y-25488D01*
X21634Y-25613D01*
X21682Y-25729D01*
X21770Y-25818D01*
X21886Y-25866D01*
X22011Y-25866D01*
X22127Y-25818D01*
X22216Y-25730D01*
X22252Y-25641D01*
X22262Y-25651D01*
X22378Y-25699D01*
X22503Y-25699D01*
X22619Y-25651D01*
X22708Y-25563D01*
X22756Y-25447D01*
X22756Y-26916D01*
X21398Y-26915D01*
X21398Y-23163D01*
X21398Y-23038D01*
X21350Y-22922D01*
X21262Y-22833D01*
X21260Y-22832D01*
X21260Y-22792D01*
X21212Y-22676D01*
X21124Y-22587D01*
X21008Y-22539D01*
X20883Y-22539D01*
X20767Y-22587D01*
X20678Y-22675D01*
X20630Y-22791D01*
X20630Y-22916D01*
X20678Y-23032D01*
X20766Y-23121D01*
X20768Y-23121D01*
X20768Y-23162D01*
X20816Y-23278D01*
X20904Y-23367D01*
X21020Y-23415D01*
X21145Y-23415D01*
X21261Y-23367D01*
X21350Y-23279D01*
X21398Y-23163D01*
X21398Y-26915D01*
X19803Y-26913D01*
X19803Y-23587D01*
X19803Y-23462D01*
X19755Y-23346D01*
X19667Y-23257D01*
X19551Y-23209D01*
X19426Y-23209D01*
X19311Y-23256D01*
X19311Y-22425D01*
X19311Y-22300D01*
X19263Y-22184D01*
X19175Y-22095D01*
X19136Y-22079D01*
X19173Y-21992D01*
X19173Y-21867D01*
X19125Y-21751D01*
X19037Y-21662D01*
X18989Y-21642D01*
X19016Y-21579D01*
X19016Y-21454D01*
X18968Y-21338D01*
X18880Y-21249D01*
X18764Y-21201D01*
X18639Y-21201D01*
X18523Y-21249D01*
X18465Y-21306D01*
X18465Y-21218D01*
X18417Y-21102D01*
X18329Y-21013D01*
X18213Y-20965D01*
X18130Y-20965D01*
X18130Y-20922D01*
X18082Y-20806D01*
X17994Y-20717D01*
X17878Y-20669D01*
X17753Y-20669D01*
X17637Y-20717D01*
X17548Y-20805D01*
X17547Y-20807D01*
X17517Y-20807D01*
X17401Y-20855D01*
X17312Y-20943D01*
X17265Y-21054D01*
X17224Y-21072D01*
X17135Y-21160D01*
X17087Y-21276D01*
X17087Y-21299D01*
X16966Y-21299D01*
X16909Y-21322D01*
X16909Y-20397D01*
X16909Y-20272D01*
X16861Y-20156D01*
X16773Y-20067D01*
X16657Y-20019D01*
X16532Y-20019D01*
X16416Y-20067D01*
X16327Y-20155D01*
X16279Y-20271D01*
X16279Y-20396D01*
X16327Y-20512D01*
X16415Y-20601D01*
X16531Y-20649D01*
X16656Y-20649D01*
X16772Y-20601D01*
X16861Y-20513D01*
X16909Y-20397D01*
X16909Y-21322D01*
X16850Y-21347D01*
X16761Y-21435D01*
X16713Y-21551D01*
X16713Y-21676D01*
X16749Y-21764D01*
X16732Y-21807D01*
X16732Y-21932D01*
X16780Y-22048D01*
X16868Y-22137D01*
X16984Y-22185D01*
X17109Y-22185D01*
X17225Y-22137D01*
X17314Y-22049D01*
X17362Y-21933D01*
X17362Y-21808D01*
X17325Y-21719D01*
X17343Y-21677D01*
X17343Y-21654D01*
X17464Y-21654D01*
X17580Y-21606D01*
X17669Y-21518D01*
X17715Y-21406D01*
X17757Y-21389D01*
X17835Y-21311D01*
X17835Y-21342D01*
X17883Y-21458D01*
X17950Y-21526D01*
X17883Y-21593D01*
X17835Y-21709D01*
X17835Y-21834D01*
X17883Y-21950D01*
X17971Y-22039D01*
X18087Y-22087D01*
X18212Y-22087D01*
X18317Y-22043D01*
X18335Y-22087D01*
X18423Y-22176D01*
X18539Y-22224D01*
X18664Y-22224D01*
X18705Y-22206D01*
X18717Y-22211D01*
X18681Y-22299D01*
X18681Y-22424D01*
X18729Y-22540D01*
X18784Y-22596D01*
X18759Y-22607D01*
X18670Y-22695D01*
X18622Y-22811D01*
X18622Y-22936D01*
X18670Y-23052D01*
X18758Y-23141D01*
X18874Y-23189D01*
X18999Y-23189D01*
X19115Y-23141D01*
X19204Y-23053D01*
X19252Y-22937D01*
X19252Y-22812D01*
X19204Y-22696D01*
X19148Y-22639D01*
X19174Y-22629D01*
X19263Y-22541D01*
X19311Y-22425D01*
X19311Y-23256D01*
X19310Y-23257D01*
X19221Y-23345D01*
X19173Y-23461D01*
X19173Y-23586D01*
X19221Y-23702D01*
X19309Y-23791D01*
X19425Y-23839D01*
X19550Y-23839D01*
X19666Y-23791D01*
X19755Y-23703D01*
X19803Y-23587D01*
X19803Y-26913D01*
X19784Y-26913D01*
X19784Y-24837D01*
X19784Y-24712D01*
X19760Y-24656D01*
X19784Y-24600D01*
X19784Y-24475D01*
X19736Y-24359D01*
X19648Y-24270D01*
X19532Y-24222D01*
X19460Y-24222D01*
X19431Y-24192D01*
X19315Y-24144D01*
X19190Y-24144D01*
X19166Y-24153D01*
X19165Y-24152D01*
X19049Y-24104D01*
X18924Y-24104D01*
X18808Y-24152D01*
X18719Y-24240D01*
X18671Y-24356D01*
X18671Y-24481D01*
X18719Y-24597D01*
X18807Y-24686D01*
X18923Y-24734D01*
X19048Y-24734D01*
X19071Y-24724D01*
X19073Y-24726D01*
X19154Y-24759D01*
X19154Y-24836D01*
X19202Y-24952D01*
X19290Y-25041D01*
X19406Y-25089D01*
X19531Y-25089D01*
X19647Y-25041D01*
X19736Y-24953D01*
X19784Y-24837D01*
X19784Y-26913D01*
X18051Y-26911D01*
X18051Y-23685D01*
X18051Y-23560D01*
X18003Y-23444D01*
X17933Y-23373D01*
X17933Y-22504D01*
X17933Y-22379D01*
X17885Y-22263D01*
X17797Y-22174D01*
X17681Y-22126D01*
X17556Y-22126D01*
X17440Y-22174D01*
X17351Y-22262D01*
X17303Y-22378D01*
X17303Y-22503D01*
X17351Y-22619D01*
X17439Y-22708D01*
X17555Y-22756D01*
X17680Y-22756D01*
X17796Y-22708D01*
X17885Y-22620D01*
X17933Y-22504D01*
X17933Y-23373D01*
X17915Y-23355D01*
X17875Y-23338D01*
X17846Y-23267D01*
X17758Y-23178D01*
X17642Y-23130D01*
X17517Y-23130D01*
X17508Y-23133D01*
X17406Y-23091D01*
X17402Y-23091D01*
X17402Y-22989D01*
X17354Y-22873D01*
X17266Y-22784D01*
X17150Y-22736D01*
X17025Y-22736D01*
X16909Y-22784D01*
X16820Y-22872D01*
X16772Y-22988D01*
X16772Y-23113D01*
X16820Y-23229D01*
X16908Y-23318D01*
X17024Y-23366D01*
X17028Y-23366D01*
X17028Y-23468D01*
X17076Y-23584D01*
X17164Y-23673D01*
X17280Y-23721D01*
X17405Y-23721D01*
X17413Y-23717D01*
X17439Y-23728D01*
X17465Y-23791D01*
X17381Y-23827D01*
X17292Y-23915D01*
X17279Y-23945D01*
X17184Y-23985D01*
X17095Y-24073D01*
X17047Y-24189D01*
X17047Y-24314D01*
X17095Y-24430D01*
X17183Y-24519D01*
X17299Y-24567D01*
X17424Y-24567D01*
X17540Y-24519D01*
X17629Y-24431D01*
X17641Y-24400D01*
X17737Y-24361D01*
X17826Y-24273D01*
X17874Y-24157D01*
X17874Y-24032D01*
X17829Y-23924D01*
X17914Y-23889D01*
X18003Y-23801D01*
X18051Y-23685D01*
X18051Y-26911D01*
X17047Y-26910D01*
X17047Y-25476D01*
X17047Y-25351D01*
X17024Y-25295D01*
X17047Y-25240D01*
X17047Y-25115D01*
X16999Y-24999D01*
X16911Y-24910D01*
X16795Y-24862D01*
X16670Y-24862D01*
X16554Y-24910D01*
X16544Y-24919D01*
X16575Y-24846D01*
X16575Y-24721D01*
X16568Y-24704D01*
X16586Y-24687D01*
X16634Y-24571D01*
X16634Y-24547D01*
X16656Y-24547D01*
X16772Y-24499D01*
X16861Y-24411D01*
X16909Y-24295D01*
X16909Y-24170D01*
X16861Y-24054D01*
X16773Y-23965D01*
X16657Y-23917D01*
X16532Y-23917D01*
X16496Y-23931D01*
X16496Y-21057D01*
X16496Y-20932D01*
X16448Y-20816D01*
X16360Y-20727D01*
X16244Y-20679D01*
X16119Y-20679D01*
X16003Y-20727D01*
X15914Y-20815D01*
X15866Y-20931D01*
X15866Y-21031D01*
X15836Y-21061D01*
X15788Y-21177D01*
X15788Y-21302D01*
X15821Y-21381D01*
X15787Y-21396D01*
X15698Y-21484D01*
X15669Y-21554D01*
X15669Y-21008D01*
X15669Y-20883D01*
X15621Y-20767D01*
X15533Y-20678D01*
X15417Y-20630D01*
X15292Y-20630D01*
X15176Y-20678D01*
X15087Y-20766D01*
X15039Y-20882D01*
X15039Y-21007D01*
X15087Y-21123D01*
X15175Y-21212D01*
X15291Y-21260D01*
X15416Y-21260D01*
X15532Y-21212D01*
X15621Y-21124D01*
X15669Y-21008D01*
X15669Y-21554D01*
X15650Y-21600D01*
X15650Y-21725D01*
X15698Y-21841D01*
X15746Y-21890D01*
X15666Y-21890D01*
X15550Y-21938D01*
X15461Y-22026D01*
X15413Y-22142D01*
X15413Y-22267D01*
X15461Y-22383D01*
X15549Y-22472D01*
X15665Y-22520D01*
X15790Y-22520D01*
X15906Y-22472D01*
X15995Y-22384D01*
X16043Y-22268D01*
X16043Y-22143D01*
X15995Y-22027D01*
X15946Y-21978D01*
X16027Y-21978D01*
X16143Y-21930D01*
X16232Y-21842D01*
X16280Y-21726D01*
X16280Y-21601D01*
X16246Y-21521D01*
X16281Y-21507D01*
X16370Y-21419D01*
X16418Y-21303D01*
X16418Y-21202D01*
X16448Y-21173D01*
X16496Y-21057D01*
X16496Y-23931D01*
X16416Y-23965D01*
X16327Y-24053D01*
X16279Y-24169D01*
X16279Y-24193D01*
X16257Y-24193D01*
X16141Y-24241D01*
X16109Y-24272D01*
X16021Y-24272D01*
X15905Y-24320D01*
X15886Y-24338D01*
X15886Y-23724D01*
X15886Y-23599D01*
X15838Y-23483D01*
X15750Y-23394D01*
X15634Y-23346D01*
X15509Y-23346D01*
X15393Y-23394D01*
X15304Y-23482D01*
X15256Y-23598D01*
X15256Y-23723D01*
X15304Y-23839D01*
X15392Y-23928D01*
X15508Y-23976D01*
X15633Y-23976D01*
X15749Y-23928D01*
X15838Y-23840D01*
X15886Y-23724D01*
X15886Y-24338D01*
X15816Y-24408D01*
X15768Y-24524D01*
X15768Y-24649D01*
X15816Y-24765D01*
X15904Y-24854D01*
X15957Y-24876D01*
X15993Y-24961D01*
X16081Y-25050D01*
X16197Y-25098D01*
X16322Y-25098D01*
X16438Y-25050D01*
X16447Y-25040D01*
X16417Y-25114D01*
X16417Y-25239D01*
X16439Y-25294D01*
X16417Y-25350D01*
X16417Y-25475D01*
X16465Y-25591D01*
X16553Y-25680D01*
X16669Y-25728D01*
X16794Y-25728D01*
X16910Y-25680D01*
X16999Y-25592D01*
X17047Y-25476D01*
X17047Y-26910D01*
X16614Y-26909D01*
X16614Y-26392D01*
X16614Y-26267D01*
X16566Y-26151D01*
X16478Y-26062D01*
X16362Y-26014D01*
X16237Y-26014D01*
X16121Y-26062D01*
X16032Y-26150D01*
X15984Y-26266D01*
X15984Y-26391D01*
X16032Y-26507D01*
X16120Y-26596D01*
X16236Y-26644D01*
X16361Y-26644D01*
X16477Y-26596D01*
X16566Y-26508D01*
X16614Y-26392D01*
X16614Y-26909D01*
X15997Y-26909D01*
X16035Y-26872D01*
X16083Y-26756D01*
X16083Y-26631D01*
X16035Y-26515D01*
X15947Y-26426D01*
X15831Y-26378D01*
X15706Y-26378D01*
X15590Y-26426D01*
X15501Y-26514D01*
X15453Y-26630D01*
X15453Y-26738D01*
X14803Y-26078D01*
X14803Y-21815D01*
X14803Y-21690D01*
X14755Y-21574D01*
X14667Y-21485D01*
X14551Y-21437D01*
X14426Y-21437D01*
X14310Y-21485D01*
X14221Y-21573D01*
X14173Y-21689D01*
X14173Y-21814D01*
X14221Y-21930D01*
X14309Y-22019D01*
X14425Y-22067D01*
X14550Y-22067D01*
X14666Y-22019D01*
X14755Y-21931D01*
X14803Y-21815D01*
X14803Y-26078D01*
X14469Y-25738D01*
X14469Y-23134D01*
X14469Y-23009D01*
X14421Y-22893D01*
X14333Y-22804D01*
X14217Y-22756D01*
X14213Y-22756D01*
X14213Y-22674D01*
X14165Y-22558D01*
X14077Y-22469D01*
X13973Y-22425D01*
X13973Y-20922D01*
X13973Y-20771D01*
X13915Y-20631D01*
X13809Y-20524D01*
X13669Y-20466D01*
X13518Y-20466D01*
X13378Y-20524D01*
X13277Y-20623D01*
X13247Y-20593D01*
X13107Y-20535D01*
X12956Y-20535D01*
X12816Y-20593D01*
X12709Y-20699D01*
X12651Y-20839D01*
X12651Y-20990D01*
X12709Y-21130D01*
X12815Y-21237D01*
X12955Y-21295D01*
X13106Y-21295D01*
X13246Y-21237D01*
X13346Y-21137D01*
X13377Y-21168D01*
X13517Y-21226D01*
X13668Y-21226D01*
X13808Y-21168D01*
X13915Y-21062D01*
X13973Y-20922D01*
X13973Y-22425D01*
X13961Y-22421D01*
X13836Y-22421D01*
X13720Y-22469D01*
X13631Y-22557D01*
X13583Y-22673D01*
X13583Y-22798D01*
X13604Y-22849D01*
X13563Y-22949D01*
X13563Y-23074D01*
X13611Y-23190D01*
X13665Y-23245D01*
X13642Y-23303D01*
X13642Y-23428D01*
X13690Y-23544D01*
X13778Y-23633D01*
X13894Y-23681D01*
X14019Y-23681D01*
X14135Y-23633D01*
X14224Y-23545D01*
X14272Y-23429D01*
X14272Y-23362D01*
X14332Y-23338D01*
X14421Y-23250D01*
X14469Y-23134D01*
X14469Y-25738D01*
X12520Y-23760D01*
X12520Y-19936D01*
X12624Y-19980D01*
X12749Y-19980D01*
X12809Y-19955D01*
X14439Y-19955D01*
X14550Y-19933D01*
X14644Y-19870D01*
X14793Y-19721D01*
X14793Y-19767D01*
X14841Y-19883D01*
X14929Y-19972D01*
X15045Y-20020D01*
X15170Y-20020D01*
X15286Y-19972D01*
X15375Y-19884D01*
X15423Y-19768D01*
X15423Y-19643D01*
X15389Y-19562D01*
X15722Y-19562D01*
X15619Y-19605D01*
X15530Y-19693D01*
X15482Y-19809D01*
X15482Y-19934D01*
X15530Y-20050D01*
X15618Y-20139D01*
X15734Y-20187D01*
X15859Y-20187D01*
X15975Y-20139D01*
X16064Y-20051D01*
X16112Y-19935D01*
X16112Y-19810D01*
X16064Y-19694D01*
X15976Y-19605D01*
X15872Y-19562D01*
X22688Y-19562D01*
X23066Y-20005D01*
X23074Y-20011D01*
X23082Y-20023D01*
X23128Y-20054D01*
X23155Y-20075D01*
X23162Y-20077D01*
X23176Y-20086D01*
X23234Y-20097D01*
X23264Y-20106D01*
X23272Y-20105D01*
X23287Y-20108D01*
X24226Y-20108D01*
X24232Y-20108D01*
X24840Y-20120D01*
X24907Y-20148D01*
X25032Y-20148D01*
X25148Y-20100D01*
X25237Y-20012D01*
X25285Y-19896D01*
X25285Y-19786D01*
X25336Y-19736D01*
X25384Y-19620D01*
X25384Y-19598D01*
X25412Y-19627D01*
X25528Y-19675D01*
X25653Y-19675D01*
X25769Y-19627D01*
X25858Y-19539D01*
X25906Y-19423D01*
X25906Y-19298D01*
X25899Y-19282D01*
X27163Y-19282D01*
X27607Y-19783D01*
X27607Y-19783D01*
G37*
G54D17*
X27607Y-19783D02*
X27598Y-23818D01*
X26634Y-24785D01*
X26634Y-22514D01*
X26634Y-22389D01*
X26586Y-22273D01*
X26498Y-22184D01*
X26382Y-22136D01*
X26257Y-22136D01*
X26166Y-22173D01*
X26146Y-22165D01*
X26021Y-22165D01*
X25955Y-22192D01*
X25890Y-22165D01*
X25765Y-22165D01*
X25649Y-22213D01*
X25560Y-22301D01*
X25512Y-22417D01*
X25512Y-22542D01*
X25535Y-22598D01*
X25442Y-22637D01*
X25353Y-22725D01*
X25305Y-22841D01*
X25305Y-22966D01*
X25353Y-23082D01*
X25441Y-23171D01*
X25557Y-23219D01*
X25682Y-23219D01*
X25798Y-23171D01*
X25887Y-23083D01*
X25935Y-22967D01*
X25935Y-22842D01*
X25911Y-22785D01*
X25954Y-22767D01*
X26020Y-22795D01*
X26145Y-22795D01*
X26235Y-22757D01*
X26256Y-22766D01*
X26381Y-22766D01*
X26497Y-22718D01*
X26586Y-22630D01*
X26634Y-22514D01*
X26634Y-24785D01*
X26467Y-24952D01*
X26467Y-23508D01*
X26467Y-23383D01*
X26419Y-23267D01*
X26331Y-23178D01*
X26215Y-23130D01*
X26090Y-23130D01*
X25974Y-23178D01*
X25885Y-23266D01*
X25837Y-23382D01*
X25837Y-23507D01*
X25885Y-23623D01*
X25973Y-23712D01*
X26089Y-23760D01*
X26214Y-23760D01*
X26330Y-23712D01*
X26419Y-23624D01*
X26467Y-23508D01*
X26467Y-24952D01*
X26408Y-25011D01*
X26408Y-24738D01*
X26408Y-24613D01*
X26360Y-24497D01*
X26272Y-24408D01*
X26156Y-24360D01*
X26031Y-24360D01*
X25956Y-24390D01*
X25936Y-24340D01*
X25848Y-24251D01*
X25732Y-24203D01*
X25669Y-24203D01*
X25669Y-24092D01*
X25621Y-23976D01*
X25533Y-23887D01*
X25417Y-23839D01*
X25292Y-23839D01*
X25176Y-23887D01*
X25087Y-23975D01*
X25039Y-24091D01*
X25039Y-24216D01*
X25081Y-24319D01*
X25079Y-24327D01*
X25079Y-24452D01*
X25127Y-24568D01*
X25215Y-24657D01*
X25331Y-24705D01*
X25410Y-24705D01*
X25490Y-24785D01*
X25606Y-24833D01*
X25731Y-24833D01*
X25805Y-24802D01*
X25826Y-24853D01*
X25914Y-24942D01*
X26030Y-24990D01*
X26155Y-24990D01*
X26271Y-24942D01*
X26360Y-24854D01*
X26408Y-24738D01*
X26408Y-25011D01*
X24724Y-26701D01*
X24724Y-23055D01*
X24724Y-22930D01*
X24688Y-22844D01*
X24715Y-22780D01*
X24715Y-22655D01*
X24667Y-22539D01*
X24579Y-22450D01*
X24577Y-22449D01*
X24577Y-21677D01*
X24577Y-21552D01*
X24529Y-21436D01*
X24441Y-21347D01*
X24325Y-21299D01*
X24200Y-21299D01*
X24084Y-21347D01*
X24045Y-21385D01*
X24045Y-21146D01*
X24045Y-21021D01*
X23997Y-20905D01*
X23927Y-20834D01*
X23927Y-20765D01*
X23879Y-20649D01*
X23791Y-20560D01*
X23675Y-20512D01*
X23550Y-20512D01*
X23457Y-20550D01*
X23427Y-20520D01*
X23311Y-20472D01*
X23244Y-20472D01*
X23220Y-20413D01*
X23132Y-20324D01*
X23016Y-20276D01*
X22891Y-20276D01*
X22775Y-20324D01*
X22686Y-20412D01*
X22638Y-20528D01*
X22638Y-20653D01*
X22686Y-20769D01*
X22774Y-20858D01*
X22890Y-20906D01*
X22956Y-20906D01*
X22981Y-20965D01*
X23069Y-21054D01*
X23185Y-21102D01*
X23310Y-21102D01*
X23402Y-21063D01*
X23415Y-21075D01*
X23415Y-21145D01*
X23463Y-21261D01*
X23551Y-21350D01*
X23667Y-21398D01*
X23792Y-21398D01*
X23908Y-21350D01*
X23997Y-21262D01*
X24045Y-21146D01*
X24045Y-21385D01*
X23995Y-21435D01*
X23947Y-21551D01*
X23947Y-21676D01*
X23995Y-21792D01*
X24083Y-21881D01*
X24199Y-21929D01*
X24324Y-21929D01*
X24440Y-21881D01*
X24529Y-21793D01*
X24577Y-21677D01*
X24577Y-22449D01*
X24463Y-22402D01*
X24338Y-22402D01*
X24222Y-22450D01*
X24133Y-22538D01*
X24085Y-22654D01*
X24085Y-22655D01*
X23998Y-22568D01*
X23882Y-22520D01*
X23870Y-22520D01*
X23791Y-22440D01*
X23675Y-22392D01*
X23550Y-22392D01*
X23435Y-22439D01*
X23435Y-21648D01*
X23435Y-21523D01*
X23387Y-21407D01*
X23299Y-21318D01*
X23245Y-21295D01*
X23210Y-21210D01*
X23122Y-21121D01*
X23006Y-21073D01*
X22881Y-21073D01*
X22765Y-21121D01*
X22676Y-21209D01*
X22628Y-21325D01*
X22628Y-21450D01*
X22676Y-21566D01*
X22764Y-21655D01*
X22817Y-21677D01*
X22853Y-21763D01*
X22941Y-21852D01*
X23057Y-21900D01*
X23182Y-21900D01*
X23298Y-21852D01*
X23387Y-21764D01*
X23435Y-21648D01*
X23435Y-22439D01*
X23434Y-22440D01*
X23345Y-22528D01*
X23297Y-22644D01*
X23297Y-22769D01*
X23345Y-22885D01*
X23433Y-22974D01*
X23549Y-23022D01*
X23560Y-23022D01*
X23614Y-23075D01*
X23601Y-23089D01*
X23558Y-23192D01*
X23474Y-23227D01*
X23385Y-23315D01*
X23337Y-23431D01*
X23337Y-23556D01*
X23385Y-23672D01*
X23473Y-23761D01*
X23589Y-23809D01*
X23714Y-23809D01*
X23830Y-23761D01*
X23919Y-23673D01*
X23961Y-23569D01*
X24014Y-23547D01*
X24051Y-23563D01*
X24176Y-23563D01*
X24292Y-23515D01*
X24381Y-23427D01*
X24429Y-23311D01*
X24429Y-23307D01*
X24471Y-23307D01*
X24587Y-23259D01*
X24676Y-23171D01*
X24724Y-23055D01*
X24724Y-26701D01*
X24507Y-26919D01*
X24461Y-26918D01*
X24470Y-26911D01*
X24518Y-26795D01*
X24518Y-26670D01*
X24470Y-26554D01*
X24382Y-26465D01*
X24266Y-26417D01*
X24141Y-26417D01*
X24124Y-26424D01*
X24124Y-24768D01*
X24124Y-24643D01*
X24076Y-24527D01*
X23988Y-24438D01*
X23932Y-24414D01*
X23909Y-24359D01*
X23821Y-24270D01*
X23705Y-24222D01*
X23580Y-24222D01*
X23464Y-24270D01*
X23435Y-24298D01*
X23435Y-24079D01*
X23435Y-23954D01*
X23387Y-23838D01*
X23299Y-23749D01*
X23183Y-23701D01*
X23058Y-23701D01*
X22942Y-23749D01*
X22853Y-23837D01*
X22805Y-23953D01*
X22805Y-24078D01*
X22853Y-24194D01*
X22941Y-24283D01*
X23057Y-24331D01*
X23182Y-24331D01*
X23298Y-24283D01*
X23387Y-24195D01*
X23435Y-24079D01*
X23435Y-24298D01*
X23375Y-24358D01*
X23327Y-24474D01*
X23327Y-24599D01*
X23375Y-24715D01*
X23463Y-24804D01*
X23518Y-24827D01*
X23542Y-24883D01*
X23630Y-24972D01*
X23746Y-25020D01*
X23871Y-25020D01*
X23987Y-24972D01*
X24076Y-24884D01*
X24124Y-24768D01*
X24124Y-26424D01*
X24025Y-26465D01*
X23936Y-26553D01*
X23888Y-26669D01*
X23888Y-26794D01*
X23936Y-26910D01*
X23944Y-26918D01*
X22756Y-26916D01*
X22756Y-25447D01*
X22756Y-25322D01*
X22708Y-25206D01*
X22620Y-25117D01*
X22559Y-25091D01*
X22530Y-25020D01*
X22530Y-22917D01*
X22530Y-22792D01*
X22482Y-22676D01*
X22394Y-22587D01*
X22278Y-22539D01*
X22153Y-22539D01*
X22037Y-22587D01*
X21948Y-22675D01*
X21929Y-22720D01*
X21929Y-22386D01*
X21929Y-22261D01*
X21881Y-22145D01*
X21793Y-22056D01*
X21677Y-22008D01*
X21552Y-22008D01*
X21447Y-22051D01*
X21447Y-21234D01*
X21447Y-21109D01*
X21399Y-20993D01*
X21311Y-20904D01*
X21195Y-20856D01*
X21070Y-20856D01*
X20954Y-20904D01*
X20948Y-20909D01*
X20939Y-20905D01*
X20814Y-20905D01*
X20698Y-20953D01*
X20609Y-21041D01*
X20561Y-21157D01*
X20561Y-21282D01*
X20609Y-21398D01*
X20697Y-21487D01*
X20718Y-21496D01*
X20716Y-21496D01*
X20600Y-21544D01*
X20511Y-21632D01*
X20488Y-21686D01*
X20474Y-21672D01*
X20358Y-21624D01*
X20233Y-21624D01*
X20117Y-21672D01*
X20028Y-21760D01*
X19980Y-21876D01*
X19980Y-22001D01*
X19999Y-22047D01*
X19918Y-22047D01*
X19802Y-22095D01*
X19713Y-22183D01*
X19665Y-22299D01*
X19665Y-22424D01*
X19713Y-22540D01*
X19800Y-22628D01*
X19772Y-22656D01*
X19724Y-22772D01*
X19724Y-22897D01*
X19772Y-23013D01*
X19860Y-23102D01*
X19976Y-23150D01*
X20101Y-23150D01*
X20217Y-23102D01*
X20306Y-23014D01*
X20354Y-22898D01*
X20354Y-22773D01*
X20347Y-22758D01*
X20375Y-22747D01*
X20464Y-22659D01*
X20512Y-22543D01*
X20512Y-22418D01*
X20464Y-22302D01*
X20399Y-22236D01*
X20473Y-22206D01*
X20562Y-22118D01*
X20584Y-22063D01*
X20599Y-22078D01*
X20715Y-22126D01*
X20840Y-22126D01*
X20956Y-22078D01*
X21016Y-22018D01*
X21086Y-22018D01*
X21202Y-21970D01*
X21291Y-21882D01*
X21339Y-21766D01*
X21339Y-21641D01*
X21291Y-21525D01*
X21235Y-21468D01*
X21310Y-21438D01*
X21399Y-21350D01*
X21447Y-21234D01*
X21447Y-22051D01*
X21436Y-22056D01*
X21347Y-22144D01*
X21299Y-22260D01*
X21299Y-22385D01*
X21347Y-22501D01*
X21435Y-22590D01*
X21551Y-22638D01*
X21676Y-22638D01*
X21792Y-22590D01*
X21881Y-22502D01*
X21929Y-22386D01*
X21929Y-22720D01*
X21900Y-22791D01*
X21900Y-22881D01*
X21879Y-22902D01*
X21831Y-23018D01*
X21831Y-23143D01*
X21879Y-23259D01*
X21967Y-23348D01*
X22083Y-23396D01*
X22208Y-23396D01*
X22324Y-23348D01*
X22413Y-23260D01*
X22461Y-23144D01*
X22461Y-23053D01*
X22482Y-23033D01*
X22530Y-22917D01*
X22530Y-25020D01*
X22521Y-24999D01*
X22433Y-24910D01*
X22317Y-24862D01*
X22215Y-24862D01*
X22215Y-24443D01*
X22215Y-24318D01*
X22167Y-24202D01*
X22079Y-24113D01*
X21963Y-24065D01*
X21838Y-24065D01*
X21722Y-24113D01*
X21633Y-24201D01*
X21585Y-24317D01*
X21585Y-24400D01*
X21521Y-24464D01*
X21473Y-24580D01*
X21473Y-24705D01*
X21521Y-24821D01*
X21609Y-24910D01*
X21725Y-24958D01*
X21850Y-24958D01*
X21966Y-24910D01*
X22055Y-24822D01*
X22103Y-24706D01*
X22103Y-24622D01*
X22167Y-24559D01*
X22215Y-24443D01*
X22215Y-24862D01*
X22192Y-24862D01*
X22076Y-24910D01*
X22014Y-24970D01*
X22012Y-24970D01*
X21887Y-24970D01*
X21771Y-25018D01*
X21682Y-25106D01*
X21634Y-25222D01*
X21634Y-25347D01*
X21663Y-25417D01*
X21634Y-25488D01*
X21634Y-25613D01*
X21682Y-25729D01*
X21770Y-25818D01*
X21886Y-25866D01*
X22011Y-25866D01*
X22127Y-25818D01*
X22216Y-25730D01*
X22252Y-25641D01*
X22262Y-25651D01*
X22378Y-25699D01*
X22503Y-25699D01*
X22619Y-25651D01*
X22708Y-25563D01*
X22756Y-25447D01*
X22756Y-26916D01*
X21398Y-26915D01*
X21398Y-23163D01*
X21398Y-23038D01*
X21350Y-22922D01*
X21262Y-22833D01*
X21260Y-22832D01*
X21260Y-22792D01*
X21212Y-22676D01*
X21124Y-22587D01*
X21008Y-22539D01*
X20883Y-22539D01*
X20767Y-22587D01*
X20678Y-22675D01*
X20630Y-22791D01*
X20630Y-22916D01*
X20678Y-23032D01*
X20766Y-23121D01*
X20768Y-23121D01*
X20768Y-23162D01*
X20816Y-23278D01*
X20904Y-23367D01*
X21020Y-23415D01*
X21145Y-23415D01*
X21261Y-23367D01*
X21350Y-23279D01*
X21398Y-23163D01*
X21398Y-26915D01*
X19803Y-26913D01*
X19803Y-23587D01*
X19803Y-23462D01*
X19755Y-23346D01*
X19667Y-23257D01*
X19551Y-23209D01*
X19426Y-23209D01*
X19311Y-23256D01*
X19311Y-22425D01*
X19311Y-22300D01*
X19263Y-22184D01*
X19175Y-22095D01*
X19136Y-22079D01*
X19173Y-21992D01*
X19173Y-21867D01*
X19125Y-21751D01*
X19037Y-21662D01*
X18989Y-21642D01*
X19016Y-21579D01*
X19016Y-21454D01*
X18968Y-21338D01*
X18880Y-21249D01*
X18764Y-21201D01*
X18639Y-21201D01*
X18523Y-21249D01*
X18465Y-21306D01*
X18465Y-21218D01*
X18417Y-21102D01*
X18329Y-21013D01*
X18213Y-20965D01*
X18130Y-20965D01*
X18130Y-20922D01*
X18082Y-20806D01*
X17994Y-20717D01*
X17878Y-20669D01*
X17753Y-20669D01*
X17637Y-20717D01*
X17548Y-20805D01*
X17547Y-20807D01*
X17517Y-20807D01*
X17401Y-20855D01*
X17312Y-20943D01*
X17265Y-21054D01*
X17224Y-21072D01*
X17135Y-21160D01*
X17087Y-21276D01*
X17087Y-21299D01*
X16966Y-21299D01*
X16909Y-21322D01*
X16909Y-20397D01*
X16909Y-20272D01*
X16861Y-20156D01*
X16773Y-20067D01*
X16657Y-20019D01*
X16532Y-20019D01*
X16416Y-20067D01*
X16327Y-20155D01*
X16279Y-20271D01*
X16279Y-20396D01*
X16327Y-20512D01*
X16415Y-20601D01*
X16531Y-20649D01*
X16656Y-20649D01*
X16772Y-20601D01*
X16861Y-20513D01*
X16909Y-20397D01*
X16909Y-21322D01*
X16850Y-21347D01*
X16761Y-21435D01*
X16713Y-21551D01*
X16713Y-21676D01*
X16749Y-21764D01*
X16732Y-21807D01*
X16732Y-21932D01*
X16780Y-22048D01*
X16868Y-22137D01*
X16984Y-22185D01*
X17109Y-22185D01*
X17225Y-22137D01*
X17314Y-22049D01*
X17362Y-21933D01*
X17362Y-21808D01*
X17325Y-21719D01*
X17343Y-21677D01*
X17343Y-21654D01*
X17464Y-21654D01*
X17580Y-21606D01*
X17669Y-21518D01*
X17715Y-21406D01*
X17757Y-21389D01*
X17835Y-21311D01*
X17835Y-21342D01*
X17883Y-21458D01*
X17950Y-21526D01*
X17883Y-21593D01*
X17835Y-21709D01*
X17835Y-21834D01*
X17883Y-21950D01*
X17971Y-22039D01*
X18087Y-22087D01*
X18212Y-22087D01*
X18317Y-22043D01*
X18335Y-22087D01*
X18423Y-22176D01*
X18539Y-22224D01*
X18664Y-22224D01*
X18705Y-22206D01*
X18717Y-22211D01*
X18681Y-22299D01*
X18681Y-22424D01*
X18729Y-22540D01*
X18784Y-22596D01*
X18759Y-22607D01*
X18670Y-22695D01*
X18622Y-22811D01*
X18622Y-22936D01*
X18670Y-23052D01*
X18758Y-23141D01*
X18874Y-23189D01*
X18999Y-23189D01*
X19115Y-23141D01*
X19204Y-23053D01*
X19252Y-22937D01*
X19252Y-22812D01*
X19204Y-22696D01*
X19148Y-22639D01*
X19174Y-22629D01*
X19263Y-22541D01*
X19311Y-22425D01*
X19311Y-23256D01*
X19310Y-23257D01*
X19221Y-23345D01*
X19173Y-23461D01*
X19173Y-23586D01*
X19221Y-23702D01*
X19309Y-23791D01*
X19425Y-23839D01*
X19550Y-23839D01*
X19666Y-23791D01*
X19755Y-23703D01*
X19803Y-23587D01*
X19803Y-26913D01*
X19784Y-26913D01*
X19784Y-24837D01*
X19784Y-24712D01*
X19760Y-24656D01*
X19784Y-24600D01*
X19784Y-24475D01*
X19736Y-24359D01*
X19648Y-24270D01*
X19532Y-24222D01*
X19460Y-24222D01*
X19431Y-24192D01*
X19315Y-24144D01*
X19190Y-24144D01*
X19166Y-24153D01*
X19165Y-24152D01*
X19049Y-24104D01*
X18924Y-24104D01*
X18808Y-24152D01*
X18719Y-24240D01*
X18671Y-24356D01*
X18671Y-24481D01*
X18719Y-24597D01*
X18807Y-24686D01*
X18923Y-24734D01*
X19048Y-24734D01*
X19071Y-24724D01*
X19073Y-24726D01*
X19154Y-24759D01*
X19154Y-24836D01*
X19202Y-24952D01*
X19290Y-25041D01*
X19406Y-25089D01*
X19531Y-25089D01*
X19647Y-25041D01*
X19736Y-24953D01*
X19784Y-24837D01*
X19784Y-26913D01*
X18051Y-26911D01*
X18051Y-23685D01*
X18051Y-23560D01*
X18003Y-23444D01*
X17933Y-23373D01*
X17933Y-22504D01*
X17933Y-22379D01*
X17885Y-22263D01*
X17797Y-22174D01*
X17681Y-22126D01*
X17556Y-22126D01*
X17440Y-22174D01*
X17351Y-22262D01*
X17303Y-22378D01*
X17303Y-22503D01*
X17351Y-22619D01*
X17439Y-22708D01*
X17555Y-22756D01*
X17680Y-22756D01*
X17796Y-22708D01*
X17885Y-22620D01*
X17933Y-22504D01*
X17933Y-23373D01*
X17915Y-23355D01*
X17875Y-23338D01*
X17846Y-23267D01*
X17758Y-23178D01*
X17642Y-23130D01*
X17517Y-23130D01*
X17508Y-23133D01*
X17406Y-23091D01*
X17402Y-23091D01*
X17402Y-22989D01*
X17354Y-22873D01*
X17266Y-22784D01*
X17150Y-22736D01*
X17025Y-22736D01*
X16909Y-22784D01*
X16820Y-22872D01*
X16772Y-22988D01*
X16772Y-23113D01*
X16820Y-23229D01*
X16908Y-23318D01*
X17024Y-23366D01*
X17028Y-23366D01*
X17028Y-23468D01*
X17076Y-23584D01*
X17164Y-23673D01*
X17280Y-23721D01*
X17405Y-23721D01*
X17413Y-23717D01*
X17439Y-23728D01*
X17465Y-23791D01*
X17381Y-23827D01*
X17292Y-23915D01*
X17279Y-23945D01*
X17184Y-23985D01*
X17095Y-24073D01*
X17047Y-24189D01*
X17047Y-24314D01*
X17095Y-24430D01*
X17183Y-24519D01*
X17299Y-24567D01*
X17424Y-24567D01*
X17540Y-24519D01*
X17629Y-24431D01*
X17641Y-24400D01*
X17737Y-24361D01*
X17826Y-24273D01*
X17874Y-24157D01*
X17874Y-24032D01*
X17829Y-23924D01*
X17914Y-23889D01*
X18003Y-23801D01*
X18051Y-23685D01*
X18051Y-26911D01*
X17047Y-26910D01*
X17047Y-25476D01*
X17047Y-25351D01*
X17024Y-25295D01*
X17047Y-25240D01*
X17047Y-25115D01*
X16999Y-24999D01*
X16911Y-24910D01*
X16795Y-24862D01*
X16670Y-24862D01*
X16554Y-24910D01*
X16544Y-24919D01*
X16575Y-24846D01*
X16575Y-24721D01*
X16568Y-24704D01*
X16586Y-24687D01*
X16634Y-24571D01*
X16634Y-24547D01*
X16656Y-24547D01*
X16772Y-24499D01*
X16861Y-24411D01*
X16909Y-24295D01*
X16909Y-24170D01*
X16861Y-24054D01*
X16773Y-23965D01*
X16657Y-23917D01*
X16532Y-23917D01*
X16496Y-23931D01*
X16496Y-21057D01*
X16496Y-20932D01*
X16448Y-20816D01*
X16360Y-20727D01*
X16244Y-20679D01*
X16119Y-20679D01*
X16003Y-20727D01*
X15914Y-20815D01*
X15866Y-20931D01*
X15866Y-21031D01*
X15836Y-21061D01*
X15788Y-21177D01*
X15788Y-21302D01*
X15821Y-21381D01*
X15787Y-21396D01*
X15698Y-21484D01*
X15669Y-21554D01*
X15669Y-21008D01*
X15669Y-20883D01*
X15621Y-20767D01*
X15533Y-20678D01*
X15417Y-20630D01*
X15292Y-20630D01*
X15176Y-20678D01*
X15087Y-20766D01*
X15039Y-20882D01*
X15039Y-21007D01*
X15087Y-21123D01*
X15175Y-21212D01*
X15291Y-21260D01*
X15416Y-21260D01*
X15532Y-21212D01*
X15621Y-21124D01*
X15669Y-21008D01*
X15669Y-21554D01*
X15650Y-21600D01*
X15650Y-21725D01*
X15698Y-21841D01*
X15746Y-21890D01*
X15666Y-21890D01*
X15550Y-21938D01*
X15461Y-22026D01*
X15413Y-22142D01*
X15413Y-22267D01*
X15461Y-22383D01*
X15549Y-22472D01*
X15665Y-22520D01*
X15790Y-22520D01*
X15906Y-22472D01*
X15995Y-22384D01*
X16043Y-22268D01*
X16043Y-22143D01*
X15995Y-22027D01*
X15946Y-21978D01*
X16027Y-21978D01*
X16143Y-21930D01*
X16232Y-21842D01*
X16280Y-21726D01*
X16280Y-21601D01*
X16246Y-21521D01*
X16281Y-21507D01*
X16370Y-21419D01*
X16418Y-21303D01*
X16418Y-21202D01*
X16448Y-21173D01*
X16496Y-21057D01*
X16496Y-23931D01*
X16416Y-23965D01*
X16327Y-24053D01*
X16279Y-24169D01*
X16279Y-24193D01*
X16257Y-24193D01*
X16141Y-24241D01*
X16109Y-24272D01*
X16021Y-24272D01*
X15905Y-24320D01*
X15886Y-24338D01*
X15886Y-23724D01*
X15886Y-23599D01*
X15838Y-23483D01*
X15750Y-23394D01*
X15634Y-23346D01*
X15509Y-23346D01*
X15393Y-23394D01*
X15304Y-23482D01*
X15256Y-23598D01*
X15256Y-23723D01*
X15304Y-23839D01*
X15392Y-23928D01*
X15508Y-23976D01*
X15633Y-23976D01*
X15749Y-23928D01*
X15838Y-23840D01*
X15886Y-23724D01*
X15886Y-24338D01*
X15816Y-24408D01*
X15768Y-24524D01*
X15768Y-24649D01*
X15816Y-24765D01*
X15904Y-24854D01*
X15957Y-24876D01*
X15993Y-24961D01*
X16081Y-25050D01*
X16197Y-25098D01*
X16322Y-25098D01*
X16438Y-25050D01*
X16447Y-25040D01*
X16417Y-25114D01*
X16417Y-25239D01*
X16439Y-25294D01*
X16417Y-25350D01*
X16417Y-25475D01*
X16465Y-25591D01*
X16553Y-25680D01*
X16669Y-25728D01*
X16794Y-25728D01*
X16910Y-25680D01*
X16999Y-25592D01*
X17047Y-25476D01*
X17047Y-26910D01*
X16614Y-26909D01*
X16614Y-26392D01*
X16614Y-26267D01*
X16566Y-26151D01*
X16478Y-26062D01*
X16362Y-26014D01*
X16237Y-26014D01*
X16121Y-26062D01*
X16032Y-26150D01*
X15984Y-26266D01*
X15984Y-26391D01*
X16032Y-26507D01*
X16120Y-26596D01*
X16236Y-26644D01*
X16361Y-26644D01*
X16477Y-26596D01*
X16566Y-26508D01*
X16614Y-26392D01*
X16614Y-26909D01*
X15997Y-26909D01*
X16035Y-26872D01*
X16083Y-26756D01*
X16083Y-26631D01*
X16035Y-26515D01*
X15947Y-26426D01*
X15831Y-26378D01*
X15706Y-26378D01*
X15590Y-26426D01*
X15501Y-26514D01*
X15453Y-26630D01*
X15453Y-26738D01*
X14803Y-26078D01*
X14803Y-21815D01*
X14803Y-21690D01*
X14755Y-21574D01*
X14667Y-21485D01*
X14551Y-21437D01*
X14426Y-21437D01*
X14310Y-21485D01*
X14221Y-21573D01*
X14173Y-21689D01*
X14173Y-21814D01*
X14221Y-21930D01*
X14309Y-22019D01*
X14425Y-22067D01*
X14550Y-22067D01*
X14666Y-22019D01*
X14755Y-21931D01*
X14803Y-21815D01*
X14803Y-26078D01*
X14469Y-25738D01*
X14469Y-23134D01*
X14469Y-23009D01*
X14421Y-22893D01*
X14333Y-22804D01*
X14217Y-22756D01*
X14213Y-22756D01*
X14213Y-22674D01*
X14165Y-22558D01*
X14077Y-22469D01*
X13973Y-22425D01*
X13973Y-20922D01*
X13973Y-20771D01*
X13915Y-20631D01*
X13809Y-20524D01*
X13669Y-20466D01*
X13518Y-20466D01*
X13378Y-20524D01*
X13277Y-20623D01*
X13247Y-20593D01*
X13107Y-20535D01*
X12956Y-20535D01*
X12816Y-20593D01*
X12709Y-20699D01*
X12651Y-20839D01*
X12651Y-20990D01*
X12709Y-21130D01*
X12815Y-21237D01*
X12955Y-21295D01*
X13106Y-21295D01*
X13246Y-21237D01*
X13346Y-21137D01*
X13377Y-21168D01*
X13517Y-21226D01*
X13668Y-21226D01*
X13808Y-21168D01*
X13915Y-21062D01*
X13973Y-20922D01*
X13973Y-22425D01*
X13961Y-22421D01*
X13836Y-22421D01*
X13720Y-22469D01*
X13631Y-22557D01*
X13583Y-22673D01*
X13583Y-22798D01*
X13604Y-22849D01*
X13563Y-22949D01*
X13563Y-23074D01*
X13611Y-23190D01*
X13665Y-23245D01*
X13642Y-23303D01*
X13642Y-23428D01*
X13690Y-23544D01*
X13778Y-23633D01*
X13894Y-23681D01*
X14019Y-23681D01*
X14135Y-23633D01*
X14224Y-23545D01*
X14272Y-23429D01*
X14272Y-23362D01*
X14332Y-23338D01*
X14421Y-23250D01*
X14469Y-23134D01*
X14469Y-25738D01*
X12520Y-23760D01*
X12520Y-19936D01*
X12624Y-19980D01*
X12749Y-19980D01*
X12809Y-19955D01*
X14439Y-19955D01*
X14550Y-19933D01*
X14644Y-19870D01*
X14793Y-19721D01*
X14793Y-19767D01*
X14841Y-19883D01*
X14929Y-19972D01*
X15045Y-20020D01*
X15170Y-20020D01*
X15286Y-19972D01*
X15375Y-19884D01*
X15423Y-19768D01*
X15423Y-19643D01*
X15389Y-19562D01*
X15722Y-19562D01*
X15619Y-19605D01*
X15530Y-19693D01*
X15482Y-19809D01*
X15482Y-19934D01*
X15530Y-20050D01*
X15618Y-20139D01*
X15734Y-20187D01*
X15859Y-20187D01*
X15975Y-20139D01*
X16064Y-20051D01*
X16112Y-19935D01*
X16112Y-19810D01*
X16064Y-19694D01*
X15976Y-19605D01*
X15872Y-19562D01*
X22688Y-19562D01*
X23066Y-20005D01*
X23074Y-20011D01*
X23082Y-20023D01*
X23128Y-20054D01*
X23155Y-20075D01*
X23162Y-20077D01*
X23176Y-20086D01*
X23234Y-20097D01*
X23264Y-20106D01*
X23272Y-20105D01*
X23287Y-20108D01*
X24226Y-20108D01*
X24232Y-20108D01*
X24840Y-20120D01*
X24907Y-20148D01*
X25032Y-20148D01*
X25148Y-20100D01*
X25237Y-20012D01*
X25285Y-19896D01*
X25285Y-19786D01*
X25336Y-19736D01*
X25384Y-19620D01*
X25384Y-19598D01*
X25412Y-19627D01*
X25528Y-19675D01*
X25653Y-19675D01*
X25769Y-19627D01*
X25858Y-19539D01*
X25906Y-19423D01*
X25906Y-19298D01*
X25899Y-19282D01*
X27163Y-19282D01*
X27607Y-19783D01*
M02*
