G04 (created by PCBNEW-RS274X (2012-apr-16-27)-stable) date Thu 03 Apr 2014 02:01:57 PM EDT*
G01*
G70*
G90*
%MOIN*%
G04 Gerber Fmt 3.4, Leading zero omitted, Abs format*
%FSLAX34Y34*%
G04 APERTURE LIST*
%ADD10C,0.006000*%
%ADD11C,0.000400*%
%ADD12C,0.002000*%
%ADD13C,0.013000*%
%ADD14C,0.026000*%
%ADD15C,0.007000*%
%ADD16C,0.008000*%
%ADD17C,0.010000*%
G04 APERTURE END LIST*
G54D10*
G54D11*
X24646Y-27224D02*
X27953Y-23917D01*
X15512Y-27224D02*
X12205Y-23917D01*
X15512Y-27224D02*
X24646Y-27224D01*
X12766Y-18996D02*
X12205Y-19557D01*
X27392Y-18996D02*
X27953Y-19596D01*
X26939Y-18996D02*
X27392Y-18996D01*
X27953Y-19596D02*
X27953Y-23917D01*
X16663Y-18996D02*
X26938Y-18996D01*
X12205Y-19557D02*
X12205Y-23917D01*
X16664Y-18996D02*
X12766Y-18996D01*
X15748Y-27461D02*
X24016Y-27461D01*
G54D12*
X15748Y-27461D02*
X24016Y-27461D01*
G54D13*
X25591Y-19360D03*
X14439Y-19331D03*
X24970Y-19833D03*
X12687Y-19665D03*
X16260Y-24783D03*
X17815Y-20984D03*
X16319Y-24508D03*
X17579Y-21122D03*
X17087Y-23051D03*
X18701Y-21516D03*
X17736Y-23622D03*
X18602Y-21909D03*
X18996Y-22362D03*
X18986Y-24419D03*
X19980Y-22362D03*
X19469Y-24774D03*
X20945Y-22854D03*
X20197Y-22480D03*
X22146Y-23081D03*
X20295Y-21939D03*
X21132Y-21171D03*
X21788Y-24643D03*
X23868Y-23268D03*
X23809Y-24705D03*
X24114Y-23248D03*
X23612Y-20827D03*
X22953Y-20591D03*
X24400Y-22717D03*
X25827Y-22480D03*
X25394Y-24390D03*
X26319Y-22451D03*
X25669Y-24518D03*
X21949Y-25285D03*
X23120Y-21585D03*
X23612Y-22707D03*
X22254Y-25177D03*
X15728Y-22205D03*
X16732Y-25413D03*
X15965Y-21663D03*
X16732Y-25177D03*
X17047Y-21870D03*
X17559Y-24094D03*
X21949Y-25551D03*
X22943Y-21388D03*
X23819Y-22835D03*
X22441Y-25384D03*
X16594Y-20334D03*
X13878Y-23012D03*
X16181Y-20994D03*
X14154Y-23071D03*
X16083Y-24587D03*
X17402Y-21339D03*
X18150Y-21280D03*
X16594Y-24232D03*
X17343Y-23406D03*
X18150Y-21772D03*
X17579Y-23445D03*
X18858Y-21929D03*
X18937Y-22874D03*
X19252Y-24459D03*
X19469Y-24537D03*
X20039Y-22835D03*
X17028Y-21614D03*
X17362Y-24252D03*
X20778Y-21811D03*
X21083Y-23100D03*
X21024Y-21703D03*
X22215Y-22854D03*
X21900Y-24380D03*
X20876Y-21220D03*
X23642Y-24537D03*
X23652Y-23494D03*
X23730Y-21083D03*
X23967Y-23051D03*
X23248Y-20787D03*
X24409Y-22992D03*
X25354Y-24154D03*
X25620Y-22904D03*
X26093Y-24675D03*
X26083Y-22480D03*
X13898Y-22736D03*
X15354Y-20945D03*
X16103Y-21240D03*
X13957Y-23366D03*
G54D14*
X13593Y-20846D03*
G54D13*
X24203Y-26732D03*
X25069Y-19557D03*
X15797Y-19872D03*
X16299Y-26329D03*
G54D14*
X13031Y-20915D03*
G54D13*
X24262Y-21614D03*
X26152Y-23445D03*
X14488Y-21752D03*
X17618Y-22441D03*
X15768Y-26693D03*
X19488Y-23524D03*
X15108Y-19705D03*
X15571Y-23661D03*
X23120Y-24016D03*
X21614Y-22323D03*
G54D14*
X13041Y-21555D03*
G54D13*
X16112Y-26555D03*
X13465Y-21870D03*
X18740Y-24055D03*
X27106Y-23543D03*
X16594Y-22895D03*
X25226Y-21762D03*
X14606Y-23839D03*
X20512Y-22854D03*
X18583Y-22579D03*
X20256Y-24075D03*
X25197Y-23543D03*
X24094Y-24114D03*
X15600Y-19705D03*
X23297Y-21791D03*
X21821Y-23927D03*
X22598Y-22470D03*
X16732Y-23780D03*
X15472Y-21978D03*
G54D15*
X23031Y-22795D02*
X22539Y-23287D01*
X23031Y-22175D02*
X23031Y-22795D01*
X22050Y-25010D02*
X21949Y-25285D01*
X22539Y-23287D02*
X22608Y-24519D01*
X22608Y-24519D02*
X22050Y-25010D01*
X23120Y-21585D02*
X23031Y-22175D01*
X23435Y-24507D02*
X23336Y-24606D01*
X23435Y-22884D02*
X23612Y-22707D01*
X23435Y-23071D02*
X23435Y-24507D01*
X23336Y-24606D02*
X22845Y-24606D01*
X23435Y-23071D02*
X23435Y-22884D01*
X22845Y-24606D02*
X22254Y-25177D01*
X16082Y-25413D02*
X16732Y-25413D01*
X14941Y-23484D02*
X14941Y-24272D01*
X15712Y-22690D02*
X14941Y-23484D01*
X14941Y-24272D02*
X16082Y-25413D01*
X15728Y-22205D02*
X15712Y-22690D01*
X13878Y-23012D02*
X14114Y-22835D01*
X14939Y-21958D02*
X15443Y-21139D01*
X14299Y-22670D02*
X14939Y-21958D01*
X15443Y-21139D02*
X16326Y-20332D01*
X14114Y-22835D02*
X14299Y-22670D01*
X16326Y-20332D02*
X16594Y-20334D01*
X15876Y-21102D02*
X16033Y-21004D01*
X14154Y-23071D02*
X14429Y-22854D01*
X16033Y-21004D02*
X16181Y-20994D01*
X14587Y-22677D02*
X15876Y-21102D01*
X14429Y-22854D02*
X14587Y-22677D01*
X16398Y-22518D02*
X16398Y-21633D01*
X16398Y-21633D02*
X16811Y-21220D01*
X15906Y-24391D02*
X15906Y-23010D01*
X15906Y-23010D02*
X16398Y-22518D01*
X16083Y-24587D02*
X15906Y-24391D01*
X17264Y-21220D02*
X17402Y-21339D01*
X16811Y-21220D02*
X17264Y-21220D01*
X16654Y-22519D02*
X16654Y-21673D01*
X17972Y-21555D02*
X18150Y-21280D01*
X16909Y-21398D02*
X17126Y-21398D01*
X16378Y-22992D02*
X16378Y-22795D01*
X16378Y-22795D02*
X16654Y-22519D01*
X16654Y-21673D02*
X16909Y-21398D01*
X17126Y-21398D02*
X17283Y-21555D01*
X16594Y-24232D02*
X16162Y-24252D01*
X16162Y-24252D02*
X16162Y-23189D01*
X17283Y-21555D02*
X17972Y-21555D01*
X16162Y-23189D02*
X16378Y-22992D01*
X17264Y-22795D02*
X17343Y-23406D01*
X17657Y-21909D02*
X18150Y-21772D01*
X17244Y-22283D02*
X17264Y-22795D01*
X17657Y-21909D02*
X17244Y-22283D01*
X17579Y-23445D02*
X17579Y-23445D01*
X18386Y-22466D02*
X18288Y-22460D01*
X18858Y-21929D02*
X18770Y-22164D01*
X18288Y-22460D02*
X17855Y-22893D01*
X17855Y-22893D02*
X17579Y-23445D01*
X18770Y-22164D02*
X18386Y-22466D01*
X19252Y-24459D02*
X19035Y-23563D01*
X19035Y-23563D02*
X19134Y-23110D01*
X19134Y-23110D02*
X18937Y-22874D01*
X19669Y-24502D02*
X19882Y-23957D01*
X19882Y-23110D02*
X20039Y-22835D01*
X19882Y-23957D02*
X19882Y-23110D01*
X19469Y-24537D02*
X19669Y-24502D01*
X17028Y-21614D02*
X16831Y-21791D01*
X16831Y-23091D02*
X17362Y-24252D01*
X16831Y-21791D02*
X16831Y-23091D01*
X21122Y-22707D02*
X20600Y-22264D01*
X21201Y-22844D02*
X21122Y-22707D01*
X20600Y-22264D02*
X20778Y-21811D01*
X21083Y-23100D02*
X21201Y-22844D01*
X21290Y-22628D02*
X20966Y-22251D01*
X20966Y-22251D02*
X21024Y-21703D01*
X22215Y-22854D02*
X21290Y-22628D01*
X22815Y-22648D02*
X22815Y-22363D01*
X22323Y-23996D02*
X22343Y-23170D01*
X21900Y-24380D02*
X22323Y-23996D01*
X21112Y-21506D02*
X20876Y-21220D01*
X22184Y-21732D02*
X21664Y-21732D01*
X22343Y-23170D02*
X22815Y-22648D01*
X21664Y-21732D02*
X21112Y-21506D01*
X22815Y-22363D02*
X22184Y-21732D01*
X23652Y-24172D02*
X23652Y-23494D01*
X23642Y-24537D02*
X23652Y-24172D01*
X23967Y-23051D02*
X24045Y-22835D01*
X23671Y-22391D02*
X23671Y-21358D01*
X24045Y-22835D02*
X23996Y-22667D01*
X23671Y-21358D02*
X23730Y-21083D01*
X23996Y-22667D02*
X23671Y-22391D01*
X24517Y-20935D02*
X24045Y-20935D01*
X24045Y-20935D02*
X23720Y-20610D01*
X24409Y-22992D02*
X24882Y-22530D01*
X23720Y-20610D02*
X23514Y-20620D01*
X24882Y-21300D02*
X24517Y-20935D01*
X23514Y-20620D02*
X23248Y-20787D01*
X24882Y-22530D02*
X24882Y-21300D01*
X25718Y-23121D02*
X25719Y-22982D01*
X25719Y-22982D02*
X25620Y-22904D01*
X25719Y-23119D02*
X25718Y-23121D01*
X25354Y-24154D02*
X25719Y-23937D01*
X25719Y-23937D02*
X25719Y-23119D01*
X26253Y-24190D02*
X26722Y-23721D01*
X26722Y-23721D02*
X26722Y-23287D01*
X26093Y-24675D02*
X26250Y-24459D01*
X26722Y-23287D02*
X26447Y-23012D01*
X26250Y-24459D02*
X26253Y-24190D01*
X26447Y-23012D02*
X26083Y-22480D01*
G54D16*
X15797Y-19872D02*
X15797Y-19873D01*
X14824Y-20846D02*
X13593Y-20846D01*
X15797Y-19873D02*
X14824Y-20846D01*
G54D10*
G36*
X27607Y-19783D02*
X27598Y-23818D01*
X27421Y-23995D01*
X27421Y-23606D01*
X27421Y-23481D01*
X27373Y-23365D01*
X27285Y-23276D01*
X27169Y-23228D01*
X27044Y-23228D01*
X26998Y-23246D01*
X26985Y-23178D01*
X26984Y-23177D01*
X26924Y-23085D01*
X26921Y-23083D01*
X26666Y-22827D01*
X26553Y-22662D01*
X26586Y-22630D01*
X26634Y-22514D01*
X26634Y-22389D01*
X26586Y-22273D01*
X26498Y-22184D01*
X26382Y-22136D01*
X26257Y-22136D01*
X26166Y-22173D01*
X26146Y-22165D01*
X26021Y-22165D01*
X25955Y-22192D01*
X25890Y-22165D01*
X25765Y-22165D01*
X25649Y-22213D01*
X25560Y-22301D01*
X25541Y-22346D01*
X25541Y-21825D01*
X25541Y-21700D01*
X25493Y-21584D01*
X25405Y-21495D01*
X25289Y-21447D01*
X25285Y-21447D01*
X25285Y-19896D01*
X25285Y-19771D01*
X25237Y-19655D01*
X25149Y-19566D01*
X25033Y-19518D01*
X24908Y-19518D01*
X24792Y-19566D01*
X24703Y-19654D01*
X24655Y-19770D01*
X24655Y-19895D01*
X24703Y-20011D01*
X24791Y-20100D01*
X24907Y-20148D01*
X25032Y-20148D01*
X25148Y-20100D01*
X25237Y-20012D01*
X25285Y-19896D01*
X25285Y-21447D01*
X25167Y-21447D01*
X25167Y-21304D01*
X25167Y-21300D01*
X25168Y-21300D01*
X25145Y-21191D01*
X25084Y-21098D01*
X25081Y-21096D01*
X24719Y-20733D01*
X24626Y-20672D01*
X24517Y-20649D01*
X24512Y-20650D01*
X24163Y-20650D01*
X23922Y-20408D01*
X23916Y-20404D01*
X23912Y-20398D01*
X23864Y-20370D01*
X23829Y-20347D01*
X23822Y-20345D01*
X23816Y-20342D01*
X23776Y-20335D01*
X23720Y-20324D01*
X23711Y-20325D01*
X23706Y-20325D01*
X23500Y-20335D01*
X23482Y-20339D01*
X23467Y-20339D01*
X23430Y-20352D01*
X23392Y-20363D01*
X23377Y-20373D01*
X23363Y-20379D01*
X23238Y-20457D01*
X23220Y-20413D01*
X23132Y-20324D01*
X23016Y-20276D01*
X22891Y-20276D01*
X22775Y-20324D01*
X22686Y-20412D01*
X22638Y-20528D01*
X22638Y-20653D01*
X22686Y-20769D01*
X22774Y-20858D01*
X22890Y-20906D01*
X22956Y-20906D01*
X22981Y-20965D01*
X23069Y-21054D01*
X23185Y-21102D01*
X23310Y-21102D01*
X23402Y-21063D01*
X23415Y-21075D01*
X23415Y-21145D01*
X23421Y-21160D01*
X23392Y-21298D01*
X23391Y-21329D01*
X23386Y-21358D01*
X23386Y-21405D01*
X23299Y-21318D01*
X23245Y-21295D01*
X23210Y-21210D01*
X23122Y-21121D01*
X23006Y-21073D01*
X22881Y-21073D01*
X22765Y-21121D01*
X22676Y-21209D01*
X22628Y-21325D01*
X22628Y-21450D01*
X22676Y-21566D01*
X22764Y-21655D01*
X22817Y-21677D01*
X22780Y-21924D01*
X22386Y-21530D01*
X22293Y-21469D01*
X22184Y-21446D01*
X22179Y-21447D01*
X21720Y-21447D01*
X21411Y-21320D01*
X21447Y-21234D01*
X21447Y-21109D01*
X21399Y-20993D01*
X21311Y-20904D01*
X21195Y-20856D01*
X21070Y-20856D01*
X20954Y-20904D01*
X20948Y-20909D01*
X20939Y-20905D01*
X20814Y-20905D01*
X20698Y-20953D01*
X20609Y-21041D01*
X20561Y-21157D01*
X20561Y-21282D01*
X20609Y-21398D01*
X20697Y-21487D01*
X20718Y-21496D01*
X20716Y-21496D01*
X20600Y-21544D01*
X20511Y-21632D01*
X20488Y-21686D01*
X20474Y-21672D01*
X20358Y-21624D01*
X20233Y-21624D01*
X20117Y-21672D01*
X20028Y-21760D01*
X19980Y-21876D01*
X19980Y-22001D01*
X19999Y-22047D01*
X19918Y-22047D01*
X19802Y-22095D01*
X19713Y-22183D01*
X19665Y-22299D01*
X19665Y-22424D01*
X19713Y-22540D01*
X19800Y-22628D01*
X19772Y-22656D01*
X19724Y-22772D01*
X19724Y-22811D01*
X19634Y-22969D01*
X19628Y-22987D01*
X19619Y-23001D01*
X19611Y-23039D01*
X19600Y-23074D01*
X19600Y-23090D01*
X19597Y-23110D01*
X19597Y-23228D01*
X19551Y-23209D01*
X19426Y-23209D01*
X19401Y-23219D01*
X19412Y-23171D01*
X19412Y-23153D01*
X19418Y-23135D01*
X19413Y-23092D01*
X19414Y-23060D01*
X19408Y-23045D01*
X19406Y-23024D01*
X19386Y-22987D01*
X19374Y-22956D01*
X19362Y-22944D01*
X19353Y-22927D01*
X19247Y-22800D01*
X19204Y-22696D01*
X19148Y-22639D01*
X19174Y-22629D01*
X19263Y-22541D01*
X19311Y-22425D01*
X19311Y-22300D01*
X19263Y-22184D01*
X19175Y-22095D01*
X19136Y-22079D01*
X19173Y-21992D01*
X19173Y-21867D01*
X19125Y-21751D01*
X19037Y-21662D01*
X18989Y-21642D01*
X19016Y-21579D01*
X19016Y-21454D01*
X18968Y-21338D01*
X18880Y-21249D01*
X18764Y-21201D01*
X18639Y-21201D01*
X18523Y-21249D01*
X18465Y-21306D01*
X18465Y-21218D01*
X18417Y-21102D01*
X18329Y-21013D01*
X18213Y-20965D01*
X18130Y-20965D01*
X18130Y-20922D01*
X18082Y-20806D01*
X17994Y-20717D01*
X17878Y-20669D01*
X17753Y-20669D01*
X17637Y-20717D01*
X17548Y-20805D01*
X17547Y-20807D01*
X17517Y-20807D01*
X17401Y-20855D01*
X17312Y-20943D01*
X17311Y-20944D01*
X17307Y-20943D01*
X17264Y-20935D01*
X17243Y-20935D01*
X16815Y-20935D01*
X16811Y-20934D01*
X16702Y-20957D01*
X16609Y-21018D01*
X16607Y-21020D01*
X16418Y-21209D01*
X16418Y-21202D01*
X16448Y-21173D01*
X16496Y-21057D01*
X16496Y-20932D01*
X16448Y-20816D01*
X16360Y-20727D01*
X16330Y-20714D01*
X16436Y-20617D01*
X16456Y-20617D01*
X16531Y-20649D01*
X16656Y-20649D01*
X16772Y-20601D01*
X16861Y-20513D01*
X16909Y-20397D01*
X16909Y-20272D01*
X16861Y-20156D01*
X16773Y-20067D01*
X16657Y-20019D01*
X16532Y-20019D01*
X16461Y-20047D01*
X16339Y-20047D01*
X16338Y-20047D01*
X16328Y-20047D01*
X16265Y-20058D01*
X16229Y-20065D01*
X16226Y-20066D01*
X16219Y-20068D01*
X16157Y-20107D01*
X16134Y-20122D01*
X16129Y-20125D01*
X16125Y-20129D01*
X16122Y-20132D01*
X15915Y-20320D01*
X15915Y-19768D01*
X15915Y-19643D01*
X15867Y-19527D01*
X15779Y-19438D01*
X15663Y-19390D01*
X15538Y-19390D01*
X15422Y-19438D01*
X15353Y-19505D01*
X15287Y-19438D01*
X15171Y-19390D01*
X15046Y-19390D01*
X14930Y-19438D01*
X14841Y-19526D01*
X14793Y-19642D01*
X14793Y-19767D01*
X14841Y-19883D01*
X14929Y-19972D01*
X15045Y-20020D01*
X15170Y-20020D01*
X15286Y-19972D01*
X15354Y-19904D01*
X15421Y-19972D01*
X15537Y-20020D01*
X15662Y-20020D01*
X15778Y-19972D01*
X15867Y-19884D01*
X15915Y-19768D01*
X15915Y-20320D01*
X15527Y-20675D01*
X15417Y-20630D01*
X15292Y-20630D01*
X15176Y-20678D01*
X15087Y-20766D01*
X15039Y-20882D01*
X15039Y-21007D01*
X15087Y-21123D01*
X15106Y-21142D01*
X14789Y-21657D01*
X14755Y-21574D01*
X14667Y-21485D01*
X14551Y-21437D01*
X14426Y-21437D01*
X14310Y-21485D01*
X14221Y-21573D01*
X14173Y-21689D01*
X14173Y-21814D01*
X14221Y-21930D01*
X14309Y-22019D01*
X14425Y-22067D01*
X14458Y-22067D01*
X14093Y-22471D01*
X14086Y-22478D01*
X14077Y-22469D01*
X13961Y-22421D01*
X13836Y-22421D01*
X13780Y-22444D01*
X13780Y-21933D01*
X13780Y-21808D01*
X13732Y-21692D01*
X13644Y-21603D01*
X13528Y-21555D01*
X13421Y-21555D01*
X13421Y-21480D01*
X13363Y-21340D01*
X13257Y-21233D01*
X13252Y-21230D01*
X13353Y-21131D01*
X13411Y-20991D01*
X13411Y-20840D01*
X13353Y-20700D01*
X13247Y-20593D01*
X13107Y-20535D01*
X12956Y-20535D01*
X12816Y-20593D01*
X12709Y-20699D01*
X12651Y-20839D01*
X12651Y-20990D01*
X12709Y-21130D01*
X12815Y-21237D01*
X12819Y-21239D01*
X12719Y-21339D01*
X12661Y-21479D01*
X12661Y-21630D01*
X12719Y-21770D01*
X12825Y-21877D01*
X12965Y-21935D01*
X13116Y-21935D01*
X13150Y-21920D01*
X13150Y-21932D01*
X13198Y-22048D01*
X13286Y-22137D01*
X13402Y-22185D01*
X13527Y-22185D01*
X13643Y-22137D01*
X13732Y-22049D01*
X13780Y-21933D01*
X13780Y-22444D01*
X13720Y-22469D01*
X13631Y-22557D01*
X13583Y-22673D01*
X13583Y-22798D01*
X13604Y-22849D01*
X13563Y-22949D01*
X13563Y-23074D01*
X13611Y-23190D01*
X13665Y-23245D01*
X13642Y-23303D01*
X13642Y-23428D01*
X13690Y-23544D01*
X13778Y-23633D01*
X13894Y-23681D01*
X14019Y-23681D01*
X14135Y-23633D01*
X14224Y-23545D01*
X14272Y-23429D01*
X14272Y-23362D01*
X14332Y-23338D01*
X14421Y-23250D01*
X14437Y-23210D01*
X14605Y-23078D01*
X14621Y-23058D01*
X14641Y-23044D01*
X14799Y-22867D01*
X14800Y-22863D01*
X14808Y-22858D01*
X15305Y-22250D01*
X15409Y-22293D01*
X15423Y-22293D01*
X15438Y-22328D01*
X15430Y-22571D01*
X14741Y-23280D01*
X14739Y-23282D01*
X14737Y-23284D01*
X14737Y-23285D01*
X14734Y-23289D01*
X14678Y-23375D01*
X14677Y-23376D01*
X14676Y-23379D01*
X14655Y-23488D01*
X14656Y-23492D01*
X14656Y-23524D01*
X14544Y-23524D01*
X14428Y-23572D01*
X14339Y-23660D01*
X14291Y-23776D01*
X14291Y-23901D01*
X14339Y-24017D01*
X14427Y-24106D01*
X14543Y-24154D01*
X14656Y-24154D01*
X14656Y-24267D01*
X14655Y-24272D01*
X14678Y-24381D01*
X14739Y-24474D01*
X15878Y-25612D01*
X15880Y-25615D01*
X15973Y-25676D01*
X16082Y-25698D01*
X16596Y-25698D01*
X16669Y-25728D01*
X16794Y-25728D01*
X16910Y-25680D01*
X16999Y-25592D01*
X17047Y-25476D01*
X17047Y-25351D01*
X17024Y-25295D01*
X17047Y-25240D01*
X17047Y-25115D01*
X16999Y-24999D01*
X16911Y-24910D01*
X16795Y-24862D01*
X16670Y-24862D01*
X16554Y-24910D01*
X16544Y-24919D01*
X16575Y-24846D01*
X16575Y-24721D01*
X16568Y-24704D01*
X16586Y-24687D01*
X16634Y-24571D01*
X16634Y-24547D01*
X16656Y-24547D01*
X16772Y-24499D01*
X16861Y-24411D01*
X16909Y-24295D01*
X16909Y-24170D01*
X16865Y-24065D01*
X16910Y-24047D01*
X16941Y-24016D01*
X17047Y-24247D01*
X17047Y-24314D01*
X17095Y-24430D01*
X17183Y-24519D01*
X17299Y-24567D01*
X17424Y-24567D01*
X17540Y-24519D01*
X17629Y-24431D01*
X17641Y-24400D01*
X17737Y-24361D01*
X17826Y-24273D01*
X17874Y-24157D01*
X17874Y-24032D01*
X17829Y-23924D01*
X17914Y-23889D01*
X18003Y-23801D01*
X18051Y-23685D01*
X18051Y-23560D01*
X18003Y-23444D01*
X17933Y-23373D01*
X18089Y-23062D01*
X18354Y-22796D01*
X18404Y-22846D01*
X18520Y-22894D01*
X18622Y-22894D01*
X18622Y-22936D01*
X18670Y-23052D01*
X18758Y-23141D01*
X18804Y-23160D01*
X18825Y-23185D01*
X18757Y-23502D01*
X18756Y-23510D01*
X18754Y-23519D01*
X18755Y-23568D01*
X18755Y-23613D01*
X18757Y-23619D01*
X18758Y-23630D01*
X18784Y-23740D01*
X18678Y-23740D01*
X18562Y-23788D01*
X18473Y-23876D01*
X18425Y-23992D01*
X18425Y-24117D01*
X18473Y-24233D01*
X18561Y-24322D01*
X18671Y-24367D01*
X18671Y-24481D01*
X18719Y-24597D01*
X18807Y-24686D01*
X18923Y-24734D01*
X19048Y-24734D01*
X19071Y-24724D01*
X19073Y-24726D01*
X19154Y-24759D01*
X19154Y-24836D01*
X19202Y-24952D01*
X19290Y-25041D01*
X19406Y-25089D01*
X19531Y-25089D01*
X19647Y-25041D01*
X19736Y-24953D01*
X19784Y-24837D01*
X19784Y-24764D01*
X19805Y-24748D01*
X19822Y-24742D01*
X19847Y-24718D01*
X19874Y-24699D01*
X19883Y-24683D01*
X19903Y-24666D01*
X19917Y-24633D01*
X19935Y-24606D01*
X20048Y-24313D01*
X20077Y-24342D01*
X20193Y-24390D01*
X20318Y-24390D01*
X20434Y-24342D01*
X20523Y-24254D01*
X20571Y-24138D01*
X20571Y-24013D01*
X20523Y-23897D01*
X20435Y-23808D01*
X20319Y-23760D01*
X20194Y-23760D01*
X20167Y-23771D01*
X20167Y-23186D01*
X20214Y-23103D01*
X20217Y-23102D01*
X20266Y-23053D01*
X20333Y-23121D01*
X20449Y-23169D01*
X20574Y-23169D01*
X20690Y-23121D01*
X20728Y-23083D01*
X20766Y-23121D01*
X20768Y-23121D01*
X20768Y-23162D01*
X20816Y-23278D01*
X20904Y-23367D01*
X21020Y-23415D01*
X21145Y-23415D01*
X21261Y-23367D01*
X21350Y-23279D01*
X21398Y-23163D01*
X21398Y-23096D01*
X21459Y-22964D01*
X21459Y-22962D01*
X21831Y-23053D01*
X21831Y-23143D01*
X21879Y-23259D01*
X21967Y-23348D01*
X22052Y-23383D01*
X22044Y-23705D01*
X22000Y-23660D01*
X21884Y-23612D01*
X21759Y-23612D01*
X21643Y-23660D01*
X21554Y-23748D01*
X21506Y-23864D01*
X21506Y-23989D01*
X21554Y-24105D01*
X21641Y-24193D01*
X21633Y-24201D01*
X21585Y-24317D01*
X21585Y-24400D01*
X21521Y-24464D01*
X21473Y-24580D01*
X21473Y-24705D01*
X21521Y-24821D01*
X21609Y-24910D01*
X21725Y-24958D01*
X21765Y-24958D01*
X21728Y-25060D01*
X21682Y-25106D01*
X21634Y-25222D01*
X21634Y-25347D01*
X21663Y-25417D01*
X21634Y-25488D01*
X21634Y-25613D01*
X21682Y-25729D01*
X21770Y-25818D01*
X21886Y-25866D01*
X22011Y-25866D01*
X22127Y-25818D01*
X22216Y-25730D01*
X22252Y-25641D01*
X22262Y-25651D01*
X22378Y-25699D01*
X22503Y-25699D01*
X22619Y-25651D01*
X22708Y-25563D01*
X22756Y-25447D01*
X22756Y-25322D01*
X22708Y-25206D01*
X22672Y-25169D01*
X22961Y-24891D01*
X23331Y-24891D01*
X23336Y-24892D01*
X23336Y-24891D01*
X23445Y-24869D01*
X23512Y-24824D01*
X23518Y-24827D01*
X23542Y-24883D01*
X23630Y-24972D01*
X23746Y-25020D01*
X23871Y-25020D01*
X23987Y-24972D01*
X24076Y-24884D01*
X24124Y-24768D01*
X24124Y-24643D01*
X24076Y-24527D01*
X23988Y-24438D01*
X23932Y-24414D01*
X23930Y-24411D01*
X23931Y-24387D01*
X24031Y-24429D01*
X24156Y-24429D01*
X24272Y-24381D01*
X24361Y-24293D01*
X24409Y-24177D01*
X24409Y-24052D01*
X24361Y-23936D01*
X24273Y-23847D01*
X24157Y-23799D01*
X24032Y-23799D01*
X23937Y-23838D01*
X23937Y-23629D01*
X23961Y-23569D01*
X24014Y-23547D01*
X24051Y-23563D01*
X24176Y-23563D01*
X24292Y-23515D01*
X24381Y-23427D01*
X24429Y-23311D01*
X24429Y-23307D01*
X24471Y-23307D01*
X24587Y-23259D01*
X24676Y-23171D01*
X24704Y-23101D01*
X25081Y-22734D01*
X25081Y-22733D01*
X25084Y-22732D01*
X25121Y-22675D01*
X25144Y-22642D01*
X25144Y-22639D01*
X25145Y-22639D01*
X25148Y-22622D01*
X25168Y-22534D01*
X25167Y-22530D01*
X25167Y-22529D01*
X25167Y-22077D01*
X25288Y-22077D01*
X25404Y-22029D01*
X25493Y-21941D01*
X25541Y-21825D01*
X25541Y-22346D01*
X25512Y-22417D01*
X25512Y-22542D01*
X25535Y-22598D01*
X25442Y-22637D01*
X25353Y-22725D01*
X25305Y-22841D01*
X25305Y-22966D01*
X25353Y-23082D01*
X25434Y-23163D01*
X25434Y-23334D01*
X25376Y-23276D01*
X25260Y-23228D01*
X25135Y-23228D01*
X25019Y-23276D01*
X24930Y-23364D01*
X24882Y-23480D01*
X24882Y-23605D01*
X24930Y-23721D01*
X25018Y-23810D01*
X25134Y-23858D01*
X25246Y-23858D01*
X25176Y-23887D01*
X25087Y-23975D01*
X25039Y-24091D01*
X25039Y-24216D01*
X25081Y-24319D01*
X25079Y-24327D01*
X25079Y-24452D01*
X25127Y-24568D01*
X25215Y-24657D01*
X25331Y-24705D01*
X25410Y-24705D01*
X25490Y-24785D01*
X25606Y-24833D01*
X25731Y-24833D01*
X25805Y-24802D01*
X25826Y-24853D01*
X25914Y-24942D01*
X26030Y-24990D01*
X26155Y-24990D01*
X26271Y-24942D01*
X26360Y-24854D01*
X26408Y-24738D01*
X26408Y-24727D01*
X26481Y-24627D01*
X26494Y-24596D01*
X26512Y-24571D01*
X26517Y-24547D01*
X26527Y-24525D01*
X26528Y-24493D01*
X26535Y-24462D01*
X26536Y-24310D01*
X26921Y-23924D01*
X26923Y-23923D01*
X26924Y-23923D01*
X26982Y-23833D01*
X27043Y-23858D01*
X27168Y-23858D01*
X27284Y-23810D01*
X27373Y-23722D01*
X27421Y-23606D01*
X27421Y-23995D01*
X24507Y-26919D01*
X15997Y-26909D01*
X16035Y-26872D01*
X16037Y-26865D01*
X16049Y-26870D01*
X16174Y-26870D01*
X16290Y-26822D01*
X16379Y-26734D01*
X16427Y-26618D01*
X16427Y-26493D01*
X16379Y-26377D01*
X16291Y-26288D01*
X16175Y-26240D01*
X16050Y-26240D01*
X15934Y-26288D01*
X15845Y-26376D01*
X15842Y-26382D01*
X15831Y-26378D01*
X15706Y-26378D01*
X15590Y-26426D01*
X15501Y-26514D01*
X15453Y-26630D01*
X15453Y-26738D01*
X12520Y-23760D01*
X12520Y-19936D01*
X12624Y-19980D01*
X12749Y-19980D01*
X12865Y-19932D01*
X12954Y-19844D01*
X13002Y-19728D01*
X13002Y-19603D01*
X12954Y-19487D01*
X12866Y-19398D01*
X12818Y-19378D01*
X12915Y-19282D01*
X14124Y-19282D01*
X14124Y-19393D01*
X14172Y-19509D01*
X14260Y-19598D01*
X14376Y-19646D01*
X14501Y-19646D01*
X14617Y-19598D01*
X14706Y-19510D01*
X14754Y-19394D01*
X14754Y-19282D01*
X25282Y-19282D01*
X25276Y-19297D01*
X25276Y-19422D01*
X25324Y-19538D01*
X25412Y-19627D01*
X25528Y-19675D01*
X25653Y-19675D01*
X25769Y-19627D01*
X25858Y-19539D01*
X25906Y-19423D01*
X25906Y-19298D01*
X25899Y-19282D01*
X27163Y-19282D01*
X27607Y-19783D01*
X27607Y-19783D01*
G37*
G54D17*
X27607Y-19783D02*
X27598Y-23818D01*
X27421Y-23995D01*
X27421Y-23606D01*
X27421Y-23481D01*
X27373Y-23365D01*
X27285Y-23276D01*
X27169Y-23228D01*
X27044Y-23228D01*
X26998Y-23246D01*
X26985Y-23178D01*
X26984Y-23177D01*
X26924Y-23085D01*
X26921Y-23083D01*
X26666Y-22827D01*
X26553Y-22662D01*
X26586Y-22630D01*
X26634Y-22514D01*
X26634Y-22389D01*
X26586Y-22273D01*
X26498Y-22184D01*
X26382Y-22136D01*
X26257Y-22136D01*
X26166Y-22173D01*
X26146Y-22165D01*
X26021Y-22165D01*
X25955Y-22192D01*
X25890Y-22165D01*
X25765Y-22165D01*
X25649Y-22213D01*
X25560Y-22301D01*
X25541Y-22346D01*
X25541Y-21825D01*
X25541Y-21700D01*
X25493Y-21584D01*
X25405Y-21495D01*
X25289Y-21447D01*
X25285Y-21447D01*
X25285Y-19896D01*
X25285Y-19771D01*
X25237Y-19655D01*
X25149Y-19566D01*
X25033Y-19518D01*
X24908Y-19518D01*
X24792Y-19566D01*
X24703Y-19654D01*
X24655Y-19770D01*
X24655Y-19895D01*
X24703Y-20011D01*
X24791Y-20100D01*
X24907Y-20148D01*
X25032Y-20148D01*
X25148Y-20100D01*
X25237Y-20012D01*
X25285Y-19896D01*
X25285Y-21447D01*
X25167Y-21447D01*
X25167Y-21304D01*
X25167Y-21300D01*
X25168Y-21300D01*
X25145Y-21191D01*
X25084Y-21098D01*
X25081Y-21096D01*
X24719Y-20733D01*
X24626Y-20672D01*
X24517Y-20649D01*
X24512Y-20650D01*
X24163Y-20650D01*
X23922Y-20408D01*
X23916Y-20404D01*
X23912Y-20398D01*
X23864Y-20370D01*
X23829Y-20347D01*
X23822Y-20345D01*
X23816Y-20342D01*
X23776Y-20335D01*
X23720Y-20324D01*
X23711Y-20325D01*
X23706Y-20325D01*
X23500Y-20335D01*
X23482Y-20339D01*
X23467Y-20339D01*
X23430Y-20352D01*
X23392Y-20363D01*
X23377Y-20373D01*
X23363Y-20379D01*
X23238Y-20457D01*
X23220Y-20413D01*
X23132Y-20324D01*
X23016Y-20276D01*
X22891Y-20276D01*
X22775Y-20324D01*
X22686Y-20412D01*
X22638Y-20528D01*
X22638Y-20653D01*
X22686Y-20769D01*
X22774Y-20858D01*
X22890Y-20906D01*
X22956Y-20906D01*
X22981Y-20965D01*
X23069Y-21054D01*
X23185Y-21102D01*
X23310Y-21102D01*
X23402Y-21063D01*
X23415Y-21075D01*
X23415Y-21145D01*
X23421Y-21160D01*
X23392Y-21298D01*
X23391Y-21329D01*
X23386Y-21358D01*
X23386Y-21405D01*
X23299Y-21318D01*
X23245Y-21295D01*
X23210Y-21210D01*
X23122Y-21121D01*
X23006Y-21073D01*
X22881Y-21073D01*
X22765Y-21121D01*
X22676Y-21209D01*
X22628Y-21325D01*
X22628Y-21450D01*
X22676Y-21566D01*
X22764Y-21655D01*
X22817Y-21677D01*
X22780Y-21924D01*
X22386Y-21530D01*
X22293Y-21469D01*
X22184Y-21446D01*
X22179Y-21447D01*
X21720Y-21447D01*
X21411Y-21320D01*
X21447Y-21234D01*
X21447Y-21109D01*
X21399Y-20993D01*
X21311Y-20904D01*
X21195Y-20856D01*
X21070Y-20856D01*
X20954Y-20904D01*
X20948Y-20909D01*
X20939Y-20905D01*
X20814Y-20905D01*
X20698Y-20953D01*
X20609Y-21041D01*
X20561Y-21157D01*
X20561Y-21282D01*
X20609Y-21398D01*
X20697Y-21487D01*
X20718Y-21496D01*
X20716Y-21496D01*
X20600Y-21544D01*
X20511Y-21632D01*
X20488Y-21686D01*
X20474Y-21672D01*
X20358Y-21624D01*
X20233Y-21624D01*
X20117Y-21672D01*
X20028Y-21760D01*
X19980Y-21876D01*
X19980Y-22001D01*
X19999Y-22047D01*
X19918Y-22047D01*
X19802Y-22095D01*
X19713Y-22183D01*
X19665Y-22299D01*
X19665Y-22424D01*
X19713Y-22540D01*
X19800Y-22628D01*
X19772Y-22656D01*
X19724Y-22772D01*
X19724Y-22811D01*
X19634Y-22969D01*
X19628Y-22987D01*
X19619Y-23001D01*
X19611Y-23039D01*
X19600Y-23074D01*
X19600Y-23090D01*
X19597Y-23110D01*
X19597Y-23228D01*
X19551Y-23209D01*
X19426Y-23209D01*
X19401Y-23219D01*
X19412Y-23171D01*
X19412Y-23153D01*
X19418Y-23135D01*
X19413Y-23092D01*
X19414Y-23060D01*
X19408Y-23045D01*
X19406Y-23024D01*
X19386Y-22987D01*
X19374Y-22956D01*
X19362Y-22944D01*
X19353Y-22927D01*
X19247Y-22800D01*
X19204Y-22696D01*
X19148Y-22639D01*
X19174Y-22629D01*
X19263Y-22541D01*
X19311Y-22425D01*
X19311Y-22300D01*
X19263Y-22184D01*
X19175Y-22095D01*
X19136Y-22079D01*
X19173Y-21992D01*
X19173Y-21867D01*
X19125Y-21751D01*
X19037Y-21662D01*
X18989Y-21642D01*
X19016Y-21579D01*
X19016Y-21454D01*
X18968Y-21338D01*
X18880Y-21249D01*
X18764Y-21201D01*
X18639Y-21201D01*
X18523Y-21249D01*
X18465Y-21306D01*
X18465Y-21218D01*
X18417Y-21102D01*
X18329Y-21013D01*
X18213Y-20965D01*
X18130Y-20965D01*
X18130Y-20922D01*
X18082Y-20806D01*
X17994Y-20717D01*
X17878Y-20669D01*
X17753Y-20669D01*
X17637Y-20717D01*
X17548Y-20805D01*
X17547Y-20807D01*
X17517Y-20807D01*
X17401Y-20855D01*
X17312Y-20943D01*
X17311Y-20944D01*
X17307Y-20943D01*
X17264Y-20935D01*
X17243Y-20935D01*
X16815Y-20935D01*
X16811Y-20934D01*
X16702Y-20957D01*
X16609Y-21018D01*
X16607Y-21020D01*
X16418Y-21209D01*
X16418Y-21202D01*
X16448Y-21173D01*
X16496Y-21057D01*
X16496Y-20932D01*
X16448Y-20816D01*
X16360Y-20727D01*
X16330Y-20714D01*
X16436Y-20617D01*
X16456Y-20617D01*
X16531Y-20649D01*
X16656Y-20649D01*
X16772Y-20601D01*
X16861Y-20513D01*
X16909Y-20397D01*
X16909Y-20272D01*
X16861Y-20156D01*
X16773Y-20067D01*
X16657Y-20019D01*
X16532Y-20019D01*
X16461Y-20047D01*
X16339Y-20047D01*
X16338Y-20047D01*
X16328Y-20047D01*
X16265Y-20058D01*
X16229Y-20065D01*
X16226Y-20066D01*
X16219Y-20068D01*
X16157Y-20107D01*
X16134Y-20122D01*
X16129Y-20125D01*
X16125Y-20129D01*
X16122Y-20132D01*
X15915Y-20320D01*
X15915Y-19768D01*
X15915Y-19643D01*
X15867Y-19527D01*
X15779Y-19438D01*
X15663Y-19390D01*
X15538Y-19390D01*
X15422Y-19438D01*
X15353Y-19505D01*
X15287Y-19438D01*
X15171Y-19390D01*
X15046Y-19390D01*
X14930Y-19438D01*
X14841Y-19526D01*
X14793Y-19642D01*
X14793Y-19767D01*
X14841Y-19883D01*
X14929Y-19972D01*
X15045Y-20020D01*
X15170Y-20020D01*
X15286Y-19972D01*
X15354Y-19904D01*
X15421Y-19972D01*
X15537Y-20020D01*
X15662Y-20020D01*
X15778Y-19972D01*
X15867Y-19884D01*
X15915Y-19768D01*
X15915Y-20320D01*
X15527Y-20675D01*
X15417Y-20630D01*
X15292Y-20630D01*
X15176Y-20678D01*
X15087Y-20766D01*
X15039Y-20882D01*
X15039Y-21007D01*
X15087Y-21123D01*
X15106Y-21142D01*
X14789Y-21657D01*
X14755Y-21574D01*
X14667Y-21485D01*
X14551Y-21437D01*
X14426Y-21437D01*
X14310Y-21485D01*
X14221Y-21573D01*
X14173Y-21689D01*
X14173Y-21814D01*
X14221Y-21930D01*
X14309Y-22019D01*
X14425Y-22067D01*
X14458Y-22067D01*
X14093Y-22471D01*
X14086Y-22478D01*
X14077Y-22469D01*
X13961Y-22421D01*
X13836Y-22421D01*
X13780Y-22444D01*
X13780Y-21933D01*
X13780Y-21808D01*
X13732Y-21692D01*
X13644Y-21603D01*
X13528Y-21555D01*
X13421Y-21555D01*
X13421Y-21480D01*
X13363Y-21340D01*
X13257Y-21233D01*
X13252Y-21230D01*
X13353Y-21131D01*
X13411Y-20991D01*
X13411Y-20840D01*
X13353Y-20700D01*
X13247Y-20593D01*
X13107Y-20535D01*
X12956Y-20535D01*
X12816Y-20593D01*
X12709Y-20699D01*
X12651Y-20839D01*
X12651Y-20990D01*
X12709Y-21130D01*
X12815Y-21237D01*
X12819Y-21239D01*
X12719Y-21339D01*
X12661Y-21479D01*
X12661Y-21630D01*
X12719Y-21770D01*
X12825Y-21877D01*
X12965Y-21935D01*
X13116Y-21935D01*
X13150Y-21920D01*
X13150Y-21932D01*
X13198Y-22048D01*
X13286Y-22137D01*
X13402Y-22185D01*
X13527Y-22185D01*
X13643Y-22137D01*
X13732Y-22049D01*
X13780Y-21933D01*
X13780Y-22444D01*
X13720Y-22469D01*
X13631Y-22557D01*
X13583Y-22673D01*
X13583Y-22798D01*
X13604Y-22849D01*
X13563Y-22949D01*
X13563Y-23074D01*
X13611Y-23190D01*
X13665Y-23245D01*
X13642Y-23303D01*
X13642Y-23428D01*
X13690Y-23544D01*
X13778Y-23633D01*
X13894Y-23681D01*
X14019Y-23681D01*
X14135Y-23633D01*
X14224Y-23545D01*
X14272Y-23429D01*
X14272Y-23362D01*
X14332Y-23338D01*
X14421Y-23250D01*
X14437Y-23210D01*
X14605Y-23078D01*
X14621Y-23058D01*
X14641Y-23044D01*
X14799Y-22867D01*
X14800Y-22863D01*
X14808Y-22858D01*
X15305Y-22250D01*
X15409Y-22293D01*
X15423Y-22293D01*
X15438Y-22328D01*
X15430Y-22571D01*
X14741Y-23280D01*
X14739Y-23282D01*
X14737Y-23284D01*
X14737Y-23285D01*
X14734Y-23289D01*
X14678Y-23375D01*
X14677Y-23376D01*
X14676Y-23379D01*
X14655Y-23488D01*
X14656Y-23492D01*
X14656Y-23524D01*
X14544Y-23524D01*
X14428Y-23572D01*
X14339Y-23660D01*
X14291Y-23776D01*
X14291Y-23901D01*
X14339Y-24017D01*
X14427Y-24106D01*
X14543Y-24154D01*
X14656Y-24154D01*
X14656Y-24267D01*
X14655Y-24272D01*
X14678Y-24381D01*
X14739Y-24474D01*
X15878Y-25612D01*
X15880Y-25615D01*
X15973Y-25676D01*
X16082Y-25698D01*
X16596Y-25698D01*
X16669Y-25728D01*
X16794Y-25728D01*
X16910Y-25680D01*
X16999Y-25592D01*
X17047Y-25476D01*
X17047Y-25351D01*
X17024Y-25295D01*
X17047Y-25240D01*
X17047Y-25115D01*
X16999Y-24999D01*
X16911Y-24910D01*
X16795Y-24862D01*
X16670Y-24862D01*
X16554Y-24910D01*
X16544Y-24919D01*
X16575Y-24846D01*
X16575Y-24721D01*
X16568Y-24704D01*
X16586Y-24687D01*
X16634Y-24571D01*
X16634Y-24547D01*
X16656Y-24547D01*
X16772Y-24499D01*
X16861Y-24411D01*
X16909Y-24295D01*
X16909Y-24170D01*
X16865Y-24065D01*
X16910Y-24047D01*
X16941Y-24016D01*
X17047Y-24247D01*
X17047Y-24314D01*
X17095Y-24430D01*
X17183Y-24519D01*
X17299Y-24567D01*
X17424Y-24567D01*
X17540Y-24519D01*
X17629Y-24431D01*
X17641Y-24400D01*
X17737Y-24361D01*
X17826Y-24273D01*
X17874Y-24157D01*
X17874Y-24032D01*
X17829Y-23924D01*
X17914Y-23889D01*
X18003Y-23801D01*
X18051Y-23685D01*
X18051Y-23560D01*
X18003Y-23444D01*
X17933Y-23373D01*
X18089Y-23062D01*
X18354Y-22796D01*
X18404Y-22846D01*
X18520Y-22894D01*
X18622Y-22894D01*
X18622Y-22936D01*
X18670Y-23052D01*
X18758Y-23141D01*
X18804Y-23160D01*
X18825Y-23185D01*
X18757Y-23502D01*
X18756Y-23510D01*
X18754Y-23519D01*
X18755Y-23568D01*
X18755Y-23613D01*
X18757Y-23619D01*
X18758Y-23630D01*
X18784Y-23740D01*
X18678Y-23740D01*
X18562Y-23788D01*
X18473Y-23876D01*
X18425Y-23992D01*
X18425Y-24117D01*
X18473Y-24233D01*
X18561Y-24322D01*
X18671Y-24367D01*
X18671Y-24481D01*
X18719Y-24597D01*
X18807Y-24686D01*
X18923Y-24734D01*
X19048Y-24734D01*
X19071Y-24724D01*
X19073Y-24726D01*
X19154Y-24759D01*
X19154Y-24836D01*
X19202Y-24952D01*
X19290Y-25041D01*
X19406Y-25089D01*
X19531Y-25089D01*
X19647Y-25041D01*
X19736Y-24953D01*
X19784Y-24837D01*
X19784Y-24764D01*
X19805Y-24748D01*
X19822Y-24742D01*
X19847Y-24718D01*
X19874Y-24699D01*
X19883Y-24683D01*
X19903Y-24666D01*
X19917Y-24633D01*
X19935Y-24606D01*
X20048Y-24313D01*
X20077Y-24342D01*
X20193Y-24390D01*
X20318Y-24390D01*
X20434Y-24342D01*
X20523Y-24254D01*
X20571Y-24138D01*
X20571Y-24013D01*
X20523Y-23897D01*
X20435Y-23808D01*
X20319Y-23760D01*
X20194Y-23760D01*
X20167Y-23771D01*
X20167Y-23186D01*
X20214Y-23103D01*
X20217Y-23102D01*
X20266Y-23053D01*
X20333Y-23121D01*
X20449Y-23169D01*
X20574Y-23169D01*
X20690Y-23121D01*
X20728Y-23083D01*
X20766Y-23121D01*
X20768Y-23121D01*
X20768Y-23162D01*
X20816Y-23278D01*
X20904Y-23367D01*
X21020Y-23415D01*
X21145Y-23415D01*
X21261Y-23367D01*
X21350Y-23279D01*
X21398Y-23163D01*
X21398Y-23096D01*
X21459Y-22964D01*
X21459Y-22962D01*
X21831Y-23053D01*
X21831Y-23143D01*
X21879Y-23259D01*
X21967Y-23348D01*
X22052Y-23383D01*
X22044Y-23705D01*
X22000Y-23660D01*
X21884Y-23612D01*
X21759Y-23612D01*
X21643Y-23660D01*
X21554Y-23748D01*
X21506Y-23864D01*
X21506Y-23989D01*
X21554Y-24105D01*
X21641Y-24193D01*
X21633Y-24201D01*
X21585Y-24317D01*
X21585Y-24400D01*
X21521Y-24464D01*
X21473Y-24580D01*
X21473Y-24705D01*
X21521Y-24821D01*
X21609Y-24910D01*
X21725Y-24958D01*
X21765Y-24958D01*
X21728Y-25060D01*
X21682Y-25106D01*
X21634Y-25222D01*
X21634Y-25347D01*
X21663Y-25417D01*
X21634Y-25488D01*
X21634Y-25613D01*
X21682Y-25729D01*
X21770Y-25818D01*
X21886Y-25866D01*
X22011Y-25866D01*
X22127Y-25818D01*
X22216Y-25730D01*
X22252Y-25641D01*
X22262Y-25651D01*
X22378Y-25699D01*
X22503Y-25699D01*
X22619Y-25651D01*
X22708Y-25563D01*
X22756Y-25447D01*
X22756Y-25322D01*
X22708Y-25206D01*
X22672Y-25169D01*
X22961Y-24891D01*
X23331Y-24891D01*
X23336Y-24892D01*
X23336Y-24891D01*
X23445Y-24869D01*
X23512Y-24824D01*
X23518Y-24827D01*
X23542Y-24883D01*
X23630Y-24972D01*
X23746Y-25020D01*
X23871Y-25020D01*
X23987Y-24972D01*
X24076Y-24884D01*
X24124Y-24768D01*
X24124Y-24643D01*
X24076Y-24527D01*
X23988Y-24438D01*
X23932Y-24414D01*
X23930Y-24411D01*
X23931Y-24387D01*
X24031Y-24429D01*
X24156Y-24429D01*
X24272Y-24381D01*
X24361Y-24293D01*
X24409Y-24177D01*
X24409Y-24052D01*
X24361Y-23936D01*
X24273Y-23847D01*
X24157Y-23799D01*
X24032Y-23799D01*
X23937Y-23838D01*
X23937Y-23629D01*
X23961Y-23569D01*
X24014Y-23547D01*
X24051Y-23563D01*
X24176Y-23563D01*
X24292Y-23515D01*
X24381Y-23427D01*
X24429Y-23311D01*
X24429Y-23307D01*
X24471Y-23307D01*
X24587Y-23259D01*
X24676Y-23171D01*
X24704Y-23101D01*
X25081Y-22734D01*
X25081Y-22733D01*
X25084Y-22732D01*
X25121Y-22675D01*
X25144Y-22642D01*
X25144Y-22639D01*
X25145Y-22639D01*
X25148Y-22622D01*
X25168Y-22534D01*
X25167Y-22530D01*
X25167Y-22529D01*
X25167Y-22077D01*
X25288Y-22077D01*
X25404Y-22029D01*
X25493Y-21941D01*
X25541Y-21825D01*
X25541Y-22346D01*
X25512Y-22417D01*
X25512Y-22542D01*
X25535Y-22598D01*
X25442Y-22637D01*
X25353Y-22725D01*
X25305Y-22841D01*
X25305Y-22966D01*
X25353Y-23082D01*
X25434Y-23163D01*
X25434Y-23334D01*
X25376Y-23276D01*
X25260Y-23228D01*
X25135Y-23228D01*
X25019Y-23276D01*
X24930Y-23364D01*
X24882Y-23480D01*
X24882Y-23605D01*
X24930Y-23721D01*
X25018Y-23810D01*
X25134Y-23858D01*
X25246Y-23858D01*
X25176Y-23887D01*
X25087Y-23975D01*
X25039Y-24091D01*
X25039Y-24216D01*
X25081Y-24319D01*
X25079Y-24327D01*
X25079Y-24452D01*
X25127Y-24568D01*
X25215Y-24657D01*
X25331Y-24705D01*
X25410Y-24705D01*
X25490Y-24785D01*
X25606Y-24833D01*
X25731Y-24833D01*
X25805Y-24802D01*
X25826Y-24853D01*
X25914Y-24942D01*
X26030Y-24990D01*
X26155Y-24990D01*
X26271Y-24942D01*
X26360Y-24854D01*
X26408Y-24738D01*
X26408Y-24727D01*
X26481Y-24627D01*
X26494Y-24596D01*
X26512Y-24571D01*
X26517Y-24547D01*
X26527Y-24525D01*
X26528Y-24493D01*
X26535Y-24462D01*
X26536Y-24310D01*
X26921Y-23924D01*
X26923Y-23923D01*
X26924Y-23923D01*
X26982Y-23833D01*
X27043Y-23858D01*
X27168Y-23858D01*
X27284Y-23810D01*
X27373Y-23722D01*
X27421Y-23606D01*
X27421Y-23995D01*
X24507Y-26919D01*
X15997Y-26909D01*
X16035Y-26872D01*
X16037Y-26865D01*
X16049Y-26870D01*
X16174Y-26870D01*
X16290Y-26822D01*
X16379Y-26734D01*
X16427Y-26618D01*
X16427Y-26493D01*
X16379Y-26377D01*
X16291Y-26288D01*
X16175Y-26240D01*
X16050Y-26240D01*
X15934Y-26288D01*
X15845Y-26376D01*
X15842Y-26382D01*
X15831Y-26378D01*
X15706Y-26378D01*
X15590Y-26426D01*
X15501Y-26514D01*
X15453Y-26630D01*
X15453Y-26738D01*
X12520Y-23760D01*
X12520Y-19936D01*
X12624Y-19980D01*
X12749Y-19980D01*
X12865Y-19932D01*
X12954Y-19844D01*
X13002Y-19728D01*
X13002Y-19603D01*
X12954Y-19487D01*
X12866Y-19398D01*
X12818Y-19378D01*
X12915Y-19282D01*
X14124Y-19282D01*
X14124Y-19393D01*
X14172Y-19509D01*
X14260Y-19598D01*
X14376Y-19646D01*
X14501Y-19646D01*
X14617Y-19598D01*
X14706Y-19510D01*
X14754Y-19394D01*
X14754Y-19282D01*
X25282Y-19282D01*
X25276Y-19297D01*
X25276Y-19422D01*
X25324Y-19538D01*
X25412Y-19627D01*
X25528Y-19675D01*
X25653Y-19675D01*
X25769Y-19627D01*
X25858Y-19539D01*
X25906Y-19423D01*
X25906Y-19298D01*
X25899Y-19282D01*
X27163Y-19282D01*
X27607Y-19783D01*
M02*
