G04 (created by PCBNEW-RS274X (2012-apr-16-27)-stable) date Thu 03 Apr 2014 02:01:57 PM EDT*
G01*
G70*
G90*
%MOIN*%
G04 Gerber Fmt 3.4, Leading zero omitted, Abs format*
%FSLAX34Y34*%
G04 APERTURE LIST*
%ADD10C,0.006000*%
%ADD11C,0.000400*%
%ADD12C,0.002000*%
%ADD13R,0.059400X0.031800*%
%ADD14R,0.031800X0.059400*%
%ADD15R,0.031800X0.043600*%
%ADD16R,0.059400X0.059400*%
%ADD17R,0.045000X0.065000*%
G04 APERTURE END LIST*
G54D10*
G54D11*
X24646Y-27224D02*
X27953Y-23917D01*
X15512Y-27224D02*
X12205Y-23917D01*
X15512Y-27224D02*
X24646Y-27224D01*
X12766Y-18996D02*
X12205Y-19557D01*
X27392Y-18996D02*
X27953Y-19596D01*
X26939Y-18996D02*
X27392Y-18996D01*
X27953Y-19596D02*
X27953Y-23917D01*
X16663Y-18996D02*
X26938Y-18996D01*
X12205Y-19557D02*
X12205Y-23917D01*
X16664Y-18996D02*
X12766Y-18996D01*
X15748Y-27461D02*
X24016Y-27461D01*
G54D12*
X15748Y-27461D02*
X24016Y-27461D01*
G54D13*
X26743Y-23150D03*
X26743Y-23347D03*
X26743Y-23543D03*
X26743Y-23740D03*
G54D14*
X26447Y-24036D03*
X26250Y-24036D03*
X26054Y-24036D03*
X25857Y-24036D03*
G54D13*
X25561Y-23740D03*
X25561Y-23543D03*
X25561Y-23347D03*
X25561Y-23150D03*
G54D15*
X25857Y-22776D03*
G54D14*
X26054Y-22854D03*
X26250Y-22854D03*
G54D15*
X26447Y-22776D03*
G54D16*
X26152Y-23445D03*
G54D13*
X24853Y-21319D03*
X24853Y-21516D03*
X24853Y-21712D03*
X24853Y-21909D03*
G54D14*
X24557Y-22205D03*
X24360Y-22205D03*
X24164Y-22205D03*
X23967Y-22205D03*
G54D13*
X23671Y-21909D03*
X23671Y-21712D03*
X23671Y-21516D03*
X23671Y-21319D03*
G54D15*
X23967Y-20945D03*
G54D14*
X24164Y-21023D03*
X24360Y-21023D03*
G54D15*
X24557Y-20945D03*
G54D16*
X24262Y-21614D03*
G54D13*
X23711Y-23721D03*
X23711Y-23918D03*
X23711Y-24114D03*
X23711Y-24311D03*
G54D14*
X23415Y-24607D03*
X23218Y-24607D03*
X23022Y-24607D03*
X22825Y-24607D03*
G54D13*
X22529Y-24311D03*
X22529Y-24114D03*
X22529Y-23918D03*
X22529Y-23721D03*
G54D15*
X22825Y-23347D03*
G54D14*
X23022Y-23425D03*
X23218Y-23425D03*
G54D15*
X23415Y-23347D03*
G54D16*
X23120Y-24016D03*
G54D13*
X22205Y-22028D03*
X22205Y-22225D03*
X22205Y-22421D03*
X22205Y-22618D03*
G54D14*
X21909Y-22914D03*
X21712Y-22914D03*
X21516Y-22914D03*
X21319Y-22914D03*
G54D13*
X21023Y-22618D03*
X21023Y-22421D03*
X21023Y-22225D03*
X21023Y-22028D03*
G54D15*
X21319Y-21654D03*
G54D14*
X21516Y-21732D03*
X21712Y-21732D03*
G54D15*
X21909Y-21654D03*
G54D16*
X21614Y-22323D03*
G54D13*
X20079Y-23209D03*
X20079Y-23406D03*
X20079Y-23602D03*
X20079Y-23799D03*
G54D14*
X19783Y-24095D03*
X19586Y-24095D03*
X19390Y-24095D03*
X19193Y-24095D03*
G54D13*
X18897Y-23799D03*
X18897Y-23602D03*
X18897Y-23406D03*
X18897Y-23209D03*
G54D15*
X19193Y-22835D03*
G54D14*
X19390Y-22913D03*
X19586Y-22913D03*
G54D15*
X19783Y-22835D03*
G54D16*
X19488Y-23504D03*
G54D13*
X18209Y-22146D03*
X18209Y-22343D03*
X18209Y-22539D03*
X18209Y-22736D03*
G54D14*
X17913Y-23032D03*
X17716Y-23032D03*
X17520Y-23032D03*
X17323Y-23032D03*
G54D13*
X17027Y-22736D03*
X17027Y-22539D03*
X17027Y-22343D03*
X17027Y-22146D03*
G54D15*
X17323Y-21772D03*
G54D14*
X17520Y-21850D03*
X17716Y-21850D03*
G54D15*
X17913Y-21772D03*
G54D16*
X17618Y-22441D03*
G54D13*
X16162Y-23366D03*
X16162Y-23563D03*
X16162Y-23759D03*
X16162Y-23956D03*
G54D14*
X15866Y-24252D03*
X15669Y-24252D03*
X15473Y-24252D03*
X15276Y-24252D03*
G54D13*
X14980Y-23956D03*
X14980Y-23759D03*
X14980Y-23563D03*
X14980Y-23366D03*
G54D15*
X15276Y-22992D03*
G54D14*
X15473Y-23070D03*
X15669Y-23070D03*
G54D15*
X15866Y-22992D03*
G54D16*
X15571Y-23661D03*
G54D13*
X15079Y-21457D03*
X15079Y-21654D03*
X15079Y-21850D03*
X15079Y-22047D03*
G54D14*
X14783Y-22343D03*
X14586Y-22343D03*
X14390Y-22343D03*
X14193Y-22343D03*
G54D13*
X13897Y-22047D03*
X13897Y-21850D03*
X13897Y-21654D03*
X13897Y-21457D03*
G54D15*
X14193Y-21083D03*
G54D14*
X14390Y-21161D03*
X14586Y-21161D03*
G54D15*
X14783Y-21083D03*
G54D16*
X14488Y-21752D03*
G54D10*
G36*
X13212Y-19753D02*
X13537Y-19190D01*
X13926Y-19415D01*
X13601Y-19978D01*
X13212Y-19753D01*
X13212Y-19753D01*
G37*
G36*
X13732Y-20053D02*
X14057Y-19490D01*
X14446Y-19715D01*
X14121Y-20278D01*
X13732Y-20053D01*
X13732Y-20053D01*
G37*
G36*
X25790Y-19645D02*
X26115Y-19082D01*
X26504Y-19307D01*
X26179Y-19870D01*
X25790Y-19645D01*
X25790Y-19645D01*
G37*
G36*
X26310Y-19945D02*
X26635Y-19382D01*
X27024Y-19607D01*
X26699Y-20170D01*
X26310Y-19945D01*
X26310Y-19945D01*
G37*
G54D17*
X26669Y-20502D03*
X27269Y-20502D03*
X13322Y-20305D03*
X12722Y-20305D03*
M02*
