G04 (created by PCBNEW-RS274X (2012-apr-16-27)-stable) date Thu 13 Mar 2014 04:59:36 PM EDT*
G01*
G70*
G90*
%MOIN*%
G04 Gerber Fmt 3.4, Leading zero omitted, Abs format*
%FSLAX34Y34*%
G04 APERTURE LIST*
%ADD10C,0.006000*%
%ADD11C,0.005900*%
%ADD12C,0.007400*%
%ADD13C,0.000400*%
%ADD14C,0.002000*%
%ADD15C,0.005000*%
%ADD16C,0.007900*%
G04 APERTURE END LIST*
G54D10*
G54D11*
X17770Y-26017D02*
X17798Y-26035D01*
X17854Y-26035D01*
X17883Y-26017D01*
X17897Y-25979D01*
X17897Y-25960D01*
X17883Y-25923D01*
X17854Y-25904D01*
X17812Y-25904D01*
X17784Y-25885D01*
X17770Y-25848D01*
X17770Y-25829D01*
X17784Y-25792D01*
X17812Y-25773D01*
X17854Y-25773D01*
X17883Y-25792D01*
X18150Y-26017D02*
X18122Y-26035D01*
X18065Y-26035D01*
X18037Y-26017D01*
X18023Y-25998D01*
X18009Y-25960D01*
X18009Y-25848D01*
X18023Y-25810D01*
X18037Y-25792D01*
X18065Y-25773D01*
X18122Y-25773D01*
X18150Y-25792D01*
X18276Y-26035D02*
X18276Y-25773D01*
X18276Y-25641D02*
X18262Y-25660D01*
X18276Y-25679D01*
X18290Y-25660D01*
X18276Y-25641D01*
X18276Y-25679D01*
X18529Y-26017D02*
X18501Y-26035D01*
X18444Y-26035D01*
X18416Y-26017D01*
X18402Y-25979D01*
X18402Y-25829D01*
X18416Y-25792D01*
X18444Y-25773D01*
X18501Y-25773D01*
X18529Y-25792D01*
X18543Y-25829D01*
X18543Y-25867D01*
X18402Y-25904D01*
X18669Y-25773D02*
X18669Y-26035D01*
X18669Y-25810D02*
X18683Y-25792D01*
X18711Y-25773D01*
X18754Y-25773D01*
X18782Y-25792D01*
X18796Y-25829D01*
X18796Y-26035D01*
X19063Y-26017D02*
X19035Y-26035D01*
X18978Y-26035D01*
X18950Y-26017D01*
X18936Y-25998D01*
X18922Y-25960D01*
X18922Y-25848D01*
X18936Y-25810D01*
X18950Y-25792D01*
X18978Y-25773D01*
X19035Y-25773D01*
X19063Y-25792D01*
X19302Y-26017D02*
X19274Y-26035D01*
X19217Y-26035D01*
X19189Y-26017D01*
X19175Y-25979D01*
X19175Y-25829D01*
X19189Y-25792D01*
X19217Y-25773D01*
X19274Y-25773D01*
X19302Y-25792D01*
X19316Y-25829D01*
X19316Y-25867D01*
X19175Y-25904D01*
X19400Y-25773D02*
X19512Y-25773D01*
X19442Y-25641D02*
X19442Y-25979D01*
X19456Y-26017D01*
X19484Y-26035D01*
X19512Y-26035D01*
X19583Y-25773D02*
X19653Y-26035D01*
X19724Y-25773D02*
X19653Y-26035D01*
X19625Y-26129D01*
X19611Y-26148D01*
X19583Y-26167D01*
X19836Y-25773D02*
X19836Y-26167D01*
X19836Y-25792D02*
X19864Y-25773D01*
X19921Y-25773D01*
X19949Y-25792D01*
X19963Y-25810D01*
X19977Y-25848D01*
X19977Y-25960D01*
X19963Y-25998D01*
X19949Y-26017D01*
X19921Y-26035D01*
X19864Y-26035D01*
X19836Y-26017D01*
X20216Y-26017D02*
X20188Y-26035D01*
X20131Y-26035D01*
X20103Y-26017D01*
X20089Y-25979D01*
X20089Y-25829D01*
X20103Y-25792D01*
X20131Y-25773D01*
X20188Y-25773D01*
X20216Y-25792D01*
X20230Y-25829D01*
X20230Y-25867D01*
X20089Y-25904D01*
X20342Y-26017D02*
X20370Y-26035D01*
X20426Y-26035D01*
X20455Y-26017D01*
X20469Y-25979D01*
X20469Y-25960D01*
X20455Y-25923D01*
X20426Y-25904D01*
X20384Y-25904D01*
X20356Y-25885D01*
X20342Y-25848D01*
X20342Y-25829D01*
X20356Y-25792D01*
X20384Y-25773D01*
X20426Y-25773D01*
X20455Y-25792D01*
X20595Y-25998D02*
X20609Y-26017D01*
X20595Y-26035D01*
X20581Y-26017D01*
X20595Y-25998D01*
X20595Y-26035D01*
X20862Y-26017D02*
X20834Y-26035D01*
X20777Y-26035D01*
X20749Y-26017D01*
X20735Y-25998D01*
X20721Y-25960D01*
X20721Y-25848D01*
X20735Y-25810D01*
X20749Y-25792D01*
X20777Y-25773D01*
X20834Y-25773D01*
X20862Y-25792D01*
X21030Y-26035D02*
X21002Y-26017D01*
X20988Y-25998D01*
X20974Y-25960D01*
X20974Y-25848D01*
X20988Y-25810D01*
X21002Y-25792D01*
X21030Y-25773D01*
X21073Y-25773D01*
X21101Y-25792D01*
X21115Y-25810D01*
X21129Y-25848D01*
X21129Y-25960D01*
X21115Y-25998D01*
X21101Y-26017D01*
X21073Y-26035D01*
X21030Y-26035D01*
X21255Y-26035D02*
X21255Y-25773D01*
X21255Y-25810D02*
X21269Y-25792D01*
X21297Y-25773D01*
X21340Y-25773D01*
X21368Y-25792D01*
X21382Y-25829D01*
X21382Y-26035D01*
X21382Y-25829D02*
X21396Y-25792D01*
X21424Y-25773D01*
X21466Y-25773D01*
X21494Y-25792D01*
X21508Y-25829D01*
X21508Y-26035D01*
X18527Y-25336D02*
X18527Y-24942D01*
X18640Y-24942D01*
X18668Y-24961D01*
X18682Y-24980D01*
X18696Y-25018D01*
X18696Y-25074D01*
X18682Y-25111D01*
X18668Y-25130D01*
X18640Y-25149D01*
X18527Y-25149D01*
X18822Y-25336D02*
X18822Y-25074D01*
X18822Y-25149D02*
X18836Y-25111D01*
X18850Y-25093D01*
X18878Y-25074D01*
X18907Y-25074D01*
X19118Y-25318D02*
X19090Y-25336D01*
X19033Y-25336D01*
X19005Y-25318D01*
X18991Y-25280D01*
X18991Y-25130D01*
X19005Y-25093D01*
X19033Y-25074D01*
X19090Y-25074D01*
X19118Y-25093D01*
X19132Y-25130D01*
X19132Y-25168D01*
X18991Y-25205D01*
X19385Y-25336D02*
X19385Y-25130D01*
X19371Y-25093D01*
X19343Y-25074D01*
X19286Y-25074D01*
X19258Y-25093D01*
X19385Y-25318D02*
X19357Y-25336D01*
X19286Y-25336D01*
X19258Y-25318D01*
X19244Y-25280D01*
X19244Y-25243D01*
X19258Y-25205D01*
X19286Y-25186D01*
X19357Y-25186D01*
X19385Y-25168D01*
X19525Y-25336D02*
X19525Y-25074D01*
X19525Y-25111D02*
X19539Y-25093D01*
X19567Y-25074D01*
X19610Y-25074D01*
X19638Y-25093D01*
X19652Y-25130D01*
X19652Y-25336D01*
X19652Y-25130D02*
X19666Y-25093D01*
X19694Y-25074D01*
X19736Y-25074D01*
X19764Y-25093D01*
X19778Y-25130D01*
X19778Y-25336D01*
X19918Y-25074D02*
X19918Y-25468D01*
X19918Y-25093D02*
X19946Y-25074D01*
X20003Y-25074D01*
X20031Y-25093D01*
X20045Y-25111D01*
X20059Y-25149D01*
X20059Y-25261D01*
X20045Y-25299D01*
X20031Y-25318D01*
X20003Y-25336D01*
X19946Y-25336D01*
X19918Y-25318D01*
X20368Y-24942D02*
X20466Y-25336D01*
X20565Y-24942D01*
X20818Y-25336D02*
X20649Y-25336D01*
X20733Y-25336D02*
X20733Y-24942D01*
X20705Y-24999D01*
X20677Y-25036D01*
X20649Y-25055D01*
X13995Y-20404D02*
X13967Y-20385D01*
X13925Y-20385D01*
X13882Y-20404D01*
X13854Y-20442D01*
X13840Y-20479D01*
X13826Y-20554D01*
X13826Y-20611D01*
X13840Y-20686D01*
X13854Y-20723D01*
X13882Y-20761D01*
X13925Y-20779D01*
X13953Y-20779D01*
X13995Y-20761D01*
X14009Y-20742D01*
X14009Y-20611D01*
X13953Y-20611D01*
X12336Y-21968D02*
X12561Y-21968D01*
X12842Y-21724D02*
X12701Y-21724D01*
X12687Y-21912D01*
X12701Y-21893D01*
X12729Y-21875D01*
X12800Y-21875D01*
X12828Y-21893D01*
X12842Y-21912D01*
X12856Y-21950D01*
X12856Y-22043D01*
X12842Y-22081D01*
X12828Y-22100D01*
X12800Y-22118D01*
X12729Y-22118D01*
X12701Y-22100D01*
X12687Y-22081D01*
G54D12*
X12267Y-21131D02*
X12492Y-21131D01*
X12380Y-21281D02*
X12380Y-20981D01*
X12773Y-20887D02*
X12632Y-20887D01*
X12618Y-21075D01*
X12632Y-21056D01*
X12660Y-21038D01*
X12731Y-21038D01*
X12759Y-21056D01*
X12773Y-21075D01*
X12787Y-21113D01*
X12787Y-21206D01*
X12773Y-21244D01*
X12759Y-21263D01*
X12731Y-21281D01*
X12660Y-21281D01*
X12632Y-21263D01*
X12618Y-21244D01*
G54D13*
X27953Y-19596D02*
X27953Y-23917D01*
X27165Y-18770D02*
X27953Y-19596D01*
X16890Y-18770D02*
X27165Y-18770D01*
X12205Y-19557D02*
X12205Y-23917D01*
X12992Y-18770D02*
X12205Y-19557D01*
X16890Y-18770D02*
X12992Y-18770D01*
X15748Y-27461D02*
X12205Y-23917D01*
X24409Y-27461D02*
X27953Y-23917D01*
X24016Y-27461D02*
X24409Y-27461D01*
X15748Y-27461D02*
X24016Y-27461D01*
G54D14*
X15748Y-27461D02*
X24016Y-27461D01*
G54D15*
X13308Y-19056D02*
X14088Y-19506D01*
X14088Y-19506D02*
X13838Y-19940D01*
X13838Y-19940D02*
X13058Y-19490D01*
X13058Y-19490D02*
X13308Y-19056D01*
X26398Y-18997D02*
X27178Y-19447D01*
X27178Y-19447D02*
X26928Y-19881D01*
X26928Y-19881D02*
X26148Y-19431D01*
X26148Y-19431D02*
X26398Y-18997D01*
X13472Y-20555D02*
X12572Y-20555D01*
X12572Y-20555D02*
X12572Y-20055D01*
X12572Y-20055D02*
X13472Y-20055D01*
X13472Y-20055D02*
X13472Y-20555D01*
X26519Y-20252D02*
X27419Y-20252D01*
X27419Y-20252D02*
X27419Y-20752D01*
X27419Y-20752D02*
X26519Y-20752D01*
X26519Y-20752D02*
X26519Y-20252D01*
G54D16*
X26743Y-24036D02*
X26644Y-24036D01*
X26743Y-24036D02*
X26743Y-23937D01*
X25561Y-24036D02*
X25660Y-24036D01*
X25561Y-24036D02*
X25561Y-23937D01*
X26743Y-22854D02*
X26743Y-22953D01*
X26743Y-22854D02*
X26644Y-22854D01*
X25561Y-22953D02*
X25561Y-22854D01*
X25561Y-22854D02*
X25660Y-22854D01*
X25817Y-23267D02*
X25817Y-23110D01*
X25817Y-23110D02*
X25974Y-23110D01*
X24853Y-22205D02*
X24754Y-22205D01*
X24853Y-22205D02*
X24853Y-22106D01*
X23671Y-22205D02*
X23770Y-22205D01*
X23671Y-22205D02*
X23671Y-22106D01*
X24853Y-21023D02*
X24853Y-21122D01*
X24853Y-21023D02*
X24754Y-21023D01*
X23671Y-21122D02*
X23671Y-21023D01*
X23671Y-21023D02*
X23770Y-21023D01*
X23927Y-21436D02*
X23927Y-21279D01*
X23927Y-21279D02*
X24084Y-21279D01*
X23711Y-24607D02*
X23612Y-24607D01*
X23711Y-24607D02*
X23711Y-24508D01*
X22529Y-24607D02*
X22628Y-24607D01*
X22529Y-24607D02*
X22529Y-24508D01*
X23711Y-23425D02*
X23711Y-23524D01*
X23711Y-23425D02*
X23612Y-23425D01*
X22529Y-23524D02*
X22529Y-23425D01*
X22529Y-23425D02*
X22628Y-23425D01*
X22785Y-23838D02*
X22785Y-23681D01*
X22785Y-23681D02*
X22942Y-23681D01*
X22205Y-22914D02*
X22106Y-22914D01*
X22205Y-22914D02*
X22205Y-22815D01*
X21023Y-22914D02*
X21122Y-22914D01*
X21023Y-22914D02*
X21023Y-22815D01*
X22205Y-21732D02*
X22205Y-21831D01*
X22205Y-21732D02*
X22106Y-21732D01*
X21023Y-21831D02*
X21023Y-21732D01*
X21023Y-21732D02*
X21122Y-21732D01*
X21279Y-22145D02*
X21279Y-21988D01*
X21279Y-21988D02*
X21436Y-21988D01*
X20079Y-24115D02*
X19980Y-24115D01*
X20079Y-24115D02*
X20079Y-24016D01*
X18897Y-24115D02*
X18996Y-24115D01*
X18897Y-24115D02*
X18897Y-24016D01*
X20079Y-22933D02*
X20079Y-23032D01*
X20079Y-22933D02*
X19980Y-22933D01*
X18897Y-23032D02*
X18897Y-22933D01*
X18897Y-22933D02*
X18996Y-22933D01*
X19153Y-23346D02*
X19153Y-23189D01*
X19153Y-23189D02*
X19310Y-23189D01*
X18209Y-23032D02*
X18110Y-23032D01*
X18209Y-23032D02*
X18209Y-22933D01*
X17027Y-23032D02*
X17126Y-23032D01*
X17027Y-23032D02*
X17027Y-22933D01*
X18209Y-21850D02*
X18209Y-21949D01*
X18209Y-21850D02*
X18110Y-21850D01*
X17027Y-21949D02*
X17027Y-21850D01*
X17027Y-21850D02*
X17126Y-21850D01*
X17283Y-22263D02*
X17283Y-22106D01*
X17283Y-22106D02*
X17440Y-22106D01*
X16162Y-24252D02*
X16063Y-24252D01*
X16162Y-24252D02*
X16162Y-24153D01*
X14980Y-24252D02*
X15079Y-24252D01*
X14980Y-24252D02*
X14980Y-24153D01*
X16162Y-23070D02*
X16162Y-23169D01*
X16162Y-23070D02*
X16063Y-23070D01*
X14980Y-23169D02*
X14980Y-23070D01*
X14980Y-23070D02*
X15079Y-23070D01*
X15236Y-23483D02*
X15236Y-23326D01*
X15236Y-23326D02*
X15393Y-23326D01*
X15079Y-22343D02*
X14980Y-22343D01*
X15079Y-22343D02*
X15079Y-22244D01*
X13897Y-22343D02*
X13996Y-22343D01*
X13897Y-22343D02*
X13897Y-22244D01*
X15079Y-21161D02*
X15079Y-21260D01*
X15079Y-21161D02*
X14980Y-21161D01*
X13897Y-21260D02*
X13897Y-21161D01*
X13897Y-21161D02*
X13996Y-21161D01*
X14153Y-21574D02*
X14153Y-21417D01*
X14153Y-21417D02*
X14310Y-21417D01*
M02*
