G04 (created by PCBNEW-RS274X (2012-apr-16-27)-stable) date Thu 13 Mar 2014 04:59:36 PM EDT*
G01*
G70*
G90*
%MOIN*%
G04 Gerber Fmt 3.4, Leading zero omitted, Abs format*
%FSLAX34Y34*%
G04 APERTURE LIST*
%ADD10C,0.006000*%
%ADD11C,0.000400*%
%ADD12C,0.002000*%
%ADD13C,0.007900*%
%ADD14C,0.005000*%
G04 APERTURE END LIST*
G54D10*
G54D11*
X27953Y-19596D02*
X27953Y-23917D01*
X27165Y-18770D02*
X27953Y-19596D01*
X16890Y-18770D02*
X27165Y-18770D01*
X12205Y-19557D02*
X12205Y-23917D01*
X12992Y-18770D02*
X12205Y-19557D01*
X16890Y-18770D02*
X12992Y-18770D01*
X15748Y-27461D02*
X12205Y-23917D01*
X24409Y-27461D02*
X27953Y-23917D01*
X24016Y-27461D02*
X24409Y-27461D01*
X15748Y-27461D02*
X24016Y-27461D01*
G54D12*
X15748Y-27461D02*
X24016Y-27461D01*
G54D13*
X25561Y-24036D02*
X25660Y-24036D01*
X25561Y-24036D02*
X25561Y-23937D01*
X26743Y-24036D02*
X26644Y-24036D01*
X26743Y-24036D02*
X26743Y-23937D01*
X25561Y-22854D02*
X25561Y-22953D01*
X25561Y-22854D02*
X25660Y-22854D01*
X26743Y-22953D02*
X26743Y-22854D01*
X26743Y-22854D02*
X26644Y-22854D01*
X26487Y-23267D02*
X26487Y-23110D01*
X26487Y-23110D02*
X26330Y-23110D01*
X23671Y-22205D02*
X23770Y-22205D01*
X23671Y-22205D02*
X23671Y-22106D01*
X24853Y-22205D02*
X24754Y-22205D01*
X24853Y-22205D02*
X24853Y-22106D01*
X23671Y-21023D02*
X23671Y-21122D01*
X23671Y-21023D02*
X23770Y-21023D01*
X24853Y-21122D02*
X24853Y-21023D01*
X24853Y-21023D02*
X24754Y-21023D01*
X24597Y-21436D02*
X24597Y-21279D01*
X24597Y-21279D02*
X24440Y-21279D01*
X22529Y-24607D02*
X22628Y-24607D01*
X22529Y-24607D02*
X22529Y-24508D01*
X23711Y-24607D02*
X23612Y-24607D01*
X23711Y-24607D02*
X23711Y-24508D01*
X22529Y-23425D02*
X22529Y-23524D01*
X22529Y-23425D02*
X22628Y-23425D01*
X23711Y-23524D02*
X23711Y-23425D01*
X23711Y-23425D02*
X23612Y-23425D01*
X23455Y-23838D02*
X23455Y-23681D01*
X23455Y-23681D02*
X23298Y-23681D01*
X21023Y-22914D02*
X21122Y-22914D01*
X21023Y-22914D02*
X21023Y-22815D01*
X22205Y-22914D02*
X22106Y-22914D01*
X22205Y-22914D02*
X22205Y-22815D01*
X21023Y-21732D02*
X21023Y-21831D01*
X21023Y-21732D02*
X21122Y-21732D01*
X22205Y-21831D02*
X22205Y-21732D01*
X22205Y-21732D02*
X22106Y-21732D01*
X21949Y-22145D02*
X21949Y-21988D01*
X21949Y-21988D02*
X21792Y-21988D01*
X18897Y-24095D02*
X18996Y-24095D01*
X18897Y-24095D02*
X18897Y-23996D01*
X20079Y-24095D02*
X19980Y-24095D01*
X20079Y-24095D02*
X20079Y-23996D01*
X18897Y-22913D02*
X18897Y-23012D01*
X18897Y-22913D02*
X18996Y-22913D01*
X20079Y-23012D02*
X20079Y-22913D01*
X20079Y-22913D02*
X19980Y-22913D01*
X19823Y-23326D02*
X19823Y-23169D01*
X19823Y-23169D02*
X19666Y-23169D01*
X17027Y-23032D02*
X17126Y-23032D01*
X17027Y-23032D02*
X17027Y-22933D01*
X18209Y-23032D02*
X18110Y-23032D01*
X18209Y-23032D02*
X18209Y-22933D01*
X17027Y-21850D02*
X17027Y-21949D01*
X17027Y-21850D02*
X17126Y-21850D01*
X18209Y-21949D02*
X18209Y-21850D01*
X18209Y-21850D02*
X18110Y-21850D01*
X17953Y-22263D02*
X17953Y-22106D01*
X17953Y-22106D02*
X17796Y-22106D01*
X14980Y-24252D02*
X15079Y-24252D01*
X14980Y-24252D02*
X14980Y-24153D01*
X16162Y-24252D02*
X16063Y-24252D01*
X16162Y-24252D02*
X16162Y-24153D01*
X14980Y-23070D02*
X14980Y-23169D01*
X14980Y-23070D02*
X15079Y-23070D01*
X16162Y-23169D02*
X16162Y-23070D01*
X16162Y-23070D02*
X16063Y-23070D01*
X15906Y-23483D02*
X15906Y-23326D01*
X15906Y-23326D02*
X15749Y-23326D01*
X13897Y-22343D02*
X13996Y-22343D01*
X13897Y-22343D02*
X13897Y-22244D01*
X15079Y-22343D02*
X14980Y-22343D01*
X15079Y-22343D02*
X15079Y-22244D01*
X13897Y-21161D02*
X13897Y-21260D01*
X13897Y-21161D02*
X13996Y-21161D01*
X15079Y-21260D02*
X15079Y-21161D01*
X15079Y-21161D02*
X14980Y-21161D01*
X14823Y-21574D02*
X14823Y-21417D01*
X14823Y-21417D02*
X14666Y-21417D01*
G54D14*
X13058Y-19490D02*
X13838Y-19940D01*
X13838Y-19940D02*
X14088Y-19506D01*
X14088Y-19506D02*
X13308Y-19056D01*
X13308Y-19056D02*
X13058Y-19490D01*
X26148Y-19431D02*
X26928Y-19881D01*
X26928Y-19881D02*
X27178Y-19447D01*
X27178Y-19447D02*
X26398Y-18997D01*
X26398Y-18997D02*
X26148Y-19431D01*
X26519Y-20752D02*
X27419Y-20752D01*
X27419Y-20752D02*
X27419Y-20252D01*
X27419Y-20252D02*
X26519Y-20252D01*
X26519Y-20252D02*
X26519Y-20752D01*
X13472Y-20055D02*
X12572Y-20055D01*
X12572Y-20055D02*
X12572Y-20555D01*
X12572Y-20555D02*
X13472Y-20555D01*
X13472Y-20555D02*
X13472Y-20055D01*
M02*
