M48
INCH,LZ
T1C0.007
T2C0.025
%
G90
G05
T1
X012687Y-019665
X013465Y-02187
X013878Y-023012
X013898Y-022736
X013957Y-023366
X014154Y-023071
X014439Y-019331
X014488Y-021752
X014606Y-023839
X015098Y-019803
X015118Y-020866
X015472Y-021978
X015522Y-026339
X015551Y-019528
X015571Y-023661
X015728Y-022205
X015916Y-026359
X015965Y-021663
X015984Y-019429
X016083Y-024587
X016103Y-02124
X016181Y-020994
X01626Y-024783
X016299Y-026329
X016319Y-024508
X016594Y-020334
X016594Y-022895
X016594Y-024232
X016732Y-02378
X016732Y-025177
X016732Y-025413
X017028Y-021614
X017047Y-02187
X017087Y-023051
X017343Y-023406
X017362Y-024252
X017402Y-021339
X017559Y-024094
X017579Y-021122
X017579Y-023445
X017618Y-022441
X017736Y-023622
X017815Y-020984
X01815Y-02128
X01815Y-021772
X018583Y-022579
X018602Y-021909
X018701Y-021516
X01874Y-024055
X018858Y-021929
X018937Y-022874
X018986Y-024419
X018996Y-022362
X019252Y-024459
X019469Y-024537
X019469Y-024774
X019488Y-023524
X01998Y-022362
X020039Y-022835
X020197Y-02248
X020256Y-024075
X020295Y-021939
X020512Y-022854
X020778Y-021811
X020876Y-02122
X020945Y-022854
X021024Y-021703
X021083Y-0231
X021132Y-021171
X021614Y-022323
X021788Y-024643
X021821Y-023927
X0219Y-02438
X021949Y-025285
X021949Y-025551
X022146Y-023081
X022215Y-022854
X022254Y-025177
X022441Y-025384
X022598Y-02247
X022943Y-021388
X022953Y-020591
X02312Y-021585
X02312Y-024016
X023248Y-020787
X023297Y-021791
X023612Y-020827
X023612Y-022707
X023642Y-024537
X023652Y-023494
X02373Y-021083
X023809Y-024705
X023819Y-022835
X023868Y-023268
X023967Y-023051
X024035Y-019291
X024094Y-024114
X024114Y-023248
X024262Y-021614
X024272Y-026801
X0244Y-022717
X024405Y-019307
X024409Y-022992
X025197Y-023543
X025226Y-021762
X025354Y-024154
X025384Y-01936
X025394Y-02439
X025443Y-022677
X025669Y-024518
X025827Y-02248
X026083Y-02248
X026093Y-024675
X026152Y-023445
X026319Y-022451
X027106Y-023543
T2
X013022Y-021073
X013031Y-021535
X013632Y-020866
T0
M30
