G04 (created by PCBNEW-RS274X (2012-apr-16-27)-stable) date Tue 01 Apr 2014 03:56:19 PM EDT*
G01*
G70*
G90*
%MOIN*%
G04 Gerber Fmt 3.4, Leading zero omitted, Abs format*
%FSLAX34Y34*%
G04 APERTURE LIST*
%ADD10C,0.006000*%
%ADD11C,0.007400*%
%ADD12C,0.015000*%
%ADD13C,0.000400*%
%ADD14C,0.005000*%
%ADD15C,0.007900*%
%ADD16C,0.004500*%
%ADD17C,0.012000*%
%ADD18C,0.009900*%
G04 APERTURE END LIST*
G54D10*
G54D11*
X33871Y-41276D02*
X33889Y-41248D01*
X33889Y-41192D01*
X33871Y-41163D01*
X33833Y-41149D01*
X33814Y-41149D01*
X33777Y-41163D01*
X33758Y-41192D01*
X33758Y-41234D01*
X33739Y-41262D01*
X33702Y-41276D01*
X33683Y-41276D01*
X33646Y-41262D01*
X33627Y-41234D01*
X33627Y-41192D01*
X33646Y-41163D01*
X33871Y-40896D02*
X33889Y-40924D01*
X33889Y-40981D01*
X33871Y-41009D01*
X33852Y-41023D01*
X33814Y-41037D01*
X33702Y-41037D01*
X33664Y-41023D01*
X33646Y-41009D01*
X33627Y-40981D01*
X33627Y-40924D01*
X33646Y-40896D01*
X33889Y-40770D02*
X33627Y-40770D01*
X33495Y-40770D02*
X33514Y-40784D01*
X33533Y-40770D01*
X33514Y-40756D01*
X33495Y-40770D01*
X33533Y-40770D01*
X33871Y-40517D02*
X33889Y-40545D01*
X33889Y-40602D01*
X33871Y-40630D01*
X33833Y-40644D01*
X33683Y-40644D01*
X33646Y-40630D01*
X33627Y-40602D01*
X33627Y-40545D01*
X33646Y-40517D01*
X33683Y-40503D01*
X33721Y-40503D01*
X33758Y-40644D01*
X33627Y-40377D02*
X33889Y-40377D01*
X33664Y-40377D02*
X33646Y-40363D01*
X33627Y-40335D01*
X33627Y-40292D01*
X33646Y-40264D01*
X33683Y-40250D01*
X33889Y-40250D01*
X33871Y-39983D02*
X33889Y-40011D01*
X33889Y-40068D01*
X33871Y-40096D01*
X33852Y-40110D01*
X33814Y-40124D01*
X33702Y-40124D01*
X33664Y-40110D01*
X33646Y-40096D01*
X33627Y-40068D01*
X33627Y-40011D01*
X33646Y-39983D01*
X33871Y-39744D02*
X33889Y-39772D01*
X33889Y-39829D01*
X33871Y-39857D01*
X33833Y-39871D01*
X33683Y-39871D01*
X33646Y-39857D01*
X33627Y-39829D01*
X33627Y-39772D01*
X33646Y-39744D01*
X33683Y-39730D01*
X33721Y-39730D01*
X33758Y-39871D01*
X33627Y-39646D02*
X33627Y-39534D01*
X33495Y-39604D02*
X33833Y-39604D01*
X33871Y-39590D01*
X33889Y-39562D01*
X33889Y-39534D01*
X33627Y-39463D02*
X33889Y-39393D01*
X33627Y-39322D02*
X33889Y-39393D01*
X33983Y-39421D01*
X34002Y-39435D01*
X34021Y-39463D01*
X33627Y-39210D02*
X34021Y-39210D01*
X33646Y-39210D02*
X33627Y-39182D01*
X33627Y-39125D01*
X33646Y-39097D01*
X33664Y-39083D01*
X33702Y-39069D01*
X33814Y-39069D01*
X33852Y-39083D01*
X33871Y-39097D01*
X33889Y-39125D01*
X33889Y-39182D01*
X33871Y-39210D01*
X33871Y-38830D02*
X33889Y-38858D01*
X33889Y-38915D01*
X33871Y-38943D01*
X33833Y-38957D01*
X33683Y-38957D01*
X33646Y-38943D01*
X33627Y-38915D01*
X33627Y-38858D01*
X33646Y-38830D01*
X33683Y-38816D01*
X33721Y-38816D01*
X33758Y-38957D01*
X33871Y-38704D02*
X33889Y-38676D01*
X33889Y-38620D01*
X33871Y-38591D01*
X33833Y-38577D01*
X33814Y-38577D01*
X33777Y-38591D01*
X33758Y-38620D01*
X33758Y-38662D01*
X33739Y-38690D01*
X33702Y-38704D01*
X33683Y-38704D01*
X33646Y-38690D01*
X33627Y-38662D01*
X33627Y-38620D01*
X33646Y-38591D01*
X33852Y-38451D02*
X33871Y-38437D01*
X33889Y-38451D01*
X33871Y-38465D01*
X33852Y-38451D01*
X33889Y-38451D01*
X33871Y-38184D02*
X33889Y-38212D01*
X33889Y-38269D01*
X33871Y-38297D01*
X33852Y-38311D01*
X33814Y-38325D01*
X33702Y-38325D01*
X33664Y-38311D01*
X33646Y-38297D01*
X33627Y-38269D01*
X33627Y-38212D01*
X33646Y-38184D01*
X33889Y-38016D02*
X33871Y-38044D01*
X33852Y-38058D01*
X33814Y-38072D01*
X33702Y-38072D01*
X33664Y-38058D01*
X33646Y-38044D01*
X33627Y-38016D01*
X33627Y-37973D01*
X33646Y-37945D01*
X33664Y-37931D01*
X33702Y-37917D01*
X33814Y-37917D01*
X33852Y-37931D01*
X33871Y-37945D01*
X33889Y-37973D01*
X33889Y-38016D01*
X33889Y-37791D02*
X33627Y-37791D01*
X33664Y-37791D02*
X33646Y-37777D01*
X33627Y-37749D01*
X33627Y-37706D01*
X33646Y-37678D01*
X33683Y-37664D01*
X33889Y-37664D01*
X33683Y-37664D02*
X33646Y-37650D01*
X33627Y-37622D01*
X33627Y-37580D01*
X33646Y-37552D01*
X33683Y-37538D01*
X33889Y-37538D01*
X38543Y-39461D02*
X38642Y-39461D01*
X38684Y-39667D02*
X38543Y-39667D01*
X38543Y-39273D01*
X38684Y-39273D01*
X38810Y-39667D02*
X38810Y-39273D01*
X39049Y-39461D02*
X39091Y-39480D01*
X39105Y-39499D01*
X39119Y-39536D01*
X39119Y-39592D01*
X39105Y-39630D01*
X39091Y-39649D01*
X39063Y-39667D01*
X38950Y-39667D01*
X38950Y-39273D01*
X39049Y-39273D01*
X39077Y-39292D01*
X39091Y-39311D01*
X39105Y-39349D01*
X39105Y-39386D01*
X39091Y-39424D01*
X39077Y-39442D01*
X39049Y-39461D01*
X38950Y-39461D01*
X39428Y-39273D02*
X39526Y-39667D01*
X39625Y-39273D01*
X39850Y-39405D02*
X39850Y-39667D01*
X39779Y-39255D02*
X39709Y-39536D01*
X39892Y-39536D01*
G54D12*
X41102Y-31339D02*
X41201Y-31004D01*
X42520Y-31831D02*
X42677Y-31516D01*
X43898Y-32520D02*
X44114Y-32283D01*
X45217Y-33209D02*
X45276Y-33150D01*
X45453Y-33878D02*
X45669Y-33701D01*
X46299Y-35079D02*
X46594Y-34902D01*
X46969Y-36496D02*
X47343Y-36378D01*
X47421Y-38091D02*
X47756Y-38051D01*
X47500Y-39705D02*
X47874Y-39705D01*
X47303Y-41220D02*
X47677Y-41319D01*
X46890Y-42657D02*
X47146Y-42815D01*
X46083Y-43976D02*
X46378Y-44154D01*
X45177Y-45177D02*
X45413Y-45374D01*
X44055Y-46142D02*
X44193Y-46378D01*
X42736Y-46870D02*
X42835Y-47126D01*
X41319Y-47382D02*
X41378Y-47657D01*
X39823Y-47638D02*
X39843Y-47874D01*
X38957Y-47894D02*
X38957Y-47874D01*
X38957Y-47638D02*
X38957Y-47894D01*
X37461Y-47402D02*
X37402Y-47657D01*
X36063Y-46890D02*
X35925Y-47146D01*
X34744Y-46142D02*
X34567Y-46358D01*
X33504Y-45413D02*
X33406Y-45512D01*
X33130Y-44823D02*
X32972Y-44961D01*
X32421Y-43622D02*
X32087Y-43760D01*
X31732Y-42283D02*
X31437Y-42382D01*
X31339Y-40827D02*
X31004Y-40846D01*
X31909Y-39173D02*
X30925Y-39075D01*
X31555Y-37244D02*
X31220Y-37106D01*
X32047Y-35827D02*
X31772Y-35689D01*
X32756Y-34567D02*
X32539Y-34331D01*
X33701Y-33406D02*
X33543Y-33189D01*
X34882Y-32441D02*
X34744Y-32205D01*
X36220Y-31732D02*
X36102Y-31457D01*
X37638Y-31201D02*
X37618Y-31004D01*
X39055Y-30906D02*
X39055Y-30827D01*
X39724Y-30945D02*
X39744Y-30846D01*
G54D13*
X38976Y-39370D02*
X39764Y-39370D01*
X39370Y-38976D02*
X39370Y-39764D01*
X48032Y-39370D02*
X47867Y-41052D01*
X47378Y-42670D01*
X46584Y-44163D01*
X45516Y-45473D01*
X44213Y-46551D01*
X42726Y-47355D01*
X41111Y-47855D01*
X39430Y-48031D01*
X37747Y-47878D01*
X36126Y-47401D01*
X34628Y-46618D01*
X33310Y-45558D01*
X32223Y-44263D01*
X31409Y-42782D01*
X30898Y-41170D01*
X30709Y-39490D01*
X30851Y-37807D01*
X31317Y-36182D01*
X32090Y-34678D01*
X33140Y-33353D01*
X34427Y-32258D01*
X35903Y-31433D01*
X37510Y-30911D01*
X39189Y-30710D01*
X40874Y-30840D01*
X42502Y-31295D01*
X44011Y-32057D01*
X45343Y-33098D01*
X46448Y-34377D01*
X47283Y-35847D01*
X47816Y-37451D01*
X48028Y-39129D01*
X48032Y-39370D01*
G54D14*
X38910Y-33234D02*
X39810Y-33234D01*
X39810Y-33234D02*
X39810Y-33734D01*
X39810Y-33734D02*
X38910Y-33734D01*
X38910Y-33734D02*
X38910Y-33234D01*
X38910Y-32575D02*
X39810Y-32575D01*
X39810Y-32575D02*
X39810Y-33075D01*
X39810Y-33075D02*
X38910Y-33075D01*
X38910Y-33075D02*
X38910Y-32575D01*
X44092Y-34778D02*
X43192Y-34778D01*
X43192Y-34778D02*
X43192Y-34278D01*
X43192Y-34278D02*
X44092Y-34278D01*
X44092Y-34278D02*
X44092Y-34778D01*
X37793Y-35368D02*
X36893Y-35368D01*
X36893Y-35368D02*
X36893Y-34868D01*
X36893Y-34868D02*
X37793Y-34868D01*
X37793Y-34868D02*
X37793Y-35368D01*
X35667Y-44384D02*
X34767Y-44384D01*
X34767Y-44384D02*
X34767Y-43884D01*
X34767Y-43884D02*
X35667Y-43884D01*
X35667Y-43884D02*
X35667Y-44384D01*
X39258Y-46513D02*
X39258Y-45613D01*
X39258Y-45613D02*
X39758Y-45613D01*
X39758Y-45613D02*
X39758Y-46513D01*
X39758Y-46513D02*
X39258Y-46513D01*
G54D15*
X36615Y-43307D02*
X35571Y-43307D01*
X36595Y-35433D02*
X35591Y-35433D01*
X35512Y-36122D02*
X35532Y-36122D01*
X35394Y-36122D02*
X35512Y-36122D01*
X35473Y-35826D02*
X35414Y-35886D01*
X35473Y-35846D02*
X35473Y-36102D01*
X36772Y-43306D02*
X36772Y-42932D01*
X36615Y-43306D02*
X36772Y-43306D01*
X36615Y-35433D02*
X36772Y-35433D01*
X36772Y-35433D02*
X36772Y-35807D01*
X43308Y-43110D02*
X42264Y-43110D01*
X43288Y-35236D02*
X42284Y-35236D01*
X42205Y-35925D02*
X42225Y-35925D01*
X42087Y-35925D02*
X42205Y-35925D01*
X42166Y-35629D02*
X42107Y-35689D01*
X42166Y-35649D02*
X42166Y-35905D01*
X43465Y-43109D02*
X43465Y-42735D01*
X43308Y-43109D02*
X43465Y-43109D01*
X43308Y-35236D02*
X43465Y-35236D01*
X43465Y-35236D02*
X43465Y-35610D01*
G54D16*
X40145Y-33643D02*
X40046Y-33502D01*
X39976Y-33643D02*
X39976Y-33348D01*
X40089Y-33348D01*
X40117Y-33362D01*
X40131Y-33376D01*
X40145Y-33404D01*
X40145Y-33446D01*
X40131Y-33474D01*
X40117Y-33488D01*
X40089Y-33502D01*
X39976Y-33502D01*
X40384Y-33629D02*
X40356Y-33643D01*
X40299Y-33643D01*
X40271Y-33629D01*
X40257Y-33601D01*
X40257Y-33488D01*
X40271Y-33460D01*
X40299Y-33446D01*
X40356Y-33446D01*
X40384Y-33460D01*
X40398Y-33488D01*
X40398Y-33516D01*
X40257Y-33545D01*
X40510Y-33629D02*
X40538Y-33643D01*
X40594Y-33643D01*
X40623Y-33629D01*
X40637Y-33601D01*
X40637Y-33587D01*
X40623Y-33559D01*
X40594Y-33545D01*
X40552Y-33545D01*
X40524Y-33531D01*
X40510Y-33502D01*
X40510Y-33488D01*
X40524Y-33460D01*
X40552Y-33446D01*
X40594Y-33446D01*
X40623Y-33460D01*
X40763Y-33531D02*
X40988Y-33531D01*
X40116Y-33091D02*
X40017Y-32950D01*
X39947Y-33091D02*
X39947Y-32796D01*
X40060Y-32796D01*
X40088Y-32810D01*
X40102Y-32824D01*
X40116Y-32852D01*
X40116Y-32894D01*
X40102Y-32922D01*
X40088Y-32936D01*
X40060Y-32950D01*
X39947Y-32950D01*
X40355Y-33077D02*
X40327Y-33091D01*
X40270Y-33091D01*
X40242Y-33077D01*
X40228Y-33049D01*
X40228Y-32936D01*
X40242Y-32908D01*
X40270Y-32894D01*
X40327Y-32894D01*
X40355Y-32908D01*
X40369Y-32936D01*
X40369Y-32964D01*
X40228Y-32993D01*
X40481Y-33077D02*
X40509Y-33091D01*
X40565Y-33091D01*
X40594Y-33077D01*
X40608Y-33049D01*
X40608Y-33035D01*
X40594Y-33007D01*
X40565Y-32993D01*
X40523Y-32993D01*
X40495Y-32979D01*
X40481Y-32950D01*
X40481Y-32936D01*
X40495Y-32908D01*
X40523Y-32894D01*
X40565Y-32894D01*
X40594Y-32908D01*
X40734Y-32979D02*
X40959Y-32979D01*
X40847Y-33091D02*
X40847Y-32866D01*
G54D17*
X36117Y-43293D02*
X36060Y-43265D01*
X35974Y-43265D01*
X35889Y-43293D01*
X35831Y-43351D01*
X35803Y-43408D01*
X35774Y-43522D01*
X35774Y-43608D01*
X35803Y-43722D01*
X35831Y-43779D01*
X35889Y-43836D01*
X35974Y-43865D01*
X36031Y-43865D01*
X36117Y-43836D01*
X36146Y-43808D01*
X36146Y-43608D01*
X36031Y-43608D01*
X36603Y-43551D02*
X36689Y-43579D01*
X36717Y-43608D01*
X36746Y-43665D01*
X36746Y-43751D01*
X36717Y-43808D01*
X36689Y-43836D01*
X36631Y-43865D01*
X36403Y-43865D01*
X36403Y-43265D01*
X36603Y-43265D01*
X36660Y-43293D01*
X36689Y-43322D01*
X36717Y-43379D01*
X36717Y-43436D01*
X36689Y-43493D01*
X36660Y-43522D01*
X36603Y-43551D01*
X36403Y-43551D01*
G54D18*
X39552Y-46310D02*
X39515Y-46291D01*
X39458Y-46291D01*
X39402Y-46310D01*
X39365Y-46348D01*
X39346Y-46385D01*
X39327Y-46460D01*
X39327Y-46517D01*
X39346Y-46592D01*
X39365Y-46629D01*
X39402Y-46667D01*
X39458Y-46685D01*
X39496Y-46685D01*
X39552Y-46667D01*
X39571Y-46648D01*
X39571Y-46517D01*
X39496Y-46517D01*
X39965Y-46685D02*
X39834Y-46498D01*
X39740Y-46685D02*
X39740Y-46291D01*
X39890Y-46291D01*
X39927Y-46310D01*
X39946Y-46329D01*
X39965Y-46367D01*
X39965Y-46423D01*
X39946Y-46460D01*
X39927Y-46479D01*
X39890Y-46498D01*
X39740Y-46498D01*
G54D16*
X43599Y-34930D02*
X43582Y-34921D01*
X43556Y-34921D01*
X43531Y-34930D01*
X43513Y-34950D01*
X43505Y-34969D01*
X43496Y-35007D01*
X43496Y-35035D01*
X43505Y-35073D01*
X43513Y-35092D01*
X43531Y-35111D01*
X43556Y-35121D01*
X43573Y-35121D01*
X43599Y-35111D01*
X43608Y-35102D01*
X43608Y-35035D01*
X43573Y-35035D01*
X43788Y-35121D02*
X43728Y-35026D01*
X43685Y-35121D02*
X43685Y-34921D01*
X43753Y-34921D01*
X43771Y-34930D01*
X43779Y-34940D01*
X43788Y-34959D01*
X43788Y-34988D01*
X43779Y-35007D01*
X43771Y-35016D01*
X43753Y-35026D01*
X43685Y-35026D01*
X38046Y-35008D02*
X38029Y-34999D01*
X38003Y-34999D01*
X37978Y-35008D01*
X37960Y-35028D01*
X37952Y-35047D01*
X37943Y-35085D01*
X37943Y-35113D01*
X37952Y-35151D01*
X37960Y-35170D01*
X37978Y-35189D01*
X38003Y-35199D01*
X38020Y-35199D01*
X38046Y-35189D01*
X38055Y-35180D01*
X38055Y-35113D01*
X38020Y-35113D01*
X38218Y-35199D02*
X38132Y-35199D01*
X38132Y-34999D01*
X35191Y-44024D02*
X35174Y-44015D01*
X35148Y-44015D01*
X35123Y-44024D01*
X35105Y-44044D01*
X35097Y-44063D01*
X35088Y-44101D01*
X35088Y-44129D01*
X35097Y-44167D01*
X35105Y-44186D01*
X35123Y-44205D01*
X35148Y-44215D01*
X35165Y-44215D01*
X35191Y-44205D01*
X35200Y-44196D01*
X35200Y-44129D01*
X35165Y-44129D01*
X35363Y-44215D02*
X35277Y-44215D01*
X35277Y-44015D01*
G54D18*
X33776Y-34604D02*
X33993Y-34749D01*
X33599Y-34598D02*
X33780Y-34833D01*
X33916Y-34630D01*
X38508Y-46576D02*
X38283Y-46576D01*
X38396Y-46576D02*
X38396Y-46182D01*
X38358Y-46239D01*
X38321Y-46276D01*
X38283Y-46295D01*
X38864Y-46182D02*
X38677Y-46182D01*
X38658Y-46370D01*
X38677Y-46351D01*
X38714Y-46333D01*
X38808Y-46333D01*
X38846Y-46351D01*
X38864Y-46370D01*
X38883Y-46408D01*
X38883Y-46501D01*
X38864Y-46539D01*
X38846Y-46558D01*
X38808Y-46576D01*
X38714Y-46576D01*
X38677Y-46558D01*
X38658Y-46539D01*
X37277Y-46263D02*
X37057Y-46219D01*
X37167Y-46241D02*
X37245Y-45855D01*
X37196Y-45903D01*
X37153Y-45932D01*
X37112Y-45944D01*
X37660Y-46073D02*
X37609Y-46329D01*
X37597Y-45907D02*
X37450Y-46164D01*
X37689Y-46212D01*
X36071Y-45787D02*
X35863Y-45701D01*
X35967Y-45744D02*
X36118Y-45380D01*
X36061Y-45418D01*
X36013Y-45438D01*
X35971Y-45441D01*
X36343Y-45473D02*
X36568Y-45567D01*
X36389Y-45656D01*
X36441Y-45677D01*
X36469Y-45709D01*
X36479Y-45733D01*
X36482Y-45775D01*
X36446Y-45861D01*
X36414Y-45889D01*
X36390Y-45900D01*
X36348Y-45902D01*
X36245Y-45859D01*
X36216Y-45828D01*
X36206Y-45803D01*
X34987Y-45090D02*
X34800Y-44965D01*
X34894Y-45028D02*
X35113Y-44701D01*
X35050Y-44727D01*
X34999Y-44737D01*
X34957Y-44732D01*
X35310Y-44878D02*
X35336Y-44873D01*
X35378Y-44878D01*
X35456Y-44930D01*
X35477Y-44967D01*
X35481Y-44993D01*
X35476Y-45035D01*
X35455Y-45066D01*
X35408Y-45101D01*
X35096Y-45163D01*
X35299Y-45299D01*
X33634Y-43779D02*
X33474Y-43620D01*
X33554Y-43700D02*
X33833Y-43422D01*
X33766Y-43435D01*
X33713Y-43435D01*
X33673Y-43422D01*
X33899Y-44045D02*
X33740Y-43885D01*
X33820Y-43965D02*
X34098Y-43687D01*
X34031Y-43700D01*
X33979Y-43700D01*
X33938Y-43687D01*
X32976Y-42743D02*
X32851Y-42556D01*
X32914Y-42650D02*
X33242Y-42431D01*
X33173Y-42431D01*
X33122Y-42421D01*
X33085Y-42400D01*
X33439Y-42727D02*
X33460Y-42758D01*
X33465Y-42800D01*
X33460Y-42826D01*
X33438Y-42863D01*
X33386Y-42920D01*
X33309Y-42972D01*
X33236Y-42997D01*
X33194Y-43003D01*
X33168Y-42998D01*
X33132Y-42977D01*
X33111Y-42946D01*
X33105Y-42904D01*
X33111Y-42879D01*
X33132Y-42842D01*
X33184Y-42784D01*
X33261Y-42733D01*
X33334Y-42707D01*
X33377Y-42702D01*
X33402Y-42706D01*
X33439Y-42727D01*
X32266Y-41508D02*
X32294Y-41578D01*
X32325Y-41605D01*
X32350Y-41615D01*
X32416Y-41628D01*
X32493Y-41617D01*
X32631Y-41560D01*
X32659Y-41527D01*
X32670Y-41504D01*
X32673Y-41461D01*
X32644Y-41392D01*
X32612Y-41365D01*
X32587Y-41355D01*
X32545Y-41352D01*
X32459Y-41387D01*
X32431Y-41419D01*
X32421Y-41444D01*
X32419Y-41485D01*
X32447Y-41555D01*
X32478Y-41583D01*
X32503Y-41592D01*
X32545Y-41595D01*
X32243Y-40187D02*
X32253Y-40147D01*
X32268Y-40125D01*
X32302Y-40099D01*
X32319Y-40095D01*
X32360Y-40107D01*
X32383Y-40121D01*
X32408Y-40154D01*
X32423Y-40228D01*
X32412Y-40269D01*
X32397Y-40290D01*
X32363Y-40316D01*
X32345Y-40319D01*
X32304Y-40308D01*
X32282Y-40294D01*
X32257Y-40260D01*
X32243Y-40187D01*
X32217Y-40154D01*
X32194Y-40139D01*
X32154Y-40128D01*
X32081Y-40142D01*
X32047Y-40168D01*
X32032Y-40191D01*
X32022Y-40231D01*
X32036Y-40304D01*
X32061Y-40338D01*
X32084Y-40352D01*
X32125Y-40363D01*
X32198Y-40349D01*
X32231Y-40323D01*
X32246Y-40301D01*
X32257Y-40260D01*
X32226Y-38340D02*
X32226Y-38077D01*
X32620Y-38246D01*
X32481Y-36926D02*
X32467Y-37000D01*
X32478Y-37041D01*
X32493Y-37063D01*
X32541Y-37111D01*
X32610Y-37144D01*
X32757Y-37173D01*
X32798Y-37162D01*
X32821Y-37147D01*
X32846Y-37114D01*
X32860Y-37041D01*
X32850Y-37000D01*
X32835Y-36979D01*
X32802Y-36953D01*
X32710Y-36934D01*
X32669Y-36946D01*
X32647Y-36960D01*
X32622Y-36993D01*
X32607Y-37067D01*
X32618Y-37107D01*
X32633Y-37129D01*
X32666Y-37155D01*
X33047Y-35669D02*
X32975Y-35842D01*
X33142Y-35931D01*
X33131Y-35907D01*
X33129Y-35866D01*
X33165Y-35779D01*
X33196Y-35751D01*
X33221Y-35741D01*
X33263Y-35738D01*
X33349Y-35774D01*
X33377Y-35806D01*
X33387Y-35830D01*
X33389Y-35872D01*
X33353Y-35959D01*
X33323Y-35986D01*
X33298Y-35996D01*
X34564Y-33843D02*
X34737Y-33671D01*
X34751Y-33870D01*
X34790Y-33831D01*
X34830Y-33817D01*
X34856Y-33817D01*
X34897Y-33831D01*
X34962Y-33896D01*
X34976Y-33937D01*
X34976Y-33963D01*
X34962Y-34003D01*
X34883Y-34082D01*
X34844Y-34096D01*
X34817Y-34096D01*
X35625Y-33008D02*
X35630Y-32982D01*
X35650Y-32946D01*
X35728Y-32893D01*
X35770Y-32888D01*
X35796Y-32894D01*
X35833Y-32915D01*
X35853Y-32946D01*
X35869Y-33003D01*
X35806Y-33315D01*
X36009Y-33180D01*
X37114Y-32565D02*
X36906Y-32651D01*
X37011Y-32608D02*
X36860Y-32244D01*
X36847Y-32311D01*
X36827Y-32359D01*
X36799Y-32391D01*
X38185Y-31997D02*
X38221Y-31990D01*
X38262Y-32001D01*
X38284Y-32016D01*
X38309Y-32050D01*
X38343Y-32120D01*
X38361Y-32211D01*
X38357Y-32288D01*
X38346Y-32329D01*
X38331Y-32351D01*
X38298Y-32376D01*
X38261Y-32383D01*
X38220Y-32373D01*
X38199Y-32358D01*
X38173Y-32324D01*
X38140Y-32255D01*
X38122Y-32163D01*
X38126Y-32086D01*
X38137Y-32045D01*
X38151Y-32023D01*
X38185Y-31997D01*
X40973Y-32364D02*
X41213Y-32412D01*
X41054Y-32534D01*
X41109Y-32545D01*
X41143Y-32570D01*
X41157Y-32592D01*
X41168Y-32633D01*
X41150Y-32725D01*
X41124Y-32758D01*
X41103Y-32773D01*
X41062Y-32784D01*
X40952Y-32762D01*
X40918Y-32736D01*
X40903Y-32714D01*
X41452Y-32460D02*
X41488Y-32467D01*
X41522Y-32493D01*
X41537Y-32515D01*
X41547Y-32556D01*
X41551Y-32633D01*
X41532Y-32725D01*
X41499Y-32794D01*
X41474Y-32828D01*
X41452Y-32843D01*
X41411Y-32853D01*
X41375Y-32846D01*
X41341Y-32821D01*
X41327Y-32799D01*
X41316Y-32758D01*
X41312Y-32681D01*
X41330Y-32589D01*
X41363Y-32520D01*
X41389Y-32486D01*
X41411Y-32471D01*
X41452Y-32460D01*
X40684Y-46549D02*
X40464Y-46592D01*
X40574Y-46570D02*
X40498Y-46184D01*
X40472Y-46247D01*
X40443Y-46291D01*
X40409Y-46317D01*
X40939Y-46096D02*
X40866Y-46111D01*
X40832Y-46137D01*
X40817Y-46159D01*
X40792Y-46221D01*
X40788Y-46299D01*
X40817Y-46446D01*
X40843Y-46479D01*
X40865Y-46494D01*
X40905Y-46505D01*
X40979Y-46490D01*
X41012Y-46465D01*
X41026Y-46443D01*
X41038Y-46402D01*
X41020Y-46311D01*
X40994Y-46277D01*
X40972Y-46262D01*
X40931Y-46252D01*
X40858Y-46266D01*
X40825Y-46291D01*
X40810Y-46314D01*
X40799Y-46355D01*
X42059Y-46141D02*
X41851Y-46227D01*
X41955Y-46183D02*
X41804Y-45819D01*
X41791Y-45887D01*
X41771Y-45935D01*
X41743Y-45967D01*
X42029Y-45726D02*
X42272Y-45626D01*
X42266Y-46054D01*
X43156Y-45666D02*
X42969Y-45791D01*
X43063Y-45728D02*
X42844Y-45400D01*
X42844Y-45469D01*
X42834Y-45520D01*
X42813Y-45557D01*
X43218Y-45354D02*
X43177Y-45359D01*
X43151Y-45354D01*
X43114Y-45333D01*
X43104Y-45318D01*
X43099Y-45276D01*
X43104Y-45250D01*
X43124Y-45213D01*
X43187Y-45172D01*
X43229Y-45166D01*
X43254Y-45172D01*
X43291Y-45193D01*
X43301Y-45208D01*
X43307Y-45250D01*
X43302Y-45276D01*
X43281Y-45312D01*
X43218Y-45354D01*
X43198Y-45390D01*
X43193Y-45417D01*
X43197Y-45458D01*
X43239Y-45520D01*
X43276Y-45541D01*
X43302Y-45547D01*
X43343Y-45541D01*
X43405Y-45499D01*
X43427Y-45463D01*
X43431Y-45438D01*
X43426Y-45395D01*
X43385Y-45333D01*
X43348Y-45313D01*
X43323Y-45307D01*
X43281Y-45312D01*
X44213Y-44830D02*
X44054Y-44990D01*
X44134Y-44910D02*
X43856Y-44631D01*
X43869Y-44698D01*
X43869Y-44751D01*
X43856Y-44791D01*
X44346Y-44698D02*
X44399Y-44644D01*
X44413Y-44606D01*
X44413Y-44579D01*
X44399Y-44513D01*
X44360Y-44447D01*
X44254Y-44340D01*
X44213Y-44327D01*
X44187Y-44326D01*
X44147Y-44340D01*
X44094Y-44393D01*
X44081Y-44432D01*
X44081Y-44459D01*
X44095Y-44500D01*
X44160Y-44565D01*
X44201Y-44579D01*
X44228Y-44579D01*
X44266Y-44565D01*
X44319Y-44512D01*
X44334Y-44473D01*
X44333Y-44447D01*
X44319Y-44406D01*
X44707Y-43821D02*
X44702Y-43794D01*
X44707Y-43753D01*
X44759Y-43675D01*
X44796Y-43654D01*
X44822Y-43650D01*
X44864Y-43655D01*
X44895Y-43675D01*
X44931Y-43722D01*
X44993Y-44035D01*
X45128Y-43832D01*
X44937Y-43410D02*
X44957Y-43379D01*
X44994Y-43358D01*
X45021Y-43353D01*
X45062Y-43359D01*
X45135Y-43385D01*
X45212Y-43437D01*
X45264Y-43494D01*
X45286Y-43530D01*
X45291Y-43557D01*
X45285Y-43598D01*
X45264Y-43629D01*
X45228Y-43651D01*
X45202Y-43655D01*
X45160Y-43650D01*
X45087Y-43624D01*
X45010Y-43572D01*
X44958Y-43514D01*
X44937Y-43478D01*
X44931Y-43452D01*
X44937Y-43410D01*
X45392Y-42723D02*
X45382Y-42698D01*
X45379Y-42656D01*
X45414Y-42570D01*
X45447Y-42542D01*
X45471Y-42532D01*
X45513Y-42529D01*
X45548Y-42544D01*
X45592Y-42583D01*
X45714Y-42877D01*
X45807Y-42651D01*
X45951Y-42305D02*
X45865Y-42513D01*
X45908Y-42408D02*
X45544Y-42257D01*
X45582Y-42314D01*
X45602Y-42363D01*
X45605Y-42405D01*
X45929Y-41575D02*
X45914Y-41552D01*
X45903Y-41512D01*
X45921Y-41420D01*
X45947Y-41387D01*
X45969Y-41373D01*
X46010Y-41361D01*
X46047Y-41369D01*
X46098Y-41398D01*
X46274Y-41663D01*
X46322Y-41424D01*
X46003Y-41207D02*
X45988Y-41184D01*
X45976Y-41144D01*
X45995Y-41052D01*
X46021Y-41019D01*
X46043Y-41005D01*
X46084Y-40994D01*
X46120Y-41001D01*
X46171Y-41031D01*
X46348Y-41295D01*
X46396Y-41056D01*
X46240Y-40418D02*
X46221Y-40399D01*
X46202Y-40362D01*
X46202Y-40268D01*
X46221Y-40230D01*
X46240Y-40212D01*
X46278Y-40193D01*
X46315Y-40193D01*
X46371Y-40212D01*
X46596Y-40437D01*
X46596Y-40193D01*
X46202Y-40062D02*
X46202Y-39818D01*
X46353Y-39949D01*
X46353Y-39893D01*
X46371Y-39855D01*
X46390Y-39837D01*
X46428Y-39818D01*
X46521Y-39818D01*
X46559Y-39837D01*
X46578Y-39855D01*
X46596Y-39893D01*
X46596Y-40005D01*
X46578Y-40043D01*
X46559Y-40062D01*
X46493Y-38545D02*
X46515Y-38560D01*
X46541Y-38593D01*
X46559Y-38685D01*
X46548Y-38726D01*
X46533Y-38748D01*
X46499Y-38774D01*
X46463Y-38781D01*
X46404Y-38773D01*
X46140Y-38596D01*
X46187Y-38835D01*
X46510Y-39116D02*
X46253Y-39167D01*
X46639Y-38995D02*
X46345Y-38957D01*
X46392Y-39196D01*
X46091Y-37108D02*
X46116Y-37119D01*
X46148Y-37146D01*
X46184Y-37232D01*
X46181Y-37275D01*
X46170Y-37299D01*
X46142Y-37331D01*
X46108Y-37345D01*
X46049Y-37349D01*
X45755Y-37227D01*
X45848Y-37453D01*
X46349Y-37631D02*
X46277Y-37458D01*
X46096Y-37512D01*
X46121Y-37523D01*
X46152Y-37550D01*
X46188Y-37637D01*
X46186Y-37679D01*
X46175Y-37703D01*
X46147Y-37735D01*
X46061Y-37770D01*
X46019Y-37767D01*
X45994Y-37758D01*
X45963Y-37730D01*
X45927Y-37643D01*
X45930Y-37602D01*
X45940Y-37577D01*
X45548Y-35783D02*
X45575Y-35788D01*
X45611Y-35809D01*
X45663Y-35887D01*
X45669Y-35929D01*
X45663Y-35954D01*
X45642Y-35991D01*
X45611Y-36012D01*
X45554Y-36027D01*
X45242Y-35965D01*
X45377Y-36168D01*
X45892Y-36230D02*
X45851Y-36168D01*
X45814Y-36147D01*
X45788Y-36142D01*
X45720Y-36142D01*
X45648Y-36168D01*
X45523Y-36251D01*
X45502Y-36288D01*
X45496Y-36314D01*
X45502Y-36355D01*
X45544Y-36417D01*
X45580Y-36439D01*
X45605Y-36443D01*
X45648Y-36438D01*
X45725Y-36387D01*
X45746Y-36350D01*
X45752Y-36324D01*
X45746Y-36283D01*
X45704Y-36220D01*
X45669Y-36199D01*
X45642Y-36194D01*
X45600Y-36199D01*
X44789Y-34728D02*
X44816Y-34728D01*
X44856Y-34740D01*
X44922Y-34807D01*
X44936Y-34847D01*
X44935Y-34873D01*
X44921Y-34914D01*
X44895Y-34940D01*
X44842Y-34966D01*
X44524Y-34966D01*
X44697Y-35138D01*
X45068Y-34952D02*
X45254Y-35138D01*
X44856Y-35297D01*
X43462Y-33369D02*
X43489Y-33364D01*
X43530Y-33369D01*
X43608Y-33421D01*
X43629Y-33458D01*
X43633Y-33484D01*
X43628Y-33526D01*
X43608Y-33557D01*
X43561Y-33593D01*
X43248Y-33655D01*
X43451Y-33790D01*
X43763Y-33729D02*
X43743Y-33693D01*
X43737Y-33667D01*
X43743Y-33625D01*
X43753Y-33610D01*
X43790Y-33589D01*
X43816Y-33583D01*
X43857Y-33588D01*
X43920Y-33630D01*
X43941Y-33667D01*
X43945Y-33693D01*
X43940Y-33735D01*
X43930Y-33750D01*
X43893Y-33771D01*
X43867Y-33777D01*
X43826Y-33770D01*
X43763Y-33729D01*
X43722Y-33724D01*
X43696Y-33729D01*
X43659Y-33749D01*
X43618Y-33812D01*
X43612Y-33854D01*
X43617Y-33880D01*
X43638Y-33916D01*
X43701Y-33957D01*
X43742Y-33963D01*
X43768Y-33958D01*
X43805Y-33937D01*
X43846Y-33874D01*
X43851Y-33833D01*
X43847Y-33807D01*
X43826Y-33770D01*
X39760Y-31970D02*
X40004Y-31970D01*
X39873Y-32121D01*
X39929Y-32121D01*
X39967Y-32139D01*
X39985Y-32158D01*
X40004Y-32196D01*
X40004Y-32289D01*
X39985Y-32327D01*
X39967Y-32346D01*
X39929Y-32364D01*
X39817Y-32364D01*
X39779Y-32346D01*
X39760Y-32327D01*
X40379Y-32364D02*
X40154Y-32364D01*
X40267Y-32364D02*
X40267Y-31970D01*
X40229Y-32027D01*
X40192Y-32064D01*
X40154Y-32083D01*
G54D15*
X39109Y-31992D02*
X39079Y-31977D01*
X39034Y-31977D01*
X38989Y-31992D01*
X38959Y-32022D01*
X38944Y-32052D01*
X38929Y-32112D01*
X38929Y-32157D01*
X38944Y-32217D01*
X38959Y-32247D01*
X38989Y-32277D01*
X39034Y-32292D01*
X39064Y-32292D01*
X39109Y-32277D01*
X39124Y-32262D01*
X39124Y-32157D01*
X39064Y-32157D01*
X39409Y-32292D02*
X39259Y-32292D01*
X39259Y-31977D01*
G54D18*
X42239Y-32734D02*
X42264Y-32724D01*
X42306Y-32721D01*
X42392Y-32756D01*
X42420Y-32789D01*
X42430Y-32813D01*
X42433Y-32855D01*
X42418Y-32890D01*
X42379Y-32934D01*
X42085Y-33056D01*
X42311Y-33149D01*
X42485Y-33221D02*
X42554Y-33250D01*
X42595Y-33247D01*
X42620Y-33237D01*
X42675Y-33200D01*
X42722Y-33137D01*
X42779Y-32999D01*
X42776Y-32957D01*
X42767Y-32932D01*
X42739Y-32900D01*
X42670Y-32871D01*
X42628Y-32875D01*
X42603Y-32885D01*
X42571Y-32913D01*
X42536Y-32999D01*
X42539Y-33041D01*
X42549Y-33066D01*
X42576Y-33097D01*
X42645Y-33125D01*
X42687Y-33123D01*
X42711Y-33113D01*
X42743Y-33085D01*
M02*
