G04 (created by PCBNEW-RS274X (2012-apr-16-27)-stable) date Tue 01 Apr 2014 03:56:19 PM EDT*
G01*
G70*
G90*
%MOIN*%
G04 Gerber Fmt 3.4, Leading zero omitted, Abs format*
%FSLAX34Y34*%
G04 APERTURE LIST*
%ADD10C,0.006000*%
%ADD11C,0.000400*%
%ADD12C,0.037000*%
%ADD13C,0.028000*%
%ADD14C,0.008000*%
%ADD15C,0.011800*%
%ADD16C,0.010000*%
G04 APERTURE END LIST*
G54D10*
G54D11*
X48032Y-39370D02*
X47867Y-41052D01*
X47378Y-42670D01*
X46584Y-44163D01*
X45516Y-45473D01*
X44213Y-46551D01*
X42726Y-47355D01*
X41111Y-47855D01*
X39430Y-48031D01*
X37747Y-47878D01*
X36126Y-47401D01*
X34628Y-46618D01*
X33310Y-45558D01*
X32223Y-44263D01*
X31409Y-42782D01*
X30898Y-41170D01*
X30709Y-39490D01*
X30851Y-37807D01*
X31317Y-36182D01*
X32090Y-34678D01*
X33140Y-33353D01*
X34427Y-32258D01*
X35903Y-31433D01*
X37510Y-30911D01*
X39189Y-30710D01*
X40874Y-30840D01*
X42502Y-31295D01*
X44011Y-32057D01*
X45343Y-33098D01*
X46448Y-34377D01*
X47283Y-35847D01*
X47816Y-37451D01*
X48028Y-39129D01*
X48032Y-39370D01*
G54D12*
X33386Y-45059D03*
X39350Y-47677D03*
X33346Y-33583D03*
X32952Y-34172D03*
X33558Y-34151D03*
X33164Y-34740D03*
X37835Y-47579D03*
X38544Y-47579D03*
X38189Y-47087D03*
X38898Y-47087D03*
X37520Y-46890D03*
X36825Y-46751D03*
X37076Y-47303D03*
X36381Y-47164D03*
X36181Y-46417D03*
X35526Y-46146D03*
X35666Y-46736D03*
X35011Y-46465D03*
X34980Y-45689D03*
X34391Y-45295D03*
X34412Y-45901D03*
X33823Y-45507D03*
X32441Y-44016D03*
X32942Y-44517D03*
X33039Y-43918D03*
X33541Y-44420D03*
X31732Y-42717D03*
X32125Y-43307D03*
X32338Y-42739D03*
X32731Y-43328D03*
X31220Y-41260D03*
X31491Y-41915D03*
X31810Y-41399D03*
X32081Y-42054D03*
X31043Y-39724D03*
X31181Y-40419D03*
X31594Y-39976D03*
X31732Y-40671D03*
X31240Y-37539D03*
X31240Y-38248D03*
X31732Y-37893D03*
X31732Y-38602D03*
X31732Y-36122D03*
X31593Y-36817D03*
X32145Y-36566D03*
X32006Y-37261D03*
X32402Y-34764D03*
X32131Y-35419D03*
X32721Y-35279D03*
X32450Y-35934D03*
X34094Y-33701D03*
X34595Y-33200D03*
X33996Y-33103D03*
X34498Y-32601D03*
X35177Y-32815D03*
X35767Y-32422D03*
X35199Y-32209D03*
X35788Y-31816D03*
X36417Y-32146D03*
X37072Y-31875D03*
X36556Y-31556D03*
X37211Y-31285D03*
X38740Y-31024D03*
X38045Y-31162D03*
X38488Y-31575D03*
X37793Y-31713D03*
X41083Y-31791D03*
X41778Y-31930D03*
X41527Y-31378D03*
X42222Y-31517D03*
X40217Y-47697D03*
X40912Y-47559D03*
X40469Y-47146D03*
X41164Y-47008D03*
X42539Y-46535D03*
X41884Y-46806D03*
X42400Y-47125D03*
X41745Y-47396D03*
X43760Y-45827D03*
X43170Y-46220D03*
X43738Y-46433D03*
X43149Y-46826D03*
X44843Y-44902D03*
X44342Y-45403D03*
X44941Y-45500D03*
X44439Y-46002D03*
X45571Y-44980D03*
X45965Y-44391D03*
X45359Y-44412D03*
X45753Y-43823D03*
X46476Y-43720D03*
X46747Y-43065D03*
X46157Y-43205D03*
X46428Y-42550D03*
X47165Y-42362D03*
X47304Y-41667D03*
X46752Y-41918D03*
X46891Y-41223D03*
X47598Y-40886D03*
X47598Y-40177D03*
X47106Y-40532D03*
X47106Y-39823D03*
X47677Y-39291D03*
X47539Y-38596D03*
X47126Y-39039D03*
X46988Y-38344D03*
X47480Y-37598D03*
X47209Y-36943D03*
X46890Y-37459D03*
X46619Y-36804D03*
X46988Y-36004D03*
X46595Y-35414D03*
X46382Y-35982D03*
X45989Y-35393D03*
X46240Y-34646D03*
X45739Y-34145D03*
X45642Y-34744D03*
X45140Y-34242D03*
X43720Y-32913D03*
X44309Y-33307D03*
X44288Y-32701D03*
X44877Y-33095D03*
X40748Y-31122D03*
X40039Y-31122D03*
X40394Y-31614D03*
X39685Y-31614D03*
X39370Y-31004D03*
X45295Y-33543D03*
X42441Y-32224D03*
X43096Y-32495D03*
X42956Y-31905D03*
X43611Y-32176D03*
G54D13*
X41102Y-37146D03*
X41004Y-37618D03*
X40472Y-37461D03*
X42323Y-37913D03*
X42894Y-37441D03*
X40217Y-38031D03*
X40423Y-38514D03*
X40207Y-38957D03*
X40472Y-39961D03*
X40492Y-40472D03*
X43140Y-40069D03*
X40512Y-40965D03*
X43169Y-40768D03*
X43110Y-41378D03*
X42500Y-40689D03*
X40689Y-41516D03*
X36388Y-33002D03*
X39045Y-32500D03*
X38888Y-33514D03*
X37559Y-33691D03*
X35630Y-37028D03*
X37559Y-37618D03*
X37776Y-37933D03*
X37923Y-38366D03*
X36457Y-38346D03*
X37894Y-38770D03*
X35591Y-38622D03*
X37677Y-39104D03*
X35827Y-39961D03*
X37756Y-40000D03*
X35531Y-40610D03*
X38061Y-40374D03*
X35610Y-41634D03*
X37933Y-40787D03*
X36319Y-40945D03*
X37648Y-41191D03*
X40453Y-36614D03*
X41260Y-35659D03*
X40246Y-33484D03*
X43051Y-35827D03*
X36417Y-44961D03*
X38406Y-43878D03*
X42559Y-34409D03*
X36909Y-34488D03*
X41535Y-43386D03*
X40226Y-45030D03*
X39547Y-32343D03*
X37638Y-34459D03*
G54D14*
X43346Y-36457D02*
X43583Y-36102D01*
X42461Y-36457D02*
X43346Y-36457D01*
X41102Y-37146D02*
X42461Y-36457D01*
X43583Y-36102D02*
X43583Y-35335D01*
X43346Y-36457D02*
X43346Y-36457D01*
X42717Y-33957D02*
X42441Y-32224D01*
X43583Y-35335D02*
X42717Y-33957D01*
X42776Y-32382D02*
X42776Y-32085D01*
X42717Y-32618D02*
X42776Y-32382D01*
X43681Y-36673D02*
X43799Y-36535D01*
X42776Y-32085D02*
X42956Y-31905D01*
X42480Y-36673D02*
X43681Y-36673D01*
X43031Y-33956D02*
X42894Y-33602D01*
X43799Y-36535D02*
X43799Y-35177D01*
X41457Y-37421D02*
X42480Y-36673D01*
X42894Y-33602D02*
X42717Y-32618D01*
X41260Y-37618D02*
X41457Y-37421D01*
X43799Y-35177D02*
X43031Y-33956D01*
X41004Y-37618D02*
X41260Y-37618D01*
X43780Y-34764D02*
X43996Y-35118D01*
X43996Y-36634D02*
X43996Y-35295D01*
X40807Y-37953D02*
X41594Y-37953D01*
X40610Y-37756D02*
X40807Y-37953D01*
X43366Y-34035D02*
X43780Y-34764D01*
X40610Y-37599D02*
X40610Y-37756D01*
X43740Y-36890D02*
X43996Y-36634D01*
X43096Y-32495D02*
X43110Y-33287D01*
X41594Y-37953D02*
X42657Y-36890D01*
X42657Y-36890D02*
X43740Y-36890D01*
X43996Y-35118D02*
X43996Y-35295D01*
X43110Y-33287D02*
X43366Y-34035D01*
X40472Y-37461D02*
X40610Y-37599D01*
X43701Y-34232D02*
X43327Y-33189D01*
X43327Y-33189D02*
X43327Y-32814D01*
X42559Y-37559D02*
X42559Y-37342D01*
X43327Y-32814D02*
X43611Y-32472D01*
X42756Y-37106D02*
X43839Y-37106D01*
X43839Y-37106D02*
X44213Y-36693D01*
X44213Y-35079D02*
X43701Y-34232D01*
X42323Y-37913D02*
X42323Y-37677D01*
X44213Y-36693D02*
X44213Y-35079D01*
X42559Y-37342D02*
X42756Y-37106D01*
X42323Y-37677D02*
X42559Y-37559D01*
X43611Y-32472D02*
X43611Y-32176D01*
X43662Y-33287D02*
X43720Y-32913D01*
X42894Y-37441D02*
X43780Y-37441D01*
X43898Y-33878D02*
X43662Y-33524D01*
X44429Y-35020D02*
X44114Y-34528D01*
X43662Y-33524D02*
X43662Y-33287D01*
X44429Y-36732D02*
X44429Y-35020D01*
X44114Y-34528D02*
X43898Y-33878D01*
X43780Y-37441D02*
X44429Y-36732D01*
X44114Y-33740D02*
X43858Y-33465D01*
X43799Y-37722D02*
X44665Y-36831D01*
X43858Y-33465D02*
X43858Y-33268D01*
X44288Y-32838D02*
X44288Y-32701D01*
X43130Y-37717D02*
X43799Y-37722D01*
X43130Y-37717D02*
X43130Y-37717D01*
X44665Y-36831D02*
X44665Y-34980D01*
X43858Y-33268D02*
X44288Y-32838D01*
X40681Y-38248D02*
X42480Y-38248D01*
X44665Y-34980D02*
X44311Y-34429D01*
X43130Y-37717D02*
X43130Y-37717D01*
X42480Y-38248D02*
X43130Y-37717D01*
X40217Y-38031D02*
X40681Y-38248D01*
X44311Y-34429D02*
X44114Y-33740D01*
X40423Y-38514D02*
X40552Y-38484D01*
X44863Y-36910D02*
X44862Y-35531D01*
X44862Y-35531D02*
X44862Y-34902D01*
X40552Y-38484D02*
X40829Y-38445D01*
X44508Y-34311D02*
X44309Y-33307D01*
X43839Y-37913D02*
X43917Y-37891D01*
X40829Y-38445D02*
X42520Y-38445D01*
X44862Y-34902D02*
X44508Y-34311D01*
X43189Y-37953D02*
X43248Y-37913D01*
X43917Y-37891D02*
X44863Y-36910D01*
X42520Y-38445D02*
X43189Y-37953D01*
X43819Y-37913D02*
X43839Y-37913D01*
X43248Y-37913D02*
X43819Y-37913D01*
X40207Y-38957D02*
X40738Y-38888D01*
X44724Y-34272D02*
X44724Y-33623D01*
X41102Y-38642D02*
X41102Y-38642D01*
X45059Y-36990D02*
X45059Y-34822D01*
X41093Y-38642D02*
X42579Y-38642D01*
X43307Y-38150D02*
X43484Y-38110D01*
X42579Y-38642D02*
X43307Y-38150D01*
X41102Y-38642D02*
X41093Y-38642D01*
X41102Y-38642D02*
X41102Y-38642D01*
X40738Y-38888D02*
X40738Y-38888D01*
X41102Y-38642D02*
X41102Y-38642D01*
X43858Y-38110D02*
X43996Y-38098D01*
X45059Y-34822D02*
X44724Y-34272D01*
X44877Y-33371D02*
X44877Y-33095D01*
X44724Y-33623D02*
X44877Y-33371D01*
X43484Y-38110D02*
X43858Y-38110D01*
X43996Y-38098D02*
X45059Y-36990D01*
X40738Y-38888D02*
X41102Y-38642D01*
X42323Y-39961D02*
X42638Y-39606D01*
X42638Y-39606D02*
X42756Y-39547D01*
X42756Y-39547D02*
X44591Y-39547D01*
X44843Y-39843D02*
X44843Y-44902D01*
X44591Y-39547D02*
X44843Y-39843D01*
X40472Y-39961D02*
X42323Y-39961D01*
X43062Y-39761D02*
X43395Y-39744D01*
X43395Y-39744D02*
X44459Y-39764D01*
X42756Y-39764D02*
X43062Y-39761D01*
X43395Y-39744D02*
X43395Y-39744D01*
X41535Y-40157D02*
X42441Y-40157D01*
X40492Y-40472D02*
X41535Y-40157D01*
X44646Y-39921D02*
X44646Y-44625D01*
X44508Y-45067D02*
X44941Y-45500D01*
X44459Y-39764D02*
X44646Y-39921D01*
X44646Y-44625D02*
X44508Y-44763D01*
X42441Y-40157D02*
X42756Y-39764D01*
X44508Y-44763D02*
X44508Y-45067D01*
X44311Y-40019D02*
X44311Y-45372D01*
X44253Y-39961D02*
X44311Y-40019D01*
X44311Y-45372D02*
X44342Y-45403D01*
X43406Y-39970D02*
X44253Y-39961D01*
X43170Y-39970D02*
X43406Y-39970D01*
X43140Y-40069D02*
X43170Y-39970D01*
X42987Y-40354D02*
X42987Y-40354D01*
X40512Y-40965D02*
X41547Y-40354D01*
X42987Y-40354D02*
X43396Y-40472D01*
X43396Y-40472D02*
X43986Y-40472D01*
X42835Y-40354D02*
X42987Y-40354D01*
X41547Y-40354D02*
X42835Y-40354D01*
X44114Y-40669D02*
X44114Y-45158D01*
X44114Y-45158D02*
X43996Y-45276D01*
X43996Y-45276D02*
X43996Y-45559D01*
X43986Y-40472D02*
X44114Y-40669D01*
X43996Y-45559D02*
X44439Y-46002D01*
X43169Y-40768D02*
X43346Y-41083D01*
X43917Y-45079D02*
X43760Y-45236D01*
X43760Y-45236D02*
X43760Y-45827D01*
X43346Y-41083D02*
X43917Y-41634D01*
X43917Y-41634D02*
X43917Y-45079D01*
X43425Y-45295D02*
X43425Y-45984D01*
X43425Y-45984D02*
X43738Y-46297D01*
X43706Y-41974D02*
X43706Y-45014D01*
X43706Y-45014D02*
X43425Y-45295D01*
X43110Y-41378D02*
X43706Y-41974D01*
X43738Y-46297D02*
X43738Y-46433D01*
X43524Y-42518D02*
X43524Y-44921D01*
X42500Y-40689D02*
X42500Y-40689D01*
X43524Y-44921D02*
X43170Y-45275D01*
X43170Y-45275D02*
X43170Y-46220D01*
X42500Y-41516D02*
X42500Y-41516D01*
X42500Y-40689D02*
X42500Y-41516D01*
X42500Y-41516D02*
X42854Y-41870D01*
X42854Y-41870D02*
X43524Y-42518D01*
X42225Y-41516D02*
X43307Y-42598D01*
X42835Y-46083D02*
X42835Y-46359D01*
X42835Y-46359D02*
X43149Y-46673D01*
X43307Y-44862D02*
X42972Y-45197D01*
X40805Y-41516D02*
X42225Y-41516D01*
X43307Y-42598D02*
X43307Y-44862D01*
X43149Y-46673D02*
X43149Y-46826D01*
X42972Y-45197D02*
X42972Y-45946D01*
X40689Y-41516D02*
X40805Y-41516D01*
X42972Y-45946D02*
X42835Y-46083D01*
G54D15*
X36388Y-33002D02*
X38150Y-32894D01*
X39045Y-32500D02*
X38544Y-32500D01*
X38544Y-32500D02*
X38150Y-32894D01*
X38888Y-33514D02*
X37559Y-33691D01*
G54D14*
X36024Y-36201D02*
X36014Y-33041D01*
X36014Y-33041D02*
X36122Y-32835D01*
X35630Y-37028D02*
X35630Y-37028D01*
X36102Y-32293D02*
X35788Y-31816D01*
X35787Y-36516D02*
X36024Y-36201D01*
X35630Y-37028D02*
X35787Y-36516D01*
X36122Y-32835D02*
X36102Y-32293D01*
X35630Y-37028D02*
X35630Y-37028D01*
X37156Y-37500D02*
X35630Y-37500D01*
X35295Y-37165D02*
X35295Y-36694D01*
X35295Y-36694D02*
X35650Y-36339D01*
X35630Y-37500D02*
X35295Y-37165D01*
X35767Y-36222D02*
X35650Y-36339D01*
X35767Y-32422D02*
X35767Y-36222D01*
X37559Y-37618D02*
X37156Y-37500D01*
X35199Y-32344D02*
X35199Y-32209D01*
X35079Y-37225D02*
X35079Y-35729D01*
X35512Y-34902D02*
X35512Y-32657D01*
X37087Y-37697D02*
X35551Y-37697D01*
X37776Y-37933D02*
X37353Y-38019D01*
X35512Y-32657D02*
X35199Y-32344D01*
X35079Y-35729D02*
X35000Y-35650D01*
X35551Y-37697D02*
X35079Y-37225D01*
X35000Y-35650D02*
X35000Y-35414D01*
X37353Y-38019D02*
X37087Y-37697D01*
X37776Y-37933D02*
X37776Y-37933D01*
X35000Y-35414D02*
X35512Y-34902D01*
X37480Y-38429D02*
X36972Y-37894D01*
X37923Y-38366D02*
X37480Y-38429D01*
X35761Y-37894D02*
X35492Y-37894D01*
X35217Y-33189D02*
X35177Y-32815D01*
X34811Y-35390D02*
X34942Y-34859D01*
X37923Y-38366D02*
X37923Y-38366D01*
X34942Y-34859D02*
X35217Y-33189D01*
X36972Y-37894D02*
X35761Y-37894D01*
X34823Y-37303D02*
X34823Y-36870D01*
X34823Y-36870D02*
X34811Y-35390D01*
X35098Y-37579D02*
X34823Y-37303D01*
X35492Y-37894D02*
X35098Y-37579D01*
X36457Y-38346D02*
X36240Y-38091D01*
X34961Y-33071D02*
X34498Y-32601D01*
X36240Y-38091D02*
X35453Y-38091D01*
X34899Y-33960D02*
X34961Y-33071D01*
X34626Y-37362D02*
X34626Y-35000D01*
X34626Y-35000D02*
X34899Y-33960D01*
X35453Y-38091D02*
X34961Y-37756D01*
X34961Y-37756D02*
X34626Y-37362D01*
X34724Y-33682D02*
X34724Y-33329D01*
X34390Y-34449D02*
X34646Y-34193D01*
X37894Y-38770D02*
X37165Y-38720D01*
X36299Y-38720D02*
X36024Y-38287D01*
X37165Y-38720D02*
X36299Y-38720D01*
X36024Y-38287D02*
X35216Y-38287D01*
X34646Y-33760D02*
X34724Y-33682D01*
X34390Y-37461D02*
X34390Y-34449D01*
X34724Y-33329D02*
X34595Y-33200D01*
X34646Y-34193D02*
X34646Y-33760D01*
X35216Y-38287D02*
X34390Y-37461D01*
X34170Y-37918D02*
X34167Y-34419D01*
X35217Y-38583D02*
X34170Y-37918D01*
X34488Y-33602D02*
X33996Y-33103D01*
X35591Y-38622D02*
X35217Y-38583D01*
X34167Y-34419D02*
X34488Y-33602D01*
X35610Y-38957D02*
X35453Y-38937D01*
X37677Y-39104D02*
X37110Y-39067D01*
X33976Y-38247D02*
X33976Y-35157D01*
X35453Y-38937D02*
X33976Y-38247D01*
X37677Y-39104D02*
X37677Y-39104D01*
X33976Y-33819D02*
X34094Y-33701D01*
X33976Y-35157D02*
X33976Y-33819D01*
X37110Y-39067D02*
X36825Y-38919D01*
X37677Y-39104D02*
X37677Y-39104D01*
X36825Y-38919D02*
X35906Y-38917D01*
X35906Y-38917D02*
X35610Y-38957D01*
X34449Y-40216D02*
X34075Y-44705D01*
X34075Y-44705D02*
X33823Y-45507D01*
X35276Y-40000D02*
X35099Y-40038D01*
X35827Y-39961D02*
X35276Y-40000D01*
X35099Y-40038D02*
X34449Y-40216D01*
X37569Y-39911D02*
X37323Y-40157D01*
X36063Y-40236D02*
X35846Y-40295D01*
X34935Y-40316D02*
X34724Y-40630D01*
X36692Y-40197D02*
X36063Y-40236D01*
X35669Y-40264D02*
X34935Y-40316D01*
X37205Y-40217D02*
X36692Y-40197D01*
X34724Y-40630D02*
X34606Y-40886D01*
X35846Y-40295D02*
X35669Y-40264D01*
X37323Y-40157D02*
X37205Y-40217D01*
X34606Y-40886D02*
X34391Y-45295D01*
X37756Y-40000D02*
X37569Y-39911D01*
X34862Y-41103D02*
X34705Y-44961D01*
X35531Y-40610D02*
X35039Y-40867D01*
X34744Y-45374D02*
X34412Y-45901D01*
X34705Y-44961D02*
X34744Y-45374D01*
X35039Y-40867D02*
X34862Y-41103D01*
X37441Y-40394D02*
X37283Y-40394D01*
X36988Y-40413D02*
X36161Y-40418D01*
X35728Y-40906D02*
X35610Y-41181D01*
X35610Y-41181D02*
X35079Y-41673D01*
X36161Y-40418D02*
X36024Y-40453D01*
X34980Y-45689D02*
X35000Y-43465D01*
X38061Y-40374D02*
X37687Y-40394D01*
X35079Y-41673D02*
X35000Y-43465D01*
X36024Y-40453D02*
X35728Y-40906D01*
X37687Y-40394D02*
X37441Y-40394D01*
X37283Y-40394D02*
X36988Y-40413D01*
X35197Y-46063D02*
X35011Y-46465D01*
X35315Y-45748D02*
X35197Y-46063D01*
X35610Y-41634D02*
X35610Y-43386D01*
X35315Y-43780D02*
X35315Y-45748D01*
X35610Y-43386D02*
X35315Y-43780D01*
X37284Y-40610D02*
X37707Y-40610D01*
X36161Y-40610D02*
X35945Y-40925D01*
X35526Y-46146D02*
X35531Y-44035D01*
X35945Y-43543D02*
X35531Y-44035D01*
X35945Y-40925D02*
X35945Y-43543D01*
X37284Y-40610D02*
X36161Y-40610D01*
X37707Y-40610D02*
X37933Y-40787D01*
X36201Y-41043D02*
X36201Y-43622D01*
X36319Y-40945D02*
X36201Y-41043D01*
X36201Y-43622D02*
X35728Y-44311D01*
X35906Y-46161D02*
X35666Y-46736D01*
X35728Y-44311D02*
X35728Y-45512D01*
X35728Y-45512D02*
X35906Y-46161D01*
X36516Y-42382D02*
X36516Y-43661D01*
X36516Y-41358D02*
X36516Y-42382D01*
X35945Y-44370D02*
X36516Y-43661D01*
X36722Y-41014D02*
X36516Y-41358D01*
X37648Y-41191D02*
X37490Y-41014D01*
X35945Y-44370D02*
X35945Y-45472D01*
X35945Y-45472D02*
X36181Y-46417D01*
X36181Y-46417D02*
X36181Y-46417D01*
X35945Y-44370D02*
X35945Y-44370D01*
X37490Y-41014D02*
X36722Y-41014D01*
G54D15*
X41260Y-35659D02*
X40453Y-36614D01*
X42211Y-35020D02*
X41531Y-35019D01*
X41531Y-35019D02*
X40246Y-33484D01*
X43051Y-35827D02*
X42211Y-35020D01*
X39960Y-32963D02*
X41113Y-32963D01*
X37225Y-34488D02*
X37570Y-34833D01*
X38406Y-43435D02*
X38406Y-43878D01*
X36909Y-34488D02*
X36929Y-35669D01*
X38543Y-34833D02*
X39616Y-33760D01*
X37570Y-34833D02*
X38543Y-34833D01*
X39616Y-33307D02*
X39960Y-32963D01*
X36909Y-34488D02*
X37225Y-34488D01*
X38386Y-42530D02*
X38022Y-43091D01*
X36929Y-35669D02*
X38386Y-36762D01*
X39616Y-33760D02*
X39616Y-33307D01*
X36417Y-44961D02*
X37244Y-44134D01*
X38022Y-43091D02*
X38406Y-43435D01*
X38386Y-36762D02*
X38386Y-42530D01*
X41113Y-32963D02*
X42559Y-34409D01*
X37244Y-44134D02*
X38406Y-43878D01*
X41535Y-43386D02*
X40226Y-45030D01*
X39370Y-32569D02*
X39547Y-32343D01*
X39370Y-33183D02*
X39370Y-32569D01*
X37985Y-34399D02*
X37638Y-34459D01*
X37985Y-34399D02*
X38326Y-34399D01*
X38326Y-34399D02*
X39370Y-33645D01*
X39370Y-33645D02*
X39370Y-33183D01*
G54D10*
G36*
X47533Y-38161D02*
X47453Y-38161D01*
X47393Y-38185D01*
X47357Y-38098D01*
X47235Y-37976D01*
X47075Y-37909D01*
X46902Y-37909D01*
X46742Y-37975D01*
X46620Y-38097D01*
X46553Y-38257D01*
X46553Y-38430D01*
X46619Y-38590D01*
X46741Y-38712D01*
X46809Y-38740D01*
X46758Y-38792D01*
X46691Y-38952D01*
X46691Y-39125D01*
X46757Y-39285D01*
X46879Y-39407D01*
X46926Y-39426D01*
X46860Y-39454D01*
X46738Y-39576D01*
X46671Y-39736D01*
X46671Y-39909D01*
X46737Y-40069D01*
X46845Y-40177D01*
X46738Y-40285D01*
X46671Y-40445D01*
X46671Y-40618D01*
X46737Y-40778D01*
X46763Y-40804D01*
X46645Y-40854D01*
X46523Y-40976D01*
X46456Y-41136D01*
X46456Y-41309D01*
X46522Y-41469D01*
X46573Y-41520D01*
X46506Y-41549D01*
X46384Y-41671D01*
X46317Y-41831D01*
X46317Y-42004D01*
X46362Y-42115D01*
X46342Y-42115D01*
X46182Y-42181D01*
X46060Y-42303D01*
X45993Y-42463D01*
X45993Y-42636D01*
X46051Y-42778D01*
X45911Y-42836D01*
X45789Y-42958D01*
X45722Y-43118D01*
X45722Y-43291D01*
X45762Y-43388D01*
X45667Y-43388D01*
X45507Y-43454D01*
X45385Y-43576D01*
X45318Y-43736D01*
X45318Y-43909D01*
X45346Y-43977D01*
X45273Y-43977D01*
X45133Y-44034D01*
X45133Y-39843D01*
X45123Y-39794D01*
X45119Y-39753D01*
X45113Y-39742D01*
X45111Y-39732D01*
X45083Y-39691D01*
X45063Y-39655D01*
X45048Y-39638D01*
X44812Y-39359D01*
X44802Y-39351D01*
X44796Y-39342D01*
X44758Y-39316D01*
X44723Y-39289D01*
X44712Y-39285D01*
X44702Y-39279D01*
X44655Y-39269D01*
X44614Y-39258D01*
X44602Y-39259D01*
X44591Y-39257D01*
X42756Y-39257D01*
X42744Y-39259D01*
X42734Y-39258D01*
X42690Y-39270D01*
X42645Y-39279D01*
X42636Y-39284D01*
X42625Y-39288D01*
X42508Y-39347D01*
X42443Y-39396D01*
X42421Y-39414D01*
X42419Y-39415D01*
X42419Y-39416D01*
X42418Y-39416D01*
X42192Y-39671D01*
X40732Y-39671D01*
X40693Y-39631D01*
X40550Y-39572D01*
X40395Y-39572D01*
X40252Y-39631D01*
X40142Y-39740D01*
X40083Y-39883D01*
X40083Y-40038D01*
X40142Y-40181D01*
X40186Y-40226D01*
X40162Y-40251D01*
X40103Y-40394D01*
X40103Y-40549D01*
X40162Y-40692D01*
X40197Y-40728D01*
X40182Y-40744D01*
X40123Y-40887D01*
X40123Y-41042D01*
X40182Y-41185D01*
X40291Y-41295D01*
X40349Y-41318D01*
X40300Y-41438D01*
X40300Y-41593D01*
X40359Y-41736D01*
X40468Y-41846D01*
X40611Y-41905D01*
X40766Y-41905D01*
X40909Y-41846D01*
X40949Y-41806D01*
X42105Y-41806D01*
X43017Y-42718D01*
X43017Y-44741D01*
X42767Y-44992D01*
X42704Y-45086D01*
X42682Y-45197D01*
X42682Y-45825D01*
X42630Y-45878D01*
X42567Y-45972D01*
X42545Y-46083D01*
X42545Y-46100D01*
X42453Y-46100D01*
X42337Y-46147D01*
X42337Y-43085D01*
X42337Y-42939D01*
X42281Y-42804D01*
X42178Y-42700D01*
X42042Y-42644D01*
X41896Y-42644D01*
X41761Y-42700D01*
X41657Y-42803D01*
X41601Y-42939D01*
X41601Y-42997D01*
X41458Y-42997D01*
X41315Y-43056D01*
X41205Y-43165D01*
X41146Y-43308D01*
X41146Y-43376D01*
X40136Y-44646D01*
X40013Y-44697D01*
X40013Y-43928D01*
X40013Y-43672D01*
X39915Y-43436D01*
X39735Y-43255D01*
X39499Y-43156D01*
X39243Y-43156D01*
X39007Y-43254D01*
X38826Y-43434D01*
X38727Y-43670D01*
X38727Y-43926D01*
X38825Y-44162D01*
X39005Y-44343D01*
X39241Y-44442D01*
X39497Y-44442D01*
X39733Y-44344D01*
X39914Y-44164D01*
X40013Y-43928D01*
X40013Y-44697D01*
X40006Y-44700D01*
X39896Y-44809D01*
X39837Y-44952D01*
X39837Y-45107D01*
X39896Y-45250D01*
X40005Y-45360D01*
X40148Y-45419D01*
X40303Y-45419D01*
X40446Y-45360D01*
X40556Y-45251D01*
X40615Y-45108D01*
X40615Y-45037D01*
X41622Y-43770D01*
X41755Y-43716D01*
X41865Y-43607D01*
X41924Y-43464D01*
X41924Y-43380D01*
X42042Y-43380D01*
X42177Y-43324D01*
X42281Y-43221D01*
X42337Y-43085D01*
X42337Y-46147D01*
X42293Y-46166D01*
X42171Y-46288D01*
X42111Y-46429D01*
X41971Y-46371D01*
X41798Y-46371D01*
X41638Y-46437D01*
X41516Y-46559D01*
X41461Y-46690D01*
X41411Y-46640D01*
X41251Y-46573D01*
X41078Y-46573D01*
X40918Y-46639D01*
X40796Y-46761D01*
X40767Y-46829D01*
X40716Y-46778D01*
X40556Y-46711D01*
X40383Y-46711D01*
X40223Y-46777D01*
X40101Y-46899D01*
X40034Y-47059D01*
X40034Y-47232D01*
X40058Y-47291D01*
X39971Y-47328D01*
X39849Y-47450D01*
X39785Y-47602D01*
X39785Y-47591D01*
X39719Y-47431D01*
X39597Y-47309D01*
X39437Y-47242D01*
X39304Y-47242D01*
X39333Y-47174D01*
X39333Y-47001D01*
X39267Y-46841D01*
X39145Y-46719D01*
X38985Y-46652D01*
X38812Y-46652D01*
X38652Y-46718D01*
X38543Y-46826D01*
X38436Y-46719D01*
X38276Y-46652D01*
X38103Y-46652D01*
X37943Y-46718D01*
X37926Y-46734D01*
X37889Y-46644D01*
X37767Y-46522D01*
X37607Y-46455D01*
X37434Y-46455D01*
X37274Y-46521D01*
X37222Y-46572D01*
X37194Y-46505D01*
X37072Y-46383D01*
X36912Y-46316D01*
X36739Y-46316D01*
X36616Y-46366D01*
X36616Y-46331D01*
X36550Y-46171D01*
X36428Y-46049D01*
X36382Y-46030D01*
X36235Y-45438D01*
X36235Y-44472D01*
X36721Y-43866D01*
X36741Y-43843D01*
X36757Y-43811D01*
X36784Y-43772D01*
X36787Y-43754D01*
X36794Y-43742D01*
X36796Y-43707D01*
X36806Y-43661D01*
X36806Y-42382D01*
X36806Y-41438D01*
X36886Y-41304D01*
X37273Y-41304D01*
X37318Y-41411D01*
X37427Y-41521D01*
X37570Y-41580D01*
X37725Y-41580D01*
X37868Y-41521D01*
X37978Y-41412D01*
X38037Y-41269D01*
X38037Y-41164D01*
X38153Y-41117D01*
X38263Y-41008D01*
X38322Y-40865D01*
X38322Y-40710D01*
X38308Y-40676D01*
X38391Y-40595D01*
X38450Y-40452D01*
X38450Y-40297D01*
X38391Y-40154D01*
X38282Y-40044D01*
X38145Y-39987D01*
X38145Y-39923D01*
X38086Y-39780D01*
X37977Y-39670D01*
X37834Y-39611D01*
X37679Y-39611D01*
X37627Y-39632D01*
X37584Y-39621D01*
X37572Y-39622D01*
X37568Y-39622D01*
X37537Y-39628D01*
X37472Y-39638D01*
X37464Y-39642D01*
X37457Y-39644D01*
X37422Y-39666D01*
X37375Y-39695D01*
X37369Y-39702D01*
X37363Y-39707D01*
X37150Y-39919D01*
X37141Y-39924D01*
X36703Y-39907D01*
X36686Y-39909D01*
X36674Y-39908D01*
X36216Y-39936D01*
X36216Y-39884D01*
X36157Y-39741D01*
X36048Y-39631D01*
X35905Y-39572D01*
X35750Y-39572D01*
X35607Y-39631D01*
X35547Y-39690D01*
X35256Y-39711D01*
X35234Y-39716D01*
X35215Y-39717D01*
X35038Y-39754D01*
X35027Y-39758D01*
X35022Y-39759D01*
X34372Y-39936D01*
X34364Y-39939D01*
X34364Y-39940D01*
X34363Y-39940D01*
X34271Y-39987D01*
X34197Y-40072D01*
X34161Y-40180D01*
X34162Y-40199D01*
X33834Y-44098D01*
X33788Y-44052D01*
X33628Y-43985D01*
X33474Y-43985D01*
X33474Y-43832D01*
X33408Y-43672D01*
X33286Y-43550D01*
X33135Y-43487D01*
X33166Y-43415D01*
X33166Y-43242D01*
X33100Y-43082D01*
X32978Y-42960D01*
X32818Y-42893D01*
X32744Y-42893D01*
X32773Y-42826D01*
X32773Y-42653D01*
X32707Y-42493D01*
X32585Y-42371D01*
X32439Y-42310D01*
X32449Y-42301D01*
X32516Y-42141D01*
X32516Y-41968D01*
X32450Y-41808D01*
X32328Y-41686D01*
X32186Y-41626D01*
X32245Y-41486D01*
X32245Y-41313D01*
X32179Y-41153D01*
X32057Y-41031D01*
X32007Y-41010D01*
X32100Y-40918D01*
X32167Y-40758D01*
X32167Y-40585D01*
X32101Y-40425D01*
X31979Y-40303D01*
X31910Y-40274D01*
X31962Y-40223D01*
X32029Y-40063D01*
X32029Y-39890D01*
X31963Y-39730D01*
X31841Y-39608D01*
X31681Y-39541D01*
X31508Y-39541D01*
X31448Y-39565D01*
X31412Y-39478D01*
X31290Y-39356D01*
X31130Y-39289D01*
X30998Y-39289D01*
X31003Y-39173D01*
X31104Y-38662D01*
X31153Y-38683D01*
X31297Y-38683D01*
X31297Y-38688D01*
X31363Y-38848D01*
X31485Y-38970D01*
X31645Y-39037D01*
X31818Y-39037D01*
X31978Y-38971D01*
X32100Y-38849D01*
X32167Y-38689D01*
X32167Y-38516D01*
X32101Y-38356D01*
X31992Y-38247D01*
X32100Y-38140D01*
X32167Y-37980D01*
X32167Y-37807D01*
X32116Y-37685D01*
X32252Y-37630D01*
X32374Y-37508D01*
X32441Y-37348D01*
X32441Y-37175D01*
X32375Y-37015D01*
X32323Y-36963D01*
X32391Y-36935D01*
X32513Y-36813D01*
X32580Y-36653D01*
X32580Y-36480D01*
X32534Y-36369D01*
X32536Y-36369D01*
X32696Y-36303D01*
X32818Y-36181D01*
X32885Y-36021D01*
X32885Y-35848D01*
X32826Y-35705D01*
X32967Y-35648D01*
X33089Y-35526D01*
X33156Y-35366D01*
X33156Y-35193D01*
X33148Y-35175D01*
X33250Y-35175D01*
X33410Y-35109D01*
X33532Y-34987D01*
X33599Y-34827D01*
X33599Y-34654D01*
X33570Y-34586D01*
X33644Y-34586D01*
X33686Y-34568D01*
X33686Y-35157D01*
X33686Y-38234D01*
X33686Y-38247D01*
X33697Y-38302D01*
X33704Y-38346D01*
X33706Y-38350D01*
X33708Y-38358D01*
X33737Y-38401D01*
X33762Y-38443D01*
X33767Y-38447D01*
X33771Y-38452D01*
X33806Y-38476D01*
X33853Y-38510D01*
X33865Y-38515D01*
X35308Y-39188D01*
X35309Y-39189D01*
X35310Y-39189D01*
X35331Y-39199D01*
X35359Y-39206D01*
X35416Y-39225D01*
X35573Y-39245D01*
X35616Y-39241D01*
X35649Y-39244D01*
X35921Y-39207D01*
X36755Y-39208D01*
X36977Y-39324D01*
X36978Y-39324D01*
X36982Y-39327D01*
X37032Y-39340D01*
X37085Y-39356D01*
X37089Y-39355D01*
X37091Y-39356D01*
X37398Y-39376D01*
X37456Y-39434D01*
X37599Y-39493D01*
X37754Y-39493D01*
X37897Y-39434D01*
X38007Y-39325D01*
X38066Y-39182D01*
X38066Y-39119D01*
X38114Y-39100D01*
X38224Y-38991D01*
X38283Y-38848D01*
X38283Y-38693D01*
X38243Y-38596D01*
X38253Y-38587D01*
X38312Y-38444D01*
X38312Y-38289D01*
X38253Y-38146D01*
X38151Y-38043D01*
X38165Y-38011D01*
X38165Y-37856D01*
X38106Y-37713D01*
X37997Y-37603D01*
X37948Y-37582D01*
X37948Y-37541D01*
X37889Y-37398D01*
X37780Y-37288D01*
X37637Y-37229D01*
X37482Y-37229D01*
X37390Y-37266D01*
X37237Y-37222D01*
X37199Y-37218D01*
X37156Y-37210D01*
X35976Y-37210D01*
X36019Y-37106D01*
X36019Y-36951D01*
X35983Y-36864D01*
X36048Y-36651D01*
X36256Y-36376D01*
X36271Y-36343D01*
X36293Y-36311D01*
X36297Y-36290D01*
X36305Y-36274D01*
X36306Y-36241D01*
X36315Y-36200D01*
X36305Y-33389D01*
X36310Y-33391D01*
X36465Y-33391D01*
X36608Y-33332D01*
X36644Y-33295D01*
X38169Y-33203D01*
X38234Y-33185D01*
X38268Y-33179D01*
X38274Y-33174D01*
X38285Y-33172D01*
X38333Y-33135D01*
X38368Y-33112D01*
X38381Y-33099D01*
X38671Y-32809D01*
X38803Y-32809D01*
X38824Y-32830D01*
X38967Y-32889D01*
X39061Y-32889D01*
X39061Y-33164D01*
X38966Y-33125D01*
X38811Y-33125D01*
X38668Y-33184D01*
X38613Y-33238D01*
X37759Y-33352D01*
X37637Y-33302D01*
X37482Y-33302D01*
X37339Y-33361D01*
X37229Y-33470D01*
X37170Y-33613D01*
X37170Y-33768D01*
X37229Y-33911D01*
X37338Y-34021D01*
X37481Y-34080D01*
X37536Y-34080D01*
X37418Y-34129D01*
X37308Y-34238D01*
X37249Y-34381D01*
X37249Y-34536D01*
X37308Y-34679D01*
X37417Y-34789D01*
X37560Y-34848D01*
X37715Y-34848D01*
X37858Y-34789D01*
X37924Y-34723D01*
X38013Y-34708D01*
X38326Y-34708D01*
X38365Y-34700D01*
X38397Y-34699D01*
X38419Y-34688D01*
X38444Y-34684D01*
X38470Y-34666D01*
X38507Y-34650D01*
X39551Y-33897D01*
X39572Y-33873D01*
X39588Y-33863D01*
X39604Y-33837D01*
X39632Y-33808D01*
X39640Y-33784D01*
X39655Y-33763D01*
X39662Y-33725D01*
X39674Y-33695D01*
X39673Y-33673D01*
X39679Y-33645D01*
X39679Y-33183D01*
X39679Y-32709D01*
X39767Y-32673D01*
X39877Y-32564D01*
X39936Y-32421D01*
X39936Y-32266D01*
X39877Y-32123D01*
X39794Y-32039D01*
X39931Y-31983D01*
X40039Y-31874D01*
X40147Y-31982D01*
X40307Y-32049D01*
X40480Y-32049D01*
X40640Y-31983D01*
X40676Y-31946D01*
X40714Y-32037D01*
X40836Y-32159D01*
X40996Y-32226D01*
X41169Y-32226D01*
X41329Y-32160D01*
X41380Y-32108D01*
X41409Y-32176D01*
X41531Y-32298D01*
X41691Y-32365D01*
X41864Y-32365D01*
X42006Y-32306D01*
X42006Y-32310D01*
X42072Y-32470D01*
X42194Y-32592D01*
X42206Y-32597D01*
X42429Y-34002D01*
X42468Y-34108D01*
X42471Y-34111D01*
X43293Y-35420D01*
X43293Y-35518D01*
X43272Y-35497D01*
X43129Y-35438D01*
X43091Y-35438D01*
X42425Y-34797D01*
X42354Y-34752D01*
X42329Y-34735D01*
X42326Y-34734D01*
X42324Y-34733D01*
X42290Y-34727D01*
X42212Y-34711D01*
X41674Y-34710D01*
X40635Y-33467D01*
X40635Y-33407D01*
X40576Y-33264D01*
X40467Y-33154D01*
X40324Y-33095D01*
X40169Y-33095D01*
X40026Y-33154D01*
X39916Y-33263D01*
X39857Y-33406D01*
X39857Y-33561D01*
X39916Y-33704D01*
X40025Y-33814D01*
X40168Y-33873D01*
X41292Y-35217D01*
X41308Y-35229D01*
X41313Y-35237D01*
X41341Y-35256D01*
X41382Y-35288D01*
X41338Y-35270D01*
X41183Y-35270D01*
X41040Y-35329D01*
X40930Y-35438D01*
X40871Y-35581D01*
X40871Y-35641D01*
X40377Y-36225D01*
X40376Y-36225D01*
X40233Y-36284D01*
X40123Y-36393D01*
X40064Y-36536D01*
X40064Y-36691D01*
X40123Y-36834D01*
X40232Y-36944D01*
X40375Y-37003D01*
X40530Y-37003D01*
X40673Y-36944D01*
X40783Y-36835D01*
X40842Y-36692D01*
X40842Y-36632D01*
X41336Y-36048D01*
X41337Y-36048D01*
X41480Y-35989D01*
X41590Y-35880D01*
X41649Y-35737D01*
X41649Y-35582D01*
X41590Y-35439D01*
X41481Y-35329D01*
X41427Y-35307D01*
X41460Y-35313D01*
X41502Y-35326D01*
X41513Y-35324D01*
X41530Y-35328D01*
X41601Y-35328D01*
X41601Y-35407D01*
X41657Y-35542D01*
X41760Y-35646D01*
X41896Y-35702D01*
X42042Y-35702D01*
X42177Y-35646D01*
X42281Y-35543D01*
X42288Y-35524D01*
X42662Y-35883D01*
X42662Y-35904D01*
X42721Y-36047D01*
X42830Y-36157D01*
X42854Y-36167D01*
X42461Y-36167D01*
X42449Y-36169D01*
X42438Y-36168D01*
X42391Y-36180D01*
X42350Y-36189D01*
X42341Y-36194D01*
X42329Y-36198D01*
X41206Y-36767D01*
X41180Y-36757D01*
X41025Y-36757D01*
X40882Y-36816D01*
X40772Y-36925D01*
X40713Y-37068D01*
X40713Y-37151D01*
X40693Y-37131D01*
X40550Y-37072D01*
X40395Y-37072D01*
X40252Y-37131D01*
X40142Y-37240D01*
X40083Y-37383D01*
X40083Y-37538D01*
X40127Y-37646D01*
X40013Y-37694D01*
X40013Y-35070D01*
X40013Y-34814D01*
X39915Y-34578D01*
X39735Y-34397D01*
X39499Y-34298D01*
X39243Y-34298D01*
X39007Y-34396D01*
X38826Y-34576D01*
X38727Y-34812D01*
X38727Y-35068D01*
X38825Y-35304D01*
X39005Y-35485D01*
X39241Y-35584D01*
X39497Y-35584D01*
X39733Y-35486D01*
X39914Y-35306D01*
X40013Y-35070D01*
X40013Y-37694D01*
X39997Y-37701D01*
X39887Y-37810D01*
X39828Y-37953D01*
X39828Y-38108D01*
X39887Y-38251D01*
X39996Y-38361D01*
X40054Y-38385D01*
X40034Y-38436D01*
X40034Y-38591D01*
X40039Y-38605D01*
X39987Y-38627D01*
X39877Y-38736D01*
X39818Y-38879D01*
X39818Y-39034D01*
X39877Y-39177D01*
X39986Y-39287D01*
X40129Y-39346D01*
X40284Y-39346D01*
X40427Y-39287D01*
X40503Y-39211D01*
X40775Y-39176D01*
X40786Y-39172D01*
X40796Y-39172D01*
X40820Y-39161D01*
X40849Y-39156D01*
X40863Y-39146D01*
X40882Y-39140D01*
X40890Y-39132D01*
X40901Y-39128D01*
X41190Y-38932D01*
X42579Y-38932D01*
X42607Y-38926D01*
X42637Y-38926D01*
X42661Y-38915D01*
X42690Y-38910D01*
X42714Y-38893D01*
X42742Y-38882D01*
X43422Y-38421D01*
X43516Y-38400D01*
X43858Y-38400D01*
X43870Y-38397D01*
X43883Y-38399D01*
X44002Y-38388D01*
X44021Y-38387D01*
X44059Y-38375D01*
X44113Y-38364D01*
X44123Y-38356D01*
X44129Y-38355D01*
X44154Y-38334D01*
X44205Y-38299D01*
X44218Y-38284D01*
X45264Y-37195D01*
X45268Y-37191D01*
X45292Y-37153D01*
X45327Y-37101D01*
X45327Y-37096D01*
X45329Y-37095D01*
X45334Y-37065D01*
X45349Y-36990D01*
X45349Y-35066D01*
X45395Y-35112D01*
X45555Y-35179D01*
X45607Y-35179D01*
X45554Y-35306D01*
X45554Y-35479D01*
X45620Y-35639D01*
X45742Y-35761D01*
X45902Y-35828D01*
X45975Y-35828D01*
X45947Y-35895D01*
X45947Y-36068D01*
X46013Y-36228D01*
X46135Y-36350D01*
X46295Y-36417D01*
X46416Y-36417D01*
X46373Y-36435D01*
X46251Y-36557D01*
X46184Y-36717D01*
X46184Y-36890D01*
X46250Y-37050D01*
X46372Y-37172D01*
X46513Y-37231D01*
X46455Y-37372D01*
X46455Y-37545D01*
X46521Y-37705D01*
X46643Y-37827D01*
X46803Y-37894D01*
X46976Y-37894D01*
X47108Y-37839D01*
X47111Y-37844D01*
X47233Y-37966D01*
X47393Y-38033D01*
X47507Y-38033D01*
X47533Y-38161D01*
X47533Y-38161D01*
G37*
G54D16*
X47533Y-38161D02*
X47453Y-38161D01*
X47393Y-38185D01*
X47357Y-38098D01*
X47235Y-37976D01*
X47075Y-37909D01*
X46902Y-37909D01*
X46742Y-37975D01*
X46620Y-38097D01*
X46553Y-38257D01*
X46553Y-38430D01*
X46619Y-38590D01*
X46741Y-38712D01*
X46809Y-38740D01*
X46758Y-38792D01*
X46691Y-38952D01*
X46691Y-39125D01*
X46757Y-39285D01*
X46879Y-39407D01*
X46926Y-39426D01*
X46860Y-39454D01*
X46738Y-39576D01*
X46671Y-39736D01*
X46671Y-39909D01*
X46737Y-40069D01*
X46845Y-40177D01*
X46738Y-40285D01*
X46671Y-40445D01*
X46671Y-40618D01*
X46737Y-40778D01*
X46763Y-40804D01*
X46645Y-40854D01*
X46523Y-40976D01*
X46456Y-41136D01*
X46456Y-41309D01*
X46522Y-41469D01*
X46573Y-41520D01*
X46506Y-41549D01*
X46384Y-41671D01*
X46317Y-41831D01*
X46317Y-42004D01*
X46362Y-42115D01*
X46342Y-42115D01*
X46182Y-42181D01*
X46060Y-42303D01*
X45993Y-42463D01*
X45993Y-42636D01*
X46051Y-42778D01*
X45911Y-42836D01*
X45789Y-42958D01*
X45722Y-43118D01*
X45722Y-43291D01*
X45762Y-43388D01*
X45667Y-43388D01*
X45507Y-43454D01*
X45385Y-43576D01*
X45318Y-43736D01*
X45318Y-43909D01*
X45346Y-43977D01*
X45273Y-43977D01*
X45133Y-44034D01*
X45133Y-39843D01*
X45123Y-39794D01*
X45119Y-39753D01*
X45113Y-39742D01*
X45111Y-39732D01*
X45083Y-39691D01*
X45063Y-39655D01*
X45048Y-39638D01*
X44812Y-39359D01*
X44802Y-39351D01*
X44796Y-39342D01*
X44758Y-39316D01*
X44723Y-39289D01*
X44712Y-39285D01*
X44702Y-39279D01*
X44655Y-39269D01*
X44614Y-39258D01*
X44602Y-39259D01*
X44591Y-39257D01*
X42756Y-39257D01*
X42744Y-39259D01*
X42734Y-39258D01*
X42690Y-39270D01*
X42645Y-39279D01*
X42636Y-39284D01*
X42625Y-39288D01*
X42508Y-39347D01*
X42443Y-39396D01*
X42421Y-39414D01*
X42419Y-39415D01*
X42419Y-39416D01*
X42418Y-39416D01*
X42192Y-39671D01*
X40732Y-39671D01*
X40693Y-39631D01*
X40550Y-39572D01*
X40395Y-39572D01*
X40252Y-39631D01*
X40142Y-39740D01*
X40083Y-39883D01*
X40083Y-40038D01*
X40142Y-40181D01*
X40186Y-40226D01*
X40162Y-40251D01*
X40103Y-40394D01*
X40103Y-40549D01*
X40162Y-40692D01*
X40197Y-40728D01*
X40182Y-40744D01*
X40123Y-40887D01*
X40123Y-41042D01*
X40182Y-41185D01*
X40291Y-41295D01*
X40349Y-41318D01*
X40300Y-41438D01*
X40300Y-41593D01*
X40359Y-41736D01*
X40468Y-41846D01*
X40611Y-41905D01*
X40766Y-41905D01*
X40909Y-41846D01*
X40949Y-41806D01*
X42105Y-41806D01*
X43017Y-42718D01*
X43017Y-44741D01*
X42767Y-44992D01*
X42704Y-45086D01*
X42682Y-45197D01*
X42682Y-45825D01*
X42630Y-45878D01*
X42567Y-45972D01*
X42545Y-46083D01*
X42545Y-46100D01*
X42453Y-46100D01*
X42337Y-46147D01*
X42337Y-43085D01*
X42337Y-42939D01*
X42281Y-42804D01*
X42178Y-42700D01*
X42042Y-42644D01*
X41896Y-42644D01*
X41761Y-42700D01*
X41657Y-42803D01*
X41601Y-42939D01*
X41601Y-42997D01*
X41458Y-42997D01*
X41315Y-43056D01*
X41205Y-43165D01*
X41146Y-43308D01*
X41146Y-43376D01*
X40136Y-44646D01*
X40013Y-44697D01*
X40013Y-43928D01*
X40013Y-43672D01*
X39915Y-43436D01*
X39735Y-43255D01*
X39499Y-43156D01*
X39243Y-43156D01*
X39007Y-43254D01*
X38826Y-43434D01*
X38727Y-43670D01*
X38727Y-43926D01*
X38825Y-44162D01*
X39005Y-44343D01*
X39241Y-44442D01*
X39497Y-44442D01*
X39733Y-44344D01*
X39914Y-44164D01*
X40013Y-43928D01*
X40013Y-44697D01*
X40006Y-44700D01*
X39896Y-44809D01*
X39837Y-44952D01*
X39837Y-45107D01*
X39896Y-45250D01*
X40005Y-45360D01*
X40148Y-45419D01*
X40303Y-45419D01*
X40446Y-45360D01*
X40556Y-45251D01*
X40615Y-45108D01*
X40615Y-45037D01*
X41622Y-43770D01*
X41755Y-43716D01*
X41865Y-43607D01*
X41924Y-43464D01*
X41924Y-43380D01*
X42042Y-43380D01*
X42177Y-43324D01*
X42281Y-43221D01*
X42337Y-43085D01*
X42337Y-46147D01*
X42293Y-46166D01*
X42171Y-46288D01*
X42111Y-46429D01*
X41971Y-46371D01*
X41798Y-46371D01*
X41638Y-46437D01*
X41516Y-46559D01*
X41461Y-46690D01*
X41411Y-46640D01*
X41251Y-46573D01*
X41078Y-46573D01*
X40918Y-46639D01*
X40796Y-46761D01*
X40767Y-46829D01*
X40716Y-46778D01*
X40556Y-46711D01*
X40383Y-46711D01*
X40223Y-46777D01*
X40101Y-46899D01*
X40034Y-47059D01*
X40034Y-47232D01*
X40058Y-47291D01*
X39971Y-47328D01*
X39849Y-47450D01*
X39785Y-47602D01*
X39785Y-47591D01*
X39719Y-47431D01*
X39597Y-47309D01*
X39437Y-47242D01*
X39304Y-47242D01*
X39333Y-47174D01*
X39333Y-47001D01*
X39267Y-46841D01*
X39145Y-46719D01*
X38985Y-46652D01*
X38812Y-46652D01*
X38652Y-46718D01*
X38543Y-46826D01*
X38436Y-46719D01*
X38276Y-46652D01*
X38103Y-46652D01*
X37943Y-46718D01*
X37926Y-46734D01*
X37889Y-46644D01*
X37767Y-46522D01*
X37607Y-46455D01*
X37434Y-46455D01*
X37274Y-46521D01*
X37222Y-46572D01*
X37194Y-46505D01*
X37072Y-46383D01*
X36912Y-46316D01*
X36739Y-46316D01*
X36616Y-46366D01*
X36616Y-46331D01*
X36550Y-46171D01*
X36428Y-46049D01*
X36382Y-46030D01*
X36235Y-45438D01*
X36235Y-44472D01*
X36721Y-43866D01*
X36741Y-43843D01*
X36757Y-43811D01*
X36784Y-43772D01*
X36787Y-43754D01*
X36794Y-43742D01*
X36796Y-43707D01*
X36806Y-43661D01*
X36806Y-42382D01*
X36806Y-41438D01*
X36886Y-41304D01*
X37273Y-41304D01*
X37318Y-41411D01*
X37427Y-41521D01*
X37570Y-41580D01*
X37725Y-41580D01*
X37868Y-41521D01*
X37978Y-41412D01*
X38037Y-41269D01*
X38037Y-41164D01*
X38153Y-41117D01*
X38263Y-41008D01*
X38322Y-40865D01*
X38322Y-40710D01*
X38308Y-40676D01*
X38391Y-40595D01*
X38450Y-40452D01*
X38450Y-40297D01*
X38391Y-40154D01*
X38282Y-40044D01*
X38145Y-39987D01*
X38145Y-39923D01*
X38086Y-39780D01*
X37977Y-39670D01*
X37834Y-39611D01*
X37679Y-39611D01*
X37627Y-39632D01*
X37584Y-39621D01*
X37572Y-39622D01*
X37568Y-39622D01*
X37537Y-39628D01*
X37472Y-39638D01*
X37464Y-39642D01*
X37457Y-39644D01*
X37422Y-39666D01*
X37375Y-39695D01*
X37369Y-39702D01*
X37363Y-39707D01*
X37150Y-39919D01*
X37141Y-39924D01*
X36703Y-39907D01*
X36686Y-39909D01*
X36674Y-39908D01*
X36216Y-39936D01*
X36216Y-39884D01*
X36157Y-39741D01*
X36048Y-39631D01*
X35905Y-39572D01*
X35750Y-39572D01*
X35607Y-39631D01*
X35547Y-39690D01*
X35256Y-39711D01*
X35234Y-39716D01*
X35215Y-39717D01*
X35038Y-39754D01*
X35027Y-39758D01*
X35022Y-39759D01*
X34372Y-39936D01*
X34364Y-39939D01*
X34364Y-39940D01*
X34363Y-39940D01*
X34271Y-39987D01*
X34197Y-40072D01*
X34161Y-40180D01*
X34162Y-40199D01*
X33834Y-44098D01*
X33788Y-44052D01*
X33628Y-43985D01*
X33474Y-43985D01*
X33474Y-43832D01*
X33408Y-43672D01*
X33286Y-43550D01*
X33135Y-43487D01*
X33166Y-43415D01*
X33166Y-43242D01*
X33100Y-43082D01*
X32978Y-42960D01*
X32818Y-42893D01*
X32744Y-42893D01*
X32773Y-42826D01*
X32773Y-42653D01*
X32707Y-42493D01*
X32585Y-42371D01*
X32439Y-42310D01*
X32449Y-42301D01*
X32516Y-42141D01*
X32516Y-41968D01*
X32450Y-41808D01*
X32328Y-41686D01*
X32186Y-41626D01*
X32245Y-41486D01*
X32245Y-41313D01*
X32179Y-41153D01*
X32057Y-41031D01*
X32007Y-41010D01*
X32100Y-40918D01*
X32167Y-40758D01*
X32167Y-40585D01*
X32101Y-40425D01*
X31979Y-40303D01*
X31910Y-40274D01*
X31962Y-40223D01*
X32029Y-40063D01*
X32029Y-39890D01*
X31963Y-39730D01*
X31841Y-39608D01*
X31681Y-39541D01*
X31508Y-39541D01*
X31448Y-39565D01*
X31412Y-39478D01*
X31290Y-39356D01*
X31130Y-39289D01*
X30998Y-39289D01*
X31003Y-39173D01*
X31104Y-38662D01*
X31153Y-38683D01*
X31297Y-38683D01*
X31297Y-38688D01*
X31363Y-38848D01*
X31485Y-38970D01*
X31645Y-39037D01*
X31818Y-39037D01*
X31978Y-38971D01*
X32100Y-38849D01*
X32167Y-38689D01*
X32167Y-38516D01*
X32101Y-38356D01*
X31992Y-38247D01*
X32100Y-38140D01*
X32167Y-37980D01*
X32167Y-37807D01*
X32116Y-37685D01*
X32252Y-37630D01*
X32374Y-37508D01*
X32441Y-37348D01*
X32441Y-37175D01*
X32375Y-37015D01*
X32323Y-36963D01*
X32391Y-36935D01*
X32513Y-36813D01*
X32580Y-36653D01*
X32580Y-36480D01*
X32534Y-36369D01*
X32536Y-36369D01*
X32696Y-36303D01*
X32818Y-36181D01*
X32885Y-36021D01*
X32885Y-35848D01*
X32826Y-35705D01*
X32967Y-35648D01*
X33089Y-35526D01*
X33156Y-35366D01*
X33156Y-35193D01*
X33148Y-35175D01*
X33250Y-35175D01*
X33410Y-35109D01*
X33532Y-34987D01*
X33599Y-34827D01*
X33599Y-34654D01*
X33570Y-34586D01*
X33644Y-34586D01*
X33686Y-34568D01*
X33686Y-35157D01*
X33686Y-38234D01*
X33686Y-38247D01*
X33697Y-38302D01*
X33704Y-38346D01*
X33706Y-38350D01*
X33708Y-38358D01*
X33737Y-38401D01*
X33762Y-38443D01*
X33767Y-38447D01*
X33771Y-38452D01*
X33806Y-38476D01*
X33853Y-38510D01*
X33865Y-38515D01*
X35308Y-39188D01*
X35309Y-39189D01*
X35310Y-39189D01*
X35331Y-39199D01*
X35359Y-39206D01*
X35416Y-39225D01*
X35573Y-39245D01*
X35616Y-39241D01*
X35649Y-39244D01*
X35921Y-39207D01*
X36755Y-39208D01*
X36977Y-39324D01*
X36978Y-39324D01*
X36982Y-39327D01*
X37032Y-39340D01*
X37085Y-39356D01*
X37089Y-39355D01*
X37091Y-39356D01*
X37398Y-39376D01*
X37456Y-39434D01*
X37599Y-39493D01*
X37754Y-39493D01*
X37897Y-39434D01*
X38007Y-39325D01*
X38066Y-39182D01*
X38066Y-39119D01*
X38114Y-39100D01*
X38224Y-38991D01*
X38283Y-38848D01*
X38283Y-38693D01*
X38243Y-38596D01*
X38253Y-38587D01*
X38312Y-38444D01*
X38312Y-38289D01*
X38253Y-38146D01*
X38151Y-38043D01*
X38165Y-38011D01*
X38165Y-37856D01*
X38106Y-37713D01*
X37997Y-37603D01*
X37948Y-37582D01*
X37948Y-37541D01*
X37889Y-37398D01*
X37780Y-37288D01*
X37637Y-37229D01*
X37482Y-37229D01*
X37390Y-37266D01*
X37237Y-37222D01*
X37199Y-37218D01*
X37156Y-37210D01*
X35976Y-37210D01*
X36019Y-37106D01*
X36019Y-36951D01*
X35983Y-36864D01*
X36048Y-36651D01*
X36256Y-36376D01*
X36271Y-36343D01*
X36293Y-36311D01*
X36297Y-36290D01*
X36305Y-36274D01*
X36306Y-36241D01*
X36315Y-36200D01*
X36305Y-33389D01*
X36310Y-33391D01*
X36465Y-33391D01*
X36608Y-33332D01*
X36644Y-33295D01*
X38169Y-33203D01*
X38234Y-33185D01*
X38268Y-33179D01*
X38274Y-33174D01*
X38285Y-33172D01*
X38333Y-33135D01*
X38368Y-33112D01*
X38381Y-33099D01*
X38671Y-32809D01*
X38803Y-32809D01*
X38824Y-32830D01*
X38967Y-32889D01*
X39061Y-32889D01*
X39061Y-33164D01*
X38966Y-33125D01*
X38811Y-33125D01*
X38668Y-33184D01*
X38613Y-33238D01*
X37759Y-33352D01*
X37637Y-33302D01*
X37482Y-33302D01*
X37339Y-33361D01*
X37229Y-33470D01*
X37170Y-33613D01*
X37170Y-33768D01*
X37229Y-33911D01*
X37338Y-34021D01*
X37481Y-34080D01*
X37536Y-34080D01*
X37418Y-34129D01*
X37308Y-34238D01*
X37249Y-34381D01*
X37249Y-34536D01*
X37308Y-34679D01*
X37417Y-34789D01*
X37560Y-34848D01*
X37715Y-34848D01*
X37858Y-34789D01*
X37924Y-34723D01*
X38013Y-34708D01*
X38326Y-34708D01*
X38365Y-34700D01*
X38397Y-34699D01*
X38419Y-34688D01*
X38444Y-34684D01*
X38470Y-34666D01*
X38507Y-34650D01*
X39551Y-33897D01*
X39572Y-33873D01*
X39588Y-33863D01*
X39604Y-33837D01*
X39632Y-33808D01*
X39640Y-33784D01*
X39655Y-33763D01*
X39662Y-33725D01*
X39674Y-33695D01*
X39673Y-33673D01*
X39679Y-33645D01*
X39679Y-33183D01*
X39679Y-32709D01*
X39767Y-32673D01*
X39877Y-32564D01*
X39936Y-32421D01*
X39936Y-32266D01*
X39877Y-32123D01*
X39794Y-32039D01*
X39931Y-31983D01*
X40039Y-31874D01*
X40147Y-31982D01*
X40307Y-32049D01*
X40480Y-32049D01*
X40640Y-31983D01*
X40676Y-31946D01*
X40714Y-32037D01*
X40836Y-32159D01*
X40996Y-32226D01*
X41169Y-32226D01*
X41329Y-32160D01*
X41380Y-32108D01*
X41409Y-32176D01*
X41531Y-32298D01*
X41691Y-32365D01*
X41864Y-32365D01*
X42006Y-32306D01*
X42006Y-32310D01*
X42072Y-32470D01*
X42194Y-32592D01*
X42206Y-32597D01*
X42429Y-34002D01*
X42468Y-34108D01*
X42471Y-34111D01*
X43293Y-35420D01*
X43293Y-35518D01*
X43272Y-35497D01*
X43129Y-35438D01*
X43091Y-35438D01*
X42425Y-34797D01*
X42354Y-34752D01*
X42329Y-34735D01*
X42326Y-34734D01*
X42324Y-34733D01*
X42290Y-34727D01*
X42212Y-34711D01*
X41674Y-34710D01*
X40635Y-33467D01*
X40635Y-33407D01*
X40576Y-33264D01*
X40467Y-33154D01*
X40324Y-33095D01*
X40169Y-33095D01*
X40026Y-33154D01*
X39916Y-33263D01*
X39857Y-33406D01*
X39857Y-33561D01*
X39916Y-33704D01*
X40025Y-33814D01*
X40168Y-33873D01*
X41292Y-35217D01*
X41308Y-35229D01*
X41313Y-35237D01*
X41341Y-35256D01*
X41382Y-35288D01*
X41338Y-35270D01*
X41183Y-35270D01*
X41040Y-35329D01*
X40930Y-35438D01*
X40871Y-35581D01*
X40871Y-35641D01*
X40377Y-36225D01*
X40376Y-36225D01*
X40233Y-36284D01*
X40123Y-36393D01*
X40064Y-36536D01*
X40064Y-36691D01*
X40123Y-36834D01*
X40232Y-36944D01*
X40375Y-37003D01*
X40530Y-37003D01*
X40673Y-36944D01*
X40783Y-36835D01*
X40842Y-36692D01*
X40842Y-36632D01*
X41336Y-36048D01*
X41337Y-36048D01*
X41480Y-35989D01*
X41590Y-35880D01*
X41649Y-35737D01*
X41649Y-35582D01*
X41590Y-35439D01*
X41481Y-35329D01*
X41427Y-35307D01*
X41460Y-35313D01*
X41502Y-35326D01*
X41513Y-35324D01*
X41530Y-35328D01*
X41601Y-35328D01*
X41601Y-35407D01*
X41657Y-35542D01*
X41760Y-35646D01*
X41896Y-35702D01*
X42042Y-35702D01*
X42177Y-35646D01*
X42281Y-35543D01*
X42288Y-35524D01*
X42662Y-35883D01*
X42662Y-35904D01*
X42721Y-36047D01*
X42830Y-36157D01*
X42854Y-36167D01*
X42461Y-36167D01*
X42449Y-36169D01*
X42438Y-36168D01*
X42391Y-36180D01*
X42350Y-36189D01*
X42341Y-36194D01*
X42329Y-36198D01*
X41206Y-36767D01*
X41180Y-36757D01*
X41025Y-36757D01*
X40882Y-36816D01*
X40772Y-36925D01*
X40713Y-37068D01*
X40713Y-37151D01*
X40693Y-37131D01*
X40550Y-37072D01*
X40395Y-37072D01*
X40252Y-37131D01*
X40142Y-37240D01*
X40083Y-37383D01*
X40083Y-37538D01*
X40127Y-37646D01*
X40013Y-37694D01*
X40013Y-35070D01*
X40013Y-34814D01*
X39915Y-34578D01*
X39735Y-34397D01*
X39499Y-34298D01*
X39243Y-34298D01*
X39007Y-34396D01*
X38826Y-34576D01*
X38727Y-34812D01*
X38727Y-35068D01*
X38825Y-35304D01*
X39005Y-35485D01*
X39241Y-35584D01*
X39497Y-35584D01*
X39733Y-35486D01*
X39914Y-35306D01*
X40013Y-35070D01*
X40013Y-37694D01*
X39997Y-37701D01*
X39887Y-37810D01*
X39828Y-37953D01*
X39828Y-38108D01*
X39887Y-38251D01*
X39996Y-38361D01*
X40054Y-38385D01*
X40034Y-38436D01*
X40034Y-38591D01*
X40039Y-38605D01*
X39987Y-38627D01*
X39877Y-38736D01*
X39818Y-38879D01*
X39818Y-39034D01*
X39877Y-39177D01*
X39986Y-39287D01*
X40129Y-39346D01*
X40284Y-39346D01*
X40427Y-39287D01*
X40503Y-39211D01*
X40775Y-39176D01*
X40786Y-39172D01*
X40796Y-39172D01*
X40820Y-39161D01*
X40849Y-39156D01*
X40863Y-39146D01*
X40882Y-39140D01*
X40890Y-39132D01*
X40901Y-39128D01*
X41190Y-38932D01*
X42579Y-38932D01*
X42607Y-38926D01*
X42637Y-38926D01*
X42661Y-38915D01*
X42690Y-38910D01*
X42714Y-38893D01*
X42742Y-38882D01*
X43422Y-38421D01*
X43516Y-38400D01*
X43858Y-38400D01*
X43870Y-38397D01*
X43883Y-38399D01*
X44002Y-38388D01*
X44021Y-38387D01*
X44059Y-38375D01*
X44113Y-38364D01*
X44123Y-38356D01*
X44129Y-38355D01*
X44154Y-38334D01*
X44205Y-38299D01*
X44218Y-38284D01*
X45264Y-37195D01*
X45268Y-37191D01*
X45292Y-37153D01*
X45327Y-37101D01*
X45327Y-37096D01*
X45329Y-37095D01*
X45334Y-37065D01*
X45349Y-36990D01*
X45349Y-35066D01*
X45395Y-35112D01*
X45555Y-35179D01*
X45607Y-35179D01*
X45554Y-35306D01*
X45554Y-35479D01*
X45620Y-35639D01*
X45742Y-35761D01*
X45902Y-35828D01*
X45975Y-35828D01*
X45947Y-35895D01*
X45947Y-36068D01*
X46013Y-36228D01*
X46135Y-36350D01*
X46295Y-36417D01*
X46416Y-36417D01*
X46373Y-36435D01*
X46251Y-36557D01*
X46184Y-36717D01*
X46184Y-36890D01*
X46250Y-37050D01*
X46372Y-37172D01*
X46513Y-37231D01*
X46455Y-37372D01*
X46455Y-37545D01*
X46521Y-37705D01*
X46643Y-37827D01*
X46803Y-37894D01*
X46976Y-37894D01*
X47108Y-37839D01*
X47111Y-37844D01*
X47233Y-37966D01*
X47393Y-38033D01*
X47507Y-38033D01*
X47533Y-38161D01*
M02*
