G04 (created by PCBNEW-RS274X (2012-apr-16-27)-stable) date Mon 14 Apr 2014 03:48:45 PM EDT*
G01*
G70*
G90*
%MOIN*%
G04 Gerber Fmt 3.4, Leading zero omitted, Abs format*
%FSLAX34Y34*%
G04 APERTURE LIST*
%ADD10C,0.006000*%
%ADD11C,0.000400*%
%ADD12R,0.025000X0.045000*%
%ADD13R,0.045000X0.025000*%
%ADD14R,0.045300X0.009800*%
G04 APERTURE END LIST*
G54D10*
G54D11*
X48032Y-39370D02*
X47867Y-41052D01*
X47378Y-42670D01*
X46584Y-44163D01*
X45516Y-45473D01*
X44213Y-46551D01*
X42726Y-47355D01*
X41111Y-47855D01*
X39430Y-48031D01*
X37747Y-47878D01*
X36126Y-47401D01*
X34628Y-46618D01*
X33310Y-45558D01*
X32223Y-44263D01*
X31409Y-42782D01*
X30898Y-41170D01*
X30709Y-39490D01*
X30851Y-37807D01*
X31317Y-36182D01*
X32090Y-34678D01*
X33140Y-33353D01*
X34427Y-32258D01*
X35903Y-31433D01*
X37510Y-30911D01*
X39189Y-30710D01*
X40874Y-30840D01*
X42502Y-31295D01*
X44011Y-32057D01*
X45343Y-33098D01*
X46448Y-34377D01*
X47283Y-35847D01*
X47816Y-37451D01*
X48028Y-39129D01*
X48032Y-39370D01*
G54D12*
X39060Y-33484D03*
X39660Y-33484D03*
X39060Y-32825D03*
X39660Y-32825D03*
X43942Y-34528D03*
X43342Y-34528D03*
X37643Y-35118D03*
X37043Y-35118D03*
X35517Y-44134D03*
X34917Y-44134D03*
G54D13*
X39508Y-46363D03*
X39508Y-45763D03*
G54D14*
X37028Y-42716D03*
X37028Y-42520D03*
X37028Y-42323D03*
X37028Y-42126D03*
X37028Y-41929D03*
X37028Y-41732D03*
X37028Y-41535D03*
X37028Y-41339D03*
X37028Y-41142D03*
X37028Y-40945D03*
X37028Y-40748D03*
X37028Y-40551D03*
X37028Y-40354D03*
X37028Y-40157D03*
X37028Y-39961D03*
X37028Y-39764D03*
X37028Y-39567D03*
X37028Y-39370D03*
X37028Y-39173D03*
X37028Y-38976D03*
X37028Y-38779D03*
X37028Y-38583D03*
X37028Y-38386D03*
X37028Y-38189D03*
X37028Y-37992D03*
X37028Y-37795D03*
X37028Y-37598D03*
X37028Y-37401D03*
X37028Y-37205D03*
X37028Y-37008D03*
X37028Y-36811D03*
X37028Y-36614D03*
X37028Y-36417D03*
X37028Y-36220D03*
X37028Y-36024D03*
X35020Y-36024D03*
X35020Y-36220D03*
X35020Y-36417D03*
X35020Y-36614D03*
X35020Y-36811D03*
X35020Y-37008D03*
X35020Y-37205D03*
X35020Y-37401D03*
X35020Y-37598D03*
X35020Y-37795D03*
X35020Y-37992D03*
X35020Y-38189D03*
X35020Y-38386D03*
X35020Y-38583D03*
X35020Y-38779D03*
X35020Y-38976D03*
X35020Y-39173D03*
X35020Y-39370D03*
X35020Y-39567D03*
X35020Y-39764D03*
X35020Y-39961D03*
X35020Y-40157D03*
X35020Y-40354D03*
X35020Y-40551D03*
X35020Y-40748D03*
X35020Y-40945D03*
X35020Y-41142D03*
X35020Y-41339D03*
X35020Y-41535D03*
X35020Y-41732D03*
X35020Y-41929D03*
X35020Y-42126D03*
X35020Y-42323D03*
X35020Y-42520D03*
X35020Y-42716D03*
X43721Y-42519D03*
X43721Y-42323D03*
X43721Y-42126D03*
X43721Y-41929D03*
X43721Y-41732D03*
X43721Y-41535D03*
X43721Y-41338D03*
X43721Y-41142D03*
X43721Y-40945D03*
X43721Y-40748D03*
X43721Y-40551D03*
X43721Y-40354D03*
X43721Y-40157D03*
X43721Y-39960D03*
X43721Y-39764D03*
X43721Y-39567D03*
X43721Y-39370D03*
X43721Y-39173D03*
X43721Y-38976D03*
X43721Y-38779D03*
X43721Y-38582D03*
X43721Y-38386D03*
X43721Y-38189D03*
X43721Y-37992D03*
X43721Y-37795D03*
X43721Y-37598D03*
X43721Y-37401D03*
X43721Y-37204D03*
X43721Y-37008D03*
X43721Y-36811D03*
X43721Y-36614D03*
X43721Y-36417D03*
X43721Y-36220D03*
X43721Y-36023D03*
X43721Y-35827D03*
X41713Y-35827D03*
X41713Y-36023D03*
X41713Y-36220D03*
X41713Y-36417D03*
X41713Y-36614D03*
X41713Y-36811D03*
X41713Y-37008D03*
X41713Y-37204D03*
X41713Y-37401D03*
X41713Y-37598D03*
X41713Y-37795D03*
X41713Y-37992D03*
X41713Y-38189D03*
X41713Y-38386D03*
X41713Y-38582D03*
X41713Y-38779D03*
X41713Y-38976D03*
X41713Y-39173D03*
X41713Y-39370D03*
X41713Y-39567D03*
X41713Y-39764D03*
X41713Y-39960D03*
X41713Y-40157D03*
X41713Y-40354D03*
X41713Y-40551D03*
X41713Y-40748D03*
X41713Y-40945D03*
X41713Y-41142D03*
X41713Y-41338D03*
X41713Y-41535D03*
X41713Y-41732D03*
X41713Y-41929D03*
X41713Y-42126D03*
X41713Y-42323D03*
X41713Y-42519D03*
M02*
